<svg width="48" height="48" viewBox="0 0 48 48" fill="none" xmlns="http://www.w3.org/2000/svg">
<path d="M44.448 39.5441C44.448 40.0963 44.0003 40.5441 43.448 40.5441H4.872C4.392 40.5441 4 40.1521 4 39.6721V10.7601C4 10.2801 4.392 9.88806 4.872 9.88806H43.576C44.056 9.88806 44.448 10.2801 44.448 10.7601V39.5441Z" stroke="black" stroke-width="2" stroke-linecap="round" stroke-linejoin="round"/>
<path d="M4.12811 16.4241H44.4801" stroke="black" stroke-width="1.98333" stroke-linecap="round" stroke-linejoin="round"/>
<path d="M10.9201 7.19995V12.448" stroke="black" stroke-width="1.98333" stroke-linecap="round" stroke-linejoin="round"/>
<path d="M37.5281 7.19995V12.448" stroke="black" stroke-width="1.98333" stroke-linecap="round" stroke-linejoin="round"/>
<path d="M31.5359 24.056C32.6405 24.056 33.5359 23.1606 33.5359 22.056C33.5359 20.9515 32.6405 20.056 31.5359 20.056C30.4313 20.056 29.5359 20.9515 29.5359 22.056C29.5359 23.1606 30.4313 24.056 31.5359 24.056Z" fill="#18B28D"/>
<path d="M24.3359 24.056C25.4405 24.056 26.3359 23.1606 26.3359 22.056C26.3359 20.9515 25.4405 20.056 24.3359 20.056C23.2314 20.056 22.3359 20.9515 22.3359 22.056C22.3359 23.1606 23.2314 24.056 24.3359 24.056Z" fill="#18B28D"/>
<path d="M39.9859 22.056C39.9859 22.7464 39.4263 23.306 38.7359 23.306C38.0455 23.306 37.4859 22.7464 37.4859 22.056C37.4859 21.3657 38.0455 20.806 38.7359 20.806C39.4263 20.806 39.9859 21.3657 39.9859 22.056Z" stroke="black" stroke-width="1.5" stroke-linecap="round" stroke-linejoin="round"/>
<path d="M17.1359 24.056C18.2405 24.056 19.1359 23.1606 19.1359 22.056C19.1359 20.9515 18.2405 20.056 17.1359 20.056C16.0314 20.056 15.1359 20.9515 15.1359 22.056C15.1359 23.1606 16.0314 24.056 17.1359 24.056Z" fill="#18B28D"/>
<path d="M9.93591 24.056C11.0405 24.056 11.9359 23.1606 11.9359 22.056C11.9359 20.9515 11.0405 20.056 9.93591 20.056C8.83134 20.056 7.93591 20.9515 7.93591 22.056C7.93591 23.1606 8.83134 24.056 9.93591 24.056Z" fill="#18B28D"/>
<path d="M32.7859 28.4561C32.7859 29.1464 32.2262 29.7061 31.5359 29.7061C30.8455 29.7061 30.2859 29.1464 30.2859 28.4561C30.2859 27.7657 30.8455 27.2061 31.5359 27.2061C32.2262 27.2061 32.7859 27.7657 32.7859 28.4561Z" stroke="black" stroke-width="1.5" stroke-linecap="round" stroke-linejoin="round"/>
<path d="M25.5859 28.4561C25.5859 29.1464 25.0263 29.7061 24.3359 29.7061C23.6456 29.7061 23.0859 29.1464 23.0859 28.4561C23.0859 27.7657 23.6456 27.2061 24.3359 27.2061C25.0263 27.2061 25.5859 27.7657 25.5859 28.4561Z" stroke="black" stroke-width="1.5" stroke-linecap="round" stroke-linejoin="round"/>
<path d="M39.9859 28.4561C39.9859 29.1464 39.4263 29.7061 38.7359 29.7061C38.0455 29.7061 37.4859 29.1464 37.4859 28.4561C37.4859 27.7657 38.0455 27.2061 38.7359 27.2061C39.4263 27.2061 39.9859 27.7657 39.9859 28.4561Z" stroke="black" stroke-width="1.5" stroke-linecap="round" stroke-linejoin="round"/>
<path d="M18.3859 28.4561C18.3859 29.1464 17.8263 29.7061 17.1359 29.7061C16.4456 29.7061 15.8859 29.1464 15.8859 28.4561C15.8859 27.7657 16.4456 27.2061 17.1359 27.2061C17.8263 27.2061 18.3859 27.7657 18.3859 28.4561Z" stroke="black" stroke-width="1.5" stroke-linecap="round" stroke-linejoin="round"/>
<path d="M11.1859 28.4561C11.1859 29.1464 10.6263 29.7061 9.93591 29.7061C9.24556 29.7061 8.68591 29.1464 8.68591 28.4561C8.68591 27.7657 9.24556 27.2061 9.93591 27.2061C10.6263 27.2061 11.1859 27.7657 11.1859 28.4561Z" stroke="black" stroke-width="1.5" stroke-linecap="round" stroke-linejoin="round"/>
<path d="M32.7859 34.8561C32.7859 35.5464 32.2262 36.1061 31.5359 36.1061C30.8455 36.1061 30.2859 35.5464 30.2859 34.8561C30.2859 34.1657 30.8455 33.6061 31.5359 33.6061C32.2262 33.6061 32.7859 34.1657 32.7859 34.8561Z" stroke="black" stroke-width="1.5" stroke-linecap="round" stroke-linejoin="round"/>
<path d="M25.5859 34.8561C25.5859 35.5464 25.0263 36.1061 24.3359 36.1061C23.6456 36.1061 23.0859 35.5464 23.0859 34.8561C23.0859 34.1657 23.6456 33.6061 24.3359 33.6061C25.0263 33.6061 25.5859 34.1657 25.5859 34.8561Z" stroke="black" stroke-width="1.5" stroke-linecap="round" stroke-linejoin="round"/>
<path d="M39.9859 34.8561C39.9859 35.5464 39.4263 36.1061 38.7359 36.1061C38.0455 36.1061 37.4859 35.5464 37.4859 34.8561C37.4859 34.1657 38.0455 33.6061 38.7359 33.6061C39.4263 33.6061 39.9859 34.1657 39.9859 34.8561Z" stroke="black" stroke-width="1.5" stroke-linecap="round" stroke-linejoin="round"/>
<path d="M18.3859 34.8561C18.3859 35.5464 17.8263 36.1061 17.1359 36.1061C16.4456 36.1061 15.8859 35.5464 15.8859 34.8561C15.8859 34.1657 16.4456 33.6061 17.1359 33.6061C17.8263 33.6061 18.3859 34.1657 18.3859 34.8561Z" stroke="black" stroke-width="1.5" stroke-linecap="round" stroke-linejoin="round"/>
<path d="M11.1859 34.8561C11.1859 35.5464 10.6263 36.1061 9.93591 36.1061C9.24556 36.1061 8.68591 35.5464 8.68591 34.8561C8.68591 34.1657 9.24556 33.6061 9.93591 33.6061C10.6263 33.6061 11.1859 34.1657 11.1859 34.8561Z" stroke="black" stroke-width="1.5" stroke-linecap="round" stroke-linejoin="round"/>
</svg>
