<svg width="48" height="48" viewBox="0 0 48 48" fill="none" xmlns="http://www.w3.org/2000/svg">
<path fill-rule="evenodd" clip-rule="evenodd" d="M29.4 17.2668L26.8 19.1334L27.8666 22.2001C28.0666 22.7334 27.6 23.2668 27.0666 23.2668C26.9333 23.2668 26.7333 23.2668 26.6 23.1334L24 21.2668L21.4 23.1334C21.0666 23.3334 20.6666 23.3334 20.4 23.1334C20.0666 22.9334 19.9333 22.5334 20.0666 22.2001L21.0666 19.1334L18.4666 17.2668C18.1333 17.0668 18 16.6668 18.1333 16.3334C18.2666 16.0001 18.6 15.7334 18.9333 15.7334H22.1333L23.1333 12.6668C23.2666 12.3334 23.5333 12.1334 23.9333 12.1334C24.3333 12.1334 24.6 12.3334 24.7333 12.6668L25.7333 15.7334H28.9333C29.3333 15.7334 29.6 16.0001 29.7333 16.3334C29.8 16.6668 29.6666 17.0668 29.4 17.2668ZM23.9294 15.6118L23.9368 15.6106L23.9333 15.6001L23.9294 15.6118Z" fill="#18B28D"/>
<path d="M18.9334 9.86679C18.9334 9.40012 18.5334 9.00012 18.0667 9.00012C17.6001 9.00012 17.2001 9.40012 17.2001 9.86679C17.2001 10.3335 17.6001 10.7335 18.0667 10.7335C18.3334 10.6668 18.9334 10.2668 18.9334 9.86679Z" fill="black"/>
<path d="M42.2667 41.5334H39.6667C39.2667 39.6667 37.6 38.2001 35.6 38.2001H33.8667C33.4667 36.3334 31.8 34.8667 29.8 34.8667C29.3333 34.8667 28.9333 34.4667 28.9333 34V33.1334H33.9333V34.8C33.9333 35.2667 34.3333 35.6667 34.8 35.6667H39.8C40.4667 35.6667 40.8667 34.8667 40.4667 34.3334L39.1333 32.3334L40.4667 30.2667C40.8667 29.7334 40.4667 29 39.8 29H35.6V27.3334C35.6 26.8667 35.2 26.4667 34.7333 26.4667H31.0667C31.9333 25.4667 32.5333 24.2667 32.9333 23C36.6 21.8 39.2667 18.6 39.8667 14.8L40.6 9.93338C40.6667 9.40005 40.2667 9.00005 39.8 9.00005H34.4667L34.8 5.73338C34.8667 5.26672 34.4667 4.80005 34 4.80005H13.9333C13.4667 4.80005 13.0667 5.20005 13.1333 5.73338L13.4667 9.00005H8.13332C7.59999 9.00005 7.19999 9.46671 7.33332 9.93338L8.06666 14.8C8.66666 18.6 11.3333 21.8 15 23C15.3333 24.2667 16 25.4667 16.8667 26.4667H13.2C12.7333 26.4667 12.3333 26.8667 12.3333 27.3334V29H8.13332C7.46665 29 7.06665 29.7334 7.46665 30.2667L8.79999 32.3334L7.46665 34.4C7.06665 34.9334 7.46665 35.6667 8.13332 35.6667H13.1333C13.6 35.6667 14 35.2667 14 34.8V33.1334H19V34C19 34.4667 18.6 34.8667 18.1333 34.8667C16.1333 34.8667 14.4667 36.3334 14.0667 38.2001H12.3333C10.3333 38.2001 8.66666 39.6667 8.26665 41.5334H5.66666C5.19999 41.5334 4.79999 41.9334 4.79999 42.4C4.79999 42.8667 5.19999 43.2667 5.66666 43.2667H42.3333C42.8 43.2667 43.2 42.8667 43.2 42.4C43.1333 41.8667 42.7333 41.5334 42.2667 41.5334ZM38.2 30.6667L37.4 31.8667C37.2 32.1334 37.2 32.5334 37.4 32.8L38.2 34H35.6V30.6667H38.2ZM33.2667 21.0667L33.9333 14H38.2667L38.2 14.5334C37.7333 17.4667 35.8667 19.8667 33.2667 21.0667ZM38.8 10.6667L38.5333 12.3334H34.1333L34.2667 10.6667H38.8ZM13.6 10.6667L13.7333 12.3334H9.33332L9.06666 10.6667H13.6ZM9.66666 14.5334L9.59999 14H13.9333L14.6 21.0667C12 19.8667 10.1333 17.4667 9.66666 14.5334ZM16.3333 21.4667L14.8667 6.53338H33L32.7333 9.06672H20.6C20.1333 9.06672 19.7333 9.46671 19.7333 9.93338C19.7333 10.4 20.1333 10.8 20.6 10.8H32.6L31.5333 21.6C31.2667 23.6 30.2667 25.4 28.7333 26.6667H19.1333C17.6 25.2667 16.6 23.4667 16.3333 21.4667ZM12.2667 34H9.66666L10.4667 32.8C10.6667 32.5334 10.6667 32.1334 10.4667 31.8667L9.66666 30.6667H12.2667V34ZM13.9333 28.2H33.9333V31.5334H13.9333V28.2ZM18.1333 36.5334C19.5333 36.5334 20.6667 35.4 20.6667 34V33.1334H27.3333V34C27.3333 34.2667 27.4 34.6001 27.4667 34.8667H23.9333C23.4667 34.8667 23.0667 35.2667 23.0667 35.7334C23.0667 36.2 23.4667 36.6 23.9333 36.6H29.8C30.8667 36.6 31.8 37.2667 32.1333 38.2667H15.7333C16.0667 37.2001 17 36.5334 18.1333 36.5334ZM9.93332 41.5334C10.2667 40.5334 11.2 39.8667 12.2667 39.8667H35.6C36.6667 39.8667 37.6 40.5334 37.9333 41.5334H9.93332Z" fill="black"/>
<path d="M8.1334 24H6.46674V25.6667H8.1334V24Z" fill="#18B28D"/>
<path d="M9.79997 22.3334H8.1333V24H9.79997V22.3334Z" fill="#18B28D"/>
<path d="M40.6 25.6667H38.9333V27.3334H40.6V25.6667Z" fill="#18B28D"/>
<path d="M42.2665 24H40.5999V25.6667H42.2665V24Z" fill="#18B28D"/>
<path d="M40.6 22.3334H38.9333V24H40.6V22.3334Z" fill="#18B28D"/>
<path d="M42.2665 20.6667H40.5999V22.3334H42.2665V20.6667Z" fill="#18B28D"/>
</svg>
