<svg width="48" height="48" viewBox="0 0 48 48" fill="none" xmlns="http://www.w3.org/2000/svg">
<path d="M16.1617 13.6052L16.153 13.6211L16.1472 13.6383C16.1007 13.7778 16.0964 13.9102 16.1384 14.0364C16.1788 14.1574 16.2556 14.2535 16.3357 14.3336L16.3473 14.3452L16.3606 14.3547L20.3489 17.2132L18.8387 21.839C18.8386 21.8392 18.8386 21.8393 18.8385 21.8395C18.7922 21.9788 18.7879 22.1111 18.8299 22.2371C18.8703 22.358 18.9471 22.4541 19.0272 22.5343C19.2412 22.7483 19.576 22.7525 19.7947 22.5469L23.7736 19.6951L27.7525 22.5468C27.9726 22.7541 28.2983 22.7455 28.5165 22.5377L28.5166 22.5377L28.52 22.5343C28.6001 22.4541 28.6769 22.358 28.7173 22.2371C28.7593 22.1111 28.755 21.9788 28.7087 21.8396C28.7087 21.8394 28.7086 21.8392 28.7085 21.839L27.1983 17.2132L31.1866 14.3547L31.1999 14.3452L31.2115 14.3336C31.2916 14.2535 31.3684 14.1574 31.4088 14.0364C31.4508 13.9102 31.4465 13.7778 31.4 13.6383C31.3538 13.4998 31.2765 13.3863 31.1567 13.3123C31.0416 13.2412 30.9101 13.2212 30.7827 13.2212H25.8322L24.3212 8.59293L24.3208 8.59175C24.2746 8.4532 24.1973 8.3397 24.0775 8.26578C23.9624 8.19468 23.8309 8.17463 23.7035 8.17463C23.386 8.17463 23.1885 8.38273 23.0971 8.56555L23.0892 8.58124L23.0842 8.59805L21.7109 13.2212H16.7645C16.6382 13.2212 16.5114 13.2796 16.417 13.3418C16.3196 13.406 16.2206 13.4981 16.1617 13.6052ZM22.7469 14.1414L22.7531 14.129L22.7576 14.1159L23.8437 10.8933L24.9296 14.1153C24.9297 14.1154 24.9297 14.1155 24.9297 14.1156C24.9759 14.254 25.0532 14.3674 25.1729 14.4412C25.2881 14.5123 25.4195 14.5324 25.5469 14.5324H28.9568L26.2115 16.4806C26.0938 16.5594 25.9888 16.6551 25.9319 16.7832C25.8713 16.9195 25.8787 17.0607 25.9249 17.1993L25.9251 17.1999L27.0043 20.4017L24.2592 18.4536C24.0429 18.2503 23.7249 18.2552 23.5071 18.4524L20.7602 20.4017L21.8394 17.1999L21.8396 17.1993C21.8861 17.0598 21.8904 16.9273 21.8483 16.8012C21.808 16.6802 21.7312 16.5841 21.6511 16.504L21.6392 16.492L21.6254 16.4823L18.8778 14.5324H22.1405C22.4494 14.5324 22.6546 14.3261 22.7469 14.1414Z" fill="#18B28D" stroke="#18B28D" stroke-width="0.4"/>
<mask id="path-2-outside-1_4150_10375" maskUnits="userSpaceOnUse" x="4.29065" y="23.4255" width="40" height="21" fill="black">
<rect fill="white" x="4.29065" y="23.4255" width="40" height="21"/>
<path d="M37.7148 31.2945C38.7731 30.6636 39.4811 29.4721 39.4811 28.1404C39.4811 26.1077 37.7849 24.4255 35.7312 24.4255C33.6775 24.4255 31.9813 26.1077 31.9813 28.1404C31.9813 29.4721 32.6892 30.5935 33.7476 31.2945C31.6238 31.9253 29.9276 33.4673 29.1496 35.4999C28.3015 34.5887 27.1661 33.8177 25.8904 33.4673C26.9488 32.8365 27.6567 31.6449 27.6567 30.3132C27.6567 28.2805 25.9605 26.5984 23.9068 26.5984C21.8532 26.5984 20.157 28.2805 20.157 30.3132C20.157 31.6449 20.8649 32.7664 21.9233 33.4673C20.7878 33.8177 19.7294 34.4486 18.8813 35.2896C18.0332 33.3972 16.4071 31.8552 14.3534 31.2945C15.4188 30.6636 16.1197 29.4721 16.1197 28.1404C16.1197 26.1077 14.4235 24.4255 12.3698 24.4255C10.3162 24.4255 8.61997 26.1077 8.61997 28.1404C8.61997 29.4721 9.32789 30.5935 10.3863 31.2945C7.4845 32.1356 5.29065 34.8691 5.29065 38.0232C5.29065 39.0045 5.50092 39.9857 5.7883 40.8268C5.85839 40.967 5.99857 41.1072 6.21585 41.1072H16.9047C16.9748 41.8081 17.115 42.4389 17.4024 42.9997C17.4725 43.1398 17.6127 43.28 17.8299 43.28H30.1449C30.3552 43.28 30.4954 43.1398 30.5725 42.9997C30.7828 42.4389 31 41.738 31.0701 41.1072H42.0394C42.2497 41.1072 42.3898 40.967 42.4669 40.8268C42.8174 40.0558 42.9646 39.0045 42.9646 38.0232C42.8244 34.8691 40.7006 32.2056 37.7288 31.2945H37.7148ZM36.8667 35.4999L35.7312 36.6214L34.5957 35.4999L35.7312 32.6963L36.8667 35.4999ZM32.8294 28.2105C32.8294 26.6684 34.1051 25.3367 35.7312 25.3367C37.3573 25.3367 38.633 26.5984 38.633 28.2105C38.633 29.8225 37.3573 31.0842 35.7312 31.0842C34.1051 31.0842 32.8294 29.7525 32.8294 28.2105ZM24.9722 37.6727L23.8367 38.7942L22.7013 37.6727L23.8367 34.8691L24.9722 37.6727ZM20.935 30.3833C20.935 28.8413 22.2106 27.5095 23.8367 27.5095C25.4628 27.5095 26.7385 28.7712 26.7385 30.3833C26.7385 31.9954 25.4628 33.257 23.8367 33.257C22.2807 33.1869 20.935 31.9253 20.935 30.3833ZM13.3581 35.4999L12.2227 36.6214L11.0872 35.4999L12.2227 32.6963L13.3581 35.4999ZM9.39097 28.2105C9.39097 26.6684 10.6666 25.3367 12.2927 25.3367C13.9189 25.3367 15.1945 26.5984 15.1945 28.2105C15.1945 29.8225 13.9189 31.0842 12.2927 31.0842C10.6666 31.0141 9.39097 29.7525 9.39097 28.2105ZM6.06165 38.0232C6.06165 34.8691 8.46577 32.2757 11.5848 31.9253L10.169 35.4298C10.0989 35.57 10.169 35.7803 10.2391 35.9205L11.8652 37.5326C12.0054 37.6727 12.2927 37.6727 12.503 37.5326L14.1291 35.9205C14.2693 35.7803 14.2693 35.6401 14.1992 35.4298L12.7834 31.9253C15.1875 32.2056 17.2412 33.8177 18.0192 36.0606C17.1711 37.2522 16.6734 38.654 16.6734 40.196H15.9655V38.0232C15.9655 37.8129 15.7552 37.6026 15.538 37.6026C15.3207 37.6026 15.1104 37.8129 15.1104 38.0232V40.196H9.37696V38.0232C9.37696 37.8129 9.16668 37.6026 8.9494 37.6026C8.73212 37.6026 8.52185 37.8129 8.52185 38.0232V40.196H6.46818C6.11772 39.5652 6.04062 38.7942 6.04062 38.0232H6.06165ZM29.7034 42.4389H27.6497V40.2661C27.6497 40.0558 27.4394 39.8456 27.2221 39.8456C27.0049 39.8456 26.7946 40.0558 26.7946 40.2661V42.4389H21.0611V40.2661C21.0611 40.0558 20.8509 39.8456 20.6336 39.8456C20.4163 39.8456 20.206 40.0558 20.206 40.2661V42.4389H18.1524C17.9421 41.8081 17.7949 40.967 17.7949 40.2661C17.7949 37.112 20.199 34.5186 23.3181 34.1682L21.9022 37.6727C21.8321 37.8129 21.9022 38.0232 21.9723 38.1634L23.5984 39.7755C23.7386 39.9157 24.026 39.9157 24.2363 39.7755L25.8624 38.1634C26.0026 38.0232 26.0025 37.883 25.9325 37.6727L24.5166 34.1682C27.6287 34.5186 30.0398 37.112 30.0398 40.2661C30.0398 40.967 29.8996 41.738 29.6893 42.4389H29.7034ZM41.5277 40.196H39.474V38.0232C39.474 37.8129 39.2638 37.6026 39.0465 37.6026C38.8292 37.6026 38.6189 37.8129 38.6189 38.0232V40.196H32.8855V38.0232C32.8855 37.8129 32.6752 37.6026 32.4579 37.6026C32.2407 37.6026 32.0304 37.8129 32.0304 38.0232V40.196H31.0421C31.0421 38.7942 30.6145 37.4625 29.8365 36.341C30.5444 33.8878 32.6682 32.2056 35.1424 31.9253L33.7266 35.4298C33.6565 35.57 33.7266 35.7803 33.7967 35.9205L35.4228 37.5326C35.563 37.6727 35.8503 37.6727 36.0606 37.5326L37.6867 35.9205C37.8269 35.7803 37.8269 35.6401 37.7568 35.4298L36.341 31.9253C39.453 32.2757 41.8642 34.8691 41.8642 38.0232C41.8642 38.7942 41.7941 39.5652 41.5137 40.196H41.5277Z"/>
</mask>
<path d="M37.7148 31.2945C38.7731 30.6636 39.4811 29.4721 39.4811 28.1404C39.4811 26.1077 37.7849 24.4255 35.7312 24.4255C33.6775 24.4255 31.9813 26.1077 31.9813 28.1404C31.9813 29.4721 32.6892 30.5935 33.7476 31.2945C31.6238 31.9253 29.9276 33.4673 29.1496 35.4999C28.3015 34.5887 27.1661 33.8177 25.8904 33.4673C26.9488 32.8365 27.6567 31.6449 27.6567 30.3132C27.6567 28.2805 25.9605 26.5984 23.9068 26.5984C21.8532 26.5984 20.157 28.2805 20.157 30.3132C20.157 31.6449 20.8649 32.7664 21.9233 33.4673C20.7878 33.8177 19.7294 34.4486 18.8813 35.2896C18.0332 33.3972 16.4071 31.8552 14.3534 31.2945C15.4188 30.6636 16.1197 29.4721 16.1197 28.1404C16.1197 26.1077 14.4235 24.4255 12.3698 24.4255C10.3162 24.4255 8.61997 26.1077 8.61997 28.1404C8.61997 29.4721 9.32789 30.5935 10.3863 31.2945C7.4845 32.1356 5.29065 34.8691 5.29065 38.0232C5.29065 39.0045 5.50092 39.9857 5.7883 40.8268C5.85839 40.967 5.99857 41.1072 6.21585 41.1072H16.9047C16.9748 41.8081 17.115 42.4389 17.4024 42.9997C17.4725 43.1398 17.6127 43.28 17.8299 43.28H30.1449C30.3552 43.28 30.4954 43.1398 30.5725 42.9997C30.7828 42.4389 31 41.738 31.0701 41.1072H42.0394C42.2497 41.1072 42.3898 40.967 42.4669 40.8268C42.8174 40.0558 42.9646 39.0045 42.9646 38.0232C42.8244 34.8691 40.7006 32.2056 37.7288 31.2945H37.7148ZM36.8667 35.4999L35.7312 36.6214L34.5957 35.4999L35.7312 32.6963L36.8667 35.4999ZM32.8294 28.2105C32.8294 26.6684 34.1051 25.3367 35.7312 25.3367C37.3573 25.3367 38.633 26.5984 38.633 28.2105C38.633 29.8225 37.3573 31.0842 35.7312 31.0842C34.1051 31.0842 32.8294 29.7525 32.8294 28.2105ZM24.9722 37.6727L23.8367 38.7942L22.7013 37.6727L23.8367 34.8691L24.9722 37.6727ZM20.935 30.3833C20.935 28.8413 22.2106 27.5095 23.8367 27.5095C25.4628 27.5095 26.7385 28.7712 26.7385 30.3833C26.7385 31.9954 25.4628 33.257 23.8367 33.257C22.2807 33.1869 20.935 31.9253 20.935 30.3833ZM13.3581 35.4999L12.2227 36.6214L11.0872 35.4999L12.2227 32.6963L13.3581 35.4999ZM9.39097 28.2105C9.39097 26.6684 10.6666 25.3367 12.2927 25.3367C13.9189 25.3367 15.1945 26.5984 15.1945 28.2105C15.1945 29.8225 13.9189 31.0842 12.2927 31.0842C10.6666 31.0141 9.39097 29.7525 9.39097 28.2105ZM6.06165 38.0232C6.06165 34.8691 8.46577 32.2757 11.5848 31.9253L10.169 35.4298C10.0989 35.57 10.169 35.7803 10.2391 35.9205L11.8652 37.5326C12.0054 37.6727 12.2927 37.6727 12.503 37.5326L14.1291 35.9205C14.2693 35.7803 14.2693 35.6401 14.1992 35.4298L12.7834 31.9253C15.1875 32.2056 17.2412 33.8177 18.0192 36.0606C17.1711 37.2522 16.6734 38.654 16.6734 40.196H15.9655V38.0232C15.9655 37.8129 15.7552 37.6026 15.538 37.6026C15.3207 37.6026 15.1104 37.8129 15.1104 38.0232V40.196H9.37696V38.0232C9.37696 37.8129 9.16668 37.6026 8.9494 37.6026C8.73212 37.6026 8.52185 37.8129 8.52185 38.0232V40.196H6.46818C6.11772 39.5652 6.04062 38.7942 6.04062 38.0232H6.06165ZM29.7034 42.4389H27.6497V40.2661C27.6497 40.0558 27.4394 39.8456 27.2221 39.8456C27.0049 39.8456 26.7946 40.0558 26.7946 40.2661V42.4389H21.0611V40.2661C21.0611 40.0558 20.8509 39.8456 20.6336 39.8456C20.4163 39.8456 20.206 40.0558 20.206 40.2661V42.4389H18.1524C17.9421 41.8081 17.7949 40.967 17.7949 40.2661C17.7949 37.112 20.199 34.5186 23.3181 34.1682L21.9022 37.6727C21.8321 37.8129 21.9022 38.0232 21.9723 38.1634L23.5984 39.7755C23.7386 39.9157 24.026 39.9157 24.2363 39.7755L25.8624 38.1634C26.0026 38.0232 26.0025 37.883 25.9325 37.6727L24.5166 34.1682C27.6287 34.5186 30.0398 37.112 30.0398 40.2661C30.0398 40.967 29.8996 41.738 29.6893 42.4389H29.7034ZM41.5277 40.196H39.474V38.0232C39.474 37.8129 39.2638 37.6026 39.0465 37.6026C38.8292 37.6026 38.6189 37.8129 38.6189 38.0232V40.196H32.8855V38.0232C32.8855 37.8129 32.6752 37.6026 32.4579 37.6026C32.2407 37.6026 32.0304 37.8129 32.0304 38.0232V40.196H31.0421C31.0421 38.7942 30.6145 37.4625 29.8365 36.341C30.5444 33.8878 32.6682 32.2056 35.1424 31.9253L33.7266 35.4298C33.6565 35.57 33.7266 35.7803 33.7967 35.9205L35.4228 37.5326C35.563 37.6727 35.8503 37.6727 36.0606 37.5326L37.6867 35.9205C37.8269 35.7803 37.8269 35.6401 37.7568 35.4298L36.341 31.9253C39.453 32.2757 41.8642 34.8691 41.8642 38.0232C41.8642 38.7942 41.7941 39.5652 41.5137 40.196H41.5277Z" fill="black"/>
<path d="M37.7148 31.2945C38.7731 30.6636 39.4811 29.4721 39.4811 28.1404C39.4811 26.1077 37.7849 24.4255 35.7312 24.4255C33.6775 24.4255 31.9813 26.1077 31.9813 28.1404C31.9813 29.4721 32.6892 30.5935 33.7476 31.2945C31.6238 31.9253 29.9276 33.4673 29.1496 35.4999C28.3015 34.5887 27.1661 33.8177 25.8904 33.4673C26.9488 32.8365 27.6567 31.6449 27.6567 30.3132C27.6567 28.2805 25.9605 26.5984 23.9068 26.5984C21.8532 26.5984 20.157 28.2805 20.157 30.3132C20.157 31.6449 20.8649 32.7664 21.9233 33.4673C20.7878 33.8177 19.7294 34.4486 18.8813 35.2896C18.0332 33.3972 16.4071 31.8552 14.3534 31.2945C15.4188 30.6636 16.1197 29.4721 16.1197 28.1404C16.1197 26.1077 14.4235 24.4255 12.3698 24.4255C10.3162 24.4255 8.61997 26.1077 8.61997 28.1404C8.61997 29.4721 9.32789 30.5935 10.3863 31.2945C7.4845 32.1356 5.29065 34.8691 5.29065 38.0232C5.29065 39.0045 5.50092 39.9857 5.7883 40.8268C5.85839 40.967 5.99857 41.1072 6.21585 41.1072H16.9047C16.9748 41.8081 17.115 42.4389 17.4024 42.9997C17.4725 43.1398 17.6127 43.28 17.8299 43.28H30.1449C30.3552 43.28 30.4954 43.1398 30.5725 42.9997C30.7828 42.4389 31 41.738 31.0701 41.1072H42.0394C42.2497 41.1072 42.3898 40.967 42.4669 40.8268C42.8174 40.0558 42.9646 39.0045 42.9646 38.0232C42.8244 34.8691 40.7006 32.2056 37.7288 31.2945H37.7148ZM36.8667 35.4999L35.7312 36.6214L34.5957 35.4999L35.7312 32.6963L36.8667 35.4999ZM32.8294 28.2105C32.8294 26.6684 34.1051 25.3367 35.7312 25.3367C37.3573 25.3367 38.633 26.5984 38.633 28.2105C38.633 29.8225 37.3573 31.0842 35.7312 31.0842C34.1051 31.0842 32.8294 29.7525 32.8294 28.2105ZM24.9722 37.6727L23.8367 38.7942L22.7013 37.6727L23.8367 34.8691L24.9722 37.6727ZM20.935 30.3833C20.935 28.8413 22.2106 27.5095 23.8367 27.5095C25.4628 27.5095 26.7385 28.7712 26.7385 30.3833C26.7385 31.9954 25.4628 33.257 23.8367 33.257C22.2807 33.1869 20.935 31.9253 20.935 30.3833ZM13.3581 35.4999L12.2227 36.6214L11.0872 35.4999L12.2227 32.6963L13.3581 35.4999ZM9.39097 28.2105C9.39097 26.6684 10.6666 25.3367 12.2927 25.3367C13.9189 25.3367 15.1945 26.5984 15.1945 28.2105C15.1945 29.8225 13.9189 31.0842 12.2927 31.0842C10.6666 31.0141 9.39097 29.7525 9.39097 28.2105ZM6.06165 38.0232C6.06165 34.8691 8.46577 32.2757 11.5848 31.9253L10.169 35.4298C10.0989 35.57 10.169 35.7803 10.2391 35.9205L11.8652 37.5326C12.0054 37.6727 12.2927 37.6727 12.503 37.5326L14.1291 35.9205C14.2693 35.7803 14.2693 35.6401 14.1992 35.4298L12.7834 31.9253C15.1875 32.2056 17.2412 33.8177 18.0192 36.0606C17.1711 37.2522 16.6734 38.654 16.6734 40.196H15.9655V38.0232C15.9655 37.8129 15.7552 37.6026 15.538 37.6026C15.3207 37.6026 15.1104 37.8129 15.1104 38.0232V40.196H9.37696V38.0232C9.37696 37.8129 9.16668 37.6026 8.9494 37.6026C8.73212 37.6026 8.52185 37.8129 8.52185 38.0232V40.196H6.46818C6.11772 39.5652 6.04062 38.7942 6.04062 38.0232H6.06165ZM29.7034 42.4389H27.6497V40.2661C27.6497 40.0558 27.4394 39.8456 27.2221 39.8456C27.0049 39.8456 26.7946 40.0558 26.7946 40.2661V42.4389H21.0611V40.2661C21.0611 40.0558 20.8509 39.8456 20.6336 39.8456C20.4163 39.8456 20.206 40.0558 20.206 40.2661V42.4389H18.1524C17.9421 41.8081 17.7949 40.967 17.7949 40.2661C17.7949 37.112 20.199 34.5186 23.3181 34.1682L21.9022 37.6727C21.8321 37.8129 21.9022 38.0232 21.9723 38.1634L23.5984 39.7755C23.7386 39.9157 24.026 39.9157 24.2363 39.7755L25.8624 38.1634C26.0026 38.0232 26.0025 37.883 25.9325 37.6727L24.5166 34.1682C27.6287 34.5186 30.0398 37.112 30.0398 40.2661C30.0398 40.967 29.8996 41.738 29.6893 42.4389H29.7034ZM41.5277 40.196H39.474V38.0232C39.474 37.8129 39.2638 37.6026 39.0465 37.6026C38.8292 37.6026 38.6189 37.8129 38.6189 38.0232V40.196H32.8855V38.0232C32.8855 37.8129 32.6752 37.6026 32.4579 37.6026C32.2407 37.6026 32.0304 37.8129 32.0304 38.0232V40.196H31.0421C31.0421 38.7942 30.6145 37.4625 29.8365 36.341C30.5444 33.8878 32.6682 32.2056 35.1424 31.9253L33.7266 35.4298C33.6565 35.57 33.7266 35.7803 33.7967 35.9205L35.4228 37.5326C35.563 37.6727 35.8503 37.6727 36.0606 37.5326L37.6867 35.9205C37.8269 35.7803 37.8269 35.6401 37.7568 35.4298L36.341 31.9253C39.453 32.2757 41.8642 34.8691 41.8642 38.0232C41.8642 38.7942 41.7941 39.5652 41.5137 40.196H41.5277Z" stroke="black" stroke-width="0.8" mask="url(#path-2-outside-1_4150_10375)"/>
<path d="M8.69017 13.2708C10.4951 13.2708 12.0022 11.7812 12.0022 9.98684C12.0022 8.19244 10.4951 6.70283 8.69017 6.70283C6.88527 6.70283 5.37812 8.19244 5.37812 9.98684C5.37812 11.7812 6.88527 13.2708 8.69017 13.2708ZM8.69017 8.01402C9.78695 8.01402 10.684 8.90741 10.684 9.98684C10.684 11.0663 9.78695 11.9597 8.69017 11.9597C7.59339 11.9597 6.69632 11.0663 6.69632 9.98684C6.69632 8.90741 7.59339 8.01402 8.69017 8.01402Z" fill="#18B28D" stroke="#18B28D" stroke-width="0.4"/>
<path d="M39.6983 20.2798C41.2927 20.2798 42.5898 19.0008 42.5898 17.4164C42.5898 15.832 41.2927 14.5529 39.6983 14.5529C38.104 14.5529 36.8068 15.832 36.8068 17.4164C36.8068 19.0008 38.104 20.2798 39.6983 20.2798ZM39.6983 15.8641C40.5777 15.8641 41.2646 16.5471 41.2646 17.4164C41.2646 18.2856 40.5777 18.9687 39.6983 18.9687C38.8189 18.9687 38.132 18.2856 38.132 17.4164C38.132 16.612 38.8241 15.8641 39.6983 15.8641Z" fill="#18B28D" stroke="#18B28D" stroke-width="0.4"/>
<path d="M38.5527 5.43087C38.5527 4.96709 38.1729 4.60005 37.7149 4.60005C37.2568 4.60005 36.877 4.96709 36.877 5.43087C36.877 5.89465 37.2568 6.26169 37.7149 6.26169C38.1729 6.26169 38.5527 5.89465 38.5527 5.43087Z" fill="black" stroke="black" stroke-width="0.4"/>
<path d="M30.5551 9.35592C30.5551 8.89214 30.1753 8.5251 29.7173 8.5251C29.2593 8.5251 28.8795 8.89214 28.8795 9.35592C28.8795 9.8197 29.2593 10.1867 29.7173 10.1867C30.1753 10.1867 30.5551 9.8197 30.5551 9.35592Z" fill="black" stroke="black" stroke-width="0.4"/>
<path d="M7.54438 16.7856C7.54438 16.3218 7.16458 15.9548 6.70655 15.9548C6.24853 15.9548 5.86873 16.3218 5.86873 16.7856C5.86873 17.2494 6.24853 17.6164 6.70655 17.6164C7.16458 17.6164 7.54438 17.2494 7.54438 16.7856Z" fill="black" stroke="black" stroke-width="0.4"/>
<path d="M15.9693 21.2014C15.9693 20.7376 15.5895 20.3706 15.1315 20.3706C14.6735 20.3706 14.2937 20.7376 14.2937 21.2014C14.2937 21.6652 14.6735 22.0322 15.1315 22.0322C15.5895 22.0322 15.9693 21.6652 15.9693 21.2014Z" fill="black" stroke="black" stroke-width="0.4"/>
<path d="M6.27571 29.0515C6.27571 28.5877 5.8959 28.2207 5.43788 28.2207C4.97986 28.2207 4.60005 28.5877 4.60005 29.0515C4.60005 29.5153 4.97986 29.8823 5.43788 29.8823C5.8959 29.8823 6.27571 29.5153 6.27571 29.0515Z" fill="black" stroke="black" stroke-width="0.4"/>
<path d="M17.7426 6.27193C17.7426 5.80815 17.3628 5.44111 16.9048 5.44111C16.4468 5.44111 16.067 5.80815 16.067 6.27193C16.067 6.73571 16.4468 7.10275 16.9048 7.10275C17.3628 7.10275 17.7426 6.73571 17.7426 6.27193Z" fill="black" stroke="black" stroke-width="0.4"/>
<path d="M33.2397 17.6969C33.2397 17.2331 32.8599 16.866 32.4019 16.866C31.9438 16.866 31.564 17.2331 31.564 17.6969C31.564 18.1606 31.9438 18.5277 32.4019 18.5277C32.8599 18.5277 33.2397 18.1606 33.2397 17.6969Z" fill="black" stroke="black" stroke-width="0.4"/>
<path d="M43.4379 25.9676C43.4379 25.5038 43.0581 25.1368 42.6001 25.1368C42.1421 25.1368 41.7623 25.5038 41.7623 25.9676C41.7623 26.4314 42.1421 26.7984 42.6001 26.7984C43.0581 26.7984 43.4379 26.4314 43.4379 25.9676Z" fill="black" stroke="black" stroke-width="0.4"/>
</svg>
