<svg width="20" height="22" viewBox="0 0 20 22" fill="none" xmlns="http://www.w3.org/2000/svg">
<g clip-path="url(#clip0_4008_281)">
<path d="M15.2 15.6C14.1 16.6 12.6 17.2 11 17.2C7.4 17.2 4.8 14.6 4.8 11C4.8 7.4 7.4 4.9 11 4.9C12.6 4.9 14.1 5.4 15.2 6.4L16 7.1L19.4 3.7L18.5 2.9C16.6 1 13.9 0 11 0C4.6 0 0 4.6 0 10.9C0 17.2 4.7 22 11 22C13.9 22 16.6 21 18.6 19.1L19.4 18.3L16 14.9L15.2 15.6Z" fill="white"/>
<path d="M10.8 14.6998C12.8434 14.6998 14.5 13.0433 14.5 10.9998C14.5 8.95635 12.8434 7.2998 10.8 7.2998C8.75652 7.2998 7.09998 8.95635 7.09998 10.9998C7.09998 13.0433 8.75652 14.6998 10.8 14.6998Z" fill="#FF3D2E"/>
</g>
<defs>
<clipPath id="clip0_4008_281">
<rect width="19.5" height="22" fill="white"/>
</clipPath>
</defs>
</svg>
