<svg width="48" height="48" viewBox="0 0 48 48" fill="none" xmlns="http://www.w3.org/2000/svg">
<path d="M6.40002 30.3999L10.8 33.5999L14.8 35.1999L17.2 37.9999L21.2 35.9999L23.6 36.7999L28.8 37.9999L33.2 34.3999H38L41.6 30.3999L38.8 34.7999C38.8 34.7999 36.7471 37.151 35.2 38.3999C33.3447 39.8977 32.219 40.7272 30 41.5999C27.7763 42.4745 26.3896 42.4058 24 42.3999C21.2719 42.3932 19.7055 42.2792 17.2 41.1999C14.4144 39.9999 12.9447 38.9446 10.8 36.7999C8.65534 34.6552 6.40002 30.3999 6.40002 30.3999Z" fill="#18B28D"/>
<path d="M16.7609 41.1417C18.9938 42.0864 21.3619 42.5775 23.8019 42.6029V42.6045H24.0019C26.5127 42.6045 28.949 42.1124 31.2429 41.1423C33.4581 40.2053 35.4476 38.8639 37.1555 37.1559C38.8635 35.448 40.2049 33.4584 41.1419 31.2433C42.1123 28.9494 42.6041 26.5131 42.6041 24.0023C42.6041 21.4914 42.112 19.0552 41.1419 16.7613C40.2049 14.5461 38.8635 12.5566 37.1555 10.8486C35.4476 9.14071 33.4581 7.7993 31.2429 6.8623C28.949 5.89189 26.5124 5.4001 24.0019 5.4001C21.4913 5.4001 19.0548 5.89189 16.7611 6.86203L16.8391 7.04623L16.7611 6.86203C14.546 7.79903 12.5564 9.14044 10.8485 10.8484C9.14059 12.5563 7.79918 14.5458 6.86218 16.761C5.89177 19.0549 5.39998 21.4915 5.39998 24.002C5.39998 26.5126 5.89177 28.9491 6.86191 31.2428L7.04611 31.1649L6.86191 31.2428C7.79891 33.4579 9.14032 35.4475 10.8482 37.1554C12.5562 38.8633 14.5457 40.2047 16.7609 41.1417ZM6.55052 24.002C6.55052 14.3796 14.3794 6.55064 24.0019 6.55064C33.6243 6.55064 41.4533 14.3796 41.4533 24.002C41.4533 33.6245 33.6243 41.4534 24.0019 41.4534C14.3794 41.4534 6.55052 33.6245 6.55052 24.002Z" fill="black" stroke="black" strokeWidth="0.4"/>
<path d="M19.0833 19.0836L19.0833 19.0837C17.7699 20.3971 17.046 22.1447 17.046 24.0023C17.046 25.8598 17.7696 27.6072 19.0833 28.9209C20.3967 30.2343 22.1444 30.9582 24.0019 30.9582C25.8595 30.9582 27.6068 30.2343 28.9205 28.9209L28.9205 28.9209C30.2339 27.6075 30.9578 25.8598 30.9578 24.0023C30.9578 22.1447 30.2339 20.3974 28.9205 19.0837L28.9205 19.0837C27.6071 17.7702 25.8595 17.0463 24.0019 17.0463C22.1443 17.0463 20.397 17.7702 19.0833 19.0836ZM18.1962 24.0023C18.1962 20.8012 20.8009 18.1966 24.0019 18.1966C27.2029 18.1966 29.8076 20.8012 29.8076 24.0023C29.8076 27.2033 27.2029 29.8079 24.0019 29.8079C20.8009 29.8079 18.1962 27.2033 18.1962 24.0023Z" fill="black" stroke="black" strokeWidth="0.4"/>
<path d="M8.13576 32.379C8.01213 32.4406 7.876 32.4395 7.76244 32.4063C7.63114 32.368 7.50553 32.2805 7.43197 32.1549L7.43191 32.1548C7.26614 31.8713 7.39796 31.5659 7.61448 31.4133L8.13576 32.379ZM8.13576 32.379H8.14546L8.19733 32.3424C8.27987 32.2841 8.34866 32.2582 8.41378 32.2494C8.48056 32.2405 8.55802 32.2477 8.66074 32.277L8.13576 32.379ZM10.3317 34.0027L10.3317 34.0027C10.1556 33.8058 10.0035 33.5873 9.85962 33.3806C9.83695 33.348 9.81448 33.3157 9.79215 33.2838C9.62465 33.0449 9.4622 32.825 9.26585 32.6415L10.3317 34.0027ZM10.3317 34.0027C10.8061 34.5328 11.4162 34.8223 12.1294 34.8455C12.3781 34.8536 12.6356 34.8273 12.8773 34.8026C12.9354 34.7966 12.9926 34.7908 13.0486 34.7855C13.3467 34.7575 13.6191 34.7448 13.8719 34.7972L10.3317 34.0027ZM14.8899 35.6326C14.7071 35.1442 14.4597 34.715 13.9126 34.6014C13.5716 34.5307 13.2108 34.5675 12.8507 34.6042C12.6101 34.6287 12.3698 34.6532 12.1359 34.6456L14.8899 35.6326ZM14.8899 35.6326C14.9176 35.7064 14.9446 35.7803 14.9715 35.854C15.1478 36.3362 15.3212 36.811 15.6654 37.2079L14.8899 35.6326ZM39.7816 33.7449C39.5902 33.9912 39.3501 34.1961 39.0858 34.3532C38.5182 34.6909 37.8966 34.8069 37.2789 34.8269C36.7476 34.844 36.2063 34.7899 35.699 34.7392C35.62 34.7313 35.5419 34.7235 35.4647 34.716L12.8162 33.7173C12.824 33.7166 12.832 33.7159 12.8399 33.7152C13.4298 33.6639 14.1437 33.6019 14.7468 33.972C15.3487 34.3413 15.6101 34.9851 15.8121 35.5484L15.6263 35.6151L15.8121 35.5485C15.9968 36.0635 16.1573 36.4771 16.5198 36.7945L16.5198 36.7945C16.8269 37.0635 17.2839 37.2497 17.6814 37.285L17.6814 37.285C18.1871 37.33 18.6026 37.2127 19.0238 36.9169L19.0239 36.9169C19.2026 36.7914 19.3657 36.6581 19.5344 36.5203C19.6218 36.4489 19.7106 36.3763 19.8039 36.303C20.0701 36.0936 20.3583 35.8905 20.7006 35.7477L20.7007 35.7476C21.3537 35.4755 22.0721 35.4237 22.7528 35.5061L22.7528 35.5061C23.5023 35.5969 24.191 35.8399 24.8527 36.1193C25.1189 36.2318 25.3763 36.348 25.6315 36.4632C26.022 36.6394 26.4072 36.8133 26.8108 36.9678C27.8986 37.3839 29.1701 37.6048 30.1335 36.9749C30.5609 36.6952 30.8285 36.2385 31.1115 35.7518L31.1115 35.7518C31.1193 35.7384 31.1271 35.725 31.1349 35.7115C31.4218 35.2181 31.7405 34.6701 32.2281 34.2768C32.807 33.8099 33.4759 33.6322 34.1516 33.5859C34.7718 33.5434 35.4121 33.6111 36.0037 33.6737C36.0523 33.6788 36.1005 33.6839 36.1483 33.6889C36.6654 33.7429 37.2204 33.7732 37.726 33.686C38.2288 33.5994 38.6665 33.3997 38.9726 33.0062C39.0816 32.8661 39.246 32.8226 39.3834 32.8279C39.5193 32.8332 39.664 32.8864 39.7651 32.9876L39.7652 32.9877C40.0057 33.2286 39.9351 33.5476 39.7816 33.7449ZM39.7816 33.7449C39.7816 33.7449 39.7816 33.745 39.7815 33.745L39.6237 33.6222L39.7816 33.7449ZM11.3714 33.4858L11.3714 33.4858C11.7524 33.7957 12.2487 33.7664 12.8161 33.7173L11.3714 33.4858ZM11.3714 33.4858C11.1636 33.3169 10.9916 33.1047 10.8219 32.8694C10.7687 32.7957 10.7147 32.718 10.6596 32.6388C10.5446 32.4736 10.425 32.3017 10.299 32.1452C9.89269 31.6405 9.28214 31.2206 8.59632 31.1551L8.5962 31.1551M11.3714 33.4858L8.5962 31.1551M8.5962 31.1551C8.25324 31.1226 7.89823 31.2132 7.61449 31.4132L8.5962 31.1551ZM13.872 34.7972C14.3103 34.8883 14.5238 35.225 14.7026 35.7027L14.7026 35.7028C14.7293 35.7738 14.7556 35.846 14.7822 35.919C14.9572 36.3991 15.1441 36.912 15.5143 37.3389L15.5143 37.3389C16.2936 38.2375 17.6508 38.6193 18.7841 38.2592C19.3547 38.0781 19.8073 37.7028 20.2258 37.3558C20.3041 37.2909 20.3812 37.2269 20.4577 37.1654L20.4578 37.1654C20.9267 36.788 21.4626 36.5858 22.0625 36.5686L22.0626 36.5686C22.7222 36.5493 23.3524 36.7057 23.9776 36.9382C24.3969 37.0942 24.8022 37.2793 25.2121 37.4666C25.4203 37.5617 25.6296 37.6573 25.8425 37.75L25.9223 37.5666L25.8425 37.75C27.0662 38.2821 28.4846 38.7192 29.8771 38.292L29.8771 38.292C30.5441 38.0873 31.0965 37.6907 31.5177 37.1427L31.5178 37.1426C31.7053 36.8984 31.8626 36.6382 32.0113 36.3845C32.0334 36.3467 32.0554 36.309 32.0773 36.2716C32.2036 36.0551 32.3258 35.8457 32.4626 35.645L32.4626 35.645C32.7706 35.1931 33.1671 34.8855 33.6876 34.7555L13.872 34.7972ZM33.6877 34.7555C34.2498 34.6153 34.8541 34.6571 35.4647 34.716L33.6877 34.7555ZM39.6237 33.129C39.5033 33.0086 39.2468 32.9794 39.1305 33.129H39.6237ZM8.6608 32.277C8.87881 32.3392 9.0861 32.4736 9.26581 32.6414L8.6608 32.277Z" fill="black" stroke="black" strokeWidth="0.4"/>
<path d="M17.6907 11.7984L17.6906 11.7983L17.2026 10.3341L17.6907 11.7984ZM17.6907 11.7984C17.7848 12.0803 18.102 12.3322 18.4566 12.2176L18.4566 12.2176M17.6907 11.7984L18.4566 12.2176M18.4566 12.2176C18.7386 12.1264 18.9956 11.8048 18.8769 11.4494L18.4566 12.2176ZM18.3888 9.98492L18.3888 9.985L18.8769 11.4492L18.3888 9.98492ZM18.3888 9.98492C18.2947 9.703 17.9775 9.45112 17.6229 9.56577L17.6229 9.56577M18.3888 9.98492L17.6229 9.56577M17.6229 9.56577C17.3409 9.65697 17.0839 9.97856 17.2025 10.334L17.6229 9.56577Z" fill="#18B28D" stroke="#18B28D" strokeWidth="0.4"/>
<path d="M34.892 14.5437L34.8921 14.5437C35.0891 14.5208 35.2513 14.6137 35.3568 14.7306C35.4605 14.8455 35.5267 15.0004 35.5334 15.1518L34.892 14.5437ZM34.892 14.5437L34.1254 14.6332M34.892 14.5437L34.1254 14.6332M33.4052 15.9569L33.4051 15.9569C33.2081 15.9798 33.0458 15.8869 32.9403 15.77C32.8367 15.6551 32.7705 15.5002 32.7637 15.3488L33.4052 15.9569ZM33.4052 15.9569L34.1718 15.8674M33.4052 15.9569L34.1718 15.8674M34.1254 14.6332L33.3589 14.7227M34.1254 14.6332L33.3589 14.7227M33.3589 14.7227C33.3588 14.7227 33.3588 14.7227 33.3588 14.7227M33.3589 14.7227L33.3588 14.7227M33.3588 14.7227C33.3588 14.7227 33.3588 14.7227 33.3587 14.7227M33.3588 14.7227L33.3587 14.7227M33.3587 14.7227C33.0896 14.7541 32.7461 14.9548 32.7637 15.3487L33.3587 14.7227ZM34.1718 15.8674L34.9383 15.7778M34.1718 15.8674L34.9383 15.7778M34.9383 15.7778C34.9384 15.7778 34.9384 15.7778 34.9384 15.7778C35.2076 15.7465 35.5511 15.5458 35.5334 15.1519L34.9383 15.7778Z" fill="#18B28D" stroke="#18B28D" strokeWidth="0.4"/>
<path d="M35.4233 25.9134L35.4234 25.9135L36.0721 26.3317L36.7208 26.7498C36.7208 26.7498 36.7208 26.7498 36.7208 26.7498C37.0043 26.9325 37.098 27.284 36.9394 27.5839C36.9393 27.5839 36.9393 27.584 36.9393 27.584L36.7625 27.4905L35.4233 25.9134ZM35.4233 25.9134C35.2755 25.8183 35.0981 25.8064 34.9473 25.846M35.4233 25.9134L34.9473 25.846M34.9473 25.846C34.7964 25.8856 34.6478 25.9829 34.5657 26.1382L34.9473 25.846ZM36.0816 27.8087L36.0817 27.8087L34.5657 26.1383C34.407 26.4382 34.5007 26.7896 34.7842 26.9724C34.7842 26.9724 34.7843 26.9724 34.7843 26.9724L35.4329 27.3905L36.0816 27.8087Z" fill="#18B28D" stroke="#18B28D" strokeWidth="0.4"/>
<path d="M27.0585 33.2263L27.0585 33.2263L26.962 34.7671L26.962 34.7671C26.9508 34.9463 27.033 35.107 27.1439 35.2167C27.2546 35.3262 27.4145 35.4056 27.589 35.3978L27.589 35.3978C27.9349 35.3822 28.1773 35.123 28.1981 34.7921L28.1981 34.7921L28.2946 33.2513L28.2946 33.2513C28.3058 33.0721 28.2236 32.9114 28.1127 32.8017C28.002 32.6921 27.8421 32.6128 27.6676 32.6206L27.6676 32.6206C27.3217 32.6362 27.0793 32.8954 27.0585 33.2263Z" fill="#18B28D" stroke="#18B28D" strokeWidth="0.4"/>
<path d="M9.38054 22.3823L9.38054 22.3823L9.28404 23.9231L9.28404 23.9231C9.27285 24.1023 9.35506 24.263 9.46595 24.3727C9.57667 24.4823 9.73655 24.5616 9.91099 24.5538L9.91107 24.5538C10.2569 24.5382 10.4993 24.279 10.5201 23.9481L10.5201 23.9481L10.6166 22.4073L10.6166 22.4073C10.6278 22.2281 10.5456 22.0674 10.4347 21.9577C10.324 21.8481 10.1641 21.7688 9.98966 21.7766L9.98958 21.7766C9.64375 21.7922 9.40134 22.0514 9.38054 22.3823Z" fill="#18B28D" stroke="#18B28D" strokeWidth="0.4"/>
<path d="M16.5007 31.0896H18.0444C18.3994 31.0896 18.6482 31.3794 18.6626 31.699L16.5007 31.0896ZM16.5007 31.0896C16.1823 31.0896 15.8665 31.3633 15.8825 31.717L16.5007 31.0896ZM15.8825 31.717C15.8968 32.0366 16.1457 32.3264 16.5007 32.3264H18.0444C18.3627 32.3264 18.6785 32.0527 18.6626 31.699L15.8825 31.717Z" fill="#18B28D" stroke="#18B28D" strokeWidth="0.4"/>
<path d="M15.9518 18.363L15.9519 18.3629L17.3864 17.7928C17.3865 17.7928 17.3865 17.7928 17.3865 17.7928C17.5693 17.7201 17.7496 17.7653 17.8826 17.8497C18.0133 17.9326 18.1183 18.0642 18.1653 18.2091C18.1653 18.2092 18.1653 18.2092 18.1653 18.2093L17.975 18.2708C18.0501 18.5022 17.8855 18.7048 17.6828 18.7855L15.9518 18.363ZM15.9518 18.363C15.6975 18.4642 15.4224 18.7523 15.5433 19.1252M15.9518 18.363L15.5433 19.1252M15.5433 19.1252L15.7336 19.0635L15.5433 19.1252Z" fill="#18B28D" stroke="#18B28D" strokeWidth="0.4"/>
<path d="M25.6823 10.8224L25.6824 10.8225L26.2578 11.3369L26.8331 11.8512C26.8331 11.8512 26.8332 11.8513 26.8332 11.8513C27.0677 12.0611 27.4469 12.0965 27.6997 11.8436C27.8169 11.7264 27.8763 11.565 27.8791 11.4093C27.882 11.2525 27.8273 11.0827 27.6917 10.9613L27.6916 10.9612L27.1163 10.4468L26.541 9.9325C26.5409 9.93248 26.5409 9.93247 26.5409 9.93245C26.5409 9.93244 26.5409 9.93242 26.5409 9.93241C26.3063 9.72258 25.9272 9.68724 25.6743 9.94011C25.5571 10.0573 25.4978 10.2187 25.4949 10.3744C25.4921 10.5312 25.5467 10.701 25.6823 10.8224Z" fill="#18B28D" stroke="#18B28D" strokeWidth="0.4"/>
<path d="M13.3926 14.4474C13.4136 14.9138 12.9934 15.2839 12.5653 15.2839C12.0932 15.2839 11.7575 14.8984 11.738 14.4654L13.3926 14.4474ZM13.3926 14.4474C13.3732 14.0144 13.0374 13.6289 12.5653 13.6289C12.1372 13.6289 11.717 13.9989 11.738 14.4653L13.3926 14.4474Z" fill="black" stroke="black" strokeWidth="0.4"/>
<path d="M21.565 9.37293C21.586 9.83938 21.1657 10.2094 20.7377 10.2094C20.2655 10.2094 19.9298 9.82389 19.9104 9.39091L21.565 9.37293ZM21.565 9.37293C21.5455 8.93993 21.2098 8.55439 20.7377 8.55439C20.3096 8.55439 19.8893 8.92442 19.9104 9.39087L21.565 9.37293Z" fill="black" stroke="black" strokeWidth="0.4"/>
<path d="M24.2359 14.4474C24.2569 14.9138 23.8366 15.2839 23.4086 15.2839C22.9364 15.2839 22.6007 14.8984 22.5813 14.4654L24.2359 14.4474ZM24.2359 14.4474C24.2164 14.0144 23.8807 13.6289 23.4086 13.6289C22.9805 13.6289 22.5602 13.9989 22.5813 14.4653L24.2359 14.4474Z" fill="black" stroke="black" strokeWidth="0.4"/>
<path d="M31.8743 11.2426C31.8953 11.709 31.4751 12.079 31.047 12.079C30.5749 12.079 30.2391 11.6935 30.2197 11.2605L31.8743 11.2426ZM31.8743 11.2426C31.8548 10.8096 31.5191 10.424 31.047 10.424C30.6189 10.424 30.1987 10.794 30.2197 11.2605L31.8743 11.2426Z" fill="black" stroke="black" strokeWidth="0.4"/>
<path d="M36.4145 20.1627C36.4355 20.6292 36.0152 20.9992 35.5871 20.9992C35.115 20.9992 34.7793 20.6137 34.7598 20.1807L36.4145 20.1627ZM36.4145 20.1627C36.395 19.7297 36.0593 19.3442 35.5871 19.3442C35.1591 19.3442 34.7388 19.7142 34.7598 20.1807L36.4145 20.1627Z" fill="black" stroke="black" strokeWidth="0.4"/>
<path d="M32.6217 31.5934C32.6427 32.0598 32.2225 32.4299 31.7944 32.4299C31.3223 32.4299 30.9866 32.0444 30.9671 31.6114L32.6217 31.5934ZM32.6217 31.5934C32.6023 31.1604 32.2666 30.7749 31.7944 30.7749C31.3664 30.7749 30.9461 31.1449 30.9671 31.6113L32.6217 31.5934Z" fill="black" stroke="black" strokeWidth="0.4"/>
<path d="M41.4353 24.9699C41.4563 25.4363 41.0361 25.8063 40.608 25.8063C40.1359 25.8063 39.8002 25.4208 39.7807 24.9878L41.4353 24.9699ZM41.4353 24.9699C41.4159 24.5369 41.0802 24.1513 40.608 24.1513C40.18 24.1513 39.7597 24.5213 39.7807 24.9878L41.4353 24.9699Z" fill="black" stroke="black" strokeWidth="0.4"/>
<path d="M15.636 24.6498C15.657 25.1162 15.2368 25.4863 14.8087 25.4863C14.3366 25.4863 14.0009 25.1008 13.9814 24.6678L15.636 24.6498ZM15.636 24.6498C15.6166 24.2168 15.2808 23.8312 14.8087 23.8312C14.3806 23.8312 13.9604 24.2013 13.9814 24.6677L15.636 24.6498Z" fill="black" stroke="black" strokeWidth="0.4"/>
<path d="M11.9507 29.1898C11.9717 29.6563 11.5515 30.0263 11.1234 30.0263C10.6513 30.0263 10.3156 29.6408 10.2961 29.2078L11.9507 29.1898ZM11.9507 29.1898C11.9313 28.7568 11.5955 28.3713 11.1234 28.3713C10.6953 28.3713 10.2751 28.7413 10.2961 29.2078L11.9507 29.1898Z" fill="black" stroke="black" strokeWidth="0.4"/>
<path d="M11.2027 17.9728C11.2237 18.4392 10.8034 18.8093 10.3754 18.8093C9.90323 18.8093 9.56752 18.4237 9.54805 17.9908L11.2027 17.9728ZM11.2027 17.9728C11.1832 17.5398 10.8475 17.1542 10.3754 17.1542C9.94729 17.1542 9.52704 17.5243 9.54805 17.9907L11.2027 17.9728Z" fill="black" stroke="black" strokeWidth="0.4"/>
<path d="M30.4855 16.317C30.5065 16.7835 30.0863 17.1535 29.6582 17.1535C29.1861 17.1535 28.8504 16.768 28.8309 16.335L30.4855 16.317ZM30.4855 16.317C30.466 15.884 30.1303 15.4985 29.6582 15.4985C29.2301 15.4985 28.8099 15.8685 28.8309 16.335L30.4855 16.317Z" fill="black" stroke="black" strokeWidth="0.4"/>
<path d="M23.5413 33.3561C23.5623 33.8225 23.142 34.1926 22.714 34.1926C22.2418 34.1926 21.9061 33.807 21.8867 33.3741L23.5413 33.3561ZM23.5413 33.3561C23.5218 32.9231 23.1861 32.5375 22.714 32.5375C22.2859 32.5375 21.8657 32.9076 21.8867 33.374L23.5413 33.3561Z" fill="black" stroke="black" strokeWidth="0.4"/>
<path d="M38.2304 31.1661C38.2514 31.6326 37.8311 32.0026 37.4031 32.0026C36.9309 32.0026 36.5952 31.6171 36.5758 31.1841L38.2304 31.1661ZM38.2304 31.1661C38.2109 30.7331 37.8752 30.3476 37.4031 30.3476C36.975 30.3476 36.5547 30.7176 36.5758 31.1841L38.2304 31.1661Z" fill="black" stroke="black" strokeWidth="0.4"/>
<path d="M39.6725 16.1569C39.6935 16.6233 39.2733 16.9933 38.8452 16.9933C38.3731 16.9933 38.0374 16.6078 38.0179 16.1748L39.6725 16.1569ZM39.6725 16.1569C39.6531 15.7239 39.3173 15.3383 38.8452 15.3383C38.4171 15.3383 37.9969 15.7084 38.0179 16.1748L39.6725 16.1569Z" fill="black" stroke="black" strokeWidth="0.4"/>
</svg>
