<svg width="23" height="33" viewBox="0 0 23 33" fill="none" xmlns="http://www.w3.org/2000/svg">
<g clip-path="url(#clip0_353_4025)">
<path d="M9.20021 14.4902L9.03021 15.6302L8.98021 16.0002C8.98021 16.1102 8.87021 16.2002 8.76021 16.2002H6.97021C6.86021 16.2002 6.77021 16.1202 6.75021 16.0002L6.58021 14.8102C6.31021 14.7002 6.06021 14.5602 5.83021 14.3802L4.72021 14.8302C4.62021 14.8602 4.50021 14.8302 4.44021 14.7302L3.55021 13.1802C3.50021 13.0902 3.52021 12.9602 3.60021 12.8902L4.55021 12.1502C4.52021 12.0102 4.52021 11.8602 4.52021 11.7202C4.52021 11.5802 4.54021 11.4202 4.55021 11.2802L3.61021 10.5402C3.52021 10.4702 3.50021 10.3502 3.55021 10.2602L4.45021 8.71023C4.50021 8.61023 4.62021 8.57023 4.72021 8.61023L5.83021 9.06024C6.07021 8.88024 6.31021 8.73023 6.59021 8.62023L6.75021 7.43023C6.77021 7.33023 6.86021 7.24023 6.97021 7.24023H8.77021C8.88021 7.24023 8.97021 7.32023 8.99021 7.43023L9.15021 8.62023C9.43021 8.73023 9.68021 8.88024 9.90021 9.06024L11.0202 8.61023C11.1202 8.58023 11.2302 8.61023 11.2902 8.71023L12.1902 10.2602C12.2402 10.3502 12.2202 10.4702 12.1302 10.5402L10.8002 11.5702" stroke="black" stroke-linecap="round" stroke-linejoin="round"/>
<path d="M21.3101 16.9405C21.3301 16.7605 21.3401 16.5805 21.3401 16.3905C21.3401 16.2005 21.3401 16.0105 21.3101 15.8405L22.6701 14.7805C22.9301 14.5805 23.0001 14.2205 22.8401 13.9205L21.4201 11.4705C21.2701 11.1805 20.9201 11.0505 20.5901 11.1705L18.9901 11.8205C18.6801 11.6005 18.3701 11.4105 18.0301 11.2705L17.7901 9.56047C17.7401 9.23047 17.4601 8.98047 17.1301 8.98047H14.2801C13.9501 8.98047 13.6601 9.23047 13.6201 9.56047L13.3701 11.2705C13.0501 11.4105 12.7301 11.6005 12.4201 11.8205L11.6001 11.4905L10.8201 11.1705C10.5101 11.0505 10.1601 11.1705 10.0001 11.4705L8.58009 13.9405C8.41009 14.2405 8.48009 14.6005 8.75009 14.7905L9.56009 15.4305L10.1001 15.8505C10.0801 16.0505 10.0701 16.2305 10.0701 16.4005C10.0701 16.5805 10.0701 16.7805 10.1001 16.9505L8.73009 18.0105C8.48009 18.2205 8.41009 18.5705 8.57009 18.8705L9.98009 21.3205C10.1401 21.6105 10.4801 21.7405 10.8101 21.6205L12.4201 20.9705C12.7301 21.1905 13.0401 21.3805 13.3701 21.5305L13.6201 23.2505C13.6801 23.5805 13.9601 23.8105 14.2801 23.8105H17.1201C17.4601 23.8105 17.7501 23.5505 17.7801 23.2305L18.0201 21.5205C18.3401 21.3805 18.6601 21.1905 18.9701 20.9705L20.5801 21.6205C20.9001 21.7405 21.2401 21.6205 21.4101 21.3205L22.8301 18.8605C23.0001 18.5605 22.9301 18.2005 22.6601 18.0005L21.3101 16.9405ZM17.9101 17.1605C17.6901 17.8305 17.1301 18.3805 16.4601 18.6105C15.5801 18.9005 14.6701 18.6805 14.0301 18.0405C13.3901 17.4005 13.1801 16.4905 13.4701 15.6105C13.6901 14.9405 14.2401 14.3905 14.9101 14.1605C15.1701 14.0805 15.4301 14.0405 15.6901 14.0405C16.3101 14.0405 16.8901 14.2705 17.3401 14.7305C17.9801 15.3705 18.1901 16.2805 17.9101 17.1605Z" fill="#18B28D"/>
<path d="M18.38 25.97V29.39C18.38 30.84 17.21 32.01 15.76 32.01H3.12C1.67 32.01 0.5 30.84 0.5 29.39V3.12C0.5 1.67 1.67 0.5 3.12 0.5H15.76C17.21 0.5 18.38 1.67 18.38 3.12V6.01" stroke="black" stroke-linecap="round" stroke-linejoin="round"/>
<path d="M8.02979 28.6797H10.8498" stroke="black" stroke-linecap="round" stroke-linejoin="round"/>
</g>
<defs>
<clipPath id="clip0_353_4025">
<rect width="22.92" height="32.51" fill="black"/>
</clipPath>
</defs>
</svg>
