<svg width="31" height="23" viewBox="0 0 31 23" fill="none" xmlns="http://www.w3.org/2000/svg">
<g clip-path="url(#clip0_353_4032)">
<path d="M24.3299 0.5C22.7199 0.5 21.4199 1.81 21.4199 3.41C21.4199 3.79 21.4999 4.15 21.6299 4.48C22.0599 5.56 23.1099 6.32 24.3299 6.32C25.5499 6.32 26.5999 5.56 27.0299 4.48C27.1599 4.15 27.2399 3.79 27.2399 3.41C27.2399 1.8 25.9299 0.5 24.3299 0.5Z" stroke="black" stroke-linecap="round" stroke-linejoin="round"/>
<path d="M28.2699 19.0296C28.5799 19.1396 28.8599 19.1396 28.9099 19.1396C29.3999 19.1396 29.8199 18.9196 30.1099 18.5596C30.3499 18.2596 30.4999 17.8696 30.4999 17.4196V10.9596C30.4999 9.24961 29.1099 7.84961 27.3899 7.84961H21.2599C19.5499 7.84961 18.1499 9.23961 18.1499 10.9596" stroke="black" stroke-linecap="round" stroke-linejoin="round"/>
<path d="M28.1001 13.0303V19.2003V19.6003C26.9301 19.9403 25.6601 20.1303 24.3301 20.1303C23.0901 20.1303 21.9101 19.9603 20.8101 19.6703" stroke="black" stroke-linecap="round" stroke-linejoin="round"/>
<path d="M6.66977 0.5C5.05977 0.5 3.75977 1.81 3.75977 3.41C3.75977 3.79 3.83977 4.15 3.96977 4.48C4.39977 5.56 5.44977 6.32 6.66977 6.32C7.88977 6.32 8.93977 5.56 9.36977 4.48C9.49977 4.15 9.57977 3.79 9.57977 3.41C9.57977 1.8 8.26977 0.5 6.66977 0.5Z" stroke="black" stroke-linecap="round" stroke-linejoin="round"/>
<path d="M12.78 10.3296C12.49 8.91961 11.24 7.84961 9.74 7.84961H3.61C1.9 7.84961 0.5 9.23961 0.5 10.9596V17.4196C0.5 17.8696 0.65 18.2596 0.89 18.5596C1.18 18.9196 1.6 19.1396 2.09 19.1396C2.14 19.1396 2.42 19.1396 2.73 19.0296" stroke="black" stroke-linecap="round" stroke-linejoin="round"/>
<path d="M10.0599 19.7003C8.9999 19.9703 7.8599 20.1303 6.6699 20.1303C5.3399 20.1303 4.0699 19.9403 2.8999 19.6003V19.2003V13.0303" stroke="black" stroke-linecap="round" stroke-linejoin="round"/>
<path d="M15.4996 1.37988C13.5096 1.37988 11.8896 2.99988 11.8896 4.98988C11.8896 5.45988 11.9896 5.90988 12.1496 6.31988C12.6796 7.64988 13.9796 8.59988 15.4996 8.59988C17.0196 8.59988 18.3096 7.64988 18.8496 6.31988C19.0096 5.90988 19.1096 5.45988 19.1096 4.98988C19.1096 2.99988 17.4896 1.37988 15.4996 1.37988Z" fill="#18B28D"/>
<path d="M18.8398 9.57031H12.1598C10.2898 9.57031 8.77979 11.0903 8.77979 12.9503V20.2803C8.77979 20.7703 8.93979 21.1903 9.19979 21.5203C9.50979 21.9103 9.96979 22.1503 10.5098 22.1503C10.5698 22.1503 10.6198 22.1303 10.6698 22.1303V15.2003C10.6698 15.0003 10.8298 14.8403 11.0298 14.8403C11.2298 14.8403 11.3898 15.0003 11.3898 15.2003V21.9203V22.3603C12.6698 22.7303 14.0498 22.9403 15.4998 22.9403C16.9498 22.9403 18.3398 22.7303 19.6098 22.3603V21.9203V15.2003C19.6098 15.0003 19.7698 14.8403 19.9698 14.8403C20.1698 14.8403 20.3298 15.0003 20.3298 15.2003V22.1303C20.3798 22.1303 20.4398 22.1503 20.4898 22.1503C21.0298 22.1503 21.4898 21.9103 21.7998 21.5203C22.0598 21.1903 22.2198 20.7703 22.2198 20.2803V12.9503C22.2198 11.0803 20.6998 9.57031 18.8398 9.57031Z" fill="#18B28D"/>
</g>
<defs>
<clipPath id="clip0_353_4032">
<rect width="31" height="22.95" fill="white"/>
</clipPath>
</defs>
</svg>
