<svg width="31" height="24" viewBox="0 0 31 24" fill="none" xmlns="http://www.w3.org/2000/svg">
<g clip-path="url(#clip0_353_4009)">
<path d="M2.43957 0.453125H28.9896C29.6096 0.453125 30.1196 0.953125 30.1196 1.58312V4.65312H1.30957V1.58312C1.30957 0.953125 1.81957 0.453125 2.43957 0.453125Z" fill="#18B28D"/>
<path d="M29.2298 1.28312C29.3598 1.28312 29.4698 1.37312 29.4698 1.47312V22.2331C29.4698 22.3431 29.3598 22.4231 29.2298 22.4231H1.78977C1.65977 22.4231 1.54977 22.3331 1.54977 22.2331V1.47312C1.54977 1.36312 1.65977 1.28312 1.78977 1.28312H29.2298ZM29.2298 0.453125H1.78977C1.07977 0.453125 0.509766 0.913125 0.509766 1.47312V22.2331C0.509766 22.7931 1.07977 23.2531 1.78977 23.2531H29.2298C29.9398 23.2531 30.5098 22.7931 30.5098 22.2331V1.47312C30.5098 0.913125 29.9398 0.453125 29.2298 0.453125Z" fill="white"/>
<path d="M14.5495 18.3735C14.5495 18.3735 14.4795 18.3735 14.4395 18.3635C14.1795 18.3035 14.0195 18.0435 14.0795 17.7935L16.0695 9.04349C16.1295 8.78349 16.3795 8.62349 16.6395 8.68349C16.8995 8.74349 17.0595 9.00349 16.9995 9.25349L15.0095 18.0035C14.9595 18.2235 14.7595 18.3735 14.5395 18.3735H14.5495Z" fill="white"/>
<path d="M11.8396 16.9433C11.7296 16.9433 11.6196 16.9033 11.5296 16.8333L7.99959 13.8733C7.88959 13.7833 7.82959 13.6433 7.82959 13.5033C7.82959 13.3633 7.88959 13.2233 7.99959 13.1333L11.5296 10.2133C11.7296 10.0433 12.0396 10.0733 12.2096 10.2733C12.3796 10.4833 12.3496 10.7833 12.1396 10.9533L9.04959 13.5033L12.1396 16.0933C12.3396 16.2633 12.3696 16.5633 12.1996 16.7733C12.1096 16.8833 11.9696 16.9433 11.8296 16.9433H11.8396Z" fill="white"/>
<path d="M19.2497 16.9433C19.1097 16.9433 18.9797 16.8833 18.8797 16.7733C18.7097 16.5733 18.7397 16.2633 18.9397 16.0933L22.0297 13.5033L18.9397 10.9533C18.7397 10.7833 18.7097 10.4833 18.8697 10.2733C19.0397 10.0733 19.3397 10.0433 19.5497 10.2133L23.0797 13.1333C23.1897 13.2233 23.2497 13.3633 23.2497 13.5033C23.2497 13.6433 23.1897 13.7833 23.0797 13.8733L19.5497 16.8333C19.4597 16.9033 19.3497 16.9433 19.2397 16.9433H19.2497Z" fill="white"/>
</g>
<defs>
<clipPath id="clip0_353_4009">
<rect width="30" height="22.8" fill="white" transform="translate(0.509766 0.453125)"/>
</clipPath>
</defs>
</svg>
