<svg width="31" height="32" viewBox="0 0 31 32" fill="none" xmlns="http://www.w3.org/2000/svg">
<g clip-path="url(#clip0_353_4001)">
<path d="M29.9896 31.0096H21.3296C21.0396 31.0096 20.8096 30.7796 20.8096 30.4896V21.8296C20.8096 21.5396 21.0396 21.3096 21.3296 21.3096H29.9896C30.2796 21.3096 30.5096 21.5396 30.5096 21.8296V30.4896C30.5096 30.7796 30.2796 31.0096 29.9896 31.0096ZM21.8496 29.9696H29.4696V22.3496H21.8496V29.9696Z" fill="white"/>
<path d="M5.34977 30.9798C8.02282 30.9798 10.1898 28.8129 10.1898 26.1398C10.1898 23.4667 8.02282 21.2998 5.34977 21.2998C2.67671 21.2998 0.509766 23.4667 0.509766 26.1398C0.509766 28.8129 2.67671 30.9798 5.34977 30.9798Z" fill="#18B28D"/>
<path d="M25.6496 19.61C25.3596 19.61 25.1296 19.38 25.1296 19.09V15.79H5.84957V19.09C5.84957 19.38 5.61957 19.61 5.32957 19.61C5.03957 19.61 4.80957 19.38 4.80957 19.09V15.27C4.80957 14.98 5.03957 14.75 5.32957 14.75H25.6496C25.9396 14.75 26.1696 14.98 26.1696 15.27V19.09C26.1696 19.38 25.9396 19.61 25.6496 19.61Z" fill="white"/>
<path d="M15.6596 15.5302C15.3696 15.5302 15.1396 15.3002 15.1396 15.0102V11.7202C15.1396 11.4302 15.3696 11.2002 15.6596 11.2002C15.9496 11.2002 16.1796 11.4302 16.1796 11.7202V15.0102C16.1796 15.3002 15.9496 15.5302 15.6596 15.5302Z" fill="white"/>
<path d="M15.6596 9.53957C15.5596 9.53957 15.4596 9.50957 15.3796 9.45957L8.87965 5.20957C8.72965 5.10957 8.63965 4.94957 8.63965 4.77957C8.63965 4.60957 8.72965 4.43957 8.87965 4.34957L15.3796 0.0795703C15.5496 -0.0304297 15.7796 -0.0304297 15.9496 0.0795703L22.4496 4.32957C22.5996 4.42957 22.6896 4.58957 22.6896 4.75957C22.6896 4.92957 22.5996 5.09957 22.4496 5.18957L15.9496 9.43957C15.8596 9.49957 15.7596 9.51957 15.6696 9.51957L15.6596 9.53957ZM10.1096 4.76957L15.6596 8.39957L21.2096 4.76957L15.6596 1.13957L10.1096 4.76957Z" fill="white"/>
</g>
<defs>
<clipPath id="clip0_353_4001">
<rect width="30" height="31.01" fill="white" transform="translate(0.509766)"/>
</clipPath>
</defs>
</svg>
