<svg width="27" height="33" viewBox="0 0 27 33" fill="none" xmlns="http://www.w3.org/2000/svg">
<g clip-path="url(#clip0_353_3992)">
<path d="M15.1048 1.28977L16.2648 2.76977C16.7448 3.37977 17.5248 3.65977 18.2848 3.49977L20.1248 3.10977C21.4148 2.83977 22.6148 3.84977 22.5748 5.16977L22.5148 7.04977C22.4948 7.81977 22.9048 8.53977 23.5848 8.90977L25.2448 9.79977C26.4048 10.4198 26.6848 11.9698 25.8048 12.9498L24.5548 14.3498C24.0348 14.9298 23.8948 15.7498 24.1848 16.4698L24.8848 18.2198C25.3748 19.4398 24.5948 20.8098 23.2848 20.9898L21.4248 21.2598C20.6548 21.3698 20.0248 21.8998 19.7748 22.6398L19.1848 24.4298C18.7748 25.6798 17.2948 26.2198 16.1748 25.5198L14.5748 24.5298C13.9148 24.1198 13.0848 24.1198 12.4248 24.5298L10.8248 25.5198C9.7048 26.2198 8.2248 25.6798 7.8148 24.4298L7.2248 22.6398C6.9848 21.8998 6.3448 21.3698 5.5748 21.2598L3.7148 20.9898C2.4048 20.7998 1.6248 19.4398 2.1148 18.2198L2.8148 16.4698C3.1048 15.7498 2.9548 14.9298 2.4448 14.3498L1.1948 12.9498C0.314805 11.9698 0.584805 10.4198 1.7548 9.79977L3.4148 8.90977C4.0948 8.53977 4.5148 7.81977 4.4848 7.04977L4.4248 5.16977C4.3848 3.84977 5.5848 2.83977 6.8748 3.10977L8.7148 3.49977C9.4748 3.65977 10.2548 3.36977 10.7348 2.76977L11.8948 1.28977C12.7048 0.249766 14.2848 0.249766 15.0948 1.28977H15.1048Z" stroke="black" strokeWidth="1.02" stroke-linecap="round" stroke-linejoin="round"/>
<path d="M13.505 24.3104L10.485 32.0404L8.43504 27.9804L4.41504 28.9904L7.01504 22.1904" stroke="black" stroke-linecap="round" stroke-linejoin="round"/>
<path d="M13.5049 24.3104L16.5349 32.0404L18.5849 27.9804L22.6049 28.9904L20.0049 22.1904" stroke="black" stroke-linecap="round" stroke-linejoin="round"/>
<path d="M21.1348 8.69975C20.7148 8.24975 20.0348 8.24975 19.6048 8.66975L13.4948 14.7797L11.3248 12.6097C10.9248 12.2097 10.2748 12.2197 9.88478 12.6397C9.50478 13.0397 9.57478 13.6897 9.96478 14.0797L13.2548 17.2197C13.5348 17.4197 13.9048 17.3897 14.1448 17.1497L19.5948 11.7097L19.8048 11.4997L21.0648 10.2397C21.4748 9.82975 21.5448 9.13975 21.1448 8.70975L21.1348 8.69975Z" fill="#18AD88"/>
<path d="M20.9247 13.1304C20.9247 13.2704 20.9347 13.4004 20.9347 13.5404C20.9347 17.6404 17.6047 20.9704 13.5047 20.9704C9.40471 20.9704 6.07471 17.6404 6.07471 13.5404C6.07471 9.44035 9.40471 6.11035 13.5047 6.11035C15.1347 6.11035 16.6347 6.63035 17.8647 7.52035" stroke="black" stroke-linecap="round" stroke-linejoin="round"/>
</g>
<defs>
<clipPath id="clip0_353_3992">
<rect width="26.67" height="32.54" fill="white" transform="translate(0.174805)"/>
</clipPath>
</defs>
</svg>
