<svg width="48" height="48" viewBox="0 0 48 48" fill="none" xmlns="http://www.w3.org/2000/svg">
<path d="M23.937 33.8965C24.4134 33.8965 24.8038 34.2803 24.8038 34.7633C24.8038 35.2464 24.42 35.6302 23.937 35.6302C23.4539 35.6302 23.0767 35.2464 23.0767 34.7633C23.0767 34.2803 23.4605 33.8965 23.937 33.8965Z" fill="black"/>
<path d="M34.7692 25.5918C35.2456 25.5918 35.636 25.9756 35.636 26.4586C35.636 26.9417 35.2522 27.3255 34.7692 27.3255C34.2861 27.3255 33.9089 26.9417 33.9089 26.4586C33.9089 25.9756 34.2927 25.5918 34.7692 25.5918Z" fill="black"/>
<path d="M39.7519 12.3047H8.18802C7.72481 12.3047 7.32117 12.7017 7.32117 13.1715V32.3084C7.32117 32.7716 7.7182 33.1753 8.18802 33.1753H39.7519C40.2151 33.1753 40.6188 32.7782 40.6188 32.3084V13.1715C40.5526 12.7083 40.1556 12.3047 39.7519 12.3047ZM8.98869 31.4416V19.8152H14.8383C15.3015 19.8152 15.7051 19.4182 15.7051 18.9483C15.7051 18.4785 15.3081 18.0815 14.8383 18.0815H8.98869V17.2874H10.6496C11.1128 17.2874 11.5098 16.8904 11.5098 16.4206C11.5098 15.9508 11.1128 15.5537 10.6496 15.5537H8.98869V13.959H38.8917V25.5854H37.2308C36.7676 25.5854 36.3639 25.9824 36.3639 26.4522C36.3639 26.922 36.761 27.2529 37.2308 27.2529H38.8917V28.1197H33.0421C32.5789 28.1197 32.1753 28.5168 32.1753 28.9866C32.1753 29.4564 32.5723 29.8534 33.0421 29.8534H38.8917V31.5143H8.98869V31.4482V31.4416Z" fill="black"/>
<path d="M40.0828 9.84302H7.79095C6.13004 9.84302 4.79999 11.1731 4.79999 12.834V35.1603C4.79999 36.8212 6.13004 38.1513 7.79095 38.1513H18.9541V39.8122H17.6902C16.5587 39.8122 15.6323 40.7452 15.6323 41.8701C15.6323 42.9951 16.5653 43.9281 17.6902 43.9281H30.1835C31.315 43.9281 32.2414 42.9951 32.2414 41.8701C32.2414 40.7452 31.3084 39.8122 30.1835 39.8122H28.9196V38.1513H40.0828C41.7437 38.1513 43.0737 36.8212 43.0737 35.1603V12.7678C43.0737 11.1731 41.7437 9.84302 40.0828 9.84302ZM30.5805 41.804C30.5805 42.0025 30.382 42.201 30.1835 42.201H17.6902C17.4917 42.201 17.2932 42.0025 17.2932 41.804C17.2932 41.6054 17.4917 41.4069 17.6902 41.4069H30.1835C30.382 41.4069 30.5805 41.5393 30.5805 41.804ZM27.2587 39.746H20.615V38.0851H27.2587V39.746ZM41.4128 35.0942C41.4128 35.822 40.8173 36.4242 40.0828 36.4242H7.79095C7.06306 36.4242 6.4609 35.8287 6.4609 35.0942V12.7678C6.4609 12.0399 7.05644 11.4378 7.79095 11.4378H40.0828C40.8106 11.4378 41.4128 12.0333 41.4128 12.7678V35.0942Z" fill="black"/>
<path d="M35.5632 38.8792C36.0396 38.8792 36.43 39.2629 36.43 39.746C36.43 40.2291 36.0463 40.6128 35.5632 40.6128C35.0801 40.6128 34.6964 40.2291 34.6964 39.746C34.6964 39.2629 35.0801 38.8792 35.5632 38.8792Z" fill="black"/>
<path d="M42.2068 38.8792H38.0182C37.555 38.8792 37.1513 39.2762 37.1513 39.746C37.1513 40.2158 37.5483 40.6128 38.0182 40.6128H42.2068C42.67 40.6128 43.0737 40.2158 43.0737 39.746C43.0737 39.2762 42.6766 38.8792 42.2068 38.8792Z" fill="black"/>
<path d="M12.3105 38.8792C12.787 38.8792 13.1774 39.2629 13.1774 39.746C13.1774 40.2291 12.7936 40.6128 12.3105 40.6128C11.8275 40.6128 11.4437 40.2291 11.4437 39.746C11.4437 39.2629 11.8275 38.8792 12.3105 38.8792Z" fill="black"/>
<path d="M9.84889 38.8792H5.66022C5.19702 38.8792 4.79999 39.2762 4.79999 39.746C4.79999 40.2158 5.19702 40.6128 5.66022 40.6128H9.84889C10.3121 40.6128 10.7091 40.2158 10.7091 39.746C10.643 39.2828 10.2459 38.8792 9.84889 38.8792Z" fill="black"/>
<path d="M25.8624 21.1384V20.0069C25.8624 18.9415 25.0021 18.0813 23.9368 18.0813C22.8714 18.0813 22.0112 18.9481 22.0112 20.0069V21.1384H20.8796C19.8143 21.1384 18.954 22.0053 18.954 23.064C18.954 24.1228 19.8209 24.9896 20.8796 24.9896H22.0112V26.1212C22.0112 27.1865 22.878 28.0468 23.9368 28.0468C24.9955 28.0468 25.8624 27.1799 25.8624 26.1212V24.9896H26.9939C28.0593 24.9896 28.9195 24.1228 28.9195 23.064C28.9195 22.0053 28.0593 21.1384 26.9939 21.1384H25.8624ZM27.2586 23.1302C27.2586 23.2625 27.1263 23.3949 26.9939 23.3949H25.0683C24.6051 23.3949 24.2081 23.7919 24.2081 24.2617V26.1873C24.2081 26.3197 24.0757 26.452 23.9434 26.452C23.811 26.452 23.6787 26.3197 23.6787 26.1873V24.2617C23.6787 23.7985 23.2817 23.3949 22.8119 23.3949H20.8863C20.7539 23.3949 20.6216 23.2625 20.6216 23.1302C20.6216 22.9979 20.7539 22.8655 20.8863 22.8655H22.8119C23.2751 22.8655 23.6787 22.4685 23.6787 21.9987V20.0731C23.6787 19.9407 23.811 19.8084 23.9434 19.8084C24.0757 19.8084 24.2081 19.9407 24.2081 20.0731V21.9987C24.2081 22.4619 24.6051 22.8655 25.0683 22.8655H26.9939C27.1263 22.7993 27.2586 22.9317 27.2586 23.1302Z" fill="#18B28D"/>
<path d="M23.9369 15.6262C19.8144 15.6262 16.4264 18.948 16.4264 23.1367C16.4264 27.3254 19.8144 30.581 23.9369 30.581C28.0594 30.581 31.4474 27.2592 31.4474 23.0705C31.4474 18.8819 28.0594 15.6262 23.9369 15.6262ZM23.9369 28.9135C20.7474 28.9135 18.0873 26.3196 18.0873 23.0639C18.0873 19.8083 20.7474 17.2805 23.9369 17.2805C27.1264 17.2805 29.7865 19.8744 29.7865 23.1301C29.7865 26.3857 27.1264 28.9135 23.9369 28.9135Z" fill="black"/>
<path d="M13.1707 15.6262C13.6472 15.6262 14.0376 16.01 14.0376 16.4931C14.0376 16.9761 13.6538 17.3599 13.1707 17.3599C12.6877 17.3599 12.3039 16.9761 12.3039 16.4931C12.3039 16.01 12.6877 15.6262 13.1707 15.6262Z" fill="black"/>
<path d="M11.9068 8.97623C13.0383 8.97623 13.9647 8.04321 13.9647 6.91829C13.9647 5.79337 13.0317 4.86035 11.9068 4.86035C10.7818 4.86035 9.84882 5.79337 9.84882 6.91829C9.84882 8.04321 10.7818 8.97623 11.9068 8.97623ZM11.9068 6.51464C12.1053 6.51464 12.3038 6.71316 12.3038 6.91168C12.3038 7.11019 12.1053 7.30871 11.9068 7.30871C11.7082 7.30871 11.5097 7.11019 11.5097 6.91168C11.5097 6.71316 11.6421 6.51464 11.9068 6.51464Z" fill="#18B28D"/>
<path d="M37.6278 8.18205C38.7593 8.18205 39.6857 7.24903 39.6857 6.12411C39.6857 4.99919 38.7527 4 37.6278 4C36.5028 4 35.5698 4.93302 35.5698 6.05794C35.5698 7.18286 36.5028 8.18205 37.6278 8.18205ZM37.6278 5.65429C37.8263 5.65429 38.0248 5.85281 38.0248 6.05132C38.0248 6.24984 37.8263 6.44835 37.6278 6.44835C37.4293 6.44835 37.2307 6.31601 37.2307 6.05132C37.2307 5.78664 37.4293 5.65429 37.6278 5.65429Z" fill="#18B28D"/>
</svg>
