<svg width="48" height="48" viewBox="0 0 48 48" fill="none" xmlns="http://www.w3.org/2000/svg">
<path d="M29.6 10.4C29.6 10.4 34.8693 10.9942 37.6 13.2C40.2288 15.3235 41.9108 17.1398 42.8 20.4C43.5398 23.1127 43.6142 25.3087 42.8 28C41.9846 30.6955 40.9725 32.2081 38.8 34C36.5845 35.8274 34.8255 36.2862 32 36.8C28.9224 37.3597 24 36.4 24 36.4L29.6 25.6V10.4Z" fill="#18B28D"/>
<path d="M12.656 21.424C12.656 23.208 11.208 24.664 9.41603 24.664C7.62403 24.664 6.17603 23.216 6.17603 21.424C6.17603 19.632 7.62403 18.184 9.41603 18.184C11.208 18.184 12.656 19.632 12.656 21.424Z" stroke="black" strokeWidth="2" stroke-linecap="round" stroke-linejoin="round"/>
<path d="M9.41602 34.3359L12.88 36.6479H14.032" stroke="black" strokeWidth="2" stroke-linecap="round" stroke-linejoin="round"/>
<path d="M4.80005 36.648V29.792C4.80005 28.48 5.86405 27.408 7.18405 27.408H8.26405C8.99205 27.408 9.68805 27.736 10.136 28.32L14.04 33.272H14.96" stroke="black" strokeWidth="2" stroke-linecap="round" stroke-linejoin="round"/>
<path d="M11.4081 36.6479H29.8721" stroke="black" strokeWidth="2" stroke-linecap="round" stroke-linejoin="round"/>
<path d="M26.352 29.736L24.472 36.648H19.28C19.752 36.648 20.168 36.464 20.472 36.16C20.776 35.856 20.96 35.44 20.96 34.968C20.96 34.04 20.208 33.28 19.28 33.28H14.952L15.92 29.736H26.36H26.352Z" stroke="black" strokeWidth="2" stroke-linecap="round" stroke-linejoin="round"/>
<path d="M17.44 27.0479C17.2 26.0719 17.072 25.048 17.072 24C17.072 16.928 22.808 11.2 29.872 11.2C36.936 11.2 42.672 16.928 42.672 24C42.672 29.568 39.12 34.3039 34.16 36.0639" stroke="black" strokeWidth="2" stroke-linecap="round" stroke-linejoin="round"/>
<path d="M29.872 25.2559C30.5656 25.2559 31.128 24.6936 31.128 23.9999C31.128 23.3062 30.5656 22.7439 29.872 22.7439C29.1783 22.7439 28.616 23.3062 28.616 23.9999C28.616 24.6936 29.1783 25.2559 29.872 25.2559Z" stroke="black" strokeWidth="2" stroke-linecap="round" stroke-linejoin="round"/>
<path d="M29.8721 22.7439V16.4719" stroke="black" strokeWidth="2" stroke-linecap="round" stroke-linejoin="round"/>
<path d="M30.76 24.8879L33.664 27.7839" stroke="black" strokeWidth="2" stroke-linecap="round" stroke-linejoin="round"/>
<path d="M29.8721 13.224V14.456" stroke="black" strokeWidth="2" stroke-linecap="round" stroke-linejoin="round"/>
<path d="M21.968 16.496L22.848 17.368" stroke="black" strokeWidth="2" stroke-linecap="round" stroke-linejoin="round"/>
<path d="M36.9041 31.424L37.7761 32.296" stroke="black" strokeWidth="2" stroke-linecap="round" stroke-linejoin="round"/>
<path d="M18.696 24.392H19.936" stroke="black" strokeWidth="2" stroke-linecap="round" stroke-linejoin="round"/>
<path d="M39.808 24.392H41.048" stroke="black" strokeWidth="2" stroke-linecap="round" stroke-linejoin="round"/>
<path d="M36.9041 17.368L37.7761 16.496" stroke="black" strokeWidth="2" stroke-linecap="round" stroke-linejoin="round"/>
</svg>
