<?xml version="1.0" encoding="UTF-8"?>
<svg width="17px" height="12px" viewBox="0 0 17 12" version="1.1" xmlns="http://www.w3.org/2000/svg" xmlns:xlink="http://www.w3.org/1999/xlink">
    <title>flip-icon</title>
    <g id="4.0-Careers-(release-2.0)" stroke="none" stroke-width="1" fill="none" fill-rule="evenodd">
        <g id="Pet-Modal---Desktop" transform="translate(-372.000000, -497.000000)" fill="#000000" fill-rule="nonzero">
            <g id="pet_card" transform="translate(116.000000, 228.000000)">
                <g id="flip_icon" transform="translate(249.000000, 260.000000)">
                    <path d="M19.2988126,18.2094595 C19.5876618,18.5091165 19.5614028,18.9835735 19.2462946,19.2582591 C18.143416,20.2071731 16.7254293,20.7066015 15.2549245,20.7066015 C15.1236295,20.7066015 15.0185934,20.7066015 14.8872983,20.7066015 C13.2854985,20.6067158 11.8149938,19.9324875 10.7383742,18.7838022 C9.92434478,17.9098025 9.42542352,16.8360314 9.26786944,15.7123176 L8.7952072,16.0619174 C8.63765312,16.1618031 8.48009904,16.211746 8.29628594,16.211746 C8.05995482,16.211746 7.8236237,16.1118603 7.66606962,15.9370603 C7.40347948,15.6124319 7.45599751,15.1379749 7.79736468,14.8882607 L9.55671859,13.5647755 C9.55671859,13.5647755 9.55671859,13.5647755 9.58297761,13.5647755 C9.60923662,13.5647755 9.60923662,13.5398041 9.63549563,13.5398041 C9.66175465,13.5148326 9.68801366,13.5148326 9.71427267,13.4898612 C9.74053169,13.4898612 9.74053169,13.4648898 9.7667907,13.4648898 C9.79304971,13.4648898 9.81930873,13.4399184 9.84556774,13.4399184 C9.87182675,13.4399184 9.87182675,13.4399184 9.89808577,13.414947 C9.9506038,13.414947 9.97686281,13.3899756 10.0293808,13.3899756 C10.0293808,13.3899756 10.0556398,13.3899756 10.0556398,13.3899756 C10.1081579,13.3899756 10.1344169,13.3899756 10.1869349,13.3899756 C10.1869349,13.3899756 10.1869349,13.3899756 10.2131939,13.3899756 C10.2131939,13.3899756 10.2394529,13.3899756 10.2394529,13.3899756 C10.265712,13.3899756 10.291971,13.414947 10.344489,13.414947 C10.370748,13.414947 10.370748,13.414947 10.397007,13.4399184 C10.423266,13.4399184 10.4495251,13.4648898 10.4757841,13.4898612 C10.5020431,13.4898612 10.5020431,13.5148326 10.5283021,13.5148326 C10.5283021,13.5148326 10.5283021,13.5148326 10.5283021,13.5148326 L12.313915,14.6635179 C12.6815412,14.8882607 12.7603182,15.3627177 12.5239871,15.7123176 C12.287656,16.0619174 11.7887347,16.1368317 11.4211086,15.9120889 L10.8434103,15.5375176 C10.9484463,16.3615745 11.3160725,17.1356885 11.9200298,17.759974 C12.7078002,18.6090022 13.7844198,19.1084306 14.9923344,19.1833449 C16.17399,19.2582591 17.3293866,18.8836878 18.1959341,18.1345453 C18.5110422,17.8598596 19.0099635,17.8848311 19.2988126,18.2094595 Z M23.0856389,13.802378 C22.822661,13.4755258 22.3230031,13.4252408 21.9811319,13.6766656 L21.5077718,14.0286603 C21.3499851,12.8972487 20.8503272,11.8161221 20.0350959,10.9361354 C17.8260821,8.54759983 14.0129034,8.34646 11.5146139,10.4584283 C11.1990405,10.7349955 11.1464449,11.2127026 11.4620184,11.5144124 C11.751294,11.8161221 12.2509519,11.8412646 12.5665253,11.5646973 C14.4073702,10.0058636 17.221233,10.1567185 18.8516956,11.916692 C19.4565447,12.545254 19.8247136,13.3498134 19.9299048,14.1543727 L19.3513535,13.7772355 C18.9831846,13.5509532 18.5098244,13.6263806 18.2468466,13.9783753 C18.0101666,14.3303701 18.0890599,14.7829347 18.4572289,15.0343595 L20.2454782,16.1909135 C20.2454782,16.1909135 20.2454782,16.1909135 20.2454782,16.1909135 C20.2454782,16.1909135 20.271776,16.216056 20.271776,16.216056 C20.2980738,16.2411985 20.3243715,16.2411985 20.3506693,16.266341 C20.3769671,16.266341 20.3769671,16.266341 20.4032649,16.2914834 C20.4295627,16.3166259 20.4821582,16.3166259 20.508456,16.3166259 C20.508456,16.3166259 20.508456,16.3166259 20.5347538,16.3166259 C20.5347538,16.3166259 20.5347538,16.3166259 20.5347538,16.3166259 C20.5873494,16.3166259 20.6136472,16.3166259 20.6662427,16.3166259 C20.6662427,16.3166259 20.6662427,16.3166259 20.6662427,16.3166259 C20.6662427,16.3166259 20.6662427,16.3166259 20.6662427,16.3166259 C20.6662427,16.3166259 20.6662427,16.3166259 20.6662427,16.3166259 C20.7188383,16.3166259 20.7451361,16.3166259 20.7977316,16.3166259 C20.8240294,16.3166259 20.8240294,16.3166259 20.8503272,16.2914834 C20.876625,16.2914834 20.9029228,16.2914834 20.9292206,16.266341 C20.9555184,16.266341 20.9555184,16.2411985 20.9818161,16.2411985 C21.0081139,16.2411985 21.0344117,16.216056 21.0607095,16.216056 C21.0870073,16.216056 21.0870073,16.1909135 21.1133051,16.1909135 C21.1396028,16.1909135 21.1396028,16.165771 21.1659006,16.165771 L22.9278521,14.8332196 C23.2960211,14.6069373 23.3486167,14.1292302 23.0856389,13.802378 Z" id="flip-icon"></path>
                </g>
            </g>
        </g>
    </g>
</svg>