<svg width="48" height="48" viewBox="0 0 48 48" fill="none" xmlns="http://www.w3.org/2000/svg">
<path d="M37.7384 14.8792C38.208 14.8792 38.5929 15.2575 38.5929 15.7271C38.5929 16.1967 38.208 16.575 37.7384 16.575C37.2688 16.575 36.884 16.1967 36.884 15.7271C36.884 15.2575 37.2688 14.8792 37.7384 14.8792Z" fill="black"/>
<path d="M9.74403 13.2485C10.2202 13.2485 10.5985 13.6268 10.5985 14.0965C10.5985 14.5661 10.2136 14.9444 9.74403 14.9444C9.27441 14.9444 8.88959 14.5661 8.88959 14.0965C8.88959 13.6268 9.27441 13.2485 9.74403 13.2485Z" fill="black"/>
<path d="M7.23933 35.2944C7.70895 35.2944 8.09377 35.6727 8.09377 36.1424C8.09377 36.612 7.70895 36.9903 7.23933 36.9903C6.76971 36.9903 6.38489 36.612 6.38489 36.1424C6.38489 35.6727 6.76971 35.2944 7.23933 35.2944Z" fill="black"/>
<path d="M13.8271 33.6638C14.3032 33.6638 14.6815 34.0421 14.6815 34.5117C14.6815 34.9814 14.2967 35.3597 13.8271 35.3597C13.3575 35.3597 12.9727 34.9814 12.9727 34.5117C12.9727 34.0421 13.3575 33.6638 13.8271 33.6638Z" fill="black"/>
<path d="M26.2067 38.5557C26.6764 38.5557 27.0612 38.934 27.0612 39.4036C27.0612 39.8732 26.6764 40.2515 26.2067 40.2515C25.7371 40.2515 25.3523 39.8732 25.3523 39.4036C25.3523 38.934 25.7371 38.5557 26.2067 38.5557Z" fill="black"/>
<path d="M10.5985 16.6402C10.5985 16.1836 10.2006 15.7922 9.74403 15.7922C9.28746 15.7922 8.88959 16.1836 8.88959 16.6402C8.88959 23.6192 15.6729 26.0325 22.2606 32.6202C22.5868 32.9463 23.1151 32.9463 23.4477 32.6202C23.7738 32.2941 23.7738 31.7723 23.4477 31.4461C16.9253 24.9889 10.605 22.706 10.605 16.6402H10.5985Z" fill="black"/>
<path d="M36.884 22.2495C37.2101 22.2495 37.4776 22.0538 37.608 21.7929C38.2016 20.5537 38.4625 19.2492 38.4625 17.8142C38.4625 17.3577 38.0646 16.9663 37.608 16.9663C37.1514 16.9663 36.7536 17.3577 36.7536 17.8142C36.7536 18.9883 36.4927 20.0971 36.0296 21.0755C35.8991 21.5973 36.2905 22.2495 36.884 22.2495Z" fill="black"/>
<path d="M41.8867 26.75C41.8867 26.2282 41.4236 25.9021 40.967 25.9673C39.78 26.163 38.8603 26.163 38.0711 26.0325C40.9018 23.1626 42.6172 20.2275 42.6172 16.1836C42.6172 10.77 38.2015 6.3999 32.7357 6.3999C28.1895 6.3999 25.7501 8.55231 23.7086 12.2049C21.6671 8.61754 19.2277 6.3999 14.6815 6.3999C9.21569 6.3999 4.79999 10.77 4.79999 16.1836C4.79999 25.6412 14.088 28.9676 23.1151 37.9034C23.4412 38.2295 23.9695 38.2295 24.3022 37.9034C25.2218 36.9902 26.2132 36.0119 27.3351 35.0987C27.8634 37.5773 29.3114 38.7513 32.2074 41.6212C32.3378 41.7516 32.6052 41.8821 32.8009 41.8821H36.16C36.3557 41.8821 36.6231 41.8169 36.7535 41.6212C39.7865 38.4904 41.104 37.4468 41.6258 35.0335C41.9519 33.3377 41.8867 31.12 41.8867 26.75ZM23.7086 36.1423C14.8185 27.5979 6.45017 24.4019 6.45017 16.1184C6.45017 11.6179 10.1419 7.96529 14.6815 7.96529C18.5037 7.96529 20.6104 9.53068 22.9781 14.2269C23.3042 14.8139 24.1652 14.8139 24.4261 14.2269C26.7937 9.53068 28.907 7.96529 32.7227 7.96529C37.2688 7.96529 40.954 11.6179 40.954 16.1184C40.954 19.5753 39.5712 22.3147 36.2122 25.5107C35.7491 25.315 35.3577 25.0541 35.0251 24.7932C34.7642 24.5323 34.3663 24.5323 34.0337 24.728C32.1878 25.9673 30.1463 26.2934 28.0395 25.9021C27.5112 25.8368 27.0546 26.163 27.0546 26.6848C27.0546 29.359 27.0546 31.5766 27.1199 33.0768C25.8023 34.1856 24.7457 35.164 23.6956 36.1423H23.7086ZM39.9822 34.6422C39.5843 36.4685 38.5994 37.2511 35.7686 40.1863H33.0683C31.4247 38.4904 30.1724 37.3164 29.5136 36.2728C28.5939 34.7074 28.5939 32.9463 28.5939 27.6631C30.6355 27.8588 32.6118 27.4675 34.3272 26.4239C36.0426 27.5979 38.1493 27.7936 40.1909 27.6631C40.2561 31.0548 40.3213 33.2724 39.9952 34.6422H39.9822Z" fill="black"/>
<path d="M8.0938 28.772C6.71104 28.772 5.58917 29.8808 5.58917 31.2505C5.58917 32.6202 6.71104 33.729 8.0938 33.729C9.47656 33.729 10.5984 32.6202 10.5984 31.2505C10.5984 29.8808 9.41134 28.772 8.0938 28.772ZM8.0938 32.0332C7.6307 32.0332 7.23936 31.6419 7.23936 31.1853C7.23936 30.7287 7.63723 30.3374 8.0938 30.3374C8.55037 30.3374 8.94824 30.7287 8.94824 31.1853C8.88302 31.6419 8.48515 32.0332 8.0938 32.0332Z" fill="black"/>
<path d="M16.7231 35.2944C15.1447 35.2944 13.8271 36.5989 13.8271 38.1643C13.8271 39.7297 15.1447 41.0342 16.7231 41.0342C18.3016 41.0342 19.6191 39.7297 19.6191 38.1643C19.6191 36.5989 18.3016 35.2944 16.7231 35.2944ZM16.7231 39.4036C16.0644 39.4036 15.4708 38.8818 15.4708 38.1643C15.4708 37.4468 15.9991 36.925 16.7231 36.925C17.4471 36.925 17.9754 37.4468 17.9754 38.1643C17.9754 38.8818 17.3819 39.4036 16.7231 39.4036Z" fill="black"/>
<rect x="40" y="26.3999" width="2.4" height="4" fill="white"/>
<path d="M34.6224 32.0314L32.6663 30.0623C32.6662 30.0623 32.6662 30.0622 32.6661 30.0622C32.5139 29.9079 32.3023 29.8215 32.0889 29.8246C32.0886 29.8246 32.0884 29.8246 32.0881 29.8246L34.6224 32.0314ZM34.6224 32.0314L41.7197 24.8872C41.8706 24.7353 42.0744 24.6498 42.2882 24.6498C42.5017 24.6498 42.7067 24.7351 42.857 24.8874C42.857 24.8875 42.8571 24.8875 42.8571 24.8876L44.7148 26.7575C45.0284 27.0732 45.0284 27.5845 44.7148 27.9001L35.1657 37.5124C35.0094 37.6697 34.8033 37.7498 34.5971 37.7498H34.4471V37.7348C34.2937 37.7057 34.1468 37.6313 34.0284 37.5113C34.0283 37.5113 34.0283 37.5112 34.0282 37.5112L29.6848 33.139L29.6846 33.1388C29.3766 32.8277 29.371 32.3261 29.673 32.0091L31.5171 30.0739M34.6224 32.0314L31.5171 30.0739M31.5171 30.0739C31.5171 30.0738 31.5171 30.0738 31.5171 30.0738L31.5171 30.0739ZM32.1092 31.7888L34.053 33.7463L34.053 33.7463C34.3671 34.0625 34.8768 34.0625 35.1909 33.7463L42.2882 26.6021L43.0097 27.3284L34.5971 35.7966L31.3781 32.5563L32.1092 31.7888Z" fill="#18B28D" stroke="#18B28D" strokeWidth="0.3"/>
</svg>
