<svg width="48" height="48" viewBox="0 0 48 48" fill="none" xmlns="http://www.w3.org/2000/svg">
<path d="M7.54537 43.0747H19.8558C21.8933 43.0747 23.5511 41.4261 23.5511 39.3965V23.9765C23.5511 21.947 21.8918 20.2968 19.8558 20.2968H7.54537C5.50771 20.2968 3.85 21.947 3.85 23.9765V39.3965C3.85 41.4246 5.50936 43.0747 7.54537 43.0747ZM5.08398 23.975C5.08398 22.6281 6.18726 21.5308 7.54537 21.5308H19.8558C21.2139 21.5308 22.3172 22.6281 22.3172 23.975V39.395C22.3172 40.7418 21.2139 41.8392 19.8558 41.8392H7.54537C6.18726 41.8392 5.08398 40.7418 5.08398 39.395V23.975Z" fill="black" stroke="black" stroke-width="0.3"/>
<path d="M6.58325 42.3075H6.43325V42.4575V43.5633C6.43325 44.7691 7.41408 45.7499 8.61989 45.7499C9.82569 45.7499 10.8065 44.7691 10.8065 43.5633V42.4575V42.3075H10.6565H9.72254H9.57254V42.4575V43.5633C9.57254 44.088 9.1446 44.516 8.61989 44.516C8.09518 44.516 7.66723 44.088 7.66723 43.5633V42.4575V42.3075H7.51723H6.58325Z" fill="black" stroke="black" stroke-width="0.3"/>
<path d="M16.743 42.3075H16.593V42.4575V43.5633C16.593 44.7691 17.5739 45.7499 18.7797 45.7499C19.9855 45.7499 20.9663 44.7691 20.9663 43.5633V42.4575V42.3075H20.8163H19.8823H19.7323V42.4575V43.5633C19.7323 44.088 19.3044 44.516 18.7797 44.516C18.255 44.516 17.827 44.088 17.827 43.5633V42.4575V42.3075H17.677H16.743Z" fill="black" stroke="black" stroke-width="0.3"/>
<path d="M10.4567 11.7676H9.52271V20.7997H10.4567V11.7676Z" fill="black"/>
<path d="M11.8624 11.7676H10.9285V20.7997H11.8624V11.7676Z" fill="black"/>
<path d="M16.4713 11.7676H15.5374V20.7997H16.4713V11.7676Z" fill="black"/>
<path d="M17.8786 11.7676H16.9446V20.7997H17.8786V11.7676Z" fill="black"/>
<path d="M9.88188 12.3408H17.5193C18.2378 12.3408 18.8219 11.7567 18.8219 11.0382V9.95268C18.8219 9.23417 18.2378 8.65005 17.5193 8.65005H9.88188C9.16337 8.65005 8.57925 9.23417 8.57925 9.95268V11.0382C8.57925 11.7567 9.16337 12.3408 9.88188 12.3408ZM9.81323 9.95268C9.81323 9.91527 9.84446 9.88403 9.88188 9.88403H17.5193C17.5567 9.88403 17.5879 9.91527 17.5879 9.95268V11.0382C17.5879 11.0756 17.5567 11.1068 17.5193 11.1068H9.88188C9.84446 11.1068 9.81323 11.0756 9.81323 11.0382V9.95268Z" fill="black" stroke="black" stroke-width="0.3"/>
<path d="M7.64065 38.3031C7.64065 38.6436 7.91709 38.9201 8.25764 38.9201C8.59818 38.9201 8.87463 38.6436 8.87463 38.3031V25.0681C8.87463 24.7275 8.59818 24.4511 8.25764 24.4511C7.91709 24.4511 7.64065 24.7275 7.64065 25.0681V38.3031Z" fill="black" stroke="black" stroke-width="0.3"/>
<path d="M13.0836 38.3031C13.0836 38.6436 13.3601 38.9201 13.7006 38.9201C14.0412 38.9201 14.3176 38.6436 14.3176 38.3031V25.0681C14.3176 24.7275 14.0412 24.4511 13.7006 24.4511C13.3601 24.4511 13.0836 24.7275 13.0836 25.0681V38.3031Z" fill="black" stroke="black" stroke-width="0.3"/>
<path d="M18.525 38.3031C18.525 38.6436 18.8015 38.9201 19.142 38.9201C19.4826 38.9201 19.759 38.6436 19.759 38.3031V25.0681C19.759 24.7275 19.4826 24.4511 19.142 24.4511C18.8015 24.4511 18.525 24.7275 18.525 25.0681V38.3031Z" fill="black" stroke="black" stroke-width="0.3"/>
<path d="M30.2128 12.7993C30.2128 15.1088 32.0911 16.9871 34.4006 16.9871C36.7101 16.9871 38.5884 15.1088 38.5884 12.7993C38.5884 10.4898 36.7101 8.61147 34.4006 8.61147C32.0911 8.61147 30.2128 10.4898 30.2128 12.7993ZM31.1747 12.8004C31.1747 11.0212 32.6215 9.57339 34.4006 9.57339C36.1797 9.57339 37.6276 11.0223 37.6276 12.8004C37.6276 14.5784 36.1787 16.0263 34.4006 16.0263C32.6225 16.0263 31.1747 14.5795 31.1747 12.8004Z" fill="#18B28D" stroke="#18B28D" stroke-width="0.3"/>
<path d="M33.9202 7.42341C33.9202 7.68858 34.1354 7.90381 34.4006 7.90381C34.6658 7.90381 34.881 7.68858 34.881 7.42341V3.53036C34.881 3.26518 34.6658 3.04995 34.4006 3.04995C34.1354 3.04995 33.9202 3.26518 33.9202 3.53036V7.42341Z" fill="#18B28D" stroke="#18B28D" stroke-width="0.3"/>
<path d="M31.862 8.62415H31.712C31.5468 8.62415 31.3844 8.53771 31.2958 8.38318C31.2957 8.38311 31.2957 8.38303 31.2957 8.38296L29.349 5.01222C29.349 5.01217 29.349 5.01212 29.3489 5.01207L29.3488 5.01193L29.4787 4.93692C29.387 4.7789 29.4412 4.57668 29.5992 4.48606L31.862 8.62415ZM31.862 8.62415V8.59882V8.62415Z" fill="#18B28D" stroke="#18B28D" stroke-width="0.3"/>
<path d="M29.5043 10.528L29.5046 10.5282C29.5334 10.5448 29.5634 10.5581 29.594 10.5682V10.5934H29.744C29.9092 10.5934 30.0714 10.507 30.1601 10.3526C30.2934 10.1225 30.214 9.83001 29.985 9.69708L29.9847 9.6969L26.6139 7.75134C26.6138 7.75126 26.6137 7.75119 26.6135 7.75111C26.3842 7.61735 26.0905 7.69709 25.9576 7.92599C25.824 8.15619 25.9034 8.44888 26.1325 8.58187L26.1328 8.58206L29.5043 10.528Z" fill="#18B28D" stroke="#18B28D" stroke-width="0.3"/>
<path d="M25.1305 13.2798H29.0235C29.2887 13.2798 29.5039 13.0646 29.5039 12.7994C29.5039 12.5342 29.2887 12.319 29.0235 12.319H25.1305C24.8653 12.319 24.65 12.5342 24.65 12.7994C24.65 13.0646 24.8653 13.2798 25.1305 13.2798Z" fill="#18B28D" stroke="#18B28D" stroke-width="0.3"/>
<path d="M30.0302 15.3233L30.1603 15.2487C30.0277 15.0176 29.7333 14.9416 29.5047 15.0727L29.5043 15.0729L26.1332 17.0187C26.1331 17.0187 26.1331 17.0188 26.133 17.0188C25.9029 17.1509 25.8244 17.445 25.9574 17.6746C26.0461 17.8291 26.2084 17.9154 26.3736 17.9154H26.5236V17.8901C26.5542 17.88 26.5842 17.8667 26.613 17.8502L26.6132 17.85L29.9843 15.9043C29.9844 15.9042 29.9845 15.9042 29.9845 15.9042C30.2147 15.772 30.2932 15.4777 30.1599 15.248L30.0302 15.3233ZM30.0302 15.3233C30.1219 15.4813 30.0677 15.6835 29.9097 15.7742L26.0874 17.5997C25.9957 17.4417 26.0498 17.2394 26.2078 17.1488L29.5793 15.2029C29.7373 15.1122 29.9395 15.1653 30.0302 15.3233Z" fill="#18B28D" stroke="#18B28D" stroke-width="0.3"/>
<path d="M29.525 21.2434L29.5256 21.2437C29.5544 21.2603 29.5844 21.2736 29.6149 21.2837V21.309H29.7649C29.9302 21.309 30.0925 21.2225 30.1811 21.068C30.1812 21.0679 30.1812 21.0679 30.1813 21.0678L32.128 17.697C32.128 17.697 32.128 17.6969 32.1281 17.6968C32.2615 17.4667 32.1822 17.1742 31.9532 17.0412C31.7239 16.9074 31.4301 16.9871 31.2972 17.216L31.297 17.2163L29.3501 20.5875L29.4798 20.6628L29.3499 20.5878L29.35 20.5876C29.2165 20.8178 29.2959 21.1104 29.525 21.2434Z" fill="#18B28D" stroke="#18B28D" stroke-width="0.3"/>
<path d="M33.9202 22.0694C33.9202 22.3346 34.1354 22.5498 34.4006 22.5498C34.6658 22.5498 34.881 22.3346 34.881 22.0694V18.1764C34.881 17.9112 34.6658 17.6959 34.4006 17.6959C34.1354 17.6959 33.9202 17.9112 33.9202 18.1764V22.0694Z" fill="#18B28D" stroke="#18B28D" stroke-width="0.3"/>
<path d="M39.185 21.308H39.035C38.8698 21.308 38.7074 21.2216 38.6188 21.0671C38.6188 21.067 38.6187 21.0669 38.6187 21.0668L36.6731 17.6961C36.6731 17.696 36.673 17.6959 36.673 17.6959C36.5398 17.4662 36.6184 17.1718 36.8487 17.0398L36.9233 17.1699M39.185 21.308L39.035 21.1569C39.0903 21.1569 39.1477 21.1425 39.1997 21.1127C39.3577 21.0221 39.4118 20.8198 39.3201 20.6618L39.45 20.5868L39.45 20.5867C39.4499 20.5867 39.4499 20.5866 39.4498 20.5865L37.5043 17.2157C37.5042 17.2157 37.5042 17.2156 37.5042 17.2155C37.372 16.9853 37.0776 16.9069 36.848 17.0402L36.9233 17.1699M39.185 21.308V21.2827M39.185 21.308V21.2827M36.9233 17.1699C36.7653 17.2605 36.7111 17.4627 36.8028 17.6208L37.3741 17.2904C37.2835 17.1323 37.0813 17.0782 36.9233 17.1699ZM39.185 21.2827C39.2156 21.2726 39.2456 21.2593 39.2744 21.2427M39.185 21.2827L39.2744 21.2427M39.2744 21.2427C39.2743 21.2428 39.2743 21.2428 39.2743 21.2428L39.1997 21.1127L39.2744 21.2427Z" fill="#18B28D" stroke="#18B28D" stroke-width="0.3"/>
<path d="M42.188 17.8513L42.1883 17.8514C42.2172 17.868 42.2471 17.8813 42.2777 17.8914V17.9167H42.4277C42.5929 17.9167 42.7551 17.8303 42.8438 17.6759C42.9771 17.4457 42.8977 17.1533 42.6687 17.0203L42.6684 17.0201L39.2976 15.0746C39.2975 15.0745 39.2974 15.0744 39.2973 15.0744C39.0679 14.9406 38.7742 15.0203 38.6414 15.2492C38.5078 15.4794 38.5871 15.7721 38.8162 15.9051L38.8166 15.9053L42.188 17.8513Z" fill="#18B28D" stroke="#18B28D" stroke-width="0.3"/>
<path d="M39.7766 13.2798H43.6696C43.9348 13.2798 44.15 13.0646 44.15 12.7994C44.15 12.5342 43.9348 12.319 43.6696 12.319H39.7766C39.5114 12.319 39.2962 12.5342 39.2962 12.7994C39.2962 13.0646 39.5114 13.2798 39.7766 13.2798Z" fill="#18B28D" stroke="#18B28D" stroke-width="0.3"/>
<path d="M38.7711 10.2767L38.6409 10.3513C38.7296 10.5059 38.892 10.5924 39.0573 10.5924H39.2073V10.5671C39.2379 10.557 39.2679 10.5437 39.2967 10.5272L39.2969 10.5271L42.668 8.58129C42.6681 8.58125 42.6682 8.5812 42.6683 8.58116C42.8985 8.44899 42.9769 8.15465 42.8436 7.92501L42.7139 8.00031M38.7711 10.2767L38.6414 10.352C38.5081 10.1223 38.5865 9.82798 38.8167 9.69583C38.8168 9.69579 38.8169 9.69575 38.8169 9.69571L42.1877 7.75013C42.1878 7.7501 42.1878 7.75007 42.1879 7.75004C42.4176 7.61683 42.7119 7.69537 42.844 7.92569L42.7139 8.00031M38.7711 10.2767C38.6794 10.1187 38.7335 9.91645 38.8915 9.82583L42.263 7.87986C42.421 7.78814 42.6233 7.84229 42.7139 8.00031M38.7711 10.2767C38.8041 10.3343 38.8521 10.3782 38.9073 10.4063V10.4413V10.4424H39.0573L42.5934 8.45117M42.7139 8.00031C42.8056 8.15833 42.7514 8.36055 42.5934 8.45117M42.5934 8.45117L39.222 10.3971L42.5934 8.45117Z" fill="#18B28D" stroke="#18B28D" stroke-width="0.3"/>
<path d="M36.8498 8.56013L36.8492 8.55979C36.6201 8.42682 36.5407 8.13422 36.6742 7.90404C36.6743 7.904 36.6743 7.90395 36.6743 7.90391L38.6201 4.53275L38.6203 4.53243C38.7532 4.30348 39.047 4.22375 39.2764 4.35766C39.5053 4.49067 39.5846 4.78314 39.4512 5.01324L39.4512 5.01312L39.3213 4.93814L39.4511 5.01344L36.8498 8.56013ZM36.8498 8.56013C36.8786 8.5767 36.9086 8.59002 36.9392 8.60014V8.62537H37.0892C37.2544 8.62537 37.4167 8.53894 37.5054 8.38442M36.8498 8.56013L37.5055 8.38418M37.5055 8.38418L37.3754 8.30961L37.5053 8.3846L37.5054 8.38442M37.5055 8.38418C37.5055 8.38426 37.5054 8.38434 37.5054 8.38442M37.5055 8.38418L37.5054 8.38442" fill="#18B28D" stroke="#18B28D" stroke-width="0.3"/>
<ellipse cx="34.4001" cy="12.7999" rx="3.2" ry="3.2" fill="#18B28D"/>
</svg>
