<?xml version="1.0" encoding="UTF-8"?>
<!-- Generator: Adobe Illustrator 25.4.1, SVG Export Plug-In . SVG Version: 6.00 Build 0)  -->
<svg version="1.1" id="Layer_1" xmlns="http://www.w3.org/2000/svg" xmlns:xlink="http://www.w3.org/1999/xlink" x="0px" y="0px" viewBox="0 0 500 230" style="enable-background:new 0 0 500 230;" xml:space="preserve">
<style type="text/css">
	.st0{fill:#18B28D;}
	.st1{fill:#FFFFFF;}
</style>
<g>
	<path class="st0" d="M221.2,182.3c-3.4,0.2-6.8-0.2-10.2-0.8c-3.1,13.3-11.2,22.6-24.6,28.4c-6,2.6-13.1,3.8-22.5,4   c-2.9,0-9,0.1-16.9,0.1c-9.1,0-20.6,0-32.3-0.1c-11.8,0.1-23.2,0.1-32.3,0.1c-7.9,0-14,0-16.9-0.1c-9.4-0.1-16.6-1.4-22.5-4   c-14.5-6.2-22.7-16.5-25.3-31.5c-1.2-7.2-2-88-1.3-117.4c0.5-19.8,9.1-33.3,25.6-40.4c5.7-2.4,12.7-3.8,20.5-4.1   c3.7-0.1,27.7-0.3,52.2-0.3c24.4,0,48.5,0.1,52.2,0.3c7.7,0.3,14.8,1.7,20.5,4.1c16.5,7,25.2,20.6,25.6,40.4   c0.2,7.3,0.3,17.7,0.3,29.4c2.6-0.4,5.4-0.7,8.6-0.7c2.7,0,5.2,0.2,7.6,0.6c0-11.8-0.1-22.3-0.3-29.7   c-0.6-26.3-12.9-45.2-35.5-54.8c-7.5-3.2-16.5-5-26.2-5.4C160.8,0.1,136.2,0,114.7,0C93.1,0,68.5,0.1,61.9,0.4   c-9.7,0.4-18.7,2.2-26.2,5.4C13.1,15.4,0.9,34.3,0.3,60.6C-0.5,91,0.4,172.9,1.8,181c3.4,20.2,15.5,35.3,34.8,43.6   c10.5,4.5,21.4,5.2,28.6,5.3c1.7,0,6.2,0,12.8,0c9.6,0,22.9,0,36.6-0.1c13.7,0.1,27.1,0.1,36.6,0.1c6.6,0,11.1,0,12.8,0   c7.3-0.1,18.2-0.8,28.6-5.3c19.2-8.2,31.1-23.1,34.7-43.1C225.4,182,223.3,182.2,221.2,182.3z"/>
	<g>
		<circle class="st0" cx="114.7" cy="72.5" r="10.9"/>
	</g>
	<g>
		<g>
			<rect x="105.8" y="103.8" class="st1" width="17.6" height="61.1"/>
			<polygon class="st1" points="163.6,135.3 162.8,140.2 161.7,135.5 150.5,103.8 130.1,103.8 156.6,165.4 167.5,165.4 193,103.8      173.9,103.8    "/>
			<path class="st1" d="M280.6,105c-1.8,1.2-3.4,2.9-4.6,4.9v-6.2h-17.6v61.1H276c0-0.5,0-1.1,0-1.6c0-1.4,0-2.9,0-4.3     c0-2,0-4.1,0-6.1c0-2.4,0-4.7,0-7.1c0-2.4,0-4.7,0-7.1c0-2.1,0-4.2,0-6.2c0-1.5,0-3,0-4.5c0-0.4,0-0.9,0-1.3c0-0.9,0.4-1.6,1-2.2     c0.8-0.8,1.6-1.5,2.6-2.1c1.4-0.9,2.8-1.7,4.3-2.2c3.2-1.1,6.7-0.7,9.9,0.4l1.4,0.5l2.3-16.7l-0.9-0.3     C289.7,101.6,284.6,102.2,280.6,105z"/>
			<path class="st1" d="M337.5,131.4c-2-1.4-4.3-2.6-6.7-3.5c-2.3-0.9-4.5-1.7-6.4-2.4c-1.9-0.7-3.5-1.5-4.7-2.3     c-1-0.6-1.5-1.4-1.5-2.4c0-1.9,0.6-4.1,5.6-4.1c2.7,0,5.4,0.4,8,1.1c2.7,0.8,4.9,1.5,6.7,2.2l1.2,0.5l4.1-13.2l-0.8-0.5     c-2.1-1.2-5.1-2.3-8.7-3.3c-3.7-1-7.9-1.4-12.4-1.4c-6.8,0-12.1,1.6-15.7,4.9c-3.7,3.3-5.6,8-5.6,14.2c0,3.7,0.7,6.8,2.2,9.2     c1.4,2.4,3.2,4.3,5.2,5.9c2,1.5,4.3,2.7,6.8,3.6c2.3,0.8,4.5,1.6,6.4,2.4c1.9,0.7,3.4,1.6,4.7,2.5c1,0.7,1.5,1.6,1.5,2.8     c0,1.6-0.5,2.7-1.5,3.3c-1.2,0.7-2.8,1.1-4.8,1.1c-3,0-6-0.5-8.8-1.4c-2.9-1-5.2-1.9-7-2.9l-1.2-0.7l-5,13.6l0.8,0.5     c2.3,1.5,5.4,2.7,9.2,3.8c3.7,1.1,7.8,1.6,12,1.6c7.9,0,13.9-1.8,17.9-5.4c4-3.6,6.1-8.6,6.1-14.9c0-3.6-0.7-6.7-2.2-9.1     C341.3,134.8,339.5,132.9,337.5,131.4z"/>
			<path class="st1" d="M402.7,111.1c-2.4-2.8-5.4-5.1-9-6.6c-3.6-1.5-7.8-2.3-12.7-2.3c-9.1,0-16.2,2.8-21.3,8.4     c-5,5.6-7.6,13.6-7.6,23.8c0,4.7,0.6,9.1,1.8,13c1.2,4,3,7.4,5.4,10.2c2.4,2.8,5.5,5,9.1,6.6c3.6,1.5,7.8,2.3,12.7,2.3     c9.1,0,16.2-2.8,21.3-8.4c5-5.6,7.5-13.5,7.5-23.7c0-4.7-0.6-9.1-1.8-13C406.9,117.3,405.1,113.9,402.7,111.1z M389,147.4     c-1.7,2.6-4.3,3.8-7.9,3.8c-1.9,0-3.5-0.4-4.9-1.2c-1.3-0.8-2.4-1.9-3.3-3.4c-0.9-1.5-1.5-3.3-2-5.4c-0.5-2.1-0.7-4.4-0.7-6.9     c0-6.1,1-10.6,2.9-13.1c1.9-2.5,4.5-3.8,7.9-3.8c3.9,0,6.5,1.4,8.1,4.4c1.7,3.1,2.6,7.4,2.6,12.5     C391.7,140.3,390.8,144.7,389,147.4z"/>
			<path class="st1" d="M458.1,81.7c-4.3-1.5-9.7-2.3-16-2.3c-6.3,0-11.1,1.8-14.5,5.4c-3.3,3.5-5,9.2-5,17v2.1h-8.1v15.3h8.1v45.8     h17.6v-45.8h12.9v-15.3h-12.9c0-1.4,0.1-2.6,0.2-3.7c0.1-1.3,0.4-2.4,0.7-3.3c0.3-0.7,0.8-1.3,1.5-1.6c1.5-0.8,4.7-0.7,7.3-0.3     c1.3,0.2,2.8,0.6,4.5,1.2l1.2,0.4l3.5-14.5L458.1,81.7z"/>
			<path class="st1" d="M496.8,148.3l-1.3,0.6c-1.3,0.6-2.6,1.1-3.6,1.4c-1,0.3-2.3,0.4-3.7,0.4c-2.4,0-3.2-1.1-3.6-2     c-0.7-1.6-1.1-4.4-1.1-8.2v-21.4h14.3v-15.3h-14.3V88l-17.6,5v10.8h-8.1v15.3h8.1v28.4c0,6.6,1.4,11.5,4.1,14.5     c2.8,3,7.1,4.6,12.8,4.6c3,0,6-0.4,8.9-1.1c2.9-0.7,5.5-1.6,7.6-2.7l0.9-0.4L496.8,148.3z"/>
		</g>
		<path class="st1" d="M249.9,131.9c0,0,0-0.1,0-0.1c-0.1-3.3-0.6-6.6-1.6-9.7c-1.9-6.1-5.8-11.6-11.4-14.8    c-1.6-0.9-3.2-1.6-4.9-2.1c-2.9-0.8-5.9-1.2-9-1.2c-9.2,0-16.5,2.7-21.6,8.1c-5.1,5.4-7.7,13.5-7.7,24.1c0,9.9,2.3,17.8,6.8,23.5    c4.6,5.8,11.9,8.7,21.7,8.7c4.6,0,9.1-0.7,13.2-2c4.2-1.3,7.5-3,9.9-5l0.8-0.6l-6.1-12.1l-1.1,0.9c-1.2,0.9-3.1,1.9-5.5,2.8    c-2.4,0.9-5.2,1.4-8.2,1.4c-4.8,0-8.3-1.1-10.3-3.4c-1.9-2.1-3.1-5.2-3.4-9.2c0.9,0,1.8,0,2.7,0c2.3,0,4.6,0,6.9,0c3,0,6,0,9.1,0    c3.1,0,6.2,0,9.3,0c2.5,0,5,0,7.5,0c0.9,0,1.3,0,2.2,0C249.9,138.2,250,135,249.9,131.9z M231.1,129.3h-17.1h-2.3    c0.5-3.1,1.5-5.7,3-7.6c1.3-1.6,3.1-2.6,5.5-3c0.7-0.1,1.4-0.2,2.1-0.2c0,0,0.1,0,0.1,0c0,0,0.1,0,0.1,0c0.8,0,1.5,0.1,2.1,0.2    c2.4,0.4,4.2,1.3,5.5,3c1.6,1.9,2.6,4.5,3,7.6H231.1z"/>
	</g>
</g>
</svg>