<svg id="Layer_1" data-name="Layer 1" xmlns="http://www.w3.org/2000/svg" viewBox="0 0 98.78 98.89"><defs><style>.cls-1{fill:#18b28d;}</style></defs><rect x="45.59" y="44.85" width="7.45" height="25.8"/><path class="cls-1" d="M97.65,26.62c-.26-11.1-5.44-19.1-15-23.16A32,32,0,0,0,71.63,1.18C68.82,1.07,58.44,1,49.33,1s-19.49,0-22.3.15A31.89,31.89,0,0,0,16,3.46C6.45,7.52,1.28,15.52,1,26.62c-.31,12.82.05,47.43.63,50.86C3.09,86,8.18,92.4,16.35,95.92a32,32,0,0,0,12.1,2.23h5.41c4,0,9.67,0,15.47,0s11.44,0,15.48,0h5.41a32,32,0,0,0,12.09-2.23C90.48,92.4,95.57,86,97,77.48,97.6,74.05,98,39.44,97.65,26.62ZM90.3,76.34C89.23,82.67,85.73,87,79.62,89.66a24.94,24.94,0,0,1-9.51,1.68c-1.23,0-3.8,0-7.13,0l-13.65,0-13.64,0c-3.34,0-5.91,0-7.14,0A24.94,24.94,0,0,1,19,89.66c-6.11-2.63-9.6-7-10.68-13.32-.51-3-.83-37.17-.54-49.56.2-8.34,3.84-14.08,10.83-17A24.91,24.91,0,0,1,27.29,8c1.56-.06,11.72-.11,22-.12s20.48.06,22,.12A24.91,24.91,0,0,1,80,9.73c7,3,10.63,8.71,10.83,17.05C91.13,39.17,90.82,73.31,90.3,76.34Z"/><path class="cls-1" d="M49.34,27A4.62,4.62,0,1,0,54,31.66,4.61,4.61,0,0,0,49.34,27Z"/></svg>