<?xml version="1.0" encoding="UTF-8"?>
<svg width="777px" height="728px" viewBox="0 0 777 728" version="1.1" xmlns="http://www.w3.org/2000/svg" xmlns:xlink="http://www.w3.org/1999/xlink">
    <title>iverpets-background</title>
    <g id="4.0-Careers-(release-2.0)" stroke="none" strokeWidth="1" fill="none" fill-rule="evenodd">
        <g id="Pet-Modal---Desktop" transform="translate(-55.000000, -69.000000)" stroke="#F3F5F7">
            <g id="Modal" transform="translate(56.000000, 70.000000)">
                <g id="iverpets-background" transform="translate(387.500000, 363.000000) scale(-1, -1) translate(-387.500000, -363.000000) ">
                    <path d="M382.497413,260.030784 C288.215576,252.731151 182.030317,305.742891 203.893533,384.208681 C218.1083,435.211445 311.38155,463.410746 370.846136,471.067997 C421.632675,477.599801 458.414568,482.101591 501.846829,465.808896 C529.236259,455.511576 544.018357,424.787906 546.266665,404.961095 C551.383141,359.827488 530.749139,272.63159 451.95331,261.019495 C434.912399,258.505644 417.230614,259.673165 399.864014,259 L382.497413,260.030784 Z" id="Path-4" strokeWidth="2"></path>
                    <path d="M389.825588,150.280554 C297.84965,119.782779 281.951147,107.962262 146.724557,135.441809 C121.33739,140.605398 104.577237,166.255078 84.9799418,183.523129 C13.2738065,246.706105 52.90973,353.374701 104.608761,417.798621 C213.691614,553.755598 331.75875,597.630328 498.435584,615.298004 C511.665072,616.696695 643.445061,618.926188 660.257754,589.490577 C673.74994,565.881093 706.902469,479.92995 695.743044,436.696725 C661.466166,304.094504 570.656608,159.745381 424.449228,154.276814 L389.825588,150.280554 Z" id="Path-5" strokeWidth="2"></path>
                    <path d="M444.885375,105.257002 C353.612895,51.9997278 183.416812,-31.6317381 87.3244902,12.3378203 C76.687235,17.2128203 50.6768884,46.3787687 46.9911267,50.9806006 C-26.7241067,142.59698 1.64890768,280.336744 29.0243512,375.399244 C39.9871295,413.443156 57.9224028,447.358027 69.5152258,485.202316 C83.8172412,531.903555 140.689279,623.204741 198.31737,653.778555 C312.229457,714.211745 445.504919,740.992726 572.437931,717.594827 C578.454858,716.544181 747.705874,687.598868 764.139541,652.349676 C779.985165,618.371767 774.745293,543.208512 771.490062,512.50862 C760.432777,408.137391 717.421724,208.346442 612.256758,153.187498 C572.206914,132.174566 523.462454,139.035288 480.881931,124.158133 L444.885375,105.257002 Z" id="Path-6"></path>
                </g>
            </g>
        </g>
    </g>
</svg>