<?xml version="1.0" encoding="UTF-8"?>
<svg width="65px" height="73px" viewBox="0 0 65 73" version="1.1" xmlns="http://www.w3.org/2000/svg" xmlns:xlink="http://www.w3.org/1999/xlink">
    <title>left-curve-arrow-mobile</title>
    <defs>
        <polygon id="path-1" points="0 -9.09494702e-13 72 -9.09494702e-13 72 87 0 87"></polygon>
        <polygon id="path-3" points="0 0.11616302 2 0.11616302 2 1.88383698 0 1.88383698"></polygon>
    </defs>
    <g id="left-curve-arrow-mobile" stroke="none" stroke-width="1" fill="none" fill-rule="evenodd">
        <g id="left-curve-arrow-mobile-copy" transform="translate(34.425731, 34.878902) scale(1, -1) rotate(26.000000) translate(-34.425731, -34.878902) translate(-1.574269, -8.621098)">
            <path d="M47.697,25.1207308 C48.615,25.0127308 47.221,24.5947308 48.303,24.9107308 C48.167,25.1407308 47.987,25.3167308 47.697,25.1207308" id="Fill-1" fill="#35BC9B"></path>
            <g id="Group-5" transform="translate(-0.000000, 0.000000)">
                <mask id="mask-2" fill="white">
                    <use xlink:href="#path-1"></use>
                </mask>
                <g id="Clip-4"></g>
                <path d="M44.4766987,173.146097 C41.6766208,173.914723 38.8237112,171.595088 35.9571677,171.361233 C35.6299522,171.29933 36.2997213,170.72329 35.5447399,170.625277 C34.1199893,170.553057 32.4600527,169.935749 30.868286,169.036439 C29.3225339,168.042555 27.7563308,166.94378 26.5786961,165.709163 L26.8479672,165.636943 C26.3929332,165.186428 25.3993572,165.368698 24.8778576,164.942256 C24.9443232,164.823609 25.1590583,164.887231 25.1249734,164.651657 C24.77049,164.909585 24.0035788,164.189105 23.6013765,164.297435 C23.4684452,164.017153 23.6661379,163.759225 23.4837835,163.420479 L22.9213819,163.588992 C21.4472082,163.888189 20.8422005,162.077532 19.3543929,161.683761 C19.4719859,161.642493 19.6338894,161.661407 19.6049172,161.50665 C18.4971566,161.057855 17.382579,160.351131 16.2714099,159.577346 C15.1704663,158.793244 14.1513266,157.849226 13.084468,157.075441 C13.2719351,157.025575 13.5429104,156.870818 13.5531359,156.633524 C13.1407081,156.894892 12.4198116,156.482206 11.8812695,156.028252 C12.0090881,155.443615 10.7206773,155.484883 10.3355175,154.692183 L10.463336,154.664671 C9.66233987,154.585573 10.0509082,153.806629 9.25161633,153.878849 L9.26695455,153.333761 C8.5477623,153.62436 8.96189433,152.413816 8.36881636,152.271096 L8.27167427,152.379426 C7.83538703,152.123217 7.94275459,151.701934 7.57122874,151.438847 L7.60701792,151.354591 C6.80261331,150.675379 6.7225137,149.968656 6.31008592,150.326316 C6.42086197,149.776069 7.10767354,150.974576 7.24060481,150.137169 C5.93003882,149.024638 4.93646279,147.597434 3.88153387,146.220097 C3.42479565,145.482422 3.00384663,144.720673 2.57608062,143.964084 C2.1551316,143.207494 1.70350613,142.46466 1.4018544,141.654765 C1.44786907,141.200811 1.41207988,140.946322 1.56716637,140.782967 C1.33538877,140.514722 0.977496886,139.644644 0.594041299,139.457216 C0.650281452,139.558667 0.769578746,139.151141 0.725268322,138.979188 C0.665619676,138.346404 -0.0484598397,138.532113 -0.0228961339,137.792718 C0.190134748,138.012817 0.381010418,138.045488 0.549730876,137.89417 C-0.0109664045,137.469448 -0.159235898,136.690504 -0.479634344,136.05772 C-0.36033705,136.140257 -0.263194968,136.286416 -0.104699992,136.217636 C-0.767652096,135.603766 -0.413168709,134.883286 -0.757426614,134.279734 L-0.414872956,134.468881 C-0.171165628,133.35635 -1.10509301,134.271136 -0.999429695,133.313362 C-0.871611166,133.519705 -0.759130861,133.423412 -0.627903838,133.444046 C-1.27892621,132.6737 -1.35902582,131.243057 -1.52774628,130.391894 C-1.48173161,130.44176 -1.39651926,130.424565 -1.39651926,130.424565 C-1.50218258,129.483986 -1.31812389,128.507297 -1.52604203,127.463547 C-1.36584281,127.09385 -0.762539355,127.618304 -0.827300743,126.633018 C-1.46468914,126.62786 -0.948302284,124.93585 -1.71010072,125.453426 C-1.52263354,124.600543 -1.10509301,123.297145 -1.20053085,122.698751 C-1.03351464,123.116595 -0.365449792,122.433945 -0.438732415,123.130351 L0.0316397718,122.684995 C0.273642853,122.8088 -0.15241891,123.193973 0.20036023,123.092522 C0.22933243,122.750337 0.181613512,121.716904 0.360559453,121.440061 C0.128781854,120.735056 -0.426802686,119.956113 -0.177982616,118.900326 C-0.089361769,119.454012 0.570181841,118.845301 0.573590335,119.202962 C0.323066018,118.609727 0.127077607,118.013053 -0.0859532749,117.387147 C0.0214142895,117.038083 0.409982618,117.497196 0.450884547,116.953827 C0.283868336,116.915997 0.273642853,116.664947 0.210585712,116.462044 C0.317953277,116.36575 0.68607064,114.99873 1.32686753,115.148328 C1.61488528,115.119097 1.18030229,115.724368 1.55523664,115.473318 C1.85518412,114.89212 1.6626042,114.756277 1.9812984,114.176798 L2.05969377,114.20775 C2.34771152,113.877601 2.48575553,112.961096 1.94380497,113.186353 C1.77167601,113.444282 2.32214781,113.282647 1.94039647,113.580124 C1.76826752,113.115853 2.13638488,112.412568 2.50450225,111.841687 C2.45848758,112.091018 2.61186981,112.159799 2.7056034,112.336909 C2.77888602,111.29144 3.26630068,110.450593 3.72474314,109.511734 C3.50319102,109.31227 3.91221031,110.154836 3.70088368,110.170311 C4.80353152,109.427478 4.958618,107.742346 6.12602723,107.381246 C6.04763187,107.544601 5.75450138,107.161147 5.82437551,107.207574 C6.26918399,106.784572 6.56061023,107.104403 6.71569671,106.702035 C6.92191061,106.846475 7.00201022,106.291069 7.23208357,105.945445 C7.2474218,105.666882 7.39228279,105.957482 7.16561794,106.229166 C7.40080403,105.666882 8.72500399,103.789164 9.89241322,103.15638 C9.75607346,103.053208 10.0202318,102.162496 10.2417839,101.96819 L10.4343638,102.32929 C10.7922557,102.308655 11.1007244,101.610529 11.3699954,101.815152 C11.4824757,101.03277 9.95376612,103.811518 10.291207,102.950037 C10.6763669,103.027416 10.6951136,101.670712 10.9371167,102.179691 C11.339319,101.74981 11.4211228,101.036209 12.0738494,100.895208 C11.9153545,100.967428 12.1266811,101.615688 12.4402626,101.258027 C12.9634664,100.609767 12.4692348,100.95883 12.8339436,100.379351 L13.0026641,99.9615073 C12.7436185,99.6812251 13.5395019,99.4611263 13.0197066,99.3940649 C13.3349923,99.5367853 13.6536865,98.3847053 14.071227,98.8678911 L14.3694702,99.2840155 C14.5756841,98.9882576 14.354132,98.4981938 14.3660617,98.1491307 C14.4308231,98.1439722 14.5671629,98.1388136 14.6165861,98.2041555 C14.0831567,97.6797011 15.1823961,97.593725 14.9710694,96.9076356 C15.6476555,96.5121455 16.0157729,95.4632369 16.6071466,95.4460416 C16.7366694,94.8682821 16.6770207,94.2991203 17.126942,93.853764 C17.1320547,93.9930453 17.0707018,94.1478023 17.1985203,94.2561322 C17.5751589,94.0222772 17.4643829,93.8486054 17.4967636,93.4823471 C17.5666377,93.6044332 18.1886879,92.9733685 18.6147496,92.6604155 C18.6181581,92.0774974 18.1494902,92.1136074 17.9364593,91.9794846 C18.7476809,91.737032 17.9330508,90.4869393 18.6300879,90.0656563 C18.7084832,90.2548037 18.8737952,90.8979051 19.1260238,90.5006954 C19.9270199,90.1430348 18.7493852,89.4311525 19.1924894,88.7244289 L18.5602137,88.8585516 C18.9743458,88.5507571 18.2568578,87.7614964 18.8789079,87.849192 C18.6675813,87.5998613 19.0612624,86.9395647 18.4596632,87.0547727 C18.9334438,85.7548138 17.7370624,84.1229871 18.5533967,83.0620418 C18.403423,82.9055653 18.3642253,82.4137819 18.0949543,82.6012099 C17.8597682,83.000139 18.4528462,82.957151 18.2636747,83.1342618 C18.1989134,82.9777853 18.0267844,82.9863829 17.9432763,82.993261 C17.9586145,82.5616609 17.9074871,82.2315126 18.5005651,82.460209 C18.5721435,81.4388128 17.2394223,81.8686934 17.0536593,80.685662 C17.3058879,80.646113 17.3621281,80.5274659 17.2019288,80.2145129 L16.5560192,79.7554004 C16.354918,78.9988106 16.9139111,79.1243357 17.3007752,78.9437859 C17.0724061,78.5809667 16.8832346,78.0943418 16.5168215,78.0444757 L16.7980223,77.3532277 C16.5969211,77.8570478 16.4247922,77.1365679 16.2458462,76.9955671 L16.4230879,77.1365679 C16.5560192,76.9904085 16.250959,76.5828817 16.099281,76.376539 C15.8828416,76.5381741 15.9953219,77.0454332 16.0362238,77.3274349 C15.7788825,77.2070683 15.6766277,76.87692 15.3579335,76.7032483 C15.7771783,76.6189917 15.3425953,75.9432194 15.2420447,75.6130711 C15.1619451,75.2193005 14.7188409,75.368899 14.6847559,75.25713 C14.8773359,75.1591172 14.4529783,74.6604558 14.8551806,74.8100542 C14.9727737,74.9046279 14.7904193,75.178032 15.0545775,75.3001181 C15.092071,74.9974821 15.4465544,74.8650789 14.9761822,74.4919426 C14.6199945,74.2116604 14.2723281,74.9338598 14.1939328,74.1239648 C14.3711745,74.2649656 14.5381907,74.2288557 14.7375876,74.3079537 L14.6353328,73.561681 L14.2791451,73.6940842 C14.3251598,73.56512 14.3831042,73.6115471 14.4103722,73.5496443 C13.9587467,73.522132 13.8411536,72.600468 13.3656687,72.6434561 C13.1782015,72.3287835 13.2838649,71.8335611 13.1799058,71.4999737 L13.2361459,71.5464008 C13.2634139,71.0649346 12.8935923,70.6127002 12.5135452,70.3926013 L12.5970533,70.3754061 C12.5288834,70.1518682 12.2459784,69.6721215 11.9238757,69.5001693 C11.9426224,68.8415922 13.1458208,68.7229452 12.4470796,68.3257355 C12.1931467,67.7858055 11.4313483,67.7514151 11.3086425,68.0729657 C11.1075414,66.9827886 10.0474997,66.0972346 10.2094032,64.9296789 C10.0065978,64.8471418 9.95717461,64.9743865 9.75096072,64.7095801 C9.27718004,63.1826442 8.0807986,61.7072941 8.35347813,60.238822 C8.65512986,60.6274341 8.7215955,60.1390897 8.92269665,60.0565526 C8.47788817,59.8072219 9.10675533,59.504586 8.51197311,59.5664888 C8.2000959,59.7160872 8.02967119,59.735002 8.04671366,60.2130292 C7.54907352,59.3653047 7.0991523,57.9484183 7.25423878,57.3362683 C7.18095616,57.6406238 7.01905269,57.4721106 6.85714922,57.2984388 C7.39569129,57.2090237 7.27809824,56.4988609 6.95088281,56.0294314 L6.6100334,56.0431875 L6.84521949,55.6115874 C6.69183726,55.4379157 6.10216778,55.5737579 6.28281796,54.961608 C6.40211526,54.9014247 6.52141255,54.8395219 6.58958243,54.7191553 C6.20271835,54.2376891 5.54147049,53.5636363 5.70678246,52.8895836 L6.0851253,52.2963484 C5.98116623,52.0504567 5.60623188,51.6687227 5.56021721,52.1519085 C5.63179559,51.0634509 5.59941489,50.3773615 5.95219403,49.9887494 C4.66037477,48.3500446 4.42689292,45.5558209 4.60243037,43.3926618 L4.84784194,43.4666012 C5.11540873,42.8974393 4.42859717,43.143331 4.62628983,42.7444019 C4.85295469,42.9438664 5.16994464,42.3368751 5.43410293,42.8045851 C5.74768439,42.0084463 5.05576008,41.717847 5.01485816,41.1658804 C4.6978682,41.0506724 5.17335313,41.6198343 4.77115083,41.4753944 C4.66548751,41.3670645 5.15971915,40.3542658 4.68252998,40.1616793 C4.9006736,39.97941 5.24322726,40.1909112 5.42899019,40.328473 L5.25004425,39.7902625 C5.89424963,39.2761253 6.11239326,41.3120398 6.8963469,40.7652317 L6.8707832,40.3112778 C7.43318472,39.9690928 7.31559168,41.5407362 7.6206519,40.4746324 C7.42295924,39.9742514 6.80090907,39.4480776 6.50437008,39.8452872 C6.5486805,38.8152933 5.42046895,39.1832711 5.66076779,38.0673011 C6.0016172,37.8214094 5.56873845,38.978648 6.01013843,38.8376471 C6.49755309,38.3922909 5.96753226,37.7457505 6.22828206,37.3124308 C5.92322183,37.7835799 5.53635775,37.2436499 5.53124501,36.8808307 C5.89595388,36.364974 5.89936238,37.3554189 6.14136546,36.5678777 C5.89424963,36.3701326 5.87039018,35.5653961 5.52101953,36.1603509 C4.95691376,35.6909213 5.91299635,35.3624925 5.57214694,34.781294 C6.0885338,34.6609274 6.33224113,35.904142 6.81795154,35.1062837 C6.35098785,35.1183203 6.5810612,33.8493129 5.81755852,34.1055217 C6.04933612,33.7942882 6.38507279,33.8768252 6.56231448,34.2121321 C6.95258705,33.820081 6.24702877,32.7556967 7.11278628,32.9087342 L6.75830289,32.5785859 C6.95258705,32.4805731 7.13834998,32.3051818 7.45704418,32.1573029 C7.63769437,31.7514956 7.52521406,30.5650252 8.11488355,30.9003321 C8.10124957,30.7352579 8.6022982,29.8256306 8.00410749,29.9597534 C7.45193144,30.4188658 7.98706502,30.7902826 7.25764728,30.8401488 C7.92912062,30.6510013 7.58145422,29.9494362 7.63599012,29.5281533 L7.89844417,29.5986537 C7.92059938,29.3493229 8.2290681,28.9177228 8.0552349,28.6477578 C8.09954532,28.8798933 8.29894223,28.8867714 8.44380323,28.7612463 L8.22054686,28.3468414 C8.52560709,27.426897 8.92610514,28.5273913 9.32149046,27.7088986 L9.20048892,28.4448542 C9.22775687,28.2832191 9.71005879,28.2385115 9.84299006,27.8189481 C9.63166342,27.4767631 9.45271748,26.9609064 9.30615224,26.6720267 C9.47828119,26.1510114 9.75096072,26.7184538 9.77311593,26.0908281 C9.74414373,26.3521955 9.73732674,26.62388 9.73391825,26.8921255 C9.77652442,27.041724 10.4582232,26.8783694 10.8825808,26.3659517 C11.0461885,25.9584249 11.0802734,25.0814685 10.4871954,25.4924344 C10.7053391,25.2155913 11.1791197,24.9886143 11.2063877,25.3772264 C11.6119985,24.6997346 10.8280449,25.1846399 11.1245838,24.5295019 C11.4995182,24.4899528 12.353346,24.1116579 12.9481282,24.0136452 L12.8970008,24.9404677 L13.2122865,24.6240756 C13.1543421,25.3875435 13.6707289,24.691137 13.8053645,25.2946893 C14.0558888,25.1382128 14.2058625,24.7822716 14.3353853,24.4968309 C13.1100317,24.4504038 14.3558363,22.9888099 13.6945884,22.5589293 C14.5790926,21.5478501 15.4124694,23.5631303 15.7925165,21.8246932 C15.5044988,21.7851442 15.7124169,20.9408588 15.1619451,21.5856796 C15.8879544,21.2142628 15.1517196,20.6072714 16.2219868,20.378575 C15.7311636,21.0062006 17.2820284,20.6726133 16.5935126,21.5684844 C16.5151173,21.307117 16.0089559,21.69229 15.9356733,21.847047 C16.3634393,21.919267 16.2748184,22.5056241 16.947996,22.1066949 C17.3314516,21.8109371 17.9125999,21.4825083 17.6535543,21.1729943 C17.4422277,20.7929798 17.0008277,21.5788015 17.0826315,21.0354325 C17.9211211,20.3923311 18.3233234,21.0079201 18.3880848,20.1223661 C17.8478385,20.4198435 17.5172145,20.0776586 17.3996215,19.8042545 L18.0080377,19.3434225 L17.989291,19.6632537 C19.1498832,19.4053253 18.120518,19.0081157 19.2027149,18.6882845 L19.8810052,19.0562623 C19.8077226,19.5789971 18.3011682,19.4053253 18.7766531,20.0931343 C19.4498307,19.8266083 19.5265218,19.4122034 20.2218546,19.3743739 C20.1042616,19.4895819 19.9219071,19.572119 19.8094268,19.6890465 C20.0616554,19.6357413 20.6240569,20.536771 21.3517704,19.6580951 C21.7573812,19.2883978 21.3960808,19.3503006 21.321094,19.0614209 C22.3453464,18.6693698 22.5873495,18.2704406 23.2571186,18.0658174 C23.2571186,18.6693698 24.467134,17.8302429 23.8604221,18.5937108 C23.4428815,18.3254653 21.9158762,18.7673825 21.7045495,19.4276791 C22.2788808,19.9865239 20.859243,19.5600823 20.8507218,20.3252698 C21.6772816,20.0604633 21.8340723,20.7551503 22.0897094,21.1368843 C22.3197827,21.1007743 22.4816862,20.8600412 22.5958708,20.7517113 C22.577124,20.3201112 22.2856978,20.4112459 22.149358,20.00028 C23.0935109,19.8266083 23.914958,19.4122034 24.335907,18.8825905 C24.6920946,19.0098352 24.6835734,19.4431548 24.3324985,19.5703995 C25.3942444,19.1921046 26.5769919,19.0046766 27.6353293,18.9548105 C26.8445587,18.3959657 28.7686536,18.5919913 28.2164775,18.110525 C27.6319208,18.0572198 27.0575895,17.6600102 27.3166351,17.3015369 C27.681344,17.2834348 27.357537,17.5998269 27.5313702,17.7184739 C27.9199386,17.2713981 28.3272536,18.189623 28.6732157,17.5293265 C27.6966822,17.9230971 28.6101586,18.3890876 28.509608,18.953091 C29.1810814,18.531808 28.5402845,19.3296663 29.247547,19.2196169 C29.9173161,18.8258463 30.7660311,18.4423928 31.5533933,18.2394892 C32.6185477,18.610906 34.0978341,17.955768 34.9993808,17.8491576 C35.4936125,18.0795736 35.2294542,18.7123578 35.7441368,18.7759802 C36.338919,18.7140773 35.2482009,18.1569521 36.1548603,18.3632948 L36.0798734,18.492259 C36.3372147,18.3220263 37.7227676,18.7776997 37.9306857,17.8973042 L37.6989081,18.571357 C37.8676286,18.6212231 38.0107854,18.4613076 38.1420124,18.3822095 C38.1624633,18.5954303 38.3652687,18.7794192 38.1062232,18.9341762 C38.6737375,19.3537397 39.2395475,18.7931754 39.829217,18.7536264 L39.4321274,18.38049 C40.4359289,18.0297075 41.1312617,18.3908071 42.1094995,18.2394892 L42.0873443,18.6229427 L42.6667883,18.3839291 C42.5304485,18.7536264 43.0621736,18.99264 43.3706423,18.6831259 C42.864481,18.99264 42.3668408,19.3038735 41.8743134,19.6323023 C41.4533644,19.4156425 42.3208262,19.1594336 42.0532594,18.7897363 C41.8248903,18.4681857 40.9165266,18.5868327 40.7835953,18.9616886 C41.1295575,18.9943595 41.1431914,18.9118224 41.409054,18.7673825 C41.5351683,19.2969954 41.0119644,19.2849588 40.7648486,19.6460584 C40.9454988,19.6185461 41.2045443,19.7784617 41.2386293,19.6065094 C40.8926671,19.8713159 40.539888,19.9297796 39.953627,19.9658896 C40.3438996,19.7440712 39.7235536,19.6460584 39.8684146,19.4895819 C39.8394424,19.9624506 39.2889706,20.115488 38.5578487,20.0346705 C38.0073769,19.5291309 37.2183105,20.457673 36.3764124,20.3837335 C36.6780642,19.8867916 37.0870834,19.4655086 37.5881321,19.2471293 C37.042773,19.0407866 37.0001669,19.3004345 36.4496951,19.1044089 C36.2196217,19.4775453 36.0781692,20.0312314 35.4118086,20.2994769 L35.3436387,19.9555725 C34.7352225,20.191147 34.7846457,20.7087232 33.9887623,20.691528 C32.6202519,20.6588571 31.2329948,20.8359679 30.2036296,20.9494564 L30.1150088,20.6107105 C29.6497493,21.4206055 28.2590837,21.1867505 27.5552297,21.6475824 C26.1935363,21.5581673 24.8522939,22.5486121 24.0683402,22.1376463 C21.9141719,22.9870903 20.0872191,23.8262172 18.1886879,24.8149426 C18.2023219,24.5948437 18.2278856,24.4056962 18.2534493,24.194195 C18.0881373,24.7048931 17.8716979,24.0703894 17.5683419,24.3678668 C18.1682369,24.4418062 17.3876918,25.1330542 17.3433813,25.5388615 C16.2884524,25.8019484 15.5709644,27.0245288 15.250566,27.9032047 L14.9744779,27.6865448 C14.8432509,28.7750025 13.7474201,29.198005 13.0316363,30.1041932 C12.8407606,30.1299861 12.450488,30.123108 12.2902888,30.4309025 C12.464122,31.2734684 12.2544996,31.5227992 12.1488363,32.473695 C11.8693398,33.0617716 11.2864873,33.9559232 10.8655383,34.5233656 C10.718973,37.1009296 9.68790358,39.4532361 9.91456843,42.10302 L9.49873215,42.254338 C10.1378248,44.8078287 9.53963408,47.8617003 10.3559684,49.9663956 L9.63677616,49.8701024 C9.51918312,50.5923018 10.0884016,51.3901601 10.5383229,51.1201951 C10.4531105,51.8389554 11.2080919,52.7141923 10.766692,53.2713175 C10.8024811,53.9900779 11.2779661,54.0313464 11.5267861,54.5678374 C11.6409707,55.9967604 11.8727483,56.4902633 12.4095861,57.7197218 L12.3431205,57.391293 C12.1505406,57.3001584 11.8642271,57.3809759 11.9323969,57.7128437 C12.2749506,58.1272486 12.3550502,59.5303788 12.9719876,58.7755085 C13.0128896,60.2990053 14.50581,61.7709164 14.4632038,63.3236451 C14.6268115,63.1241805 14.802349,63.4371335 15.0000416,63.514512 C15.5027945,64.6855067 15.6255003,66.1127103 16.39582,66.8950929 C16.375369,67.1306675 15.9118138,66.7558116 16.1043937,67.2458755 C16.3106076,67.4952062 16.3770733,67.1306675 16.6497528,67.4264253 C17.8904446,69.1562648 18.0250802,71.4862175 18.9249226,73.2057399 C20.7194948,76.1254888 22.1306113,79.6247167 23.0168198,83.2460307 L22.8463951,83.2408722 C23.7598715,84.3534031 22.7083511,86.2036091 23.6729549,87.1734197 C23.5332066,87.4880923 23.597968,88.3667682 23.2826823,88.1277546 C23.4974174,88.6504894 23.349148,89.3950426 23.1207788,90.1481934 C22.9230862,90.9185394 22.7117596,91.7078001 22.7475487,92.4953413 C22.8003804,92.3663772 22.7884507,92.2821206 22.762887,92.1101683 C22.0351735,93.4479567 22.0147225,94.8614041 21.004104,96.0805454 C21.0143295,95.9103127 21.0995418,95.6403477 20.9717233,95.5268592 C20.4212515,95.8742027 20.9240044,97.0881855 20.0752894,96.9575018 C19.9202029,97.2498206 20.30025,97.3787847 20.3837581,97.1844787 C18.4323952,99.8291041 16.554315,102.588937 14.478542,104.965317 C12.5663768,106.206812 13.4304301,104.100398 12.6140958,105.761456 C12.4044734,105.752858 12.7572525,106.055494 12.622617,105.954043 C12.3005143,106.591985 11.2558109,106.045177 11.2217259,106.674522 C11.7040278,106.892902 11.1978665,107.087208 11.3989676,107.312465 C10.2281499,108.019189 9.74414373,107.897103 9.28058853,108.903023 L9.14936151,108.665729 C8.84089279,110.048225 7.62235615,110.808254 7.64451136,112.111652 C3.61907982,116.94351 2.57096788,122.803642 2.60164433,128.889031 C2.58801035,129.633585 2.57096788,130.40737 2.63232078,131.129569 L2.90329606,133.218789 C2.95612772,133.566132 2.97487443,133.918634 3.0498613,134.264258 L3.35492153,135.294252 L3.94459101,137.359398 C5.03701337,140.062487 6.2879307,142.75354 7.92059938,145.418799 C8.22395536,146.993882 8.22736385,147.152078 9.48509818,148.230219 C9.35727965,148.249133 9.27206729,148.183791 9.26013756,148.33339 C9.74925647,148.04451 10.0389785,149.184553 10.5485483,148.961015 C11.9034247,150.859368 13.5872208,152.262498 15.2897636,153.959667 C14.9642525,153.748166 14.50581,153.952789 14.8705189,154.231351 L15.4704138,154.288096 L15.4226949,154.454889 C15.7124169,154.602768 16.1487042,154.623403 16.0328154,154.276059 C20.7672137,157.978191 25.067029,162.362973 30.4490412,165.093574 C31.0216682,165.528613 31.7851709,165.939579 32.5759415,166.314435 C33.3905716,166.639425 34.2358781,166.928304 34.9584789,167.191391 C38.7981475,169.684699 42.6770138,171.667308 47.2904106,171.890846 C47.2904106,171.890846 46.4928229,173.209719 44.4766987,173.146097" id="Fill-3" fill="#35BC9B" mask="url(#mask-2)"></path>
                <path d="M38.2901843,3.77330279 C39.470481,2.86603992 39.527192,4.46267969 40.5249503,4.01976396 C40.6206501,4.00547636 40.1545569,4.66627806 40.3938063,4.59126813 C41.4642255,3.9715433 42.063235,5.01632436 42.3716008,6.11289799 L42.2315956,6.27363354 C42.291851,6.48258975 42.780983,5.95573434 42.8749105,6.11646989 C42.8111107,6.24148643 42.7366775,6.26648973 42.6799666,6.45401454 C42.912127,6.10218229 43.0237767,6.42008148 43.2311262,6.17719221 C43.2080873,6.35221536 43.0468156,6.64153935 43.0308656,6.84513771 L43.3374592,6.46651619 C44.0977404,5.58247068 43.8407689,6.8308501 44.4238284,6.4772319 C44.3564841,6.56652942 44.2855955,6.62725174 44.25724,6.73619473 C45.0742322,6.39150627 45.6236195,6.83799391 46.2899732,6.91121788 C46.1871846,7.04873607 46.0205962,7.30948485 45.9638852,7.4952237 C46.2279456,7.06659557 46.4583339,7.04337822 46.6515056,7.03623442 C46.4707394,7.53094271 47.1246876,6.75584018 47.1619041,7.10231458 L47.0927877,7.19518401 C47.4773588,6.78620134 47.1317764,7.57380553 47.5447031,7.05587987 L47.4312812,7.45950469 C47.8335745,6.84692366 47.4348256,7.89349067 47.7148359,7.62381214 L47.7839524,7.48986585 C47.9664908,7.38449477 47.84598,7.73811298 47.9948463,7.67917661 L47.9629464,7.75775843 C48.26954,7.70596587 48.2021957,8.13102209 48.4644839,7.62738404 C48.3244787,8.07029977 48.1578903,7.69703611 47.9629464,8.34712211 C48.9482992,8.21317582 49.6217418,8.71145602 50.3359453,9.09186348 C50.3075899,9.3365387 50.3270842,9.42583623 50.2420178,9.62586269 C50.3678452,9.56335442 50.5592447,9.67944121 50.7612775,9.45798334 C50.732922,9.45441144 50.6691222,9.74016352 50.6939332,9.78481229 C50.7222887,10.0455611 51.1316709,9.30974945 51.1529375,9.61336104 C51.0253379,9.71516022 50.9190048,9.86696601 50.8374828,10.0634206 C51.1688875,9.73837757 51.2982593,9.88839742 51.5091532,9.8383908 C51.4400367,9.91340073 51.3797813,9.94376189 51.3000315,10.1044974 C51.695236,9.74552138 51.5357365,10.3545305 51.8246079,10.1473602 L51.6172584,10.409895 C51.6491584,10.8831719 52.0018296,9.83660485 52.0904405,10.1527181 C51.9894241,10.2170123 51.9468909,10.3420289 51.87423,10.4527578 C52.3491842,10.0294875 52.5795724,10.3813198 52.902116,10.3259553 C52.861355,10.3563165 52.8064163,10.4295404 52.8064163,10.4295404 C53.0793377,10.4920487 53.1590875,10.7456537 53.603914,10.6920752 C53.5720141,10.842095 52.9340159,11.2439339 53.2335206,11.2689372 C53.782908,10.8117338 53.8343023,11.2921545 54.3677397,10.734938 C54.4900227,10.9313925 54.5431892,11.2582215 54.8816827,11.2207165 C54.5538225,11.3064421 54.1852013,11.6922075 53.9743075,11.6457727 L53.6570806,11.9279529 C53.3558036,12.0726149 53.6553083,11.8243678 53.3274481,12.033324 C53.4089701,12.0476116 53.8803799,12.0047488 53.8183523,12.0940463 C54.4368562,11.926167 55.3229648,11.6814918 55.5958863,11.8368695 C55.2378984,11.8475852 54.9649769,12.1297653 54.7204109,12.1386951 C55.2981538,12.03511 55.7465248,12.0065348 56.2551511,11.9922471 C56.3419898,12.0618992 55.7536136,12.1547686 55.9981796,12.2190629 C56.1665403,12.1654844 56.3047732,12.1887017 56.4678172,12.1904877 C56.4181951,12.2315645 56.8204885,12.5298183 56.1842624,12.6905538 C55.9450131,12.7727075 55.9875463,12.5816108 55.7996913,12.7173431 C55.8723522,12.8620051 56.099196,12.8316439 56.1594514,12.9923794 L56.074385,13.0066671 C56.0194462,13.11561 56.4306006,13.297777 56.7637775,13.1388274 C56.7673219,13.0548877 56.3809786,13.2102654 56.5422503,13.0727472 C56.939227,13.1084662 57.0863211,13.3209943 57.1129043,13.5120911 C57.0012546,13.4531547 56.8293495,13.4710142 56.6414945,13.4549406 C57.1820208,13.6692547 57.3521536,13.9603646 57.5258309,14.2746919 C57.8341968,14.2943374 56.9782158,14.1318159 57.1448042,14.0996688 C56.6964332,14.4193539 57.6286195,14.9426374 56.8966938,15.139092 C56.857705,15.0819416 57.3397481,15.1962424 57.2529095,15.1837408 C57.1483487,15.3498342 56.7052943,15.2426771 56.8240329,15.3855532 C56.5635169,15.3373325 56.8417551,15.5284292 56.8630217,15.6588036 C57.0242934,15.7659606 56.7230165,15.6516598 56.7425109,15.5552185 C56.8949216,15.7641747 56.9126438,16.3213912 56.24629,16.4517656 C56.4217396,16.5142739 56.7531442,16.908969 56.6397223,16.9696913 L56.2551511,16.7482334 C55.936152,16.6821533 56.0300795,16.9661194 55.6720916,16.7928822 C56.0247629,17.1625739 55.8351356,16.1267226 56.0123574,16.474983 C55.6366473,16.3535384 56.384523,17.0196979 55.8723522,16.7125144 C55.7394359,16.8268152 56.0318518,17.198293 55.5161365,17.0964938 C55.6224696,17.1000657 55.0943488,16.691083 55.0057379,16.7893103 C54.867505,16.980407 55.1315654,16.942902 55.0890321,17.1500723 C55.1049821,17.2125806 55.1156154,17.2733029 55.1227043,17.3322392 C55.4718311,17.5858442 54.8480106,17.4304665 55.3371426,17.6572822 C55.0199157,17.4643996 55.1156154,18.0216162 54.598128,17.5626269 L54.2029235,17.1947211 C54.1391237,17.2750888 54.4864783,17.6608541 54.5733169,17.8751682 C54.5219226,17.8501649 54.4120451,17.7930145 54.3517897,17.7305062 C54.9419381,18.3037963 54.0469684,17.8340913 54.353562,18.3645187 C53.9211409,18.2984385 53.7067027,18.714565 53.3044093,18.3788063 C53.2849149,18.6681302 53.2246595,19.0360361 52.967688,18.9878154 C52.9517381,18.9110195 52.9942713,18.859227 52.9216104,18.7020633 C52.6894499,18.568117 52.7940107,18.750284 52.7727441,18.9128055 C52.7302109,18.7985046 52.3669064,18.6127658 52.1312015,18.423455 C52.1294292,18.7002774 52.3828563,19.0467518 52.5033671,19.2807113 C52.0000574,18.6681302 52.4165285,19.9165097 51.9220798,19.3825105 C51.9114465,19.2646377 51.9079021,18.9467385 51.7076415,18.8360096 C51.2078762,18.2234286 51.7749858,19.4646642 51.409909,19.2432063 L51.7785302,19.7807774 C51.4985199,19.4789518 51.7058693,20.2594122 51.3939591,19.6754063 C51.45067,19.9129378 51.0767322,19.6128981 51.4134535,20.1486832 C50.855205,19.8557874 50.8676105,20.8452039 50.121507,19.9647303 C50.1321403,20.0826031 49.974413,20.04867 50.1587236,20.3201345 C50.4050618,20.5844552 50.1285959,20.0433122 50.2756899,20.2379808 C50.2473345,20.2754857 50.325312,20.4308634 50.3643008,20.5094452 C50.203029,20.4362213 50.1091015,20.4380072 49.9301076,19.9325832 C49.5331309,19.7111254 50.2615122,20.98808 49.8822577,20.9237858 C49.7635191,20.6898263 49.6944027,20.6148163 49.6394639,20.6951841 L49.7209859,21.166675 C49.5047754,21.1738188 49.3293259,20.7041139 49.1042543,20.3237064 C49.05286,20.4415791 48.9341214,20.4844419 49.0581767,20.7951973 L48.6718333,20.375499 C48.9536158,20.6808965 48.7338609,20.6505353 48.7462664,20.770194 L48.7338609,20.6505353 C48.6239834,20.4969436 48.579678,20.6576791 48.5548669,20.736261 C48.7055054,20.9684345 48.865005,21.0023676 48.9607047,21.0380866 C49.0156434,21.2327552 48.9217159,21.2345412 48.9766547,21.4702866 C48.7781663,21.0809494 48.6771499,21.2863337 48.5849946,21.2881197 C48.4556228,21.2541866 48.6877832,21.6792428 48.6576555,21.6792428 C48.5424614,21.4845742 48.5070171,21.7256776 48.4113173,21.4149222 C48.4024563,21.3363403 48.5849946,21.5685139 48.5300559,21.3702734 C48.3935952,21.2541866 48.2039679,20.9112841 48.2358678,21.2238255 C48.2606789,21.457785 48.6877832,21.9560652 48.391823,21.8096172 C48.3794174,21.6899586 48.2996677,21.5345809 48.25359,21.3809891 L47.9930741,21.2738321 L48.1844735,21.6203065 C48.1153571,21.5435106 48.1118126,21.5077916 48.0745961,21.4649288 C48.2394123,21.854266 47.9150965,21.709604 48.1153571,22.1346602 C48.0621905,22.215028 47.821169,21.9899982 47.7272415,21.9917842 L47.723697,21.9560652 C47.519892,21.8042594 47.4826755,22.0042858 47.5429309,22.2793222 L47.5021699,22.2007404 C47.4401423,22.2025264 47.3586203,22.323971 47.4153312,22.5597165 C47.1459542,22.3704057 46.6266945,21.2863337 46.7436609,21.7971156 C46.6284667,21.8792693 46.9155659,22.5382851 47.0927877,22.7275958 C46.7401164,22.6257966 46.8163218,23.3312471 46.3023787,22.9169066 C46.3520008,23.0758562 46.4228895,23.1508661 46.4051674,23.2687388 C46.0064185,23.3223173 45.962113,24.0742025 45.3152537,23.5491331 C45.325887,23.3508925 45.122082,23.2026587 45.0086601,23.00799 C45.1096765,23.3598223 44.7321942,22.7418834 45.0086601,23.2865983 C45.1947429,23.5919959 45.2744927,23.7491595 45.4375367,23.8205975 C45.341837,24.0992058 45.0511933,24.2706571 44.7764996,24.0438414 C44.9129604,24.1545703 44.9271381,24.274229 44.9395436,24.3921017 C44.6683944,23.8902496 44.4823116,23.8973934 44.4752227,24.1331389 L44.6364945,24.4438943 L44.3866118,24.1760017 C44.4007896,24.2956604 44.7073832,24.8350174 44.4344617,24.6064158 C44.3618008,24.4939009 44.2855955,24.3778141 44.216479,24.3045901 C44.2483789,24.6153455 44.3334453,25.1243414 44.0676127,24.9403885 L43.7149415,24.5581951 C43.6901304,24.6367769 43.7574747,24.9511042 43.9222909,25.0243282 C43.5625308,24.8796662 43.4118923,24.924315 43.1265653,24.5814125 C43.3108759,25.719063 42.8199717,26.0566076 42.3716008,26.2298448 L42.25109,25.9958853 C42.0189295,25.8494373 42.4229951,26.4262994 42.2546344,26.3137845 C42.1677958,26.0762531 41.9019632,25.8958721 41.8346189,25.5797588 C41.5404309,25.4333109 41.85943,26.0905407 41.8151245,26.2530622 C41.9710797,26.5584597 41.7885413,26.0137448 41.9852574,26.403082 C42.0277906,26.5191688 41.6343584,26.2994969 41.8700633,26.7620581 C41.7265137,26.6102523 41.5670141,26.2619919 41.4837199,26.0655374 L41.5120754,26.3423597 C41.0920599,25.8851564 41.2391539,25.2457861 40.7429331,24.6724959 L40.693311,24.7957265 C40.3388675,24.3742422 40.6224223,24.1259951 40.3087398,24.0974199 C40.3388675,24.3742422 40.6312834,25.0761208 40.8333161,25.2225687 C40.7021721,25.465458 41.3561203,26.3477175 41.1204153,26.4370151 C40.9095215,26.2084134 41.2568761,26.2744936 40.9999046,25.9262332 C40.6897665,25.6244076 40.9130659,26.2494903 40.7500219,26.1762663 C40.9485103,26.2852093 41.125732,26.7906333 41.1080098,26.910292 C40.8758494,26.7620581 40.9325603,26.4423729 40.7517941,26.4888076 C40.8758494,26.7620581 40.8439494,27.0406664 41.0707933,27.1496093 C41.354348,27.7693342 40.815594,27.0817432 40.9928157,27.5871672 C40.7039443,27.2031879 40.6029279,26.5352424 40.3122843,26.4316572 C40.5692558,26.8138506 40.4115284,27.0960308 40.8439494,27.6336019 C40.7110332,27.5568061 40.5231781,27.2496226 40.4310228,26.9745862 C40.1935457,26.7888473 40.6171056,27.8389862 40.1297459,27.0674556 L40.3317786,27.4942978 C40.2219012,27.3853548 40.1332903,27.2978432 39.9489797,27.1138903 C39.8603688,27.1567531 39.9950574,27.8246986 39.6477028,27.2049738 C39.6565639,27.2853416 39.4474422,27.3710672 39.7682135,27.7532606 C40.0375906,27.9407854 39.7274525,27.3603515 40.1262014,27.8961367 C39.7699858,27.4764383 39.9879685,28.0586582 40.0092351,28.2568987 L39.8621411,28.0247251 C39.8727744,28.1425978 39.7469469,28.1461697 39.8710021,28.4194202 C39.8231523,28.2640425 39.715047,28.1122367 39.6477028,28.0729458 L39.812519,28.460497 C39.7487192,28.7391053 39.4066812,27.847916 39.3038926,28.0497284 L39.266676,27.6961102 C39.2737649,27.7711201 39.0221101,27.4675085 39.0097045,27.6228862 C39.1621152,27.9765044 39.3464258,28.3997747 39.4633922,28.6730251 C39.4545311,28.8730516 39.2081929,28.3265507 39.3127537,28.7176739 L39.2028762,28.2497549 C39.1567986,28.1318821 38.8058995,27.7532606 38.6889332,27.8336284 C38.6765277,27.9943639 38.8307106,28.5408648 39.0593266,28.6498078 C38.9990712,28.6908846 38.7970385,28.5408648 38.7048832,28.2711863 C38.6322223,28.4658549 38.9299548,28.6140888 38.9264103,28.8909111 C38.7509608,28.6998144 38.4160117,28.4765706 38.1395458,28.2122499 L37.9463742,27.5853813 L37.8595355,27.6282441 C37.7124415,27.1228201 37.6096529,27.3246325 37.4005312,26.8209944 C37.3012871,26.7817035 37.3243259,26.98173 37.3402758,27.1335358 C37.9375131,27.7836218 37.7425692,28.2658284 38.1838513,28.9194863 C38.0633405,29.2391715 37.0833043,27.3442779 37.4607866,28.5533665 C37.602564,28.7069582 37.790419,29.29275 37.8205467,29.0123557 C37.6362361,29.0194995 38.1182792,29.7517393 37.7886468,29.5677864 C37.749658,29.2141682 37.2552094,28.9552053 37.2002707,28.4426375 C37.3190092,28.676597 37.4005312,28.5569384 37.3898979,28.4747846 C37.1807763,28.2497549 37.0053268,27.7818358 36.8600049,27.8675614 C36.8086106,27.9872201 36.6951887,28.0693739 36.9184881,28.4158483 C37.1471042,28.8033995 37.0301378,28.2926177 37.2002707,28.7230318 C37.1010265,28.9623491 36.7288609,28.3854871 37.0549489,29.1195128 C37.1382431,29.00164 37.3969868,29.3874054 37.5493975,29.6552979 L37.5139531,29.8946153 L37.3881257,29.6213649 C37.072671,29.5570707 37.5972473,30.1267889 37.3562258,30.1767955 L36.966338,29.7195922 C36.7589886,29.2516731 37.3721757,29.7428095 36.9238048,29.0445029 C36.7749385,29.0927235 36.9397547,29.4838467 36.7093665,29.3713318 C36.7022776,29.29275 36.7288609,29.2534591 36.7182276,29.1730913 C36.6579722,29.1766632 36.0607349,28.2515408 36.1954235,28.9194863 C36.2255512,29.1927367 36.3194787,29.1909508 36.4718894,29.4606293 C36.3070731,29.6660136 36.4027729,29.976769 36.2911232,30.0982137 C36.0164295,29.5570707 36.0217462,30.1892971 35.8622466,29.5642145 C36.1085848,29.832107 36.3974562,29.6231508 36.1830179,29.07665 C35.7452803,28.5015739 36.3974562,29.0677202 36.0784571,28.4104904 C35.9012354,28.496216 35.555653,27.8782772 35.2969093,27.4925118 C35.2331095,27.4925118 35.286276,27.6907523 35.2951371,27.7693342 C35.4936254,28.1568854 35.5503364,28.1158086 35.7789524,28.5033598 C35.530842,28.5122896 35.4705866,28.8284028 35.5804641,29.257031 C35.408559,29.1087971 35.2100706,28.7194599 35.2650094,28.6390921 C35.1037376,28.8837673 34.8343606,28.9712789 34.5561225,28.9819946 C35.0487989,29.5177797 34.4019395,29.2677467 34.7900551,29.7231641 C34.984999,29.7946021 35.3358981,30.1767955 35.43337,30.4893715 C35.3394425,30.4929087 35.2791871,30.2196583 35.1728541,30.1053575 C35.2774149,30.4946947 34.7191664,29.6481541 34.9371492,30.230374 C35.0275323,29.9124748 34.5437169,29.4570574 34.3026954,28.9516334 C34.3115565,29.3106095 34.1112959,28.605159 33.9642019,28.6908846 C33.9712907,29.0445029 33.9128076,29.364188 33.810019,29.5642145 C33.3386092,29.2266698 33.2836704,29.8606822 33.1099931,29.9874847 C32.872516,29.7999599 32.6226334,29.2159541 32.4631338,29.183807 C32.3461675,29.2641748 32.8937826,29.7178062 32.5676946,29.5749302 L32.5233892,29.4570574 C32.5411114,29.616007 31.9757741,29.2802483 32.3745229,30.0946418 L32.089196,29.471345 C32.0253961,29.437412 32.0714738,29.5910037 32.0803349,29.6713715 C31.9686852,29.4802748 31.82868,29.328469 31.8091856,29.1695194 C31.461831,28.8266169 31.6106973,29.3713318 31.4990476,29.4606293 L31.7790579,29.7642409 C31.7294358,30.158936 31.3891701,29.8946153 31.2597983,30.1357186 L31.0683988,29.7892442 L31.0666266,30.0642806 C30.9035826,29.7160203 30.6696499,29.5660004 30.7671219,29.8803277 L30.5934446,28.8605499 C30.7972495,29.0105698 30.7387664,29.3302549 30.988649,29.6338665 C31.2030873,29.9017591 31.3377758,29.6999467 31.176504,29.3516863 C31.0843487,29.3552582 31.1233375,29.4338401 31.1392875,29.5892178 C30.841555,29.1266566 30.9585213,29.0820078 30.8309217,28.7337475 C30.8025662,28.7730384 30.6661055,28.6605235 30.7458552,28.8141152 C30.6855999,28.5390789 30.7369942,28.4587111 30.8539605,28.3765574 C30.8769993,28.6105169 31.070171,28.6462359 31.1162487,28.7998276 C30.8840882,28.3729855 30.9266214,28.1765309 31.1463764,28.2068921 C31.5327197,28.6265904 31.249165,27.7282573 31.502592,27.7586185 C31.6762693,28.2247516 31.7826024,28.6176607 31.7737413,28.8534061 C32.007674,29.00164 31.8907076,28.7694665 32.1246403,28.9194863 C31.9934962,28.571226 31.7524747,28.064016 31.7843746,27.7854077 L31.9740018,28.0943772 C32.0112184,27.8586317 31.7436136,27.3960705 31.9598241,27.3853548 C32.3319897,27.3728532 32.6244056,27.2014019 32.8618827,27.1138903 L33.05151,27.4210738 C32.7856774,26.6816903 33.3084815,26.9406531 33.3013926,26.5459581 C33.7497636,26.6852622 33.7267248,25.8958721 34.1804124,26.3530754 C34.527767,25.82622 34.8166384,25.3404414 35.3872924,25.1600604 L35.5662863,25.6654844 C35.4634977,25.2779332 35.7771802,25.8923002 35.82503,25.7726415 C35.514892,25.4690299 35.6761638,25.2297125 35.5786918,24.9135993 C36.0057962,25.1350571 36.0713682,24.5814125 36.0873182,24.1456405 L36.2751732,24.45461 C36.1369403,23.7491595 36.6756943,24.1242091 36.9822879,24.0706306 C37.0850765,24.1849314 37.2995148,24.4510381 37.3562258,24.3724563 C37.1984985,23.7866645 37.2906538,23.7813066 37.3066037,23.3473206 C37.4519255,23.261595 37.7620636,23.2490934 38.0243517,23.3598223 C38.1608124,22.3275429 38.9831213,22.4525594 39.3038926,21.6899586 L39.5590919,22.034647 C39.6565639,20.9255717 40.7482497,21.239899 40.9857268,20.5594519 L41.3029537,21.2166817 C41.5634697,21.3238387 41.5457475,20.8523477 41.2497872,20.4290775 C41.5085309,20.5362345 41.4429589,19.9075799 41.8363911,20.3701411 C42.0543739,20.3969304 41.8541133,19.9700882 41.9320909,19.8111386 C42.3716008,19.8736469 42.4531228,19.7504163 42.6711055,19.4664501 L42.577178,19.4682361 C42.6250278,19.6253997 42.7774385,19.8950783 42.871366,19.8915064 C42.8784549,19.6575468 43.360498,19.83257 42.821744,19.1431931 C43.3782202,19.398584 43.3303703,18.3734484 43.9630519,18.784217 C43.8195023,18.5931203 43.8726688,18.5109666 43.824819,18.353803 C44.0871071,18.1877096 44.608139,18.4413145 44.6223167,17.9662517 C44.7251053,18.0448335 44.755233,18.3555889 44.877516,18.314512 C44.8970104,18.1966393 44.7251053,18.0448335 44.7375109,17.882312 C44.9501769,17.2465136 45.8433745,17.7626533 46.1800958,17.4304665 C46.6532778,16.6250028 47.4986254,16.3946152 48.1330792,15.9356259 L48.212829,16.0892177 C48.1047237,15.3819813 49.0812155,16.3713979 48.7586719,15.3980548 C48.8951327,15.5105697 49.0014657,15.3462623 49.1290654,15.6605895 C49.0741266,15.1480217 49.85213,15.7498871 49.8131412,15.0819416 C49.7812413,15.0801556 49.7847858,15.1194465 49.7954191,15.1998143 C50.2491067,15.3801953 50.2154346,14.7890457 50.6655778,14.9283498 C50.6762111,15.0087176 50.6531722,15.0872994 50.732922,15.2426771 C51.0536933,15.4391317 50.4794949,14.5372267 50.9721713,15.2212457 C50.9952102,15.1980284 50.7506442,14.8640556 50.7541886,14.8908449 C51.1777486,15.0194333 51.0572378,14.4693605 50.9562214,14.3050531 C51.6172584,14.5015076 52.4980504,15.0408647 51.9415742,14.6408118 C52.1400626,14.7122498 51.5835863,14.4800762 51.7838469,14.56223 C51.5499142,14.4282837 52.9924991,14.9408515 52.5157726,14.7104639 C51.8653689,14.4943638 52.1914569,14.5658019 51.8033413,14.4318556 C52.3137398,14.5157953 53.0155379,14.669387 52.5388114,14.4247118 L52.9056604,14.5211531 C51.9273965,14.1675349 52.5459003,14.1228861 51.2805372,13.9300035 C51.1990152,13.7335489 50.880016,13.6085324 50.6141835,13.6263919 C50.3359453,13.6442514 50.1658125,13.7246192 50.1144182,13.7531944 C50.112646,13.7049737 50.1764458,13.729977 50.055935,13.6728266 L49.012099,13.1441852 C48.3173898,12.7869951 47.6368584,12.395872 47.0484822,11.8082942 C47.0573433,11.0010446 47.0254434,11.0046165 46.5256781,11.0635529 C46.5965668,10.9688975 46.6320112,10.9581818 46.6585944,10.8510248 C46.3644064,11.3546628 46.3785841,10.7599413 46.0808516,11.2332182 C45.6147584,10.8545967 45.0600544,10.734938 44.5283892,10.4473999 C44.6400389,10.4384702 44.9076437,10.0419892 44.7906774,10.0205578 L44.5106671,10.2920222 L44.5691502,10.1384305 C44.4592728,10.1777214 44.2483789,10.3920355 44.2324289,10.5956338 C42.6533833,10.3116677 41.8913299,8.55965022 40.514317,7.9720725 C40.3193731,7.58809313 39.7682135,7.54344437 39.3730091,7.46307659 C38.7403275,6.23077072 38.1342292,5.18420371 36.8564605,5.10919379 C36.8564605,5.10919379 37.7053526,3.85188461 38.2901843,3.77330279" id="Fill-3" fill="#35BC9B" mask="url(#mask-2)" transform="translate(44.093445, 16.989372) scale(1, -1) translate(-44.093445, -16.989372) "></path>
            </g>
            <path d="M46.2529431,24.473 C46.0609431,24.145 45.4149431,23.965 45.9349431,23.527 C45.9969431,23.837 46.3249431,24.181 46.2529431,24.473" id="Fill-6" fill="#35BC9B"></path>
            <g id="Group-10" transform="translate(30.000000, 22.000000)">
                <mask id="mask-4" fill="white">
                    <use xlink:href="#path-3"></use>
                </mask>
                <g id="Clip-9"></g>
                <path d="M1.049,1.06656302 C1.041,1.16656302 0.779,0.97256302 0.713,0.93056302 C0.925,0.86856302 1.089,0.56856302 1.287,0.71056302 C1.071,0.77056302 1.129,0.91656302 1.049,1.06656302" id="Fill-8" fill="#35BC9B" mask="url(#mask-4)"></path>
            </g>
            <path d="M27.252,23.437 C27.256,23.139 28.18,22.715 28.748,22.563 L27.252,23.437 Z" id="Fill-11" fill="#35BC9B"></path>
            <path d="M23.0739522,23.213 C22.6279522,23.085 22.6919522,22.925 23.1999522,22.787 C23.2819522,22.923 23.1359522,23.049 23.0739522,23.213" id="Fill-13" fill="#35BC9B"></path>
            <path d="M23.404,24.0783035 C23.054,24.1803035 22.822,24.0943035 22.596,23.9923035 C22.688,24.2143035 23.378,23.5663035 23.404,24.0783035" id="Fill-15" fill="#35BC9B"></path>
            <path d="M15.414,27.7323194 C15.234,27.9183194 14.974,28.4423194 14.586,28.3703194 C14.924,28.3563194 15.284,27.2843194 15.414,27.7323194" id="Fill-17" fill="#35BC9B"></path>
            <path d="M12.2348633,30.8873194 C12.1228633,30.9953194 12.0388633,31.0113194 11.9908633,31.1993194 C11.7068633,31.3393194 11.7248633,30.9773194 11.8588633,30.7693194 L12.2348633,30.8873194 Z" id="Fill-19" fill="#35BC9B"></path>
        </g>
    </g>
</svg>