<?xml version="1.0" encoding="UTF-8"?>
<svg width="97px" height="221px" viewBox="0 0 97 221" version="1.1" xmlns="http://www.w3.org/2000/svg" xmlns:xlink="http://www.w3.org/1999/xlink">
    <title>left-curve-arrow</title>
    <defs>
        <polygon id="path-1" points="0 0 97 0 97 221 0 221"></polygon>
        <polygon id="path-3" points="0 0.174244531 3 0.174244531 3 2.82575547 0 2.82575547"></polygon>
        <polygon id="path-5" points="0.2544 -2.13162821e-14 2.7456 -2.13162821e-14 2.7456 3 0.2544 3"></polygon>
    </defs>
    <g id="Landing-Page" stroke="none" stroke-width="1" fill="none" fill-rule="evenodd">
        <g id="Landing-Page_A---Desktop" transform="translate(-689.000000, -235.000000)">
            <g id="left-curve-arrow" transform="translate(689.000000, 235.000000)">
                <path d="M63.0455,29.6810963 C64.4225,29.5190963 62.3315,28.8920963 63.9545,29.3660963 C63.7505,29.7110963 63.4805,29.9750963 63.0455,29.6810963" id="Fill-1" fill="#35BC9B"></path>
                <g id="Group-5">
                    <mask id="mask-2" fill="white">
                        <use xlink:href="#path-1"></use>
                    </mask>
                    <g id="Clip-4" transform="translate(48.500000, 110.500000) scale(-1, 1) translate(-48.500000, -110.500000) "></g>
                    <path d="M53.4466253,10.6367915 C54.7856754,9.61249983 54.8500141,11.4150919 55.9819739,10.915044 C56.0905455,10.8989134 55.5617615,11.6449526 55.8331906,11.5602671 C57.0475843,10.8606033 57.7271623,12.0401517 58.0770042,13.2781736 L57.9181679,13.4596426 C57.9865279,13.6955523 58.5414495,13.1007372 58.6480106,13.2822062 C58.5756295,13.4233488 58.4911849,13.4515773 58.4268461,13.6632911 C58.6902329,13.2660756 58.8168998,13.624981 59.0521383,13.3507612 C59.0260007,13.5483607 58.8430374,13.8750049 58.8249421,14.1048657 L59.1727734,13.6774054 C60.0353147,12.6793259 59.7437798,14.0887351 60.4052625,13.6895033 C60.3288602,13.7903194 60.2484368,13.8588744 60.2162674,13.98187 C61.1431474,13.5927198 61.766429,14.0968004 62.5224092,14.1794696 C62.4057953,14.3347264 62.2168002,14.6291094 62.1524615,14.8388069 C62.4520387,14.3548896 62.7134149,14.3286774 62.9325687,14.3206121 C62.727489,14.8791334 63.4693951,14.0040496 63.5116174,14.3952161 L63.4332046,14.5000648 C63.8695017,14.038327 63.4774374,14.9275251 63.9459039,14.3427917 L63.8172264,14.7984805 C64.2736294,14.106882 63.8212476,15.2884468 64.1389201,14.9839821 L64.217333,14.832758 C64.4244233,14.713795 64.2877035,15.1130268 64.4565927,15.0464881 L64.4204021,15.1352063 C64.7682335,15.076733 64.6918312,15.5566176 64.9893979,14.9880148 C64.8305616,15.4880627 64.6415666,15.0666513 64.4204021,15.8005926 C65.5382878,15.6493685 66.3023104,16.2119224 67.1125764,16.641399 C67.080407,16.9176351 67.1025235,17.0184512 67.0060154,17.2442793 C67.148767,17.173708 67.3659102,17.304769 67.595117,17.054745 C67.5629476,17.0507124 67.4905665,17.3733239 67.5187147,17.423732 C67.5508841,17.718115 68.0153294,16.8873903 68.0394564,17.2301651 C67.8946943,17.3450954 67.7740591,17.5164828 67.6815722,17.7382782 C68.0575517,17.3713076 68.2043245,17.5406787 68.4435842,17.4842217 C68.3651713,17.5689072 68.2968114,17.6031847 68.206335,17.7846537 C68.6546957,17.3793729 68.4737429,18.0669388 68.8014684,17.8330454 L68.5662299,18.1294447 C68.6024204,18.6637701 69.002527,17.4822053 69.1030563,17.8390944 C68.9884529,17.911682 68.9401988,18.0528245 68.8577648,18.1778365 C69.3966018,17.6999681 69.6579779,18.0971836 70.0239045,18.0346776 C69.9776611,18.0689551 69.9153329,18.1516243 69.9153329,18.1516243 C70.2249631,18.2221956 70.3154395,18.5085133 70.8200965,18.4480237 C70.7839059,18.6173947 70.0600951,19.0710672 70.3998841,19.0992957 C71.0231656,18.5831172 71.0814726,19.1255079 71.6866589,18.4964154 C71.8253893,18.7182108 71.8857069,19.0871978 72.2697288,19.044855 C71.8977704,19.1416385 71.4795686,19.5771641 71.2403089,19.5247397 L70.880414,19.8433186 C70.5386145,20.0066407 70.8784035,19.7263719 70.5064451,19.9622816 C70.598932,19.9784122 71.1337478,19.9300205 71.0633773,20.0308366 C71.7650718,19.8413023 72.7703646,19.5650661 73.0799948,19.7404862 C72.6738565,19.7525841 72.3642263,20.071163 72.0867655,20.0812446 C72.7422164,19.9642979 73.2508946,19.9320368 73.8279327,19.9159062 C73.9264514,19.9945428 73.2589369,20.0993915 73.5363978,20.1719791 C73.7274034,20.1114895 73.8842291,20.1377016 74.069203,20.139718 C74.0129066,20.1860934 74.4693095,20.5228192 73.7475093,20.7042882 C73.4760802,20.797039 73.5243343,20.5812925 73.3112122,20.734533 C73.3936462,20.8978551 73.6510012,20.8635776 73.7193611,21.0450466 L73.622853,21.0611772 C73.5605248,21.1841729 74.0269807,21.3898377 74.4049708,21.2103851 C74.408992,21.1156179 73.9706843,21.2910379 74.1536476,21.1357811 C74.6040188,21.1761076 74.7708974,21.4160499 74.8010562,21.6317964 C74.6743893,21.5652578 74.4793625,21.585421 74.2662404,21.5672741 C74.879469,21.8092327 75.0724853,22.1378933 75.2695227,22.492766 C75.6193646,22.5149455 74.6482517,22.3314602 74.8372467,22.2951664 C74.3285685,22.6560881 75.3861366,23.2468705 74.5557647,23.4686659 C74.5115318,23.4041436 75.0584112,23.5331882 74.9598925,23.519074 C74.8412679,23.7065919 74.3386215,23.5856126 74.4733307,23.7469184 C74.1777746,23.6924777 74.4934366,23.9082241 74.5175636,24.0554157 C74.7005269,24.176395 74.3587273,24.0473504 74.3808438,23.938469 C74.5537541,24.1743787 74.57386,24.8034712 73.8178798,24.9506627 C74.0169278,25.021234 74.3929073,25.4668412 74.2642298,25.5353961 L73.8279327,25.2853722 C73.4660273,25.2107683 73.5725883,25.5313635 73.16645,25.3357802 C73.5665566,25.7531589 73.3514239,24.5836921 73.5524825,24.9768749 C73.1262383,24.839765 73.9747055,25.5918532 73.3936462,25.2450457 C73.2428523,25.3740904 73.5745989,25.7934854 72.9895185,25.678555 C73.1101536,25.6825877 72.5109991,25.2208499 72.4104698,25.3317476 C72.2536441,25.5474941 72.5532214,25.5051513 72.5049673,25.7390447 C72.5230626,25.809616 72.5351261,25.8781709 72.5431684,25.9447095 C72.9392538,26.2310273 72.2315276,26.0556073 72.7864493,26.3116802 C72.4265545,26.0939174 72.5351261,26.7230099 71.9480351,26.2048151 L71.4996744,25.7894527 C71.4272934,25.8801872 71.8213682,26.3157128 71.9198869,26.5576715 C71.8615799,26.529443 71.7369236,26.4649207 71.6685636,26.3943494 C72.3380887,27.0415888 71.3227429,26.5112961 71.6705742,27.1101438 C71.1799913,27.0355399 70.9367104,27.5053429 70.4803075,27.1262743 C70.458191,27.4529185 70.3898311,27.8682809 70.0982962,27.8138402 C70.0802009,27.7271384 70.128455,27.668665 70.046021,27.4912287 C69.7826342,27.3400045 69.9012588,27.5456694 69.8771318,27.7291547 C69.8288777,27.6001101 69.4167076,27.3904126 69.1492997,27.1766824 C69.1472892,27.4892123 69.4348029,27.8803788 69.5715227,28.1445171 C69.0005164,27.4529185 69.473004,28.8623278 68.9120506,28.2594474 C68.8999871,28.1263702 68.8959659,27.7674648 68.6687698,27.6424528 C68.1017846,26.9508543 68.745172,28.3521982 68.3309914,28.1021743 L68.7491932,28.7090873 C68.4315206,28.3683288 68.6667592,29.2494616 68.3128961,28.5901243 C68.3772348,28.8582951 67.9530012,28.519553 68.3350125,29.1244496 C67.701678,28.7937728 67.7157521,29.9108153 66.8692955,28.9167685 C66.8813591,29.0498457 66.7024169,29.0115356 66.9115178,29.3180166 C67.1909893,29.6164322 66.8773379,29.0054866 67.0442165,29.2252657 C67.0120471,29.2676085 67.1005129,29.4430285 67.1447458,29.5317467 C66.9617825,29.4490775 66.8552214,29.4510938 66.6521523,28.8804747 C66.2017811,28.6304507 67.0281318,30.0721211 66.5978665,29.9995335 C66.4631572,29.7353953 66.3847444,29.6507097 66.3224162,29.7414442 L66.4149032,30.2737533 C66.1696117,30.2818186 65.9705637,29.7515258 65.7152193,29.3220492 C65.6569124,29.4551265 65.5222031,29.5035182 65.6629441,29.8543583 L65.2246364,29.3805226 C65.5443196,29.7253136 65.2950069,29.6910362 65.309081,29.8261298 L65.2950069,29.6910362 C65.1703506,29.5176325 65.120086,29.6991015 65.0919378,29.7878196 C65.2628376,30.0499415 65.4437903,30.0882516 65.5523619,30.1285781 C65.6146901,30.3483572 65.508129,30.3503735 65.5704572,30.6165281 C65.3452716,30.1769698 65.2306682,30.4088469 65.1261177,30.4108632 C64.979345,30.3725531 65.2427317,30.8524378 65.2085517,30.8524378 C65.0778637,30.6326586 65.037652,30.9048621 64.9290803,30.5540221 C64.9190274,30.4653039 65.1261177,30.7274258 65.0637896,30.503614 C64.9089745,30.3725531 64.6938418,29.9854192 64.7300323,30.3382756 C64.7581805,30.6024138 65.2427317,31.1649677 64.9069639,30.9996293 C64.8928898,30.8645357 64.8024134,30.6891157 64.7501382,30.5157119 L64.4545821,30.3947326 L64.6717254,30.7858991 C64.5933125,30.6991973 64.5892913,30.6588708 64.547069,30.6104791 C64.7340535,31.0500373 64.3661163,30.8867152 64.5933125,31.3665999 C64.5329949,31.4573344 64.2595553,31.2032778 64.1529942,31.2052941 L64.1489731,31.1649677 C63.9177557,30.9935803 63.8755334,31.2194084 63.9438933,31.529922 L63.8976499,31.4412038 C63.8272794,31.4432202 63.7347924,31.5803301 63.7991312,31.8464846 C63.4935221,31.6327544 62.9044205,30.4088469 63.0371192,30.985515 C62.9064311,31.0782658 63.232146,31.8222887 63.4332046,32.0360189 C63.033098,31.9210885 63.1195532,32.7175358 62.5364833,32.249749 C62.5927797,32.4292017 62.6732032,32.5138872 62.6530973,32.6469645 C62.2007155,32.7074542 62.1504509,33.5563258 61.4165871,32.9635271 C61.4286506,32.7397153 61.1974332,32.5723606 61.0687558,32.3525815 C61.1833591,32.7497969 60.7551044,32.0521495 61.0687558,32.6671277 C61.2798673,33.0119188 61.3703436,33.1893552 61.5553175,33.2700081 C61.4467459,33.5845543 61.1170098,33.7781212 60.805369,33.5220483 C60.9601841,33.6470603 60.9762688,33.7821539 60.9903429,33.9152312 C60.6827233,33.3486446 60.4716118,33.3567099 60.4635695,33.6228644 L60.6465328,33.9737045 L60.3630402,33.6712562 C60.3791249,33.8063498 60.7269562,34.4152791 60.417326,34.1571898 C60.334892,34.0301615 60.2484368,33.8991006 60.1700239,33.8164314 C60.2062145,34.1672714 60.3027226,34.7419232 60.0011347,34.5342421 L59.6010282,34.1027491 C59.57288,34.1914673 59.6492822,34.54634 59.8362667,34.6290092 C59.4281178,34.4656871 59.257218,34.5160952 58.9335137,34.1289613 C59.1426146,35.4133585 58.5856824,35.7944434 58.0770042,35.9900267 L57.9402844,35.7258885 C57.6768977,35.5605501 58.1353112,36.2118221 57.9443056,36.0847938 C57.8457869,35.816623 57.544199,35.6129744 57.4677967,35.2560854 C57.1340395,35.090747 57.4959449,35.8327536 57.4456803,36.0162389 C57.6226118,36.36103 57.4155215,35.7460517 57.6386965,36.1856099 C57.6869506,36.3166709 57.2406006,36.0686632 57.5080085,36.5908907 C57.345151,36.4195033 57.1641983,36.0263205 57.0697008,35.804525 L57.1018701,36.117055 C56.6253613,35.6008765 56.7922399,34.8790332 56.2292759,34.2317937 L56.1729795,34.37092 C55.7708624,33.8950679 56.0925561,33.6147991 55.7366824,33.582538 C55.7708624,33.8950679 56.102609,34.6874826 56.3318158,34.852821 C56.1830325,35.1270408 56.9249386,36.1231039 56.6575307,36.2239201 C56.418271,35.9658308 56.8123458,36.0404347 56.5208109,35.6472519 C56.1689584,35.3064935 56.4222922,36.0122062 56.2373183,35.929537 C56.4625039,36.0525327 56.6635625,36.6231518 56.6434566,36.7582454 C56.3800699,36.5908907 56.4444086,36.229969 56.2393289,36.2823934 C56.3800699,36.5908907 56.3438793,36.905437 56.6012343,37.0284326 C56.922928,37.7280964 56.31171,36.9518124 56.5127685,37.5224315 C56.1850431,37.0889223 56.0704397,36.3348178 55.7407036,36.2178711 C56.0322385,36.649364 55.8532964,36.9679429 56.3438793,37.5748559 C56.1930854,37.4881541 55.9799633,37.1413467 55.8754129,36.830833 C55.6059944,36.6211355 56.0865244,37.806733 55.5336133,36.9356818 L55.7628201,37.4175828 C55.6381637,37.2945871 55.5376345,37.1957874 55.3285335,36.9881062 C55.2280043,37.0364979 55.3808088,37.7906024 54.986734,37.0909386 C54.9967869,37.1816731 54.7595378,37.2784566 55.1234538,37.7099495 C55.4290628,37.9216633 55.0772103,37.2663586 55.5295921,37.8712553 C55.1254644,37.3974196 55.3727664,38.0547406 55.3968935,38.2785524 L55.2300148,38.0164305 C55.2420784,38.1495077 55.0993268,38.1535404 55.2400678,38.4620377 C55.185782,38.2866177 55.0631362,38.1152303 54.986734,38.0708712 L55.1737184,38.5084131 C55.1013374,38.8229594 54.7132943,37.8168146 54.5966803,38.044659 L54.554458,37.6454272 C54.5625004,37.7301127 54.2769972,37.387338 54.2629231,37.562758 C54.4358335,37.9619898 54.6449344,38.4398581 54.7776331,38.7483554 C54.7675801,38.9741835 54.4881087,38.3571889 54.6067333,38.7987635 L54.482077,38.2704871 C54.4298017,38.1374098 54.0317058,37.7099495 53.8990071,37.800684 C53.884933,37.982153 54.059854,38.5991476 54.3192195,38.7221432 C54.2508596,38.7685187 54.0216528,38.5991476 53.9171024,38.2946829 C53.8346684,38.5144621 54.1724468,38.6818168 54.1684256,38.9943467 C53.9693776,38.7786003 53.5893769,38.52656 53.2757255,38.2281443 L53.0565717,37.5204152 L52.958053,37.568807 C52.7911744,36.9981878 52.6745604,37.2260322 52.4373113,36.6574293 C52.3247185,36.6130702 52.3508561,36.8388983 52.3689514,37.0102857 C53.0465188,37.744227 52.8253543,38.288634 53.3259902,39.0266079 C53.1892703,39.3875296 52.0774164,37.2482117 52.5056712,38.6132618 C52.6665181,38.7866656 52.8796401,39.4480192 52.9138201,39.1314567 C52.7047192,39.1395219 53.2515985,39.966214 52.8776296,39.7585329 C52.8333967,39.3593011 52.2724433,39.0669343 52.2101151,38.4882499 C52.3448243,38.7523881 52.4373113,38.6172945 52.4252478,38.5245437 C52.1879987,38.2704871 51.9889507,37.7422107 51.8240826,37.8389941 C51.7657757,37.9740877 51.6370982,38.0668385 51.890432,38.458005 C52.1497975,38.895547 52.0170989,38.3188788 52.2101151,38.8048125 C52.0975223,39.0749996 51.6752993,38.4237276 52.0452471,39.252436 C52.1397446,39.1193587 52.4332901,39.5548843 52.6062005,39.8573326 L52.5659888,40.1275198 L52.4232372,39.8190225 C52.0653529,39.7464349 52.6604863,40.3896417 52.3870466,40.4460987 L51.9447178,39.9299202 C51.7094793,39.4016438 52.4051419,39.9561324 51.8964637,39.1677504 C51.7275745,39.2221911 51.914559,39.6637657 51.6531829,39.5367374 C51.6451405,39.4480192 51.6752993,39.4036601 51.6632358,39.3129256 C51.5948759,39.3169583 50.9173085,38.2725034 51.070113,39.0266079 C51.104293,39.3351052 51.210854,39.3330889 51.3837644,39.6375535 C51.1967799,39.8694306 51.3053515,40.2202706 51.1786846,40.3573805 C50.8670438,39.7464349 50.8730756,40.460213 50.6921229,39.7545002 C50.9715943,40.0569485 51.2993198,39.8210388 51.0560389,39.2040442 C50.5594242,38.5547885 51.2993198,39.1939626 50.9374143,38.4519561 C50.7363558,38.5487395 50.3442916,37.8510921 50.050746,37.4155665 C49.978365,37.4155665 50.0386825,37.6393782 50.0487355,37.7280964 C50.2739211,38.1656383 50.3382598,38.1192629 50.5976254,38.5568048 C50.3161434,38.5668864 50.2477834,38.9237755 50.3724398,39.4076928 C50.1774129,39.240338 49.9522273,38.8007798 50.0145555,38.7100453 C49.8315922,38.9862815 49.5259832,39.0850812 49.2103212,39.0971792 C49.769264,39.7020758 49.0354003,39.4197907 49.4757185,39.9339529 C49.696883,40.0146058 50.0949789,40.4460987 50.2055611,40.7989943 C50.0990001,40.8029877 50.0306402,40.4944904 49.910005,40.3654458 C50.0286296,40.8050041 49.3952951,39.8492673 49.6425971,40.5065884 C49.745137,40.147683 49.1962471,39.6335209 48.9228075,39.0629017 C48.9328604,39.4681825 48.7056642,38.6717352 48.5387856,38.7685187 C48.5468279,39.1677504 48.4804786,39.5286721 48.3638646,39.7545002 C47.8290488,39.3734153 47.7667207,40.0892097 47.5696833,40.2323686 C47.3002648,40.0206547 47.0167722,39.3613174 46.8358195,39.3250236 C46.7031208,39.4157581 47.3243918,39.9279039 46.954444,39.7665981 L46.9041794,39.6335209 C46.9242852,39.8129735 46.2829084,39.433905 46.7352902,40.3533479 L46.4115859,39.6496515 C46.3392048,39.6113413 46.39148,39.784745 46.401533,39.8754795 C46.2748661,39.6597331 46.1160298,39.4883457 46.0939133,39.308893 C45.6998385,38.9217591 45.8687277,39.5367374 45.7420608,39.6375535 L46.0597334,39.9803283 C46.003437,40.4259355 45.6174045,40.1275198 45.4706318,40.3997233 L45.2534885,40.0085568 L45.2514779,40.3190704 C45.066504,39.9258876 44.8011067,39.7565165 44.9116889,40.1113892 L44.7146515,38.9600693 C44.9458689,39.1294403 44.8795196,39.490362 45.1630122,39.8331368 C45.406293,40.1355851 45.5590975,39.9077407 45.3761342,39.5145579 C45.2715838,39.5185905 45.3158167,39.6073087 45.3339119,39.7827287 C44.9961335,39.2605013 45.1288322,39.2100932 44.98407,38.8169104 C44.9519007,38.8612695 44.7970856,38.7342412 44.8875619,38.9076449 C44.819202,38.5971313 44.877509,38.5063968 45.0102076,38.413646 C45.0363453,38.6777842 45.2554991,38.7181106 45.3077743,38.8915143 C45.0443876,38.4096133 45.0926417,38.1878179 45.3419543,38.2220953 C45.780262,38.6959311 45.4585683,37.681721 45.746082,37.7159985 C45.9431194,38.2422586 46.0637546,38.6858494 46.0537016,38.952004 C46.3190989,39.1193587 46.1864003,38.8572368 46.4517976,39.0266079 C46.3030143,38.6334251 46.0295746,38.0607896 46.0657651,37.7462433 L46.2808978,38.095067 C46.3231201,37.8289125 46.0195217,37.3066851 46.2648131,37.2945871 C46.6870361,37.2804729 47.0187828,37.086906 47.2882013,36.9881062 L47.5033339,37.3349136 C47.2017461,36.5001562 47.7948689,36.7925229 47.7868265,36.3469157 C48.2955047,36.5041888 48.2693671,35.6129744 48.784077,36.1291529 C49.1781518,35.5343379 49.5058773,34.9858982 50.1532859,34.7822497 L50.3563551,35.3528689 C50.2397411,34.915327 50.5956148,35.6089418 50.6499006,35.4738482 C50.2980481,35.1310734 50.4810114,34.8608863 50.3704292,34.5039972 C50.8549803,34.7540212 50.929372,34.1289613 50.9474673,33.6369787 L51.1605894,33.9858024 C51.0037637,33.1893552 51.6149817,33.6127828 51.9628131,33.5522932 C52.079427,33.6813378 52.3227079,33.9817698 52.3870466,33.8930516 C52.2081045,33.2316979 52.312655,33.225649 52.3307502,32.7356827 C52.4956183,32.6388992 52.8474708,32.624785 53.1450375,32.7497969 C53.2998526,31.5843627 54.2327643,31.7255053 54.5966803,30.8645357 L54.8862047,31.2536859 C54.9967869,30.0015498 56.2353077,30.3564225 56.5047262,29.5882037 L56.864621,30.3302103 C57.1601771,30.4511896 57.1400713,29.9188806 56.8043035,29.4410122 C57.097849,29.5619916 57.0234573,28.8522461 57.4698073,29.3744736 C57.7171094,29.4047184 57.4899132,28.9228174 57.578379,28.7433647 C58.0770042,28.813936 58.1694912,28.6748098 58.4167932,28.3542146 L58.3102322,28.3562309 C58.364518,28.5336672 58.5374283,28.8381319 58.6439894,28.8340992 C58.6520317,28.569961 59.198911,28.7675606 58.587693,27.9892602 C59.2190169,28.2775943 59.1647311,27.1202254 59.8825102,27.5839795 C59.7196527,27.368233 59.7799703,27.2754822 59.7256845,27.0980458 C60.0232512,26.9105279 60.6143634,27.1968456 60.6304481,26.6605039 C60.747062,26.7492221 60.781242,27.1000622 60.9199724,27.0536867 C60.9420889,26.9206095 60.747062,26.7492221 60.7611361,26.5657368 C61.0024064,25.8479261 62.0157416,26.4306432 62.3977529,26.0556073 C62.9345793,25.146246 63.8936287,24.8861404 64.6134184,24.3679456 L64.7038947,24.5413493 C64.581249,23.7428857 65.6890817,24.8599282 65.3231551,23.7610326 C65.4779702,23.8880609 65.5986054,23.7025593 65.7433675,24.057432 C65.6810394,23.4787475 66.5636865,24.1582481 66.5194536,23.4041436 C66.4832631,23.4021273 66.4872843,23.4464864 66.4993478,23.5372209 C67.0140577,23.7408694 66.9758566,23.0734668 67.4865454,23.2307399 C67.4986089,23.3214744 67.4724713,23.4101926 67.5629476,23.5856126 C67.9268636,23.807408 67.2754339,22.7891653 67.8343767,23.5614167 C67.8605143,23.5352045 67.5830535,23.1581523 67.5870746,23.1883971 C68.0676046,23.3335723 67.9308848,22.7125451 67.8162814,22.5270434 C68.5662299,22.7488389 69.565491,23.3577682 68.9341671,22.906112 C69.1593527,22.9867649 68.5280288,22.724643 68.7552249,22.8173938 C68.4898276,22.6661697 70.1264444,23.2448541 69.5855968,22.9847486 C68.8477119,22.7407736 69.2176597,22.8214265 68.7773414,22.6702023 C69.3563901,22.7649695 70.152582,22.9383732 69.6117345,22.662137 L70.0279257,22.7710184 C68.9180824,22.3717866 69.6197768,22.3213786 68.1842186,22.1036158 C68.0917317,21.8818203 67.7298262,21.7406778 67.4282384,21.760841 C67.1125764,21.7810042 66.9195602,21.8717387 66.8612532,21.9039999 C66.8592426,21.8495592 66.9316237,21.8777877 66.7949039,21.8132654 L65.6106689,21.216434 C64.8225193,20.8131696 64.0504544,20.371595 63.3829399,19.708225 C63.3929928,18.7968474 63.3568023,18.80088 62.7898171,18.8674187 C62.8702406,18.7605536 62.9104523,18.7484557 62.9406111,18.6274763 C62.6068538,19.1960792 62.6229385,18.5246439 62.2851601,19.0589693 C61.7563761,18.631509 61.1270627,18.4964154 60.523887,18.1717875 C60.6505539,18.1617059 60.9541524,17.7140824 60.8214537,17.6898865 L60.5037812,17.9963675 L60.5701305,17.8229638 C60.4454742,17.8673229 60.2062145,18.1092815 60.1881192,18.3391423 C58.3966873,18.018547 57.5321355,16.040535 55.9699104,15.377165 C55.748746,14.9436557 55.1234538,14.8932476 54.6750932,14.8025131 C53.9573141,13.4112508 53.2696938,12.229686 51.8200615,12.1450005 C51.8200615,12.1450005 52.783132,10.7255097 53.4466253,10.6367915" id="Fill-3" fill="#35BC9B" mask="url(#mask-2)" transform="translate(60.030441, 25.557615) scale(1, -1) translate(-60.030441, -25.557615) "></path>
                    <path d="M61.4101413,223.721467 C57.8363576,224.697711 54.1951441,221.751507 50.5365293,221.454484 C50.1188991,221.375861 50.9737359,220.644224 50.0101412,220.519736 C48.1917096,220.428009 46.0731063,219.643956 44.0415092,218.501728 C42.0686414,217.239382 40.0696718,215.843811 38.566638,214.275706 L38.9103129,214.183978 C38.3295458,213.611773 37.0614291,213.843276 36.3958309,213.301646 C36.480662,213.150951 36.7547319,213.231758 36.7112287,212.932551 C36.258796,213.26015 35.2799751,212.345058 34.766638,212.482649 C34.5969757,212.126659 34.849294,211.79906 34.6165521,211.368814 L33.8987502,211.582845 C32.017239,211.962859 31.2450581,209.663117 29.3461457,209.162983 C29.4962315,209.110567 29.7028715,209.134591 29.6658938,208.938032 C28.2520415,208.36801 26.8294885,207.47039 25.4112859,206.487594 C24.0061342,205.491694 22.7053901,204.292683 21.3437415,203.309887 C21.5830088,203.246551 21.9288589,203.049992 21.9419098,202.748601 C21.4155217,203.080568 20.4954301,202.55641 19.8080804,201.979837 C19.9712172,201.23728 18.3267982,201.289695 17.8352126,200.282876 L17.9983494,200.247932 C16.9760254,200.147468 17.4719613,199.15812 16.4518125,199.249848 L16.4713889,198.557523 C15.5534725,198.926617 16.0820357,197.389087 15.3250809,197.207816 L15.201097,197.345408 C14.6442567,197.019993 14.7812916,196.484915 14.3071073,196.150765 L14.3527856,196.043749 C13.3261113,195.181073 13.2238789,194.283452 12.6974908,194.737722 C12.838876,194.038845 13.7154644,195.561087 13.8851267,194.497483 C12.2124307,193.084441 10.9443139,191.271729 9.59789143,189.522352 C9.01494924,188.58542 8.47768536,187.617912 7.93172085,186.656956 C7.39445696,185.696 6.81804025,184.752516 6.43303738,183.723856 C6.49176663,183.147282 6.44608833,182.824051 6.64402765,182.616572 C6.34820624,182.27587 5.89142318,181.17077 5.40201276,180.932715 C5.47379296,181.061571 5.62605398,180.543965 5.56949988,180.325566 C5.49336937,179.521857 4.58197841,179.757728 4.61460578,178.818612 C4.88650045,179.098163 5.13011808,179.139659 5.34545867,178.947467 C4.62983188,178.408022 4.44059318,177.418674 4.03166359,176.614965 C4.18392461,176.719797 4.30790858,176.905436 4.51019822,176.818076 C3.66406198,176.038391 4.11649473,175.123299 3.67711293,174.356718 L4.11431957,174.596957 C4.42536708,173.183915 3.23338081,174.345798 3.36824057,173.129315 C3.53137738,173.391394 3.67493777,173.269091 3.84242489,173.295299 C3.01151475,172.316871 2.90928236,170.49979 2.69394177,169.418715 C2.75267102,169.48205 2.86142889,169.460211 2.86142889,169.460211 C2.72656913,168.265567 2.96148613,167.025061 2.69611693,165.699378 C2.90058173,165.22982 3.67058745,165.895937 3.58793147,164.64451 C2.7744226,164.637958 3.43349529,162.488911 2.46119993,163.146293 C2.70046724,162.063033 3.23338081,160.407568 3.111572,159.647539 C3.32473742,160.178249 4.17739913,159.311204 4.08386736,160.195721 L4.68421081,159.630067 C4.99308317,159.787314 4.44929381,160.276528 4.8995514,160.147673 C4.93652907,159.713059 4.87562467,158.40048 5.1040162,158.048858 C4.80819479,157.153421 4.09909347,156.164073 4.41666645,154.823103 C4.52977464,155.526348 5.37156056,154.753215 5.37591087,155.207485 C5.05616273,154.454008 4.80601963,153.696163 4.53412495,152.901191 C4.67115987,152.457841 5.16709576,153.040966 5.21929954,152.350825 C5.00613411,152.302777 4.99308317,151.983915 4.91260234,151.726204 C5.04963726,151.6039 5.51947126,149.867627 6.33733045,150.057634 C6.70493206,150.020507 6.15026692,150.789271 6.62880155,150.470409 C7.01162926,149.73222 6.76583647,149.559685 7.17259091,148.82368 L7.27264815,148.862991 C7.64024975,148.443665 7.8164375,147.279598 7.12473744,147.565701 C6.90504654,147.893299 7.60762239,147.688004 7.12038713,148.065835 C6.90069623,147.476157 7.37053023,146.582905 7.84036423,145.85782 C7.78163498,146.174498 7.97739915,146.261858 8.09703281,146.486809 C8.19056458,145.158943 8.8126596,144.090971 9.39777695,142.898512 C9.11500648,142.645169 9.63704427,143.715325 9.36732475,143.734981 C10.7746516,142.791496 10.9725909,140.651185 12.4625738,140.192547 C12.3625165,140.400026 11.9883894,139.912996 12.0775709,139.971964 C12.645287,139.434702 13.0172389,139.840925 13.2151782,139.329871 C13.4783723,139.513326 13.5806047,138.807897 13.8742509,138.368915 C13.8938273,138.015108 14.0787157,138.384203 13.7894198,138.729273 C14.0895915,138.015108 15.7796888,135.63019 17.2696717,134.826481 C17.0956591,134.695442 17.4328085,133.564134 17.7155789,133.317343 L17.9613717,133.775982 C18.4181548,133.749774 18.8118583,132.863073 19.1555331,133.122968 C19.2990935,132.129252 17.3479773,135.658582 17.7786585,134.564402 C18.2702441,134.662682 18.2941708,132.939513 18.6030432,133.585974 C19.1163803,133.039977 19.2207879,132.13362 20.0538732,131.954533 C19.8515835,132.046261 20.121303,132.869625 20.521532,132.415355 C21.1893053,131.591991 20.5585097,132.035341 21.0239934,131.299336 L21.239334,130.768626 C20.90871,130.412635 21.9245085,130.133085 21.2610855,130.047909 C21.6634897,130.22918 22.0702441,128.765906 22.6031577,129.379608 L22.9838102,129.908134 C23.2470043,129.532487 22.9642338,128.91005 22.9794599,128.466699 C23.0621159,128.460147 23.2361285,128.453596 23.299208,128.536587 C22.6183838,127.87047 24.0213603,127.76127 23.7516408,126.889858 C24.6151783,126.38754 25.0850123,125.055306 25.8397919,125.033466 C26.0051039,124.299645 25.9289734,123.576744 26.5032149,123.01109 C26.5097404,123.187993 26.4314347,123.384552 26.5945715,123.522144 C27.0752813,123.225121 26.9338961,123.004538 26.9752241,122.539348 C27.0644055,122.694411 27.858338,121.892887 28.4021274,121.4954 C28.4064777,120.755027 27.8083094,120.800891 27.5364147,120.63054 C28.5717896,120.322597 27.5320644,118.734836 28.4217038,118.199758 C28.521761,118.439997 28.7327513,119.256809 29.0546746,118.752307 C30.0769986,118.298037 28.5739648,117.393865 29.1395057,116.496245 L28.3325223,116.666596 C28.8610856,116.275662 27.9453443,115.27321 28.7392768,115.384593 C28.4695572,115.067915 28.9720186,114.229262 28.204188,114.37559 C28.8088818,112.724492 27.2819213,110.651885 28.3238217,109.304362 C28.1324078,109.105619 28.0823792,108.480998 27.7387043,108.719053 C27.4385326,109.225739 28.1954874,109.171139 27.9540449,109.39609 C27.8713889,109.197347 27.651698,109.208267 27.5451153,109.217003 C27.5646917,108.668821 27.499437,108.249495 28.2563918,108.539966 C28.3477484,107.242675 26.6467753,107.788673 26.4096832,106.286087 C26.7316065,106.235855 26.8033866,106.08516 26.5989219,105.687673 L25.7745372,105.104548 C25.5178686,104.143592 26.2313202,104.303023 26.725081,104.073704 C26.4336099,103.612882 26.1921674,102.994812 25.7245086,102.931477 L26.0834095,102.053512 C25.826741,102.693422 25.6070501,101.778329 25.3786585,101.599242 L25.6048749,101.778329 C25.7745372,101.59269 25.385184,101.075084 25.191595,100.813005 C24.91535,101.018301 25.0589104,101.662578 25.1111142,102.020752 C24.7826654,101.867873 24.652156,101.448547 24.2454015,101.227964 C24.7804902,101.120948 24.2258251,100.26264 24.0974908,99.8433134 C23.9952584,99.3431795 23.4297175,99.5331867 23.3862143,99.3912273 C23.6320071,99.2667398 23.0903929,98.6333824 23.6037301,98.8233896 C23.7538159,98.9435091 23.5210741,99.2907637 23.8582235,99.445827 C23.906077,99.0614446 24.3585097,98.8932773 23.7581663,98.4193513 C23.3035584,98.0633607 22.8598262,98.980637 22.759769,97.9519772 C22.9859854,98.1310645 23.1991508,98.0852006 23.4536442,98.1856642 L23.3231348,97.2378121 L22.8685269,97.4059794 C22.9272561,97.2421801 23.0012115,97.3011479 23.036014,97.2225242 C22.4595973,97.1875803 22.3095114,96.0169612 21.7026425,96.0715609 C21.4633752,95.6718906 21.5982349,95.0429012 21.4655503,94.6192069 L21.5373305,94.6781747 C21.572133,94.0666572 21.1001239,93.4922676 20.6150638,93.2127167 L20.7216465,93.1908768 C20.6346402,92.906958 20.2735641,92.2976245 19.8624593,92.0792254 C19.886386,91.2427568 21.4220472,91.0920615 20.5302326,90.5875595 C20.2061342,89.9017864 19.2338388,89.8581065 19.0772275,90.2665129 C18.8205589,88.8818626 17.467611,87.7571072 17.6742509,86.2741773 C17.4154072,86.1693457 17.3523276,86.3309611 17.0891336,85.9946265 C16.4844398,84.0552425 14.9574793,82.1813782 15.3055045,80.3162499 C15.6905074,80.8098318 15.7753385,80.1895784 16.0320071,80.0847468 C15.464291,79.7680681 16.2669241,79.3836857 15.5077942,79.4623094 C15.1097403,79.6523166 14.8922246,79.6763405 14.9139762,80.28349 C14.2788302,79.2067824 13.7045886,77.4071738 13.902528,76.6296731 C13.8089962,77.0162395 13.6023562,76.8022083 13.3957163,76.5816252 C14.083066,76.4680577 13.9329802,75.5660694 13.51535,74.9698399 L13.0803185,74.9873118 L13.3804902,74.4391301 C13.184726,74.218547 12.4321216,74.3910823 12.6626882,73.6135815 C12.8149493,73.5371418 12.9672103,73.4585181 13.0542166,73.3056387 C12.5604558,72.6941213 11.7164948,71.8379968 11.927485,70.9818723 L12.41037,70.2283954 C12.2776854,69.9160847 11.7991507,69.4312387 11.7404215,70.0449402 C11.8317781,68.6624739 11.7904501,67.7910615 12.2407077,67.2974795 C10.5919384,65.2161361 10.2939418,61.6671507 10.517983,58.91969 L10.8312057,59.0136016 C11.1727054,58.2907006 10.296117,58.6030113 10.5484352,58.0963254 C10.8377312,58.3496684 11.2423104,57.5787196 11.5794598,58.1727651 C11.9796888,57.1615773 11.0965749,56.7924828 11.0443711,56.0914217 C10.6397918,55.9450943 11.2466608,56.6679953 10.7333236,56.4845401 C10.5984638,56.3469486 11.2292595,55.0605779 10.6202154,54.8159709 C10.8986356,54.5844679 11.3358422,54.8530988 11.5729344,55.0278181 L11.3445428,54.3442289 C12.1667523,53.6912156 12.4451725,56.2770609 13.4457449,55.5825518 L13.4131176,55.0059782 C14.1309195,54.5713639 13.9808336,56.5675317 14.3701868,55.2134573 C14.1178686,54.5779159 13.3239361,53.9096147 12.9454587,54.4141166 C13.0020128,53.105906 11.5620586,53.5732801 11.8687558,52.1558699 C12.3037873,51.8435592 11.7512973,53.3133851 12.3146631,53.1342979 C12.9367581,52.5686442 12.2602841,51.7474636 12.5930832,51.1970978 C12.20373,51.7955114 11.7099693,51.1097382 11.7034438,50.6489161 C12.1689275,49.9937188 12.1732778,51.2516976 12.4821502,50.2514297 C12.1667523,50.0002708 12.1363001,48.978163 11.6903929,49.7338239 C10.9704158,49.1375943 12.1906791,48.7204521 11.7556476,47.9822631 C12.4147203,47.8293837 12.7257678,49.4084092 13.3456877,48.3950374 C12.7496945,48.4103253 13.0433408,46.79854 12.0688703,47.1239546 C12.3646917,46.7286523 12.7931977,46.8334838 13.0194141,47.2593621 C13.5175251,46.7614121 12.6170099,45.4095217 13.7219899,45.6038969 L13.2695572,45.1845706 C13.5175251,45.0600831 13.7546173,44.8373161 14.1613717,44.6494928 C14.3919384,44.1340709 14.248378,42.6271172 15.0009825,43.0529954 C14.9835812,42.8433323 15.6230775,41.688001 14.8595972,41.8583523 C14.1548462,42.4414779 14.8378457,42.91322 13.9068783,42.9765557 C14.7638903,42.7363167 14.3201582,41.8452484 14.3897632,41.3101706 L14.7247375,41.3997142 C14.7530145,41.0830355 15.146718,40.5348538 14.924852,40.1919672 C14.9814061,40.486806 15.2358995,40.4955419 15.4207879,40.3361106 L15.1358422,39.8097688 C15.5251954,38.6413336 16.0363574,40.0390878 16.5409939,38.9995081 L16.3865577,39.9342563 C16.4213603,39.7289611 17.0369298,39.6721773 17.2065921,39.1392835 C16.9368726,38.7046693 16.708481,38.049472 16.5214175,37.6825615 C16.7411084,37.0208123 17.0891336,37.7415293 17.1174106,36.9443726 C17.080433,37.2763392 17.0717323,37.6214098 17.067382,37.9621124 C17.121761,38.1521196 17.9918239,37.9446405 18.5334381,37.2938111 C18.7422532,36.7762053 18.7857564,35.6623699 18.0288016,36.1843437 C18.3072218,35.8327212 18.9119155,35.5444343 18.946718,36.0380163 C19.4644055,35.1775239 18.4638331,35.7934093 18.8423105,34.9613087 C19.3208451,34.911077 20.410599,34.4305989 21.1697289,34.3061114 L21.1044742,35.4832826 L21.5068783,35.0814283 C21.432923,36.0511203 22.0919957,35.1666039 22.2638331,35.9331847 C22.5835812,35.7344416 22.7749951,35.2823554 22.9403071,34.9198129 C21.3763689,34.8608452 22.966409,33.0044528 22.1224479,32.4584551 C23.2513546,31.1742684 24.3150066,33.7339058 24.8000667,31.5258909 C24.4324651,31.4756591 24.6978343,30.4033195 23.9952584,31.2223162 C24.9218755,30.7505741 23.9822075,29.9796253 25.3482063,29.6891545 C24.721761,30.4863112 26.7011543,30.0626169 25.8223907,31.2004762 C25.7223334,30.8685096 25.0763117,31.3577236 24.9827799,31.5542828 C25.5287444,31.6460104 25.4156362,32.3907513 26.2748234,31.8840654 C26.7642338,31.508419 27.5059625,31.0912767 27.1753386,30.6981583 C26.905619,30.2154963 26.3422533,31.2135802 26.4466608,30.523439 C27.5168383,29.7066264 28.0301754,30.4884952 28.1128314,29.3637398 C27.4233065,29.7415703 27.001326,29.306956 26.8512401,28.9597015 L27.6277713,28.3743919 L27.6038446,28.7806142 C29.0851268,28.4530156 27.7713317,27.9485136 29.1525567,27.5422913 L30.0182693,28.0096654 C29.9247376,28.6735987 28.0018984,28.4530156 28.6087673,29.326612 C29.4679545,28.9880934 29.5658366,28.4617515 30.4533008,28.4137037 C30.3032149,28.5600311 30.0704731,28.6648627 29.9269127,28.8133741 C30.248836,28.7456704 30.966638,29.8900816 31.8954302,28.7740622 C32.4131176,28.3045042 31.9519843,28.3831279 31.8562773,28.0162174 C33.163547,27.5182674 33.4724193,27.0115815 34.3272562,26.7516866 C34.3272562,27.5182674 35.8716179,26.4524798 35.0972619,27.4221718 C34.5643483,27.0814692 32.6154073,27.6427549 32.3456878,28.4814074 C33.0787158,29.1912045 31.2668097,28.6495748 31.2559339,29.6214507 C32.3108852,29.2851161 32.5109997,30.1674485 32.8372733,30.6522945 C33.1309196,30.6064307 33.3375595,30.300672 33.4832951,30.1630805 C33.4593684,29.6148988 33.0874164,29.7306503 32.9134039,29.2086764 C34.1184411,28.9880934 35.1668669,28.4617515 35.7041308,27.7890823 C36.1587387,27.9506976 36.1478629,28.5010634 35.6997805,28.6626787 C37.0549036,28.1822007 38.5644628,27.9441457 39.9152356,27.8808099 C38.9059626,27.1710128 41.3617153,27.4199878 40.6569643,26.8084703 C39.9108853,26.7407666 39.1778572,26.2362647 39.5084812,25.7809624 C39.9739648,25.7579707 39.5606849,26.159825 39.782551,26.3105204 C40.2784869,25.7426827 40.7983495,26.9089339 41.2399065,26.0702814 C39.9935413,26.5704153 41.1594256,27.1622769 41.0310914,27.8786259 C41.8881034,27.3435481 41.0702442,28.35692 41.9729345,28.2171445 C42.8277714,27.7170106 43.9109998,27.2299806 44.9159225,26.9722697 C46.2753959,27.4440117 48.1634325,26.6119111 49.3140908,26.4765037 C49.9448865,26.7691585 49.6077371,27.5728672 50.2646346,27.6536749 C51.0237646,27.5750512 49.6316638,26.8674381 50.7888476,27.129517 L50.6931406,27.2933163 C51.0215894,27.0771012 52.7899924,27.6558588 53.0553616,26.5376555 L52.7595402,27.3937799 C52.9748808,27.4571157 53.157594,27.2540045 53.3250811,27.1535409 C53.351183,27.4243558 53.6100267,27.6580428 53.2794028,27.854602 C54.0037302,28.3874958 54.7258825,27.6755148 55.478487,27.625283 L54.9716753,27.1513569 C56.252843,26.7058228 57.1403072,27.1644609 58.3888476,26.9722697 L58.3605705,27.4592997 L59.1001241,27.1557249 C58.9261115,27.625283 59.6047606,27.9288577 59.9984641,27.5357393 C59.3524423,27.9288577 58.7172964,28.3241601 58.0886759,28.7413024 C57.551412,28.4661195 58.6585671,28.1407049 58.3170674,27.6711468 C58.0255963,27.2627405 56.8662374,27.4134358 56.6965751,27.8895459 C57.1381321,27.9310417 57.1555333,27.8262101 57.4948579,27.6427549 C57.6558195,28.3154241 56.9880462,28.3001362 56.6726484,28.7587743 C56.9032151,28.7238304 57.233839,28.9269416 57.2773421,28.7085425 C56.8357852,29.0448771 56.3855276,29.1191328 55.6372735,29.1649966 C56.1353845,28.8832618 55.3436272,28.7587743 55.5285156,28.5600311 C55.4915379,29.1606286 54.7889621,29.3550038 53.8558195,29.2523563 C53.1532437,28.6102629 52.1461458,29.7896181 51.071618,29.6957064 C51.4566209,29.064533 51.9786587,28.5294552 52.6181549,28.2520884 C51.9221046,27.9900095 51.8677256,28.3197921 51.1651498,28.0708171 C50.8715035,28.5447432 50.6909655,29.2479883 49.8404789,29.5886909 L49.7534726,29.1518927 C48.9769414,29.4510995 49.040021,30.1084807 48.0242225,30.0866408 C46.2775711,30.045145 44.5069929,30.2700961 43.1931978,30.4142395 L43.0800896,29.9839933 C42.4862717,31.012653 40.7113432,30.7156302 39.8130032,31.3009398 C38.0750524,31.1873723 36.3632035,32.4453511 35.3626311,31.9233773 C32.6132321,33.0022688 30.2814634,34.0680564 27.858338,35.3238513 C27.8757393,35.0443004 27.9083666,34.8040614 27.940994,34.5354305 C27.7300037,35.1840758 27.4537587,34.3781831 27.0665807,34.7560136 C27.8322361,34.8499252 26.836014,35.7278896 26.7794599,36.2433115 C25.4330375,36.5774621 24.5172962,38.1302797 24.1083666,39.2462991 L23.7559911,38.9711162 C23.588504,40.3535825 22.1898778,40.8908443 21.2763116,42.0418076 C21.032694,42.0745674 20.534583,42.0658315 20.3301182,42.4567659 C20.5519842,43.5269215 20.2844399,43.8436001 20.1495801,45.0513472 C19.7928543,45.7982721 19.0489504,46.9339474 18.5116866,47.6546644 C18.324623,50.928467 17.0086528,53.9161666 17.2979487,57.2816968 L16.7672103,57.473888 C17.5828943,60.7171146 16.8194141,64.5958826 17.8613145,67.2690876 L16.9433981,67.1467841 C16.7933122,68.0640603 17.5198148,69.0774322 18.0940563,68.7345456 C17.9852985,69.6474538 18.9488932,70.7591052 18.3855274,71.4667183 C18.4312057,72.3796266 19.0380746,72.4320423 19.3556476,73.1134475 C19.5013832,74.9283441 19.7972046,75.5551495 20.4823792,77.116703 L20.397548,76.6995608 C20.1517552,76.5838092 19.7863288,76.6864568 19.8733351,77.1079671 C20.3105417,77.6343089 20.4127741,79.4164456 21.2001811,78.4576735 C21.2523849,80.3926895 23.1578228,82.2621858 23.1034439,84.2343297 C23.312259,83.9809868 23.5363002,84.3784731 23.7886185,84.4767527 C24.4302899,85.9640506 24.5869012,87.7767631 25.5700724,88.770479 C25.5439705,89.0696858 24.9523277,88.5935758 25.1981205,89.2160132 C25.4613145,89.5326919 25.5461457,89.0696858 25.8941708,89.4453322 C27.4776855,91.6424272 27.6495229,94.601735 28.798006,96.785726 C31.0884468,100.494143 32.8894771,104.938564 34.020559,109.538049 L33.8030432,109.531497 C34.9689276,110.94454 33.6268555,113.294514 34.8579946,114.526285 C34.6796317,114.925955 34.7622877,116.041975 34.3598835,115.7384 C34.6339534,116.402333 34.4447147,117.348001 34.1532436,118.304589 C33.9009253,119.283017 33.6312058,120.285469 33.6768841,121.285737 C33.744314,121.121938 33.7290879,121.014922 33.6964605,120.796523 C32.7676683,122.495668 32.7415664,124.290909 31.4516981,125.839358 C31.464749,125.623143 31.5735069,125.280257 31.4103701,125.136113 C30.7077942,125.577279 31.3494657,127.119177 30.2662373,126.953194 C30.0682979,127.324472 30.553358,127.488271 30.6599408,127.241481 C28.1693855,130.600459 25.772362,134.105764 23.1230203,137.12404 C20.6824937,138.700881 21.7852985,136.025492 20.7433981,138.135228 C20.4758537,138.124308 20.9261113,138.50869 20.7542739,138.379835 C20.3431691,139.190095 19.0097976,138.495586 18.9662945,139.294927 C19.581864,139.572294 18.9358422,139.819085 19.1925108,140.105188 C17.6981777,141.002808 17.080433,140.847744 16.4887901,142.125379 L16.321303,141.823988 C15.9275995,143.579917 14.372362,144.545241 14.400639,146.200706 C9.26291719,152.337721 7.92519537,159.780762 7.96434821,167.509907 C7.94694695,168.455575 7.92519537,169.438371 8.00350104,170.355647 L8.34935107,173.009196 C8.41678095,173.450362 8.44070768,173.89808 8.53641461,174.337062 L8.92576779,175.645273 L9.67837226,178.268246 C11.0726482,181.70148 12.6692137,185.119426 14.7530145,188.504612 C15.1401925,190.505148 15.1445429,190.706075 16.749809,192.075437 C16.5866722,192.099461 16.4779144,192.01647 16.4626883,192.206477 C17.0869584,191.839566 17.4567352,193.287552 18.1071073,193.003634 C19.8363574,195.41476 21.985413,197.196896 24.1583952,199.352495 C23.7429402,199.083864 23.1578228,199.343759 23.6233065,199.697566 L24.3889619,199.769638 L24.3280575,199.981485 C24.6978343,200.169308 25.2546746,200.195516 25.1067639,199.75435 C31.1493512,204.456482 36.6372734,210.025659 43.5064205,213.493837 C44.2372734,214.046387 45.2117439,214.568361 46.221017,215.044471 C47.2607422,215.457245 48.3396203,215.824156 49.261887,216.158306 C54.1625167,219.325093 59.113175,221.843235 65.0013262,222.127154 C65.0013262,222.127154 63.9833525,223.802275 61.4101413,223.721467" id="Fill-3" fill="#35BC9B" mask="url(#mask-2)"></path>
                </g>
                <path d="M60.8794146,29.2095 C60.5914146,28.7175 59.6224146,28.4475 60.4024146,27.7905 C60.4954146,28.2555 60.9874146,28.7715 60.8794146,29.2095" id="Fill-6" fill="#35BC9B"></path>
                <g id="Group-10" transform="translate(40.000000, 25.000000)">
                    <mask id="mask-4" fill="white">
                        <use xlink:href="#path-3"></use>
                    </mask>
                    <g id="Clip-9"></g>
                    <path d="M1.5735,1.59984453 C1.5615,1.74984453 1.1685,1.45884453 1.0695,1.39584453 C1.3875,1.30284453 1.6335,0.852844531 1.9305,1.06584453 C1.6065,1.15584453 1.6935,1.37484453 1.5735,1.59984453" id="Fill-8" fill="#35BC9B" mask="url(#mask-4)"></path>
                </g>
                <path d="M36.378,27.1555 C36.384,26.7085 37.77,26.0725 38.622,25.8445 L36.378,27.1555 Z" id="Fill-11" fill="#35BC9B"></path>
                <path d="M31.6109283,26.8195 C30.9419283,26.6275 31.0379283,26.3875 31.7999283,26.1805 C31.9229283,26.3845 31.7039283,26.5735 31.6109283,26.8195" id="Fill-13" fill="#35BC9B"></path>
                <path d="M32.106,28.6174552 C31.581,28.7704552 31.233,28.6414552 30.894,28.4884552 C31.032,28.8214552 32.067,27.8494552 32.106,28.6174552" id="Fill-15" fill="#35BC9B"></path>
                <path d="M22.121,33.0984791 C21.851,33.3774791 21.461,34.1634791 20.879,34.0554791 C21.386,34.0344791 21.926,32.4264791 22.121,33.0984791" id="Fill-17" fill="#35BC9B"></path>
                <path d="M17.8522949,36.3309791 C17.6842949,36.4929791 17.5582949,36.5169791 17.4862949,36.7989791 C17.0602949,37.0089791 17.0872949,36.4659791 17.2882949,36.1539791 L17.8522949,36.3309791 Z" id="Fill-19" fill="#35BC9B"></path>
                <polygon id="Fill-21" fill="#35BC9B" points="28.4115 117.803 28.2915 117.197 28.7085 117.332"></polygon>
                <path d="M7.8705,144.301256 C7.6905,145.060256 7.2495,144.487256 7.1295,144.550256 C7.4625,143.977256 7.4355,145.060256 7.8705,144.301256" id="Fill-23" fill="#35BC9B"></path>
                <g id="Group-27" transform="translate(2.000000, 163.000000)">
                    <mask id="mask-6" fill="white">
                        <use xlink:href="#path-5"></use>
                    </mask>
                    <g id="Clip-26"></g>
                    <polygon id="Fill-25" fill="#35BC9B" mask="url(#mask-6)" points="0.8016 1.6035 0.8016 1.3965 1.6896 1.5225"></polygon>
                </g>
            </g>
        </g>
    </g>
</svg>