<svg width="75px" height="4px" viewBox="0 0 75 4"
                                    version="1.1" xmlns="http://www.w3.org/2000/svg"
                                    xmlns:xlink="http://www.w3.org/1999/xlink">

                                    <g stroke="none" stroke-width="1" fill="none" fill-rule="evenodd">
                                        <path class="path"
                                            d="M15.6386827,2.02264151 L15.7418597,1.68754717 C15.0196208,2.27622642 14.5037359,1.66641509 13.8109762,1.92 L13.884674,1.80226415 C12.3517588,1.65433962 10.7598854,2.20075472 9.10905366,2.43622642 C9.1385328,2.4 9.19749107,2.30339623 9.21223064,2.26415094 C9.10905366,2.37886792 8.96165797,2.59018868 8.88796012,2.56301887 C8.88796012,2.48754717 8.9469184,2.40603774 8.99113711,2.37283019 C8.82900185,1.81735849 7.91514857,2.71396226 7.82671115,2.28226415 C7.72353417,2.33660377 7.60561762,2.57207547 7.60561762,2.74415094 C6.32327511,2.86792453 4.96723476,2.96150943 3.55223614,3.37509434 C3.522757,3.29962264 3.5669757,3.14566038 3.65541312,2.95849057 C2.25515406,3.84 1.2381238,3.46264151 0.191614397,3.29962264 C0.0589582761,3.53509434 0.206353966,3.55018868 0,3.79471698 C0.250572673,4.09660377 0.884374142,3.22716981 1.03176983,3.66188679 L0.91385328,3.88528302 C1.09072811,4.03622642 1.17916552,3.31471698 1.31182164,3.61056604 C1.32656121,3.80377358 1.17916552,3.90037736 1.20864466,3.91849057 C1.75400871,3.83396226 2.19619578,4.04528302 2.87421596,3.49886792 C2.81525768,3.99698113 3.40484044,3.52603774 3.41958001,4 C3.62593398,3.80981132 3.72911096,3.85811321 3.89124622,3.53207547 C5.55681752,3.81886792 7.50244063,3.36301887 9.28592849,3.42339623 C10.3913962,2.4754717 11.0694163,3.62566038 12.1601444,3.31773585 L12.1306653,3.41735849 C12.5138941,3.18490566 13.0150394,3.07924528 13.3687891,3.2 L13.7962366,2.79849057 C15.9187345,3.64981132 18.4244613,3.09132075 20.7238341,3.45056604 C23.3622169,3.71018868 25.6910688,4.4045283 28.4178891,3.15471698 C28.4031495,3.24528302 28.4178891,3.29962264 28.3589308,3.33886792 C29.1253884,3.14566038 29.788669,3.49283019 30.5109079,3.29358491 L30.4961683,3.38716981 C32.2943957,2.60528302 34.1810606,3.49886792 35.876111,2.64754717 C37.9249111,2.73509434 40.253763,2.64150943 42.4057401,2.39396226 L42.4204797,2.58415094 C44.1155301,2.17660377 45.8990179,3.17886792 47.608808,2.86188679 C49.4807332,3.2845283 51.1020858,1.75396226 53.0034902,2.3154717 C54.3153119,3.23622642 55.3323421,1.22867925 56.5852055,2.18264151 C59.0761927,3.61358491 60.9775971,2.65660377 62.8347828,1.75698113 C64.9720203,2.25207547 66.4607167,0.890566038 68.7453499,1.92 C69.3791514,1.22867925 70.9562853,2.72603774 71.8996177,2.51471698 L71.7817012,2.28226415 C72.4302422,2.98264151 72.16493,1.2709434 72.8282106,2.3245283 L72.813471,2.37283019 C73.2261789,2.90716981 72.7397731,1.10188679 73.1082624,1.73584906 L73.0345645,1.47320755 C73.2261789,1.39169811 73.1819602,1.77207547 73.4030537,1.87471698 C73.462012,1.83849057 73.2261789,1.39169811 73.4325329,1.54264151 C73.9336782,2.62339623 73.9041991,1.29811321 74.4348236,2.51471698 C74.3021675,2.51773585 74.8475315,2.98264151 74.6559171,3.24226415 C74.8033128,3.36603774 75.171802,3.29962264 74.9064898,2.78339623 C74.7001358,2.23396226 74.6411775,1.75396226 74.2284696,1.33132075 L74.3463862,1.73283019 C74.1105531,1.33433962 74.2284696,1.53358491 74.0368552,1.23471698 C73.7125847,1.18943396 73.4325329,0.606792453 73.1082624,0.371320755 C73.1082624,0.371320755 73.1230019,0.395471698 73.1230019,0.413584906 C73.1819602,0.896603774 72.8576897,0.612830189 72.710294,0.549433962 L72.5628983,0.326037736 C72.2975861,-0.138867925 72.607117,1.24075472 72.3712839,0.443773585 C71.8406594,0.652075472 71.1184205,0.65509434 70.4404004,0.676226415 C70.4551399,0.978113208 69.8950363,0.65509434 70.2782651,1.23773585 C69.836078,0.576603774 69.2612349,0.416603774 69.08436,0.443773585 C69.0696205,0.380377358 69.0548809,0.310943396 69.08436,0.332075472 C68.3916003,-0.528301887 68.9517039,1.14113208 68.2147255,0.0875471698 C68.435819,0.836226415 67.5072261,-0.141886792 67.6251427,0.739622642 C67.5514448,0.576603774 67.477747,0.425660377 67.4187887,0.292830189 C66.7997268,0.283773585 66.0037901,0.0241509434 65.4731656,0 C65.2520721,0.661132075 64.2940001,-0.283773585 64.2055627,0.627924528 C63.8223339,0.440754717 63.1885324,0.0694339623 62.8642619,0.440754717 L62.8642619,0.326037736 C62.3778561,0.386415094 61.7587942,0.443773585 61.5819194,1.01735849 C61.183951,0.150943396 61.0218158,0.326037736 60.7270244,0.0513207547 C60.4911913,0.455849057 59.783692,0.347169811 59.370984,0.718490566 C59.1793696,0.32 58.9877552,0.893584906 58.8108804,0.313962264 C57.661194,1.45207547 55.7450501,1.08075472 54.03526,0.238490566 L54.0499996,0.199245283 C53.9763018,0.522264151 53.7994269,1.22566038 53.7109895,1.64226415 C53.6815104,1.5909434 53.7109895,1.49735849 53.7109895,1.49735849 C53.4456773,1.6090566 53.0624485,1.03849057 52.7971363,1.14716981 C52.7971363,1.05056604 52.7971363,1.05358491 52.8118758,0.956981132 C52.5907823,1.21962264 52.1780744,0.498113208 51.9422412,0.953962264 L51.8980225,0.796981132 L51.7506268,1.01433962 C51.7211477,0.824150943 51.6621894,0.534339623 51.7948456,0.594716981 C49.3480771,0.425660377 46.9897461,1.44301887 44.4692798,1.30716981 L44.5429776,1.12301887 L44.086051,1.45207547 C44.1007905,1.35245283 44.1155301,1.30716981 44.1155301,1.26188679 C43.4669891,0.938867925 42.8774063,1.48528302 42.273084,1.40679245 C42.273084,1.31320755 42.3467818,1.12603774 42.2583444,1.02037736 C41.8456365,1.54867925 41.4918868,0.338113208 41.3444911,1.4309434 C41.3444911,1.37962264 41.3297515,1.13509434 41.3297515,1.04754717 C40.1211069,1.41283019 38.8387644,1.39169811 37.585901,1.21660377 C36.5541312,2.20981132 35.3897052,1.31320755 34.2989771,2.09509434 L34.2989771,1.89886792 C32.8839785,2.59018868 31.395282,1.84754717 29.9360647,1.98339623 C29.3464819,1.90188679 28.9190344,2.13433962 28.2999725,2.14641509 L28.2999725,1.90188679 C27.1945049,2.83471698 26.2364329,1.05358491 25.0720069,2.07698113 L25.1751839,1.74188679 C24.9540904,2.25811321 24.5413824,1.55773585 24.5119033,2.44226415 L24.349768,2.17358491 C23.4653939,3.34188679 23.0969047,1.62716981 22.094614,2.37886792 L22.197791,2.17056604 C21.9324787,2.33358491 21.6376873,2.46037736 21.4902916,2.26415094 C21.5050312,2.23396226 21.5492499,2.17660377 21.5787291,2.11622642 C20.9744067,1.28301887 20.0015952,2.19471698 19.220398,2.15849057 L19.3677937,1.76603774 C18.9108671,2.22188679 18.3065447,1.79320755 17.7611807,1.9954717 L17.820139,1.81433962 L17.5253476,2.0709434 L17.5990454,1.70264151 C16.9505044,1.66943396 16.2724842,1.98339623 15.6386827,2.02264151"
                                            fill="#16A684"></path>
                                    </g>
                                </svg>