<svg width="48" height="48" viewBox="0 0 48 48" fill="none" xmlns="http://www.w3.org/2000/svg">
<path d="M39.4556 27.9165H36.2397V24.7324C36.2397 24.2866 35.8512 23.9045 35.4055 23.9045H32.1895C31.7374 23.9045 31.3553 24.2866 31.3553 24.7324V27.9165H28.1394C27.6873 27.9165 27.3052 28.2986 27.3052 28.7443V31.9284C27.3052 32.3742 27.6936 32.7563 28.1394 32.7563H31.3553V35.9404C31.3553 36.3861 31.7438 36.7682 32.1895 36.7682H35.4055C35.8576 36.7682 36.2397 36.3861 36.2397 35.9404V32.7563H39.4556C39.9078 32.7563 40.2898 32.3742 40.2898 31.9284V28.7443C40.2262 28.2349 39.8377 27.9165 39.4556 27.9165Z" fill="#18B28D"/>
<path d="M42.6715 16.7722H41.8372V14.3523C41.8372 13.9065 41.4488 13.5245 41.003 13.5245H24.9234C24.4713 13.5245 24.0892 13.9065 24.0892 14.3523V16.7722H22.1596L19.9754 12.4419C19.848 12.1871 19.5869 11.9961 19.2685 11.9961H7.30273C6.85059 11.9961 6.4685 12.3782 6.4685 12.824V16.8359H5.63428C5.18214 16.8359 4.80005 17.218 4.80005 17.6638V42.3722C4.80005 42.818 5.18851 43.2 5.63428 43.2H42.6141C43.0663 43.2 43.4484 42.818 43.4484 42.3722V17.6638C43.4484 17.0906 43.0599 16.7722 42.6778 16.7722H42.6715ZM13.7282 18.3642H41.9009V20.7205H13.7282V18.3642ZM25.7576 15.1802H40.2261V16.7722H25.7576V15.1802ZM8.07328 13.5881H18.8164L20.4211 16.7722H8.07328V13.5881ZM6.4685 41.417V39.8249H37.0165C37.4687 39.8249 37.8508 39.4428 37.8508 38.9971C37.8508 38.5513 37.4623 38.1692 37.0165 38.1692H6.46214V18.3642H12.1234V21.5483C12.1234 21.9941 12.5119 22.3762 12.9577 22.3762H41.9009V41.4806H6.46214V41.417H6.4685Z" fill="black"/>
<path d="M14.505 31.8647C14.9699 31.8647 15.3392 32.2341 15.3392 32.6926C15.3392 33.1511 14.9635 33.5205 14.505 33.5205C14.0465 33.5205 13.6708 33.1511 13.6708 32.6926C13.6708 32.2341 14.0465 31.8647 14.505 31.8647Z" fill="black"/>
<path d="M16.9506 27.0886C17.4091 27.0886 17.7848 27.458 17.7848 27.9165C17.7848 28.375 17.4091 28.7443 16.9506 28.7443C16.4921 28.7443 16.1163 28.375 16.1163 27.9165C16.1163 27.458 16.4921 27.0886 16.9506 27.0886Z" fill="black"/>
<path d="M38.6215 10.3403C39.0863 10.3403 39.4557 10.7097 39.4557 11.1682C39.4557 11.6267 39.08 11.9961 38.6215 11.9961C38.163 11.9961 37.7872 11.6267 37.7872 11.1682C37.7872 10.7097 38.163 10.3403 38.6215 10.3403Z" fill="#18B28D"/>
<path d="M27.3687 9.57617C27.8335 9.57617 28.2029 9.94552 28.2029 10.404C28.2029 10.8625 27.8272 11.2319 27.3687 11.2319C26.9101 11.2319 26.5344 10.8625 26.5344 10.404C26.5344 9.94552 26.9101 9.57617 27.3687 9.57617Z" fill="#18B28D"/>
<path d="M23.3824 7.15625C23.841 7.15625 24.2167 7.5256 24.2167 7.98411C24.2167 8.44262 23.841 8.81197 23.3824 8.81197C22.9239 8.81197 22.5482 8.44262 22.5482 7.98411C22.5482 7.5256 22.9239 7.15625 23.3824 7.15625Z" fill="#18B28D"/>
<path d="M16.1099 8.74829C16.5747 8.74829 16.9441 9.11764 16.9441 9.57615C16.9441 10.0347 16.5684 10.404 16.1099 10.404C15.6514 10.404 15.2756 10.0347 15.2756 9.57615C15.2756 9.11764 15.6514 8.74829 16.1099 8.74829Z" fill="#18B28D"/>
<path d="M21.771 24.7324H8.90735C8.45521 24.7324 8.07312 25.1145 8.07312 25.5603C8.07312 26.0061 8.46158 26.3881 8.90735 26.3881H21.771C22.2232 26.3881 22.6052 26.0061 22.6052 25.5603C22.6052 25.1145 22.1531 24.7324 21.771 24.7324Z" fill="black"/>
<path d="M8.90755 28.6807H14.5052C14.9573 28.6807 15.3394 28.2986 15.3394 27.8528C15.3394 27.407 14.9509 27.0886 14.5052 27.0886H8.84387C8.39173 27.0886 8.00964 27.4707 8.00964 27.9165C8.00964 28.3623 8.46178 28.6807 8.90755 28.6807Z" fill="black"/>
<path d="M17.7209 29.5085H8.90735C8.45521 29.5085 8.07312 29.8906 8.07312 30.3364C8.07312 30.7822 8.46158 31.1643 8.90735 31.1643H17.7209C18.173 31.1643 18.5551 30.7822 18.5551 30.3364C18.5551 29.8906 18.1666 29.5085 17.7209 29.5085Z" fill="black"/>
<path d="M12.1233 31.8647H8.90735C8.45521 31.8647 8.07312 32.2468 8.07312 32.6926C8.07312 33.1384 8.46158 33.5205 8.90735 33.5205H12.1233C12.5754 33.5205 12.9575 33.1384 12.9575 32.6926C12.8938 32.2468 12.5054 31.8647 12.1233 31.8647Z" fill="black"/>
<path d="M9.67816 11.1682C11.0282 11.1682 12.1235 10.0856 12.1235 8.74827C12.1235 7.41096 11.0282 6.32837 9.67816 6.32837C8.32811 6.32837 7.23279 7.41096 7.23279 8.74827C7.23279 10.0856 8.32811 11.1682 9.67816 11.1682ZM9.67816 7.98409C10.1303 7.98409 10.5124 8.36618 10.5124 8.81195C10.5124 9.25772 10.1239 9.63981 9.67816 9.63981C9.23239 9.63981 8.84393 9.25772 8.84393 8.81195C8.90761 8.36618 9.23239 7.98409 9.67816 7.98409Z" fill="#18B28D"/>
<path d="M33.0237 9.57616C34.3738 9.57616 35.4691 8.49358 35.4691 7.15627C35.4691 5.81895 34.3101 4.80005 33.0237 4.80005C31.7374 4.80005 30.5784 5.88263 30.5784 7.21995C30.5784 8.55726 31.6737 9.57616 33.0237 9.57616ZM33.0237 6.39209C33.4759 6.39209 33.858 6.77418 33.858 7.21995C33.858 7.66572 33.4695 8.04781 33.0237 8.04781C32.578 8.04781 32.1895 7.66572 32.1895 7.21995C32.1895 6.77418 32.578 6.39209 33.0237 6.39209Z" fill="#18B28D"/>
</svg>
