<svg width="48" height="48" viewBox="0 0 48 48" fill="none" xmlns="http://www.w3.org/2000/svg">
<path d="M37.8037 36.6123C38.2668 36.6123 38.6581 36.221 38.6581 35.7644C38.6581 9.34842 38.6581 10.4572 38.6581 10.3268C38.6581 10.1963 38.5277 10.0007 38.4624 9.93544C32.2726 3.80433 32.664 4.19567 32.4683 4.06522C32.2726 4 32.1422 4 32.0052 4H14.7468C14.2837 4 13.8923 4.39135 13.8923 4.84792V8.10915H11.3877C10.9246 8.10915 10.5333 8.5005 10.5333 8.95707V10.5225H8.02864C7.56554 10.5225 7.17419 10.9138 7.17419 11.3704V42.3521C7.17419 42.8087 7.57207 43.2 8.02864 43.2H31.0855C31.5486 43.2 31.94 42.8087 31.94 42.3521V39.8735H34.4446C34.9077 39.8735 35.2991 39.4822 35.2991 39.0256V36.6123H37.8037ZM32.8662 6.80466L35.8274 9.73977H32.8662V6.80466ZM15.5425 5.63062H31.2225V10.5225C31.2225 10.979 31.6204 11.3704 32.077 11.3704H36.9492V35.0469H15.5425V5.63062ZM30.3615 41.5042H8.9483V12.1531H10.592V39.0909C10.592 39.5474 10.9898 39.9388 11.4464 39.9388H30.3485V41.5042H30.3615ZM33.6554 38.2429H12.2487V9.73977H13.8923V35.8296C13.8923 36.2862 14.2902 36.6775 14.7468 36.6775H33.6554V38.2429Z" fill="black"/>
<path d="M40.2431 37.4602C38.8604 37.4602 37.7385 38.569 37.7385 39.9387C37.7385 41.3085 38.8604 42.4173 40.2431 42.4173C41.6259 42.4173 42.7478 41.3085 42.7478 39.9387C42.7478 38.569 41.6259 37.4602 40.2431 37.4602ZM40.2431 40.7214C39.7801 40.7214 39.3887 40.3301 39.3887 39.8735C39.3887 39.4169 39.7866 39.0256 40.2431 39.0256C40.6997 39.0256 41.0976 39.4169 41.0976 39.8735C41.0976 40.3301 40.6997 40.7214 40.2431 40.7214Z" fill="#18B28D"/>
<path d="M7.30467 9.73979C8.68744 9.73979 9.8093 8.63097 9.8093 7.26125C9.8093 5.89153 8.68744 4.78271 7.30467 4.78271C5.92191 4.78271 4.80005 5.89153 4.80005 7.26125C4.80005 8.63097 5.92191 9.73979 7.30467 9.73979ZM7.30467 6.47855C7.76777 6.47855 8.15912 6.8699 8.15912 7.32648C8.15912 7.78305 7.76125 8.17439 7.30467 8.17439C6.8481 8.17439 6.45023 7.78305 6.45023 7.32648C6.51546 6.80468 6.8481 6.47855 7.30467 6.47855Z" fill="#18B28D"/>
<path d="M41.0976 31.7205C41.5737 31.7205 41.952 32.0988 41.952 32.5684C41.952 33.038 41.5672 33.4163 41.0976 33.4163C40.628 33.4163 40.2432 33.038 40.2432 32.5684C40.2432 32.0988 40.628 31.7205 41.0976 31.7205Z" fill="black"/>
<path d="M5.65449 24.3501C6.13063 24.3501 6.50893 24.7284 6.50893 25.198C6.50893 25.6676 6.12411 26.0459 5.65449 26.0459C5.18487 26.0459 4.80005 25.6676 4.80005 25.198C4.80005 24.7284 5.18487 24.3501 5.65449 24.3501Z" fill="black"/>
<path d="M5.65449 26.8286C6.13063 26.8286 6.50893 27.2069 6.50893 27.6765C6.50893 28.1461 6.12411 28.5245 5.65449 28.5245C5.18487 28.5245 4.80005 28.1461 4.80005 27.6765C4.80005 27.2069 5.18487 26.8286 5.65449 26.8286Z" fill="black"/>
<path d="M5.65449 29.2419C6.13063 29.2419 6.50893 29.6202 6.50893 30.0899C6.50893 30.5595 6.12411 30.9378 5.65449 30.9378C5.18487 30.9378 4.80005 30.5595 4.80005 30.0899C4.80005 29.6202 5.18487 29.2419 5.65449 29.2419Z" fill="black"/>
<path d="M5.65449 31.7205C6.13063 31.7205 6.50893 32.0988 6.50893 32.5684C6.50893 33.038 6.12411 33.4163 5.65449 33.4163C5.18487 33.4163 4.80005 33.038 4.80005 32.5684C4.80005 32.0988 5.18487 31.7205 5.65449 31.7205Z" fill="black"/>
<path d="M38.593 5.63062C39.0691 5.63062 39.4474 6.00892 39.4474 6.47853C39.4474 6.94815 39.0626 7.32646 38.593 7.32646C38.1233 7.32646 37.7385 6.94815 37.7385 6.47853C37.7385 6.00892 38.1233 5.63062 38.593 5.63062Z" fill="black"/>
<path d="M41.0976 20.3062C41.5737 20.3062 41.952 20.6845 41.952 21.1541C41.952 21.6237 41.5672 22.002 41.0976 22.002C40.628 22.002 40.2432 21.6237 40.2432 21.1541C40.2432 20.6845 40.628 20.3062 41.0976 20.3062Z" fill="black"/>
<path d="M18.0406 18.6755C18.5167 18.6755 18.895 19.0538 18.895 19.5235C18.895 19.9931 18.5102 20.3714 18.0406 20.3714C17.571 20.3714 17.1862 19.9931 17.1862 19.5235C17.1862 19.0538 17.571 18.6755 18.0406 18.6755Z" fill="black"/>
<path d="M18.0406 15.4143H24.6283C25.0914 15.4143 25.4827 15.023 25.4827 14.5664C25.4827 13.0663 24.6283 11.7618 23.4412 11.0443C23.7021 10.653 23.8391 10.1964 23.8391 9.67458C23.8391 8.30486 22.7172 7.19604 21.3344 7.19604C19.9517 7.19604 18.8298 8.30486 18.8298 9.67458C18.8298 10.1964 18.9603 10.653 19.2277 11.0443C17.9754 11.7618 17.1862 13.0663 17.1862 14.5664C17.1862 15.023 17.584 15.4143 18.0406 15.4143ZM20.48 9.73981C20.48 9.28323 20.8779 8.89189 21.3344 8.89189C21.791 8.89189 22.1889 9.28323 22.1889 9.73981C22.1889 10.1964 21.791 10.5877 21.3344 10.5877C20.8779 10.5877 20.48 10.1312 20.48 9.73981ZM21.3344 12.1531C22.3911 12.1531 23.3108 12.8054 23.6369 13.7837H18.9603C19.2864 12.8054 20.2126 12.1531 21.3344 12.1531Z" fill="#18B28D"/>
<path d="M27.0678 13.001H29.5724C30.0355 13.001 30.4269 12.6097 30.4269 12.1531C30.4269 11.6965 30.029 11.3052 29.5724 11.3052H27.0678C26.6047 11.3052 26.2134 11.6965 26.2134 12.1531C26.2786 12.6097 26.6112 13.001 27.0678 13.001Z" fill="black"/>
<path d="M27.0678 15.4143H34.5099C34.973 15.4143 35.3644 15.023 35.3644 14.5664C35.3644 14.1099 34.9665 13.7185 34.5099 13.7185H27.0678C26.6047 13.7185 26.2134 14.1099 26.2134 14.5664C26.2786 15.023 26.6112 15.4143 27.0678 15.4143Z" fill="black"/>
<path d="M22.9847 18.6755H20.4801C20.017 18.6755 19.6256 19.0669 19.6256 19.5235C19.6256 19.98 20.0235 20.3714 20.4801 20.3714H22.9847C23.4478 20.3714 23.8391 19.98 23.8391 19.5235C23.7739 19.0669 23.376 18.6755 22.9847 18.6755Z" fill="black"/>
<path d="M31.216 18.6755H25.4176C24.9545 18.6755 24.5631 19.0669 24.5631 19.5235C24.5631 19.98 24.961 20.3714 25.4176 20.3714H31.216C31.6791 20.3714 32.0705 19.98 32.0705 19.5235C32.0052 19.0669 31.6074 18.6755 31.216 18.6755Z" fill="black"/>
<path d="M18.0406 21.0889C18.5167 21.0889 18.895 21.4672 18.895 21.9368C18.895 22.4064 18.5102 22.7847 18.0406 22.7847C17.571 22.7847 17.1862 22.4064 17.1862 21.9368C17.1862 21.4672 17.571 21.0889 18.0406 21.0889Z" fill="black"/>
<path d="M22.9847 21.1541H20.4801C20.017 21.1541 19.6256 21.5454 19.6256 22.002C19.6256 22.4585 20.0235 22.8499 20.4801 22.8499H22.9847C23.4478 22.8499 23.8391 22.4585 23.8391 22.002C23.7739 21.4802 23.376 21.1541 22.9847 21.1541Z" fill="black"/>
<path d="M31.216 21.1541H25.4176C24.9545 21.1541 24.5631 21.5454 24.5631 22.002C24.5631 22.4585 24.961 22.8499 25.4176 22.8499H31.216C31.6791 22.8499 32.0705 22.4585 32.0705 22.002C32.0052 21.4802 31.6074 21.1541 31.216 21.1541Z" fill="black"/>
<path d="M18.0406 23.5674C18.5167 23.5674 18.895 23.9457 18.895 24.4153C18.895 24.8849 18.5102 25.2632 18.0406 25.2632C17.571 25.2632 17.1862 24.8849 17.1862 24.4153C17.1862 23.9457 17.571 23.5674 18.0406 23.5674Z" fill="black"/>
<path d="M22.9847 23.5674H20.4801C20.017 23.5674 19.6256 23.9587 19.6256 24.4153C19.6256 24.8719 20.0235 25.2632 20.4801 25.2632H22.9847C23.4478 25.2632 23.8391 24.8719 23.8391 24.4153C23.8391 23.9587 23.376 23.5674 22.9847 23.5674Z" fill="black"/>
<path d="M31.216 23.5674H25.4176C24.9545 23.5674 24.5631 23.9587 24.5631 24.4153C24.5631 24.8719 24.961 25.2632 25.4176 25.2632H31.216C31.6791 25.2632 32.0705 24.8719 32.0705 24.4153C32.0705 23.9587 31.6074 23.5674 31.216 23.5674Z" fill="black"/>
<path d="M18.0406 25.9807C18.5167 25.9807 18.895 26.359 18.895 26.8286C18.895 27.2982 18.5102 27.6766 18.0406 27.6766C17.571 27.6766 17.1862 27.2982 17.1862 26.8286C17.1862 26.359 17.571 25.9807 18.0406 25.9807Z" fill="black"/>
<path d="M22.9847 26.0459H20.4801C20.017 26.0459 19.6256 26.4372 19.6256 26.8938C19.6256 27.3504 20.0235 27.7417 20.4801 27.7417H22.9847C23.4478 27.7417 23.8391 27.3504 23.8391 26.8938C23.8391 26.4372 23.376 26.0459 22.9847 26.0459Z" fill="black"/>
<path d="M31.216 26.0459H25.4176C24.9545 26.0459 24.5631 26.4372 24.5631 26.8938C24.5631 27.3504 24.961 27.7417 25.4176 27.7417H31.216C31.6791 27.7417 32.0705 27.3504 32.0705 26.8938C32.0705 26.4372 31.6074 26.0459 31.216 26.0459Z" fill="black"/>
<path d="M18.0406 28.4592C18.5167 28.4592 18.895 28.8375 18.895 29.3071C18.895 29.7768 18.5102 30.1551 18.0406 30.1551C17.571 30.1551 17.1862 29.7768 17.1862 29.3071C17.1862 28.8375 17.571 28.4592 18.0406 28.4592Z" fill="black"/>
<path d="M22.9847 28.4592H20.4801C20.017 28.4592 19.6256 28.8506 19.6256 29.3071C19.6256 29.7637 20.0235 30.0898 20.4801 30.0898H22.9847C23.4478 30.0898 23.8391 29.6985 23.8391 29.2419C23.8391 28.7854 23.376 28.4592 22.9847 28.4592Z" fill="black"/>
<path d="M31.216 28.4592H25.4176C24.9545 28.4592 24.5631 28.8506 24.5631 29.3071C24.5631 29.7637 24.961 30.1551 25.4176 30.1551H31.216C31.6791 30.1551 32.0705 29.7637 32.0705 29.3071C32.0705 28.8506 31.6074 28.4592 31.216 28.4592Z" fill="black"/>
<path d="M18.0406 30.8726C18.5167 30.8726 18.895 31.2509 18.895 31.7205C18.895 32.1901 18.5102 32.5684 18.0406 32.5684C17.571 32.5684 17.1862 32.1901 17.1862 31.7205C17.1862 31.2509 17.571 30.8726 18.0406 30.8726Z" fill="black"/>
<path d="M22.9847 30.9377H20.4801C20.017 30.9377 19.6256 31.3291 19.6256 31.7857C19.6256 32.2422 20.0235 32.6336 20.4801 32.6336H22.9847C23.4478 32.6336 23.8391 32.2422 23.8391 31.7857C23.8391 31.3291 23.376 30.9377 22.9847 30.9377Z" fill="black"/>
<path d="M31.216 30.9377H25.4176C24.9545 30.9377 24.5631 31.3291 24.5631 31.7857C24.5631 32.2422 24.961 32.6336 25.4176 32.6336H31.216C31.6791 32.6336 32.0705 32.2422 32.0705 31.7857C32.0705 31.3291 31.6074 30.9377 31.216 30.9377Z" fill="black"/>
<path d="M5.65449 13.001C5.1914 13.001 4.80005 13.3923 4.80005 13.8489V22.8499C4.80005 23.3065 5.19792 23.6978 5.65449 23.6978C6.11106 23.6978 6.50893 23.3065 6.50893 22.8499V13.7837C6.50893 13.3271 6.11106 13.001 5.65449 13.001Z" fill="black"/>
</svg>
