<svg width="48" height="48" viewBox="0 0 48 48" fill="none" xmlns="http://www.w3.org/2000/svg">
<path d="M11.0818 22.2124H10.8555C10.0833 22.2124 9.46032 22.8252 9.46032 23.5939V41.8614V41.8697L9.46124 41.878C9.53971 42.5843 10.1721 43.0377 10.8555 43.0377H36.047C36.7441 43.0377 37.2875 42.5741 37.4386 41.894L37.4422 41.8779V41.8614V23.5939C37.4422 22.82 36.7454 22.2124 36.047 22.2124H35.4352C35.4378 22.1772 35.4377 22.1423 35.4376 22.108C35.4376 22.1073 35.4376 22.1066 35.4376 22.106L38.8955 7.4132L38.8956 7.41257C39.1217 6.43276 38.3639 5.44998 37.3674 5.44998H9.12455C8.13182 5.44998 7.36334 6.3603 7.59606 7.41127L7.59605 7.41127L7.5965 7.4132L11.0553 22.1098C11.058 22.1424 11.0664 22.1703 11.0737 22.191C11.076 22.1976 11.0788 22.205 11.0818 22.2124ZM37.2238 6.63941C37.4748 6.63941 37.68 6.89091 37.6313 7.14187L34.1705 21.847C34.1704 21.8474 34.1703 21.8477 34.1702 21.848C34.1435 21.9543 34.0933 22.0246 34.0307 22.0696C33.9668 22.1157 33.878 22.1439 33.7618 22.1439H32.6666V21.8834C32.6666 21.7319 32.5923 21.5928 32.493 21.4946C32.3934 21.396 32.2529 21.3229 32.0993 21.3229C31.9457 21.3229 31.8052 21.396 31.7056 21.4946C31.6062 21.5928 31.5319 21.7319 31.5319 21.8834V22.1439H30.6551V21.8834C30.6551 21.7319 30.5808 21.5928 30.4815 21.4946C30.3819 21.396 30.2414 21.3229 30.0878 21.3229C29.9342 21.3229 29.7937 21.396 29.6941 21.4946C29.5947 21.5928 29.5204 21.7319 29.5204 21.8834V22.1439H17.2931V21.8834C17.2931 21.7319 17.2188 21.5928 17.1195 21.4946C17.0199 21.396 16.8794 21.3229 16.7258 21.3229C16.5722 21.3229 16.4317 21.396 16.3321 21.4946C16.2327 21.5928 16.1584 21.7319 16.1584 21.8834V22.1439H15.4869V21.8834C15.4869 21.7319 15.4126 21.5928 15.3132 21.4946C15.2136 21.396 15.0731 21.3229 14.9195 21.3229C14.7659 21.3229 14.6255 21.396 14.5259 21.4946C14.4265 21.5928 14.3522 21.7319 14.3522 21.8834V22.1439H12.6344H12.6198L12.6055 22.1467C12.3897 22.189 12.2203 22.098 12.1358 21.9593L12.1099 21.8491L8.64859 7.14188C8.59994 6.89092 8.80511 6.63941 9.05613 6.63941H37.2238ZM36.047 41.8483H27.891V40.3562C27.891 39.3141 26.9946 38.4274 25.9417 38.4274H20.8924C19.8395 38.4274 18.943 39.3141 18.943 40.3562V41.8483H10.7871C10.6379 41.8483 10.5882 41.7542 10.5882 41.7246V39.6168H17.15C17.3009 39.6168 17.441 39.5431 17.5405 39.4458C17.6399 39.3485 17.7173 39.2094 17.7173 39.0563C17.7173 38.9048 17.643 38.7657 17.5437 38.6674C17.4441 38.5689 17.3036 38.4958 17.15 38.4958H10.5882V23.6623C10.5882 23.6086 10.6165 23.5424 10.6728 23.4867C10.7288 23.4313 10.797 23.4018 10.8555 23.4018H14.3043V23.6623C14.3043 23.8138 14.3786 23.9529 14.478 24.0512C14.5776 24.1497 14.718 24.2228 14.8717 24.2228C15.0253 24.2228 15.1657 24.1497 15.2653 24.0512C15.3647 23.9529 15.439 23.8138 15.439 23.6623V23.4018H16.1105V23.6623C16.1105 23.8138 16.1848 23.9529 16.2842 24.0512C16.3838 24.1497 16.5243 24.2228 16.6779 24.2228C16.8315 24.2228 16.972 24.1497 17.0716 24.0512C17.1709 23.9529 17.2452 23.8138 17.2452 23.6623V23.4018H29.4725V23.6623C29.4725 23.8138 29.5469 23.9529 29.6462 24.0512C29.7458 24.1497 29.8863 24.2228 30.0399 24.2228C30.1935 24.2228 30.334 24.1497 30.4336 24.0512C30.5329 23.9529 30.6072 23.8138 30.6072 23.6623V23.4018H31.484V23.6623C31.484 23.8138 31.5583 23.9529 31.6577 24.0512C31.7573 24.1497 31.8978 24.2228 32.0514 24.2228C32.205 24.2228 32.3455 24.1497 32.4451 24.0512C32.5444 23.9529 32.6187 23.8138 32.6187 23.6623V23.4018H35.8623C35.9166 23.4018 35.9851 23.4307 36.043 23.4873C36.1009 23.544 36.1296 23.6101 36.1296 23.6623V38.4958H29.5678C29.4169 38.4958 29.2768 38.5695 29.1773 38.6669C29.0778 38.7641 29.0005 38.9033 29.0005 39.0563C29.0005 39.2078 29.0748 39.3469 29.1741 39.4452C29.2737 39.5437 29.4142 39.6168 29.5678 39.6168H36.1296V41.7246V41.77L36.1548 41.8078C36.1613 41.8175 36.1656 41.8253 36.1686 41.8314C36.1627 41.834 36.1549 41.8368 36.145 41.8394C36.1225 41.8453 36.097 41.8483 36.0743 41.8483H36.047ZM26.8316 41.8483H20.1393V40.3562C20.1393 39.8938 20.4874 39.5484 20.9608 39.5484H26.0101C26.4835 39.5484 26.8316 39.8938 26.8316 40.3562V41.8483Z" fill="black" stroke="black" strokeWidth="0.3"/>
<path d="M33.8369 37.4959C33.9878 37.4959 34.128 37.4222 34.2275 37.3249C34.3269 37.2276 34.4043 37.0885 34.4043 36.9354V30.5041C34.4043 30.3526 34.33 30.2135 34.2306 30.1153C34.131 30.0168 33.9906 29.9436 33.8369 29.9436H13.0721C12.9212 29.9436 12.7811 30.0174 12.6816 30.1147C12.5822 30.212 12.5048 30.3511 12.5048 30.5041V36.9354C12.5048 37.0869 12.5791 37.226 12.6784 37.3243C12.778 37.4228 12.9185 37.4959 13.0721 37.4959H33.8369ZM21.3912 34.1855V33.1856H22.8222V34.1855H21.3912ZM18.8324 34.1855V33.1856H20.2634V34.1855H18.8324ZM13.6395 33.1856H15.0705V34.1855H13.6395V33.1856ZM16.1983 33.1856H17.6293V34.1855H16.1983V33.1856ZM24.0185 33.1856H25.4494V34.1855H24.0185V33.1856ZM26.5773 33.1856H28.0083V34.1855H26.5773V33.1856ZM29.2045 33.1856H33.2628V34.1855H29.2045V33.1856ZM33.1943 36.3065H31.7634V35.3066H33.1943V36.3065ZM33.1943 32.0646H31.7634V31.0646H33.1943V32.0646ZM30.6355 32.0646H29.2045V31.0646H30.6355V32.0646ZM28.0083 32.0646H26.5773V31.0646H28.0083V32.0646ZM25.4494 32.0646H24.0185V31.0646H25.4494V32.0646ZM22.8222 32.0646H21.3912V31.0646H22.8222V32.0646ZM20.2634 32.0646H18.8324V31.0646H20.2634V32.0646ZM17.6361 32.0646H16.2052V31.0646H17.6361V32.0646ZM13.6463 31.0646H15.0773V32.0646H13.6463V31.0646ZM13.6463 35.3066H15.0773V36.3065H13.6463V35.3066ZM16.2052 35.3066H17.6361V36.3065H16.2052V35.3066ZM18.8324 35.3066H25.4563V36.3065H18.8324V35.3066ZM26.5841 35.3066H28.0151V36.3065H26.5841V35.3066ZM29.2114 35.3066H30.6424V36.3065H29.2114V35.3066Z" fill="black" stroke="black" strokeWidth="0.3"/>
<path d="M13.0722 29.3542H33.837C33.9879 29.3542 34.1281 29.2805 34.2276 29.1831C34.327 29.0859 34.4044 28.9467 34.4044 28.7937V27.0832C34.4044 26.9317 34.3301 26.7926 34.2307 26.6944C34.1311 26.5959 33.9906 26.5227 33.837 26.5227H13.0722C12.9213 26.5227 12.7811 26.5965 12.6817 26.6938C12.5822 26.7911 12.5048 26.9302 12.5048 27.0832V28.772C12.4631 28.9299 12.5229 29.0794 12.6272 29.1826C12.7359 29.29 12.8965 29.3542 13.0722 29.3542ZM33.2013 28.1648H31.7703V27.5753H33.2013V28.1648ZM30.6424 28.1648H29.2114V27.5753H30.6424V28.1648ZM28.0152 28.1648H26.5842V27.5753H28.0152V28.1648ZM25.4563 28.1648H24.0254V27.5753H25.4563V28.1648ZM22.8291 28.1648H21.3981V27.5753H22.8291V28.1648ZM20.2703 28.1648H18.8393V27.5753H20.2703V28.1648ZM17.643 28.1648H16.2121V27.5753H17.643V28.1648ZM13.6532 27.6437H15.0842V28.2332H13.6532V27.6437Z" fill="black" stroke="black" strokeWidth="0.3"/>
<path d="M13.0721 8.52883C12.9212 8.52883 12.7811 8.60256 12.6816 8.69989C12.5822 8.79716 12.5048 8.93629 12.5048 9.08934V10.7998C12.5048 10.9513 12.5791 11.0904 12.6784 11.1887C12.778 11.2872 12.9185 11.3603 13.0721 11.3603C13.2257 11.3603 13.3662 11.2872 13.4658 11.1887C13.5652 11.0904 13.6395 10.9513 13.6395 10.7998V9.08934C13.6395 8.93781 13.5652 8.79873 13.4658 8.70047C13.3662 8.60196 13.2257 8.52883 13.0721 8.52883Z" fill="#18B28D" stroke="#18B28D" strokeWidth="0.3"/>
<path d="M15.631 11.3603C15.7819 11.3603 15.922 11.2866 16.0215 11.1892C16.1209 11.092 16.1983 10.9528 16.1983 10.7998V9.08934C16.1983 8.93781 16.124 8.79872 16.0247 8.70047C15.9251 8.60196 15.7846 8.52883 15.631 8.52883C15.4774 8.52883 15.3369 8.60196 15.2373 8.70047C15.1379 8.79872 15.0636 8.93781 15.0636 9.08934V10.7998C15.0636 10.9774 15.1318 11.1219 15.2437 11.2203C15.3528 11.3162 15.494 11.3603 15.631 11.3603Z" fill="#18B28D" stroke="#18B28D" strokeWidth="0.3"/>
<path d="M18.2652 11.3603C18.4161 11.3603 18.5562 11.2866 18.6557 11.1892C18.7552 11.092 18.8325 10.9528 18.8325 10.7998V9.08934C18.8325 8.93781 18.7582 8.79873 18.6589 8.70047C18.5593 8.60196 18.4188 8.52883 18.2652 8.52883C18.1116 8.52883 17.9711 8.60196 17.8715 8.70047C17.7721 8.79872 17.6978 8.93781 17.6978 9.08934V10.7826C17.6598 10.9577 17.7049 11.1133 17.8266 11.2203C17.9423 11.322 18.1053 11.3603 18.2652 11.3603Z" fill="#18B28D" stroke="#18B28D" strokeWidth="0.3"/>
<path d="M20.824 11.3603C20.9749 11.3603 21.115 11.2866 21.2145 11.1892C21.3139 11.092 21.3913 10.9528 21.3913 10.7998V9.08934C21.3913 8.93781 21.317 8.79873 21.2177 8.70047C21.1181 8.60196 20.9776 8.52883 20.824 8.52883C20.6704 8.52883 20.5299 8.60196 20.4303 8.70047C20.3309 8.79873 20.2566 8.93781 20.2566 9.08934V10.7998C20.2566 10.9774 20.3248 11.1219 20.4367 11.2203C20.5458 11.3162 20.687 11.3603 20.824 11.3603Z" fill="#18B28D" stroke="#18B28D" strokeWidth="0.3"/>
<path d="M23.4511 11.3603C23.602 11.3603 23.7422 11.2866 23.8416 11.1892C23.9411 11.092 24.0185 10.9528 24.0185 10.7998V9.08934C24.0185 8.93781 23.9441 8.79872 23.8448 8.70047C23.7452 8.60196 23.6047 8.52883 23.4511 8.52883C23.2975 8.52883 23.157 8.60196 23.0574 8.70047C22.9581 8.79872 22.8838 8.93781 22.8838 9.08934V10.7826C22.8457 10.9577 22.8908 11.1133 23.0125 11.2203C23.1282 11.322 23.2912 11.3603 23.4511 11.3603Z" fill="#18B28D" stroke="#18B28D" strokeWidth="0.3"/>
<path d="M17.3619 15.2601C17.5128 15.2601 17.653 15.1863 17.7525 15.089C17.8519 14.9917 17.9293 14.8526 17.9293 14.6996V12.9891C17.9293 12.8376 17.855 12.6985 17.7556 12.6002C17.656 12.5017 17.5155 12.4286 17.3619 12.4286C17.2083 12.4286 17.0678 12.5017 16.9682 12.6002C16.8689 12.6985 16.7946 12.8376 16.7946 12.9891V14.6996C16.7946 14.8511 16.8689 14.9902 16.9682 15.0884C17.0678 15.1869 17.2083 15.2601 17.3619 15.2601Z" fill="#18B28D" stroke="#18B28D" strokeWidth="0.3"/>
<path d="M19.9893 15.2601C20.1402 15.2601 20.2804 15.1863 20.3798 15.089C20.4793 14.9917 20.5567 14.8526 20.5567 14.6996V12.9891C20.5567 12.8376 20.4823 12.6985 20.383 12.6002C20.2834 12.5017 20.1429 12.4286 19.9893 12.4286C19.8357 12.4286 19.6952 12.5017 19.5956 12.6002C19.4963 12.6985 19.422 12.8376 19.422 12.9891V14.6779C19.3803 14.8358 19.44 14.9853 19.5443 15.0884C19.653 15.1959 19.8136 15.2601 19.9893 15.2601Z" fill="#18B28D" stroke="#18B28D" strokeWidth="0.3"/>
<path d="M22.5549 15.2601C22.7058 15.2601 22.846 15.1863 22.9455 15.089C23.0449 14.9917 23.1223 14.8526 23.1223 14.6996V12.9891C23.1223 12.8376 23.048 12.6985 22.9486 12.6002C22.849 12.5017 22.7085 12.4286 22.5549 12.4286C22.4013 12.4286 22.2608 12.5017 22.1612 12.6002C22.0619 12.6985 21.9876 12.8376 21.9876 12.9891V14.6996C21.9876 14.8511 22.0619 14.9902 22.1612 15.0884C22.2608 15.1869 22.4013 15.2601 22.5549 15.2601Z" fill="#18B28D" stroke="#18B28D" strokeWidth="0.3"/>
<path d="M25.1821 15.2601C25.333 15.2601 25.4731 15.1863 25.5726 15.089C25.672 14.9917 25.7494 14.8526 25.7494 14.6996V12.9891C25.7494 12.8376 25.6751 12.6985 25.5757 12.6002C25.4761 12.5017 25.3357 12.4286 25.1821 12.4286C25.0285 12.4286 24.888 12.5017 24.7884 12.6002C24.689 12.6985 24.6147 12.8376 24.6147 12.9891V14.6779C24.573 14.8358 24.6328 14.9853 24.7371 15.0884C24.8457 15.1959 25.0064 15.2601 25.1821 15.2601Z" fill="#18B28D" stroke="#18B28D" strokeWidth="0.3"/>
<path d="M27.7411 15.2601C27.892 15.2601 28.0321 15.1863 28.1316 15.089C28.2311 14.9917 28.3084 14.8526 28.3084 14.6996V12.9891C28.3084 12.8376 28.2341 12.6985 28.1348 12.6002C28.0352 12.5017 27.8947 12.4286 27.7411 12.4286C27.5875 12.4286 27.447 12.5017 27.3474 12.6002C27.248 12.6985 27.1737 12.8376 27.1737 12.9891V14.6996C27.1737 14.8511 27.248 14.9902 27.3474 15.0884C27.447 15.1869 27.5875 15.2601 27.7411 15.2601Z" fill="#18B28D" stroke="#18B28D" strokeWidth="0.3"/>
<path d="M21.0912 18.531C21.0912 18.6825 21.1655 18.8216 21.2649 18.9199C21.3645 19.0184 21.505 19.0915 21.6586 19.0915C21.8122 19.0915 21.9526 19.0184 22.0522 18.9199C22.1516 18.8216 22.2259 18.6825 22.2259 18.531V16.8205C22.2259 16.669 22.1516 16.5299 22.0522 16.4317C21.9526 16.3332 21.8122 16.26 21.6586 16.26C21.505 16.26 21.3645 16.3332 21.2649 16.4317C21.1655 16.5299 21.0912 16.669 21.0912 16.8205V18.531Z" fill="#18B28D" stroke="#18B28D" strokeWidth="0.3"/>
<path d="M23.7185 18.531C23.7185 18.6825 23.7928 18.8216 23.8922 18.9199C23.9918 19.0184 24.1323 19.0915 24.2859 19.0915C24.4395 19.0915 24.58 19.0184 24.6796 18.9199C24.7789 18.8216 24.8532 18.6825 24.8532 18.531V16.8205C24.8532 16.669 24.7789 16.5299 24.6796 16.4317C24.58 16.3332 24.4395 16.26 24.2859 16.26C24.1323 16.26 23.9918 16.3332 23.8922 16.4317C23.7928 16.5299 23.7185 16.669 23.7185 16.8205V18.531Z" fill="#18B28D" stroke="#18B28D" strokeWidth="0.3"/>
<path d="M26.9131 19.0915C27.064 19.0915 27.2042 19.0178 27.3037 18.9204C27.4031 18.8232 27.4805 18.684 27.4805 18.531V16.8205C27.4805 16.669 27.4062 16.5299 27.3068 16.4317C27.2072 16.3332 27.0667 16.26 26.9131 16.26C26.7595 16.26 26.6191 16.3332 26.5194 16.4317C26.4201 16.5299 26.3458 16.669 26.3458 16.8205V18.5093C26.3041 18.6672 26.3638 18.8167 26.4681 18.9199C26.5768 19.0273 26.7375 19.0915 26.9131 19.0915Z" fill="#18B28D" stroke="#18B28D" strokeWidth="0.3"/>
<path d="M29.472 19.0915C29.6229 19.0915 29.7631 19.0178 29.8626 18.9204C29.962 18.8232 30.0394 18.684 30.0394 18.531V16.8205C30.0394 16.669 29.9651 16.5299 29.8657 16.4317C29.7661 16.3332 29.6256 16.26 29.472 16.26C29.3184 16.26 29.178 16.3332 29.0783 16.4317C28.979 16.5299 28.9047 16.669 28.9047 16.8205V18.531C28.9047 18.6825 28.979 18.8216 29.0783 18.9199C29.1779 19.0184 29.3184 19.0915 29.472 19.0915Z" fill="#18B28D" stroke="#18B28D" strokeWidth="0.3"/>
<path d="M32.1061 19.0915C32.257 19.0915 32.3972 19.0178 32.4967 18.9204C32.5961 18.8232 32.6735 18.684 32.6735 18.531V16.8205C32.6735 16.669 32.5992 16.5299 32.4998 16.4317C32.4002 16.3332 32.2597 16.26 32.1061 16.26C31.9525 16.26 31.812 16.3332 31.7124 16.4317C31.6131 16.5299 31.5388 16.669 31.5388 16.8205V18.5093C31.4971 18.6672 31.5568 18.8167 31.6611 18.9199C31.7698 19.0273 31.9305 19.0915 32.1061 19.0915Z" fill="#18B28D" stroke="#18B28D" strokeWidth="0.3"/>
<path d="M41.1713 13.6601C39.4274 13.6601 37.9767 15.094 37.9767 16.8204C37.9767 18.5468 39.4274 19.9808 41.1713 19.9808C42.9152 19.9808 44.3659 18.5468 44.3659 16.8204C44.3659 15.094 42.9152 13.6601 41.1713 13.6601ZM41.1713 18.7914C40.0755 18.7914 39.173 17.8988 39.173 16.8204C39.173 15.742 40.0755 14.8495 41.1713 14.8495C42.2671 14.8495 43.1696 15.742 43.1696 16.8204C43.1696 17.8988 42.2671 18.7914 41.1713 18.7914Z" fill="black" stroke="black" strokeWidth="0.3"/>
<path d="M6.14832 31.1751C4.89057 31.1751 3.85 32.1982 3.85 33.446C3.85 34.6938 4.89057 35.717 6.14832 35.717C7.40607 35.717 8.44664 34.6938 8.44664 33.446C8.44664 32.1982 7.40607 31.1751 6.14832 31.1751ZM6.14832 34.596C5.53342 34.596 4.9847 34.1092 4.9847 33.446C4.9847 32.7778 5.47016 32.2961 6.14832 32.2961C6.82648 32.2961 7.31194 32.7778 7.31194 33.446C7.31194 34.1092 6.76322 34.596 6.14832 34.596Z" fill="black" stroke="black" strokeWidth="0.3"/>
<path d="M42.5404 9.1603C42.7492 9.07828 42.9026 8.93092 42.9802 8.74511C43.0576 8.55971 43.0548 8.3477 42.9734 8.14411C42.8039 7.72049 42.365 7.55294 41.951 7.71827C41.7422 7.80029 41.5888 7.94765 41.5112 8.13346C41.4338 8.31886 41.4366 8.53087 41.518 8.73446C41.6875 9.15809 42.1264 9.32564 42.5404 9.1603Z" fill="black" stroke="black" strokeWidth="0.3"/>
<path d="M40.6303 23.1123C40.4215 23.1943 40.2681 23.3417 40.1905 23.5275C40.1131 23.7129 40.1159 23.9249 40.1973 24.1285C40.3668 24.5521 40.8057 24.7197 41.2197 24.5543C41.4285 24.4723 41.5819 24.325 41.6595 24.1391C41.737 23.9537 41.7341 23.7417 41.6527 23.5382C41.4832 23.1145 41.0443 22.947 40.6303 23.1123Z" fill="black" stroke="black" strokeWidth="0.3"/>
<path d="M4.77059 14.3447L4.77011 14.3449L4.7757 14.3561C4.93827 14.6812 5.36115 14.9429 5.79296 14.7705C6.00177 14.6885 6.15516 14.5411 6.23276 14.3553C6.31019 14.1699 6.30736 13.9579 6.22592 13.7543C6.05647 13.3307 5.61755 13.1632 5.20356 13.3285C4.99475 13.4105 4.84136 13.5579 4.76375 13.7437C4.68632 13.9291 4.68916 14.1411 4.77059 14.3447Z" fill="black" stroke="black" strokeWidth="0.3"/>
<path d="M7.52392 24.1438C7.73272 24.0618 7.88611 23.9144 7.96372 23.7286C8.04115 23.5432 8.03831 23.3312 7.95688 23.1276C7.78743 22.704 7.34851 22.5365 6.93451 22.7018C6.72571 22.7838 6.57231 22.9312 6.49471 23.117C6.41728 23.3024 6.42011 23.5144 6.50155 23.718C6.671 24.1416 7.10992 24.3092 7.52392 24.1438Z" fill="black" stroke="black" strokeWidth="0.3"/>
<path d="M6.02472 38.5064C5.81592 38.5884 5.66252 38.7357 5.58492 38.9215C5.50749 39.1069 5.51032 39.319 5.59176 39.5225C5.76121 39.9462 6.20013 40.1137 6.61413 39.9484C6.82293 39.8664 6.97632 39.719 7.05393 39.5332C7.13136 39.3478 7.12852 39.1358 7.04709 38.9322C6.87764 38.5086 6.43872 38.341 6.02472 38.5064Z" fill="black" stroke="black" strokeWidth="0.3"/>
<path d="M40.2131 35.9749C40.0043 36.0569 39.8509 36.2042 39.7733 36.3901C39.6958 36.5755 39.6987 36.7875 39.7801 36.991C39.9496 37.4147 40.3885 37.5822 40.8025 37.4169C41.0113 37.3349 41.1647 37.1875 41.2423 37.0017C41.3197 36.8163 41.3169 36.6043 41.2354 36.4007C41.066 35.9771 40.6271 35.8095 40.2131 35.9749Z" fill="black" stroke="black" strokeWidth="0.3"/>
</svg>
