<svg width="48" height="48" viewBox="0 0 48 48" fill="none" xmlns="http://www.w3.org/2000/svg">
<path d="M33.0983 28.9921L33.0818 29.0031L33.0678 29.0171C32.8104 29.2745 32.3914 29.2767 32.1251 29.0163C32.0099 28.9016 31.8503 28.8576 31.7036 28.8576C31.5542 28.8576 31.396 28.9023 31.2613 28.9921L31.2448 29.0031L31.2308 29.0171C31.1162 29.1317 31.0713 29.2894 31.0713 29.4361C31.0713 29.5847 31.1165 29.7411 31.2058 29.8751L31.2171 29.892L31.2315 29.9063C31.9891 30.6563 33.2047 30.6563 33.9622 29.9063L33.9767 29.892L33.9879 29.8751C34.0773 29.7411 34.1225 29.5847 34.1225 29.4361C34.1225 29.2894 34.0775 29.1317 33.963 29.0171C33.8476 28.9018 33.6877 28.8576 33.5406 28.8576C33.3912 28.8576 33.233 28.9023 33.0983 28.9921Z" fill="black" stroke="black" strokeWidth="0.4"/>
<mask id="path-2-outside-1_4150_1600" maskUnits="userSpaceOnUse" x="20.3798" y="17.4465" width="24" height="27" fill="black">
<rect fill="white" x="20.3798" y="17.4465" width="24" height="27"/>
<path d="M40.8867 36.6274L37.6905 35.2817C37.1454 35.0125 36.6004 34.7434 36.1294 34.3396C35.7189 34.0032 35.517 33.8013 35.1806 33.3303H35.1133L35.046 33.263H34.7769V32.5901C36.4053 31.7827 37.5626 30.1005 37.5626 28.2164V26.3323H37.6299C37.6972 26.3323 37.6972 26.3996 37.7645 26.3996H37.9663C37.9663 26.3996 38.0336 26.3996 38.0336 26.3323L38.1009 26.265L38.1682 26.1977V26.1304V26.0632C38.7132 23.4389 38.5047 21.353 37.4213 19.8726C36.6744 18.7287 35.6516 18.4596 35.6516 18.4596C35.3825 18.3923 35.1066 18.5942 35.1066 18.8633V19.1325C34.427 18.9306 33.2023 18.6614 31.7758 18.6614C29.8043 18.7287 27.0858 19.4689 25.592 22.8333C25.5247 23.0352 25.6593 23.237 25.7939 23.3043C26.1303 23.4389 26.9512 23.7081 27.6309 23.8426V28.1491C27.6309 30.0332 28.7209 31.7154 30.3493 32.5228V33.1957H30.1474L30.0801 33.263C29.811 33.6667 29.4678 33.9359 28.9901 34.3396C28.5796 34.6761 28.0413 34.9452 27.5636 35.2144L24.3674 36.5601C22.4631 37.3676 21.3798 40.3956 21.3798 42.2124V43.3563C21.3798 43.5581 21.5816 43.76 21.7902 43.76H43.4705C43.6724 43.76 43.881 43.5581 43.881 43.3563V42.2797C43.881 40.4629 42.7909 37.4349 40.8934 36.6274H40.8867ZM30.356 34.2723L31.9844 35.8873L30.8943 37.3676L29.737 34.8779C29.9388 34.6761 30.1474 34.4742 30.3493 34.2723H30.356ZM34.8442 34.2051C35.046 34.4069 35.2546 34.6088 35.4565 34.8106L34.2991 37.3003L33.2091 35.82L34.8374 34.2051H34.8442ZM31.7893 19.4689C33.7608 19.4016 35.3892 20.0745 35.3892 20.0745H35.5911C35.5911 20.0745 35.6583 20.0745 35.6583 20.0072C35.6583 20.0072 35.7256 20.0072 35.7256 19.9399V19.8726V19.7381V19.5362C36.4725 20.0745 37.6972 21.353 37.4213 24.381C37.2194 23.9772 37.2867 24.0445 37.2867 23.9772H37.0849L36.6071 24.1791L36.7417 23.6408C36.809 23.3043 36.4725 23.0352 36.1967 23.1698L34.8374 23.7081L34.9047 23.3716C34.9047 23.2371 34.8374 23.0352 34.7029 22.9679C34.5683 22.9006 34.3664 22.9006 34.2251 22.9679C34.2251 22.9679 31.9171 24.6501 26.7494 22.9679C27.6308 20.6801 29.4005 19.6035 31.7758 19.4689H31.7893ZM28.5258 28.1491V24.1118C31.1769 24.5828 32.8726 24.2464 33.8281 23.8426V24.0445C33.7608 24.381 34.0973 24.5828 34.3731 24.5155L35.6651 24.0445L35.5305 24.5828C35.4632 24.9193 35.7997 25.1884 36.0755 25.0538L36.7552 24.852V28.2164C36.7552 30.4369 34.9182 32.2537 32.6775 32.2537C30.3695 32.1864 28.5325 30.3696 28.5325 28.1491H28.5258ZM33.8954 32.8593V33.9359L32.6035 35.2144L31.2442 33.8686V32.8593C32.1257 33.1284 33.0139 33.1284 33.8954 32.8593ZM22.2074 42.2797C22.2074 40.5302 23.2975 37.9732 24.6567 37.4349L27.8529 36.0891C28.2634 35.8873 28.6671 35.6854 29.0775 35.4162L30.4368 38.3769C30.5714 38.6461 30.9818 38.7134 31.1837 38.4442L31.796 37.704L30.5041 43.0871H26.1572V40.5974C26.1572 40.3956 25.9554 40.1937 25.7468 40.1937C25.5382 40.1937 25.3363 40.3956 25.3363 40.5974V43.0871H22.3487L22.2141 42.2797H22.2074ZM32.6035 37.6368L33.9627 43.0871H31.3115L32.6035 37.6368ZM42.9995 43.0198H40.0119V40.5302C40.0119 40.3283 39.81 40.1264 39.6014 40.1264C39.3929 40.1264 39.191 40.3283 39.191 40.5302V43.0198H34.8442L33.5522 37.7713L34.03 38.4442C34.2318 38.7134 34.6423 38.6461 34.7769 38.3769L36.2034 35.4162C36.6138 35.6854 37.0176 35.8873 37.428 36.0891L40.6242 37.4349C41.9835 38.0405 43.0735 40.5302 43.0735 42.2797L43.0062 43.0198H42.9995Z"/>
</mask>
<path d="M40.8867 36.6274L37.6905 35.2817C37.1454 35.0125 36.6004 34.7434 36.1294 34.3396C35.7189 34.0032 35.517 33.8013 35.1806 33.3303H35.1133L35.046 33.263H34.7769V32.5901C36.4053 31.7827 37.5626 30.1005 37.5626 28.2164V26.3323H37.6299C37.6972 26.3323 37.6972 26.3996 37.7645 26.3996H37.9663C37.9663 26.3996 38.0336 26.3996 38.0336 26.3323L38.1009 26.265L38.1682 26.1977V26.1304V26.0632C38.7132 23.4389 38.5047 21.353 37.4213 19.8726C36.6744 18.7287 35.6516 18.4596 35.6516 18.4596C35.3825 18.3923 35.1066 18.5942 35.1066 18.8633V19.1325C34.427 18.9306 33.2023 18.6614 31.7758 18.6614C29.8043 18.7287 27.0858 19.4689 25.592 22.8333C25.5247 23.0352 25.6593 23.237 25.7939 23.3043C26.1303 23.4389 26.9512 23.7081 27.6309 23.8426V28.1491C27.6309 30.0332 28.7209 31.7154 30.3493 32.5228V33.1957H30.1474L30.0801 33.263C29.811 33.6667 29.4678 33.9359 28.9901 34.3396C28.5796 34.6761 28.0413 34.9452 27.5636 35.2144L24.3674 36.5601C22.4631 37.3676 21.3798 40.3956 21.3798 42.2124V43.3563C21.3798 43.5581 21.5816 43.76 21.7902 43.76H43.4705C43.6724 43.76 43.881 43.5581 43.881 43.3563V42.2797C43.881 40.4629 42.7909 37.4349 40.8934 36.6274H40.8867ZM30.356 34.2723L31.9844 35.8873L30.8943 37.3676L29.737 34.8779C29.9388 34.6761 30.1474 34.4742 30.3493 34.2723H30.356ZM34.8442 34.2051C35.046 34.4069 35.2546 34.6088 35.4565 34.8106L34.2991 37.3003L33.2091 35.82L34.8374 34.2051H34.8442ZM31.7893 19.4689C33.7608 19.4016 35.3892 20.0745 35.3892 20.0745H35.5911C35.5911 20.0745 35.6583 20.0745 35.6583 20.0072C35.6583 20.0072 35.7256 20.0072 35.7256 19.9399V19.8726V19.7381V19.5362C36.4725 20.0745 37.6972 21.353 37.4213 24.381C37.2194 23.9772 37.2867 24.0445 37.2867 23.9772H37.0849L36.6071 24.1791L36.7417 23.6408C36.809 23.3043 36.4725 23.0352 36.1967 23.1698L34.8374 23.7081L34.9047 23.3716C34.9047 23.2371 34.8374 23.0352 34.7029 22.9679C34.5683 22.9006 34.3664 22.9006 34.2251 22.9679C34.2251 22.9679 31.9171 24.6501 26.7494 22.9679C27.6308 20.6801 29.4005 19.6035 31.7758 19.4689H31.7893ZM28.5258 28.1491V24.1118C31.1769 24.5828 32.8726 24.2464 33.8281 23.8426V24.0445C33.7608 24.381 34.0973 24.5828 34.3731 24.5155L35.6651 24.0445L35.5305 24.5828C35.4632 24.9193 35.7997 25.1884 36.0755 25.0538L36.7552 24.852V28.2164C36.7552 30.4369 34.9182 32.2537 32.6775 32.2537C30.3695 32.1864 28.5325 30.3696 28.5325 28.1491H28.5258ZM33.8954 32.8593V33.9359L32.6035 35.2144L31.2442 33.8686V32.8593C32.1257 33.1284 33.0139 33.1284 33.8954 32.8593ZM22.2074 42.2797C22.2074 40.5302 23.2975 37.9732 24.6567 37.4349L27.8529 36.0891C28.2634 35.8873 28.6671 35.6854 29.0775 35.4162L30.4368 38.3769C30.5714 38.6461 30.9818 38.7134 31.1837 38.4442L31.796 37.704L30.5041 43.0871H26.1572V40.5974C26.1572 40.3956 25.9554 40.1937 25.7468 40.1937C25.5382 40.1937 25.3363 40.3956 25.3363 40.5974V43.0871H22.3487L22.2141 42.2797H22.2074ZM32.6035 37.6368L33.9627 43.0871H31.3115L32.6035 37.6368ZM42.9995 43.0198H40.0119V40.5302C40.0119 40.3283 39.81 40.1264 39.6014 40.1264C39.3929 40.1264 39.191 40.3283 39.191 40.5302V43.0198H34.8442L33.5522 37.7713L34.03 38.4442C34.2318 38.7134 34.6423 38.6461 34.7769 38.3769L36.2034 35.4162C36.6138 35.6854 37.0176 35.8873 37.428 36.0891L40.6242 37.4349C41.9835 38.0405 43.0735 40.5302 43.0735 42.2797L43.0062 43.0198H42.9995Z" fill="black"/>
<path d="M40.8867 36.6274L37.6905 35.2817C37.1454 35.0125 36.6004 34.7434 36.1294 34.3396C35.7189 34.0032 35.517 33.8013 35.1806 33.3303H35.1133L35.046 33.263H34.7769V32.5901C36.4053 31.7827 37.5626 30.1005 37.5626 28.2164V26.3323H37.6299C37.6972 26.3323 37.6972 26.3996 37.7645 26.3996H37.9663C37.9663 26.3996 38.0336 26.3996 38.0336 26.3323L38.1009 26.265L38.1682 26.1977V26.1304V26.0632C38.7132 23.4389 38.5047 21.353 37.4213 19.8726C36.6744 18.7287 35.6516 18.4596 35.6516 18.4596C35.3825 18.3923 35.1066 18.5942 35.1066 18.8633V19.1325C34.427 18.9306 33.2023 18.6614 31.7758 18.6614C29.8043 18.7287 27.0858 19.4689 25.592 22.8333C25.5247 23.0352 25.6593 23.237 25.7939 23.3043C26.1303 23.4389 26.9512 23.7081 27.6309 23.8426V28.1491C27.6309 30.0332 28.7209 31.7154 30.3493 32.5228V33.1957H30.1474L30.0801 33.263C29.811 33.6667 29.4678 33.9359 28.9901 34.3396C28.5796 34.6761 28.0413 34.9452 27.5636 35.2144L24.3674 36.5601C22.4631 37.3676 21.3798 40.3956 21.3798 42.2124V43.3563C21.3798 43.5581 21.5816 43.76 21.7902 43.76H43.4705C43.6724 43.76 43.881 43.5581 43.881 43.3563V42.2797C43.881 40.4629 42.7909 37.4349 40.8934 36.6274H40.8867ZM30.356 34.2723L31.9844 35.8873L30.8943 37.3676L29.737 34.8779C29.9388 34.6761 30.1474 34.4742 30.3493 34.2723H30.356ZM34.8442 34.2051C35.046 34.4069 35.2546 34.6088 35.4565 34.8106L34.2991 37.3003L33.2091 35.82L34.8374 34.2051H34.8442ZM31.7893 19.4689C33.7608 19.4016 35.3892 20.0745 35.3892 20.0745H35.5911C35.5911 20.0745 35.6583 20.0745 35.6583 20.0072C35.6583 20.0072 35.7256 20.0072 35.7256 19.9399V19.8726V19.7381V19.5362C36.4725 20.0745 37.6972 21.353 37.4213 24.381C37.2194 23.9772 37.2867 24.0445 37.2867 23.9772H37.0849L36.6071 24.1791L36.7417 23.6408C36.809 23.3043 36.4725 23.0352 36.1967 23.1698L34.8374 23.7081L34.9047 23.3716C34.9047 23.2371 34.8374 23.0352 34.7029 22.9679C34.5683 22.9006 34.3664 22.9006 34.2251 22.9679C34.2251 22.9679 31.9171 24.6501 26.7494 22.9679C27.6308 20.6801 29.4005 19.6035 31.7758 19.4689H31.7893ZM28.5258 28.1491V24.1118C31.1769 24.5828 32.8726 24.2464 33.8281 23.8426V24.0445C33.7608 24.381 34.0973 24.5828 34.3731 24.5155L35.6651 24.0445L35.5305 24.5828C35.4632 24.9193 35.7997 25.1884 36.0755 25.0538L36.7552 24.852V28.2164C36.7552 30.4369 34.9182 32.2537 32.6775 32.2537C30.3695 32.1864 28.5325 30.3696 28.5325 28.1491H28.5258ZM33.8954 32.8593V33.9359L32.6035 35.2144L31.2442 33.8686V32.8593C32.1257 33.1284 33.0139 33.1284 33.8954 32.8593ZM22.2074 42.2797C22.2074 40.5302 23.2975 37.9732 24.6567 37.4349L27.8529 36.0891C28.2634 35.8873 28.6671 35.6854 29.0775 35.4162L30.4368 38.3769C30.5714 38.6461 30.9818 38.7134 31.1837 38.4442L31.796 37.704L30.5041 43.0871H26.1572V40.5974C26.1572 40.3956 25.9554 40.1937 25.7468 40.1937C25.5382 40.1937 25.3363 40.3956 25.3363 40.5974V43.0871H22.3487L22.2141 42.2797H22.2074ZM32.6035 37.6368L33.9627 43.0871H31.3115L32.6035 37.6368ZM42.9995 43.0198H40.0119V40.5302C40.0119 40.3283 39.81 40.1264 39.6014 40.1264C39.3929 40.1264 39.191 40.3283 39.191 40.5302V43.0198H34.8442L33.5522 37.7713L34.03 38.4442C34.2318 38.7134 34.6423 38.6461 34.7769 38.3769L36.2034 35.4162C36.6138 35.6854 37.0176 35.8873 37.428 36.0891L40.6242 37.4349C41.9835 38.0405 43.0735 40.5302 43.0735 42.2797L43.0062 43.0198H42.9995Z" stroke="black" strokeWidth="0.8" mask="url(#path-2-outside-1_4150_1600)"/>
<path d="M14.7923 9.98311C9.65729 9.98311 5.48823 14.1081 5.48823 19.1997C5.48823 24.2914 9.65729 28.4164 14.7923 28.4164C19.9274 28.4164 24.0965 24.2914 24.0965 19.1997C24.0965 14.1081 19.9274 9.98311 14.7923 9.98311ZM14.7923 27.2089C10.3456 27.2089 6.70242 23.5958 6.70242 19.1997C6.70242 14.8037 10.3456 11.1906 14.7923 11.1906C19.2391 11.1906 22.8823 14.8037 22.8823 19.1997C22.8823 23.5958 19.2391 27.2089 14.7923 27.2089Z" fill="black" stroke="black" strokeWidth="0.4"/>
<path d="M36.1968 14.6223C38.4113 14.6223 40.2053 12.8526 40.2053 10.6541C40.2053 8.45589 38.4182 6.68599 36.1968 6.68599C33.9753 6.68599 32.1882 8.45589 32.1882 10.6541C32.1882 12.8524 33.9753 14.6223 36.1968 14.6223ZM36.1968 7.89345C37.7165 7.89345 38.9844 9.15143 38.9844 10.6541C38.9844 12.1568 37.7165 13.4148 36.1968 13.4148C34.6771 13.4148 33.4092 12.1568 33.4092 10.6541C33.4092 9.15143 34.6771 7.89345 36.1968 7.89345Z" fill="black" stroke="black" strokeWidth="0.4"/>
<path d="M12.8208 33.1977C11.2859 33.1977 10.0369 34.4291 10.0369 35.9547C10.0369 37.4802 11.2859 38.7116 12.8208 38.7116C14.3557 38.7116 15.6047 37.4802 15.6047 35.9547C15.6047 34.4291 14.3557 33.1977 12.8208 33.1977ZM12.8208 37.3696C11.9809 37.3696 11.3251 36.7174 11.3251 35.8874C11.3251 35.0574 11.9809 34.4052 12.8208 34.4052C13.6607 34.4052 14.3165 35.0574 14.3165 35.8874C14.3165 36.7174 13.6607 37.3696 12.8208 37.3696Z" fill="black" stroke="black" strokeWidth="0.4"/>
<path d="M21.1089 5.40565C21.1089 4.95588 20.7406 4.60005 20.2966 4.60005C19.8526 4.60005 19.4843 4.95588 19.4843 5.40565C19.4843 5.85541 19.8526 6.21124 20.2966 6.21124C20.7406 6.21124 21.1089 5.85541 21.1089 5.40565Z" fill="black" stroke="black" strokeWidth="0.4"/>
<path d="M6.22464 10.0485C6.22464 9.5987 5.85632 9.24287 5.41231 9.24287C4.9683 9.24287 4.59999 9.5987 4.59999 10.0485C4.59999 10.4982 4.9683 10.8541 5.41231 10.8541C5.85632 10.8541 6.22464 10.4982 6.22464 10.0485Z" fill="black" stroke="black" strokeWidth="0.4"/>
<path d="M6.63516 30.6388C6.63516 30.189 6.26684 29.8332 5.82283 29.8332C5.37882 29.8332 5.01051 30.189 5.01051 30.6388C5.01051 31.0886 5.37883 31.4444 5.82283 31.4444C6.26684 31.4444 6.63516 31.0886 6.63516 30.6388Z" fill="black" stroke="black" strokeWidth="0.4"/>
<path d="M29.6073 12.1344C29.6073 11.6846 29.239 11.3288 28.795 11.3288C28.351 11.3288 27.9827 11.6846 27.9827 12.1344C27.9827 12.5842 28.351 12.94 28.795 12.94C29.239 12.94 29.6073 12.5842 29.6073 12.1344Z" fill="black" stroke="black" strokeWidth="0.4"/>
<path d="M42.3113 17.181C42.3113 16.7313 41.943 16.3754 41.499 16.3754C41.055 16.3754 40.6867 16.7313 40.6867 17.181C40.6867 17.6308 41.055 17.9866 41.499 17.9866C41.943 17.9866 42.3113 17.6308 42.3113 17.181Z" fill="black" stroke="black" strokeWidth="0.4"/>
<path d="M40.6158 31.0426C40.6158 30.5928 40.2475 30.237 39.8035 30.237C39.3595 30.237 38.9912 30.5928 38.9912 31.0426C38.9912 31.4924 39.3595 31.8482 39.8035 31.8482C40.2475 31.8482 40.6158 31.4924 40.6158 31.0426Z" fill="black" stroke="black" strokeWidth="0.4"/>
<path d="M18.1212 39.4535C18.1212 39.0037 17.7529 38.6479 17.3089 38.6479C16.8648 38.6479 16.4965 39.0037 16.4965 39.4535C16.4965 39.9033 16.8648 40.2591 17.3089 40.2591C17.7529 40.2591 18.1212 39.9033 18.1212 39.4535Z" fill="black" stroke="black" strokeWidth="0.4"/>
<path d="M24.9174 31.0426C24.9174 30.5928 24.5491 30.237 24.1051 30.237C23.6611 30.237 23.2927 30.5928 23.2927 31.0426C23.2927 31.4924 23.6611 31.8482 24.1051 31.8482C24.5491 31.8482 24.9174 31.4924 24.9174 31.0426Z" fill="black" stroke="black" strokeWidth="0.4"/>
<path d="M11.6 17.2L14.8 14L18 17.2L16.8 24.8H12.8L11.6 17.6V17.2Z" fill="#18B28D"/>
<path d="M9.90046 18.8616H11.9412V24.9867C11.9412 25.1528 12.0223 25.3024 12.1275 25.4065C12.2331 25.5109 12.3839 25.5904 12.5516 25.5904H16.9657C17.131 25.5904 17.2814 25.5101 17.3865 25.4072C17.4916 25.3045 17.5762 25.1549 17.5762 24.9867V18.8616H19.6169C19.738 18.8616 19.8636 18.8418 19.9751 18.7729C20.0901 18.7019 20.1666 18.5936 20.2151 18.4613L20.2152 18.4613L20.2171 18.4557C20.3106 18.175 20.2109 17.9758 20.1423 17.8387L20.139 17.832L20.1252 17.8044L20.1037 17.7822L15.2118 12.7356L15.1827 12.7055C15.1738 12.6957 15.1647 12.6863 15.1553 12.6773L15.1529 12.6748H15.1527C15.0412 12.5698 14.8923 12.5234 14.7553 12.5234C14.5901 12.5234 14.4077 12.5908 14.2944 12.7471L9.4147 17.7812C9.32172 17.8745 9.26336 17.9818 9.24917 18.1096C9.23592 18.2288 9.26374 18.3461 9.30026 18.4557L9.30476 18.4692L9.31111 18.4819C9.39972 18.6591 9.5916 18.8616 9.90046 18.8616ZM16.9657 17.5868C16.8004 17.5868 16.6501 17.6672 16.5449 17.77C16.4399 17.8728 16.3553 18.0224 16.3553 18.1906V24.3157H13.1554V18.1906C13.1554 18.0244 13.0742 17.8749 12.969 17.7708C12.8634 17.6664 12.7126 17.5868 12.5449 17.5868H11.3185L14.725 14.0383L18.1316 17.5868H16.9725H16.9657Z" fill="#18B28D" stroke="#18B28D" strokeWidth="0.4"/>
</svg>
