<svg width="240" height="622" viewBox="0 0 240 622" fill="none" xmlns="http://www.w3.org/2000/svg">
<path d="M64.0654 0.14446C67.6013 0.0343952 67.0509 0 64.6295 0C63.4188 0 61.7266 0.0963067 59.8417 0.158218C58.9061 0.254525 57.9156 0.357711 56.9181 0.467775C56.4159 0.522808 55.9138 0.564082 55.4116 0.639752C54.9163 0.729179 54.4141 0.811728 53.9257 0.901155C51.5593 1.38957 49.248 2.09811 46.9641 2.84105C52.5086 1.17632 58.2801 0.268283 64.0654 0.14446Z" fill="#202020"/>
<path d="M27.5722 12.286C22.3166 16.2071 17.6457 20.878 13.7522 26.1129C16.6001 22.357 19.8195 18.883 23.376 15.7737C35.999 6.39757 21.5049 16.84 17.8796 21.6003C18.4231 21.0156 18.939 20.4515 19.4274 19.9287C19.9365 19.4196 20.4386 18.9587 20.8995 18.5047C21.8282 17.6104 22.6399 16.8056 23.4241 16.1796C24.1877 15.5261 24.855 14.962 25.4328 14.4667C26.0107 13.9783 26.5403 13.6206 26.96 13.2835C28.6591 11.9834 29.0306 11.6532 28.8586 11.7151C28.5078 11.8389 25.9625 13.5655 27.5722 12.2792V12.286Z" fill="#202020"/>
<path d="M5.19461 42.7678C4.9332 43.5107 4.67868 44.1848 4.47231 44.8177C4.28657 45.4575 4.12148 46.0353 3.97014 46.565C3.64682 47.6106 3.47485 48.4705 3.33039 49.1309C3.04147 50.4585 2.94516 51.0226 2.97955 51.0432C2.99331 51.057 3.02083 50.9263 3.08962 50.6924C3.15153 50.4585 3.24784 50.1146 3.3579 49.695C3.57803 48.8488 3.84631 47.6725 4.25906 46.4274C4.29345 46.221 4.45855 45.5744 4.66492 44.7971C4.91257 44.0335 5.20149 43.1392 5.43537 42.4307C5.6555 41.7153 5.86188 41.1993 5.86188 41.1512C5.86188 41.1099 5.63487 41.5295 5.19461 42.7678Z" fill="#202020"/>
<path d="M113.643 373.773C110.114 373.739 105.959 373.718 106.544 373.663C102.602 373.732 101.769 373.78 113.643 373.773Z" fill="#202020"/>
<path d="M106.543 373.663C107.3 373.65 108.119 373.636 109.082 373.622C108.284 373.622 107.617 373.636 106.715 373.643C106.482 373.65 106.619 373.656 106.543 373.663Z" fill="#202020"/>
<path d="M80.1555 250.452C94.3126 250.307 102.258 250.404 115.638 250.342L123.108 250.59C137.602 250.514 129.513 250.383 140.038 250.252C143.346 250.273 147.57 250.301 152.138 250.321C154.422 250.321 156.795 250.321 159.189 250.328H159.581L159.897 250.363L160.812 250.459L162.642 250.617C163.86 250.7 165.077 250.762 166.274 250.782C171.069 250.885 175.602 250.583 179.31 250.301C181.167 250.149 182.832 250.012 184.229 249.895C185.659 249.709 186.829 249.53 187.613 249.372C189.821 249.014 188.473 249.324 186.265 249.743C185.701 249.833 185.089 249.929 184.469 250.025C183.857 250.087 183.245 250.142 182.66 250.204C181.518 250.314 180.514 250.418 179.984 250.466C181.044 250.376 182.041 250.287 182.97 250.211C183.444 250.17 183.905 250.129 184.346 250.087C184.793 250.032 185.233 249.957 185.659 249.895C187.359 249.633 188.783 249.324 190.096 249C192.704 248.347 194.76 247.652 196.9 246.84C199.039 246.015 201.254 245.038 204.088 243.587C205.492 242.837 207.067 241.998 208.828 240.931C209.716 240.409 210.637 239.824 211.628 239.191C212.116 238.868 212.625 238.537 213.148 238.193C213.41 238.015 213.671 237.836 213.939 237.657L214.345 237.382L214.551 237.244C214.593 237.217 214.772 237.1 214.847 237.024L215.171 236.845C220.137 232.69 224.519 227.572 228.248 221.89C229.176 220.466 230.077 219.015 230.937 217.529C231.371 216.786 231.79 216.043 232.21 215.279C232.63 214.523 233.049 213.759 233.4 212.954C234.122 211.351 234.934 209.776 235.491 208.098C235.801 207.265 236.104 206.433 236.413 205.601C236.661 204.748 236.902 203.888 237.149 203.028C237.693 201.322 237.988 199.547 238.353 197.786C238.559 196.905 238.635 196.004 238.752 195.11C238.862 194.216 238.972 193.315 239.075 192.413C239.289 188.795 239.385 185.129 238.972 181.476C238.69 177.809 237.906 174.191 237.018 170.593C235.966 167.043 234.803 163.501 233.207 160.13C231.722 156.711 229.809 153.478 227.821 150.314L226.205 148.016L225.393 146.867L225.173 146.558C225.097 146.42 224.891 146.255 224.843 146.193L224.354 145.705L220.426 141.791L218.466 139.83L217.482 138.853C217.131 138.544 216.76 138.241 216.395 137.931C215.666 137.326 214.95 136.693 214.201 136.115L211.91 134.457C211.167 133.88 210.328 133.439 209.544 132.93C208.746 132.435 207.954 131.926 207.108 131.513C206.276 131.08 205.45 130.626 204.618 130.206L202.059 129.057C195.18 126.113 187.875 124.448 180.617 123.685C176.985 123.306 173.36 123.1 169.762 123.128C167.967 123.1 166.171 123.19 164.389 123.238C162.628 123.334 160.874 123.485 159.12 123.451C161.026 123.478 161.734 123.423 162.154 123.423C162.573 123.423 162.704 123.437 163.433 123.423C133.833 123.816 101.914 123.41 71.5911 123.884C64.0723 124.118 56.6292 123.362 49.4956 121.869C47.7208 121.49 45.9322 121.091 44.2056 120.644L43.559 120.479L42.9261 120.259L41.6672 119.819L40.4152 119.379L39.1908 118.863C38.3859 118.505 37.5467 118.216 36.7693 117.803C35.9782 117.411 35.194 117.026 34.4098 116.641C32.8964 115.774 31.3693 114.942 29.9453 113.965C27.0768 112.066 24.3802 109.975 21.9725 107.664C19.558 105.366 17.3085 102.958 15.3686 100.399C13.4012 97.8609 11.6264 95.2537 10.113 92.5778C8.56524 89.9225 7.24446 87.219 6.13693 84.5293C9.09492 91.9036 13.9447 100.145 21.0989 107.251C24.6897 110.773 28.8447 113.985 33.4536 116.593C38.0557 119.227 43.1393 121.153 48.45 122.199C53.7262 123.375 59.0919 124.153 64.4162 124.428C67.0784 124.565 69.72 124.586 72.334 124.49C73.641 124.462 74.9412 124.311 76.2276 124.345C77.5208 124.345 78.8003 124.345 80.073 124.338C90.2471 124.311 99.7539 124.256 107.906 124.146C119.985 124.325 138.586 124.063 143.601 124.318C149.421 124.318 154.807 124.331 159.87 124.331C161.136 124.366 162.374 124.228 163.598 124.18C164.823 124.098 166.034 124.098 167.224 124.056C169.604 124.015 171.922 124.022 174.178 124.132C183.197 124.524 191.328 125.927 198.943 128.748C202.747 130.144 206.434 131.878 209.915 134.127C213.396 136.349 216.76 139.039 219.773 142.231C220.557 143.008 221.348 143.792 222.146 144.583C222.545 144.982 222.951 145.381 223.357 145.78L223.969 146.386C224.168 146.599 224.375 146.757 224.609 147.053C225.283 148.002 225.964 148.965 226.652 149.942L227.168 150.678L227.642 151.449C227.959 151.965 228.282 152.487 228.605 153.01C231.151 157.22 233.455 161.953 235.23 167.312C236.159 170.407 236.351 171.219 236.337 171.487C236.344 171.749 236.214 171.453 236.372 172.375C234.948 166.617 232.74 161.059 229.878 155.865C229.218 154.537 228.378 153.306 227.615 152.04C226.872 150.754 225.964 149.584 225.118 148.367L224.478 147.459C224.375 147.314 224.265 147.142 224.12 147.012L223.728 146.62L222.153 145.058L219.002 141.935L222.806 145.773L223.756 146.737C223.914 146.902 224.072 147.046 224.23 147.225L224.616 147.782L226.163 150.004C226.7 150.733 227.161 151.504 227.622 152.281L229.025 154.592C229.458 155.383 229.864 156.188 230.291 156.986C230.697 157.791 231.158 158.569 231.501 159.401C230.47 157.303 228.963 154.503 227.071 151.559C226.638 150.802 226.074 150.1 225.565 149.357C225.035 148.635 224.533 147.844 223.962 147.149C222.662 145.856 221.348 144.549 220.068 143.276C218.789 142.011 217.564 140.766 216.388 139.644C215.762 139.121 215.164 138.626 214.593 138.145C214.022 137.663 213.485 137.209 212.935 136.844C211.848 136.088 210.947 135.4 210.183 134.946C209.42 134.492 208.863 134.175 208.574 134.031C208.986 134.285 209.399 134.533 209.819 134.795C210.245 135.042 210.658 135.31 211.057 135.613C211.869 136.191 212.694 136.783 213.533 137.381C214.324 138.041 215.129 138.709 215.948 139.39C216.368 139.713 216.746 140.098 217.124 140.477C217.509 140.855 217.895 141.24 218.28 141.625C219.835 143.166 221.424 144.742 223.04 146.351L223.646 146.957C223.852 147.17 224.051 147.335 224.203 147.583C224.533 148.05 224.87 148.525 225.2 148.993C225.854 149.949 226.576 150.871 227.168 151.889C229.754 155.824 231.887 160.199 233.634 164.753C235.347 169.32 236.668 174.115 237.3 178.979C238.608 188.699 237.583 198.611 234.404 206.969C234.212 207.492 234.019 208.015 233.827 208.531C233.73 208.786 233.641 209.054 233.538 209.301L233.194 210.044C232.733 211.035 232.286 212.012 231.839 212.982C230.869 214.874 229.83 216.669 228.805 218.389C226.734 221.821 224.588 224.889 222.456 227.517C224.499 225.075 226.48 222.317 228.351 219.338C229.293 217.852 230.188 216.297 231.075 214.715C231.295 214.316 231.515 213.917 231.735 213.511C231.949 213.106 232.127 212.679 232.327 212.266C232.719 211.427 233.111 210.588 233.503 209.742C233.902 208.896 234.177 208.001 234.521 207.121L235.017 205.793L235.264 205.126L235.457 204.445C235.973 202.622 236.551 200.806 236.867 198.921C237.706 195.199 237.982 191.368 238.078 187.598C238.071 186.766 238.057 185.885 238.05 184.97C238.037 184.516 238.05 184.048 238.023 183.581C237.982 183.113 237.947 182.645 237.906 182.177C237.83 181.235 237.748 180.299 237.672 179.384C237.534 178.476 237.404 177.603 237.28 176.784C237.073 175.133 236.723 173.744 236.53 172.787C236.331 171.831 236.241 171.322 236.31 171.48C239.158 181.937 239.103 192.689 236.461 202.526L235.945 204.362L235.684 205.277L235.354 206.172C234.907 207.355 234.494 208.559 234.012 209.721C233.483 210.87 232.946 212.012 232.416 213.161C231.859 214.289 231.233 215.376 230.614 216.463C228.124 220.796 225.324 224.951 222.07 228.755C220.447 230.661 218.7 232.47 216.849 234.169C216.381 234.589 215.92 235.015 215.439 235.421L214.717 236.033L214.359 236.336C214.304 236.377 214.235 236.453 214.146 236.508L213.939 236.646C212.907 237.361 211.855 238.049 210.802 238.73C206.551 241.434 202.045 243.855 197.209 245.705C192.387 247.542 187.221 248.856 181.876 249.193C176.6 249.626 171.186 250.019 165.607 249.867C164.211 249.819 162.752 249.743 161.266 249.606C160.895 249.565 160.523 249.53 160.152 249.489L159.622 249.434H159.113C158.363 249.434 157.614 249.434 156.864 249.434C153.865 249.434 150.893 249.427 148.203 249.42C142.831 249.399 138.614 249.365 137.699 249.31C144.97 249.269 139.48 249.172 145.451 249.117C129.781 249.214 143.876 249.544 121.21 249.496L124.113 249.083C115.101 249.516 96.3832 249 80.2449 249.248C74.439 249.083 85.1359 248.987 97.5457 248.98C83.4574 248.904 82.1917 249.152 70.9445 249.131L81.6001 248.787C78.6077 248.87 75.7735 248.904 73.0976 248.918C70.4216 248.904 67.9039 248.884 65.5444 248.87C60.8391 248.884 56.7667 249.214 53.4166 249.764C53.0245 249.874 54.4003 249.737 54.0151 249.874C53.8225 249.936 53.1965 250.087 51.7038 250.411C50.211 250.748 47.8515 251.257 44.295 252.419C41.2476 253.431 40.5253 253.74 40.3533 253.775C40.1813 253.809 40.5803 253.603 39.8718 253.871C39.5072 254.063 38.0832 254.703 35.71 255.955C33.3367 257.207 30.0279 259.133 26.1206 262.146C25.3776 262.662 26.6159 261.582 28.1912 260.433C28.9754 259.849 29.8284 259.236 30.5369 258.776C31.2455 258.301 31.7683 257.923 31.899 257.826C25.4946 261.699 20.9957 265.923 17.3291 269.906C15.1622 272.41 14.268 273.744 13.8827 274.288C13.5044 274.838 13.6832 274.632 13.9584 274.302C14.5225 273.648 15.4099 272.458 13.1123 275.767C10.2231 279.929 9.08805 282.35 8.44829 283.423C7.87045 284.538 7.88421 284.379 8.06307 283.857C8.42766 282.818 9.5627 280.341 7.73287 283.636C9.35633 280.149 11.5095 276.599 13.9859 273.256C16.4555 269.906 19.3241 266.831 22.2683 264.169C25.2125 261.507 28.2462 259.285 31.0322 257.565C33.8113 255.838 36.3291 254.593 38.2071 253.719C29.1542 257.751 21.1608 264.045 15.004 271.777C15.2723 271.412 14.5569 272.162 13.6213 273.4C13.1398 274.013 12.5895 274.735 12.0667 275.492C11.5232 276.235 11.0073 277.012 10.567 277.7C10.1061 278.381 9.73468 278.993 9.48703 279.406C9.2325 279.819 9.08805 280.039 9.12244 279.949C9.19811 279.784 9.87226 278.346 12.0736 275.079C9.94793 278.119 8.02867 281.435 6.41897 284.971C4.8024 288.507 3.52977 292.277 2.61486 296.163C1.69995 300.057 1.1565 304.081 0.991404 308.133C0.846944 312.191 1.08771 316.271 1.69995 320.288C2.31906 324.305 3.29589 328.254 4.65106 332.037C6.00623 335.821 7.71223 339.439 9.71404 342.803C13.7108 349.552 18.8563 355.268 24.3939 359.719C23.6097 359.086 22.8049 358.37 22.0413 357.669C21.2571 356.988 20.5692 356.265 19.9638 355.674C18.76 354.484 18.079 353.638 18.3885 353.927C20.9338 356.568 22.9356 358.309 24.4558 359.54C25.9555 360.799 27.0011 361.514 27.7028 362.085C29.1749 363.131 29.4019 363.406 30.6539 364.245C31.2386 364.596 31.782 364.919 32.2911 365.222C32.807 365.511 33.2954 365.765 33.7426 366.006C34.1966 366.24 34.6093 366.474 35.0014 366.667C35.4004 366.852 35.7719 367.024 36.1227 367.183C36.8175 367.492 37.4022 367.774 37.9388 367.987C38.4822 368.187 38.9569 368.359 39.3971 368.524C39.8443 368.682 40.257 368.833 40.6766 368.978C41.1031 369.109 41.5365 369.239 42.0112 369.384C42.4858 369.528 43.0018 369.686 43.6002 369.872C44.2056 370.037 44.8866 370.216 45.6846 370.436C51.0227 372.053 55.384 372.651 59.0712 373.085C62.7721 373.491 65.8402 373.614 68.7982 373.711C71.7631 373.8 74.6179 373.786 77.9129 373.766C79.557 373.745 81.3112 373.718 83.2442 373.69C85.1772 373.711 87.2891 373.731 89.6486 373.759L88.4791 373.525C101.845 373.69 103.799 373.326 118.19 373.442C118.988 373.491 113.471 373.566 109.048 373.628C121.801 373.525 120.804 373.807 133.241 373.69L123.377 373.972C133.289 373.945 147.818 373.835 142.707 374.068C147.034 373.993 152.179 373.938 157.799 373.897C160.606 373.876 163.536 373.862 166.543 373.841C169.556 373.828 172.603 373.793 175.685 373.945C181.848 374.213 188.102 375.183 193.928 376.896C196.845 377.742 199.631 378.836 202.252 380.039C203.573 380.624 204.818 381.312 206.056 381.959C207.253 382.674 208.45 383.328 209.55 384.084L208.264 383.486C209.427 384.215 210.844 385.082 212.316 386.244C213.066 386.808 213.864 387.393 214.682 388.033C215.453 388.721 216.257 389.443 217.09 390.186C220.337 393.227 223.721 396.976 226.383 401.179C227.12 402.183 227.704 403.277 228.323 404.336C228.929 405.403 229.575 406.434 230.057 407.528C230.573 408.608 231.082 409.661 231.57 410.693C231.99 411.759 232.389 412.791 232.781 413.788C232.974 414.29 233.173 414.772 233.352 415.253C233.503 415.742 233.655 416.223 233.799 416.691C234.095 417.627 234.37 418.514 234.631 419.346C235.085 421.032 235.395 422.504 235.705 423.666C235.808 424.196 235.856 424.74 235.904 425.276C237.177 432.478 237.197 439.922 235.877 447.151C234.79 452.022 234.157 453.556 233.937 454.01C233.717 454.464 233.861 453.831 233.778 454.23C232.925 456.817 231.928 459.286 230.807 461.611C229.678 463.936 228.433 466.124 227.12 468.188C225.792 470.244 224.368 472.157 222.91 473.959C221.431 475.741 219.903 477.399 218.342 478.94C215.198 481.994 211.917 484.553 208.615 486.658C205.299 488.749 201.97 490.386 198.709 491.673C198.317 491.872 197.636 492.189 196.7 492.539C195.772 492.925 194.582 493.331 193.185 493.791C190.378 494.679 186.691 495.594 182.474 496.165C180.369 496.474 178.127 496.667 175.829 496.798C173.497 496.811 171.103 496.825 168.682 496.839C163.839 496.859 158.921 496.88 154.291 496.901C143.147 496.901 131.9 496.908 120.584 496.915C114.929 496.921 109.254 496.928 103.572 496.935C100.731 496.935 97.8828 496.942 95.0349 496.949H90.763L86.498 496.887C75.1338 496.667 63.5701 496.103 52.2197 498.187C49.3855 498.676 46.5995 499.418 43.8479 500.265C42.4858 500.732 41.1169 501.173 39.7961 501.744C38.4478 502.253 37.1614 502.892 35.8544 503.498C30.7089 506.057 25.9417 509.366 21.7455 513.259C13.3393 521.032 7.12064 531.062 3.99067 541.931C0.853823 552.807 0.957009 564.412 3.76366 575.109C4.52036 577.771 5.33208 580.412 6.41897 582.944C6.90739 584.23 7.53338 585.455 8.09746 586.707C8.40014 587.319 8.73033 587.924 9.03989 588.53C9.34945 589.142 9.68652 589.734 10.0374 590.318C12.7615 595.058 16.1253 599.371 19.9157 603.189C27.517 610.811 36.9551 616.369 46.9916 619.059C52.9901 620.71 60.3782 621.549 68.1378 621.563C75.8974 621.639 84.0353 621.109 91.8017 621.033C87.0483 621.026 83.3749 621.136 80.2449 621.205C77.115 621.281 74.5353 621.322 71.9557 621.343C69.3829 621.343 66.817 621.343 63.7421 621.171C60.6672 620.999 57.0625 620.758 52.488 619.919C45.6296 618.557 41.1513 616.768 37.1546 614.684C36.1502 614.161 35.1734 613.638 34.2103 613.047C33.2266 612.489 32.2773 611.857 31.2799 611.21C29.3124 609.875 27.235 608.383 24.9855 606.422C25.7353 607.096 26.492 607.77 27.29 608.396L28.4663 609.353L29.6839 610.254C25.7766 607.64 23.4309 605.5 21.7249 603.925C20.0395 602.315 19.0489 601.194 18.1271 600.176C17.2535 599.117 16.4211 598.188 15.3136 596.73C14.1854 595.285 12.7339 593.345 10.8078 590.167L11.4407 590.504C10.003 588.337 7.88421 584.258 6.39834 579.91C4.86431 575.576 3.98379 571.029 3.63296 568.374L3.17894 565.994L2.83499 563.593C2.45664 557.698 2.98633 552.814 3.66048 549.051C4.35526 545.274 5.20826 542.585 5.86177 540.927C5.67604 541.264 5.45591 541.601 5.29081 541.952C5.46967 541.429 5.82738 540.363 6.31579 538.932C6.59095 538.23 6.90051 537.432 7.23758 536.565C7.57465 535.699 8.01491 534.797 8.43454 533.828C10.1818 529.975 12.8509 525.621 15.6163 522.064C18.3541 518.487 21.202 515.749 22.6398 514.477C24.1119 513.225 24.0569 513.28 21.6148 515.742C22.1926 515.123 22.8117 514.566 23.4515 513.954C23.7748 513.651 24.0981 513.328 24.4558 513.018C24.8204 512.709 25.1988 512.386 25.6046 512.035C27.2281 510.659 29.3262 509.035 32.5181 507.123L33.605 506.745C38.2346 504.076 43.5383 501.991 48.1266 500.884C52.7081 499.756 56.4778 499.302 58.0325 499.219C55.1364 499.57 53.2309 499.955 51.8138 500.278C50.3899 500.574 49.4749 500.891 48.5532 501.145C54.0426 499.831 58.4452 499.377 61.8847 499.109C65.3311 498.854 67.8351 498.765 69.6787 498.71C73.3728 498.6 74.4253 498.538 75.3127 498.442C76.2001 498.359 76.9223 498.249 79.9835 498.242C81.5175 498.249 83.6363 498.27 86.6493 498.283C88.1627 498.283 89.9031 498.332 91.898 498.318C93.893 498.311 96.1493 498.304 98.7083 498.29L98.2336 498.449L108.628 498.27L119.531 498.442C126.912 498.167 141.29 498.153 156.912 498.167C160.819 498.167 164.802 498.173 168.771 498.18C170.759 498.18 172.741 498.18 174.708 498.18C175.203 498.18 175.692 498.187 176.18 498.173C176.675 498.139 177.178 498.111 177.673 498.077C178.67 498.029 179.64 497.919 180.61 497.829C188.377 497.052 195.579 494.968 201.268 492.361C205.753 490.352 210.809 487.573 216.079 483.232C221.307 478.891 226.831 472.955 231.288 464.666L230.483 465.615C232.389 462.375 235.271 456.624 237.018 449.167C238.862 441.751 239.185 432.671 237.713 423.893C236.104 415.143 232.767 406.751 228.674 400.395C226.652 397.203 224.561 394.451 222.627 392.222C221.637 391.128 220.729 390.124 219.924 389.23C219.057 388.398 218.287 387.661 217.647 387.035C216.326 385.811 215.226 385.061 214.469 384.49C213.705 383.933 213.258 383.603 213.038 383.445C212.598 383.135 213.1 383.52 213.946 384.174C214.366 384.497 214.882 384.896 215.404 385.302C215.666 385.508 215.934 385.715 216.196 385.914C216.436 386.134 216.677 386.354 216.904 386.561C217.798 387.393 218.473 388.033 218.383 388.019C217.73 387.441 217.09 386.877 216.471 386.327C215.858 385.777 215.184 385.336 214.572 384.855C213.32 383.933 212.185 382.997 211.009 382.275C208.718 380.727 206.565 379.585 204.639 378.574C200.738 376.648 197.608 375.486 194.836 374.619C192.057 373.766 189.649 373.105 187.022 372.589C184.394 372.074 181.56 371.599 177.914 371.303C175.774 371.179 174.371 371.131 173.539 371.131C172.706 371.117 172.445 371.117 172.589 371.131C172.871 371.165 174.749 371.193 176.882 371.351C179.007 371.489 181.381 371.757 182.64 371.943C183.898 372.122 184.057 372.17 181.766 371.943C175.251 371.145 170.608 371.282 166.955 371.282C163.282 371.324 160.475 371.358 157.476 371.393C151.477 371.482 144.722 371.571 128.783 371.523C125.619 371.393 137.011 371.413 140.299 371.317C129.086 371.461 113.03 371.516 95.6058 371.544C91.2514 371.564 86.8144 371.523 82.3293 371.599C77.8441 371.723 73.3796 371.812 68.9358 371.716C64.4988 371.62 60.0962 371.344 55.8381 370.725C51.5799 370.113 47.4525 369.171 43.6002 367.857C34.8294 364.837 25.7353 359.031 18.4573 350.666C16.6275 348.588 14.9352 346.339 13.3875 343.952C11.8465 341.565 10.4157 339.068 9.21875 336.426C6.8042 331.164 5.08444 325.44 4.25895 319.545C2.53231 307.761 4.35526 295.276 9.58334 284.675C12.1767 279.365 15.5268 274.515 19.3929 270.298C23.2795 266.102 27.6546 262.532 32.2704 259.718C32.4837 259.553 32.6901 259.381 32.9102 259.223C40.6835 254.683 49.812 251.793 59.5734 250.858C62.0154 250.596 64.485 250.521 67.0028 250.486C69.5618 250.486 72.1414 250.493 74.7486 250.5C79.9698 250.514 85.2873 250.521 90.708 250.535L80.1211 250.404L80.1555 250.452Z" fill="#202020"/>
<path d="M199.665 129.869C200.752 130.316 201.77 130.915 202.809 131.444L203.965 131.96L205.086 132.545C205.829 132.937 206.586 133.316 207.315 133.728C208.739 134.623 210.218 135.434 211.559 136.459C212.233 136.955 212.949 137.415 213.595 137.945L215.528 139.555C216.189 140.064 216.774 140.697 217.386 141.288L219.202 143.084C218.48 142.341 217.805 141.639 217.152 140.972C216.822 140.642 216.512 140.305 216.189 139.995C215.852 139.706 215.522 139.424 215.191 139.142C214.531 138.585 213.898 138.028 213.238 137.498C212.55 137.003 211.862 136.501 211.153 135.992C208.257 134.031 204.921 131.988 199.658 129.876L199.665 129.869Z" fill="#202020"/>
<path d="M203.937 131.053C200.697 129.532 197.326 128.335 193.901 127.338C199.438 128.948 204.79 131.252 209.667 134.355L208.271 133.467L207.576 133.02L206.854 132.621C205.884 132.098 204.928 131.541 203.937 131.053Z" fill="#202020"/>
<path d="M82.7902 248.506L85.4386 248.54L124.415 248.375L82.7902 248.506Z" fill="#202020"/>
<path d="M112.212 373.986C107.754 374.103 101.35 374.069 96.7134 374.151L114.853 374.014L112.212 373.986Z" fill="#202020"/>
<path d="M234.088 449.429C233.744 451.067 233.421 452.711 232.953 454.059C232.54 455.421 232.086 456.515 231.852 457.168C231.584 457.808 231.501 457.994 231.722 457.512C231.839 457.278 232.011 456.866 232.258 456.253C232.513 455.641 232.85 454.843 233.221 453.791C233.655 452.539 233.847 451.541 234.047 450.798C234.226 450.055 234.349 449.546 234.425 449.216C234.57 448.556 234.528 448.611 234.425 448.886C234.219 449.443 233.765 450.908 234.088 449.429Z" fill="#202020"/>
<path d="M213.41 482.607C215.797 480.688 217.544 479.064 218.94 477.578C220.357 476.12 221.437 474.82 222.497 473.52C219.848 476.567 218.328 477.998 217.172 479.16C216.581 479.731 216.092 480.247 215.508 480.77C214.93 481.3 214.297 481.898 213.416 482.607H213.41Z" fill="#202020"/>
<path d="M63.9277 0.213157C65.3654 -0.110159 63.4737 0.288826 61.8296 0.47456C61.3343 0.563988 60.8459 0.653416 60.3506 0.729085C61.5475 0.605262 62.7445 0.440165 63.9346 0.206278L63.9277 0.213157Z" fill="#202020"/>
<path d="M55.8448 1.05957C54.4828 1.19027 53.1276 1.33473 51.7793 1.54798C52.7561 1.40352 53.7329 1.28658 54.7167 1.19715C57.998 0.997659 54.2833 1.30034 53.0588 1.45856C58.4038 0.970143 54.9987 1.19027 55.8448 1.05957Z" fill="#202020"/>
<path d="M47.8995 2.32495C47.2666 2.49693 46.8539 2.6689 46.5856 2.75833C46.3242 2.86152 46.2141 2.91655 46.2141 2.91655C46.2141 2.92343 46.3242 2.89591 46.4962 2.834C46.6819 2.77897 46.9158 2.7033 47.1703 2.62075C47.3148 2.51756 48.9657 2.04291 47.8995 2.31807V2.32495Z" fill="#202020"/>
<path d="M47.707 122.22C47.0191 121.959 46.2005 121.663 46.3243 121.69C45.5401 121.429 45.375 121.388 47.707 122.22Z" fill="#202020"/>
<path d="M46.3242 121.69C46.4756 121.738 46.6338 121.793 46.8264 121.855C46.6682 121.8 46.5375 121.752 46.3586 121.69C46.3105 121.676 46.338 121.69 46.3242 121.69Z" fill="#202020"/>
<path d="M7.73279 88.3885C6.44641 85.747 5.89608 84.1923 4.93302 81.592L4.53403 80.0924C4.06626 78.6684 3.97683 78.3451 3.90804 78.1319C3.83237 77.9117 3.78422 77.7948 3.48842 76.7492C3.30956 76.0888 3.14446 75.2289 2.95185 74.3002C2.7386 73.3784 2.58038 72.3672 2.42904 71.4042C2.25707 70.448 2.16076 69.5193 2.07821 68.7557C1.99566 67.9922 1.91999 67.3937 1.91311 67.0704C1.90624 66.6163 1.93375 66.8984 1.96815 67.3455C2.02318 67.7927 2.09885 68.3843 2.12637 68.6181C2.07821 68.1848 2.03006 67.8064 1.99566 67.4693C1.96815 67.1323 1.94751 66.8365 1.93375 66.5682C1.89248 66.0316 1.85808 65.5982 1.82369 65.1373C1.77553 64.6765 1.76865 64.188 1.76178 63.5414C1.76865 62.8948 1.71362 62.0899 1.78241 60.9962L1.80305 60.9274C2.18828 50.5194 5.77226 37.2359 12.383 27.5846C11.929 28.2312 12.0391 28.0662 11.8602 28.3138C15.2034 23.1339 19.9018 18.3392 24.8891 14.4732C29.8833 10.5934 35.2008 7.73168 39.6241 5.66797C36.5766 7.0369 32.5318 9.03182 28.7552 11.5152C24.9579 13.9641 21.484 16.9083 19.097 19.3366C17.2328 21.0358 14.7357 24.0144 14.089 24.833C13.3186 25.7685 12.6995 26.711 12.0803 27.5709C11.5025 28.4514 10.9659 29.2837 10.4844 30.0886C9.5351 31.712 8.74401 33.2117 8.02859 34.7388C6.61151 37.7931 5.40767 40.8956 4.12129 45.3807C3.74982 46.6671 3.89428 46.0342 3.76358 46.3988C4.39645 44.0187 5.10499 41.6454 5.99239 39.3409C5.44207 40.7374 4.95365 42.1682 4.49276 43.599C4.7748 42.6635 5.27697 41.0607 5.81354 39.6574C6.30883 38.2403 6.86603 37.0296 6.92794 36.7613C5.6622 39.7399 4.30014 43.7366 3.3302 47.7196C2.35337 51.7026 1.69299 55.6649 1.52789 58.4784C1.74802 55.83 2.29834 52.5624 2.97937 49.4944C3.27517 48.1461 3.85989 46.0893 3.85301 46.2268C3.2958 48.4006 2.84867 50.4987 2.4772 52.5693C2.2777 53.6012 2.14012 54.633 1.96815 55.6511C1.85808 56.683 1.7549 57.7011 1.65171 58.7261C1.34903 62.8397 1.47286 67.0291 2.18828 71.5693C2.50471 73.8531 3.26141 76.8936 3.33708 77.2651C2.95185 75.7999 3.19262 76.9212 2.88994 75.7104C3.28892 77.2926 3.35772 77.3614 3.44714 77.6091C3.55033 77.8567 3.626 78.297 4.34142 80.5395L4.04562 79.9961C4.66473 81.7709 5.8892 85.4787 7.39572 88.4917C7.6296 89.0489 7.50578 88.8288 7.18247 88.1684C7.02425 87.8382 6.80412 87.4117 6.58399 86.9027C6.37074 86.3936 6.12997 85.8158 5.87545 85.2173C6.42577 86.5793 6.74221 87.3154 7.07928 87.962C7.40947 88.6087 7.67088 89.2071 8.20057 90.2528C7.82222 89.613 7.50578 88.9457 7.14807 88.2922C7.43699 88.8494 7.69152 89.3791 7.93228 89.8813C8.17993 90.3766 8.4207 90.8444 8.6477 91.2846C8.86095 91.718 9.06045 92.1376 9.24618 92.5228C9.44567 92.9012 9.63141 93.2451 9.78963 93.5547C9.89281 93.6854 9.30809 92.5091 10.8559 95.2332C11.5575 96.382 11.1723 95.811 11.3237 96.0862C11.3787 96.155 11.5644 96.4233 11.874 96.891C12.1767 97.3657 12.6169 98.033 13.2016 98.886C13.3874 99.2161 12.383 97.7784 12.2936 97.6752C12.727 98.3219 13.1191 98.9135 13.4837 99.4569C13.862 99.9866 14.1165 100.564 14.6325 100.853C15.8638 101.486 15.8088 101.486 15.6712 101.369C15.5199 101.28 15.2653 101.074 15.9945 101.534C16.0977 101.624 16.194 101.699 16.2766 101.803C16.3454 101.899 16.4073 101.988 16.4692 102.071C16.5861 102.236 16.6893 102.381 16.7787 102.504C16.9438 102.745 17.0608 102.917 17.1433 103.034C17.2878 103.254 17.2534 103.24 17.1777 103.158C17.0126 102.993 16.648 102.559 17.0814 103.213C16.8407 102.89 16.593 102.559 16.3385 102.222L16.1459 101.968C16.0977 101.899 16.0289 101.844 15.9464 101.768C15.7882 101.638 15.6162 101.528 15.4373 101.431C15.0727 101.239 14.6531 101.067 14.2954 100.785C14.206 100.709 14.1303 100.647 14.034 100.558C13.9446 100.441 13.9033 100.372 13.8414 100.282C13.7244 100.11 13.6075 99.9385 13.4906 99.7665C13.0297 99.0854 12.5894 98.4457 12.2042 97.8885C11.8396 97.3175 11.53 96.8291 11.2961 96.4645C11.8327 97.3313 12.383 98.1981 12.9677 99.0373L13.8345 100.31C14.1303 100.812 14.6531 101.06 15.1003 101.287C14.9145 101.232 15.9051 101.638 16.1871 102.174C16.3798 102.456 16.5242 102.663 16.4967 102.635C16.4829 102.621 16.4279 102.552 16.311 102.401C16.2559 102.325 16.1803 102.229 16.0908 102.119C16.0702 102.092 16.0427 102.057 16.022 102.03C16.0014 101.995 16.0014 102.002 15.9739 101.982C15.9189 101.926 15.8501 101.871 15.7813 101.816C15.8501 101.871 15.912 101.926 15.9739 101.988C15.9945 102.002 16.0564 102.098 16.1115 102.174L16.4554 102.649C16.6893 102.965 16.9232 103.289 17.1571 103.612C17.6661 104.231 18.1614 104.884 18.7118 105.504C19.2621 106.116 19.8124 106.749 20.4178 107.333C20.9956 107.939 21.6147 108.51 22.2407 109.074C24.724 111.344 27.4963 113.222 30.0209 114.715C29.3055 114.281 28.4043 113.703 28.5694 113.765C31.1628 115.348 30.8739 115.176 31.3967 115.513C32.3804 116.056 32.8413 116.249 33.2059 116.407C33.5774 116.565 33.8801 116.696 34.4579 116.943C36.5285 117.975 37.7598 118.464 38.9018 118.938C40.0437 119.406 41.1306 119.805 42.9673 120.507L42.7609 120.362C45.2099 121.284 45.7258 121.38 48.1059 122.247C48.271 122.288 48.4499 122.337 48.6356 122.385C48.7113 122.412 48.4843 122.364 48.0922 122.275C47.7276 122.151 47.2323 121.986 46.792 121.841C47.3355 122.034 47.7551 122.178 48.0853 122.295C49.3992 122.632 49.6744 122.756 51.6693 123.217L49.6468 122.798C51.6486 123.313 54.6342 123.939 53.5748 123.767C55.3564 124.118 57.8329 124.559 60.447 124.703C61.754 124.786 63.0954 124.779 64.3749 124.772C65.6613 124.765 66.8995 124.758 68.0345 124.751L67.7387 124.813C70.0707 124.744 76.3238 124.799 78.3462 124.703L78.6902 124.724L83.3404 124.62C85.4454 124.614 84.73 124.71 84.902 124.682C89.5178 124.641 93.1431 124.6 96.1079 124.607C96.8509 124.524 101.714 124.455 105.574 124.4C124.188 124.249 144.179 123.871 161.5 123.595C164.094 123.561 167.664 123.444 170.897 123.375C166.935 123.396 166.556 123.437 162.663 123.479C159.732 123.492 158.652 123.417 156.135 123.396L157.414 123.451C153.459 123.554 154.683 123.451 151.56 123.554L151.691 123.444C150.59 123.513 147.825 123.499 146.69 123.485L145.665 123.575C143.174 123.568 141.551 123.575 140.787 123.513L141.035 123.575C140.093 123.54 131.452 123.706 134.404 123.554C133.681 123.582 133.021 123.623 131.439 123.637L131.198 123.575C128.914 123.623 126.369 123.671 125.708 123.637C126.947 123.602 127.359 123.568 127.765 123.534C118.114 123.644 125.729 123.781 117.178 123.898L117.275 123.85L115.108 123.926L112.831 123.898C109.749 124.091 100.827 124.022 95.6677 124.146C93.6452 124.146 90.9487 124.146 87.1101 124.146L87.3647 124.215C84.2485 124.18 72.6641 124.18 69.7543 124.022C66.8307 124.077 70.0639 124.036 69.9951 124.091C67.1403 124.125 65.6131 124.118 64.423 124.091C63.233 124.063 62.3937 124.05 60.9147 123.96C59.1812 123.871 59.8416 123.919 60.7084 123.981C61.5751 124.036 62.6414 124.07 61.7058 124.07C59.0436 123.946 57.9705 123.774 56.7391 123.623C55.5078 123.444 54.1251 123.231 50.9057 122.419C50.2728 122.227 52.5773 122.804 53.2515 122.921C51.8963 122.639 50.1559 122.213 48.2573 121.745C46.1041 120.981 43.6758 120.115 41.2131 119.241C38.7711 118.361 36.329 117.322 34.1621 116.249C30.6331 114.474 26.4163 111.901 22.6878 108.482C20.8236 106.783 19.0832 104.884 17.5836 102.876L17.0333 102.119L16.7581 101.741L16.5999 101.521C16.4898 101.39 16.4417 101.362 16.366 101.294C15.7882 100.791 15.1278 100.606 14.7563 100.303C14.7013 100.269 14.66 100.227 14.6118 100.186C14.5637 100.138 14.5155 100.097 14.5224 100.104L14.2816 99.739C14.1165 99.4844 13.9515 99.2368 13.7864 98.9891C13.4562 98.4939 13.1328 98.0054 12.8095 97.517L12.6995 97.3863C10.6701 94.1257 8.57891 90.5004 6.83164 86.3592C7.08616 87.0471 7.40948 87.7006 7.70527 88.3748L7.73279 88.3885Z" fill="#202020"/>
<path d="M7.73283 34.8291L7.36824 35.4758C7.05868 36.1224 6.79728 36.7828 6.529 37.4432C6.25384 38.1036 5.99243 38.764 5.75854 39.4381C6.07498 38.6264 6.33638 38.0279 6.61843 37.34C6.76289 36.996 6.90735 36.6383 7.07932 36.2256C7.27194 35.8197 7.48519 35.3657 7.73971 34.8223L7.73283 34.8291Z" fill="#202020"/>
<path d="M7.50582 35.7364C7.82225 35.0622 8.1043 34.3743 8.44137 33.707C8.15245 34.2367 7.92544 34.7939 7.66404 35.3374C7.40951 35.8808 7.14811 36.4243 6.92798 36.9883C7.10683 36.5618 7.29945 36.1491 7.50582 35.7364Z" fill="#202020"/>
<path d="M6.99675 88.1279L6.76974 87.6258C5.6691 85.1493 4.63724 82.6247 3.85303 80.0244C4.69915 82.8035 5.78604 85.5001 6.99675 88.1279Z" fill="#202020"/>
<path d="M47.4042 122.178C46.5168 121.896 45.2579 121.435 44.343 121.133L47.9201 122.378L47.4042 122.185V122.178Z" fill="#202020"/>
<path d="M83.9251 124.999C85.3628 124.882 86.7936 124.978 84.8744 124.896C82.6043 124.93 84.5717 124.957 83.9251 124.999Z" fill="#202020"/>
<path d="M92.462 124.785C91.155 124.792 90.4327 124.813 89.7173 124.833C91.4439 124.868 91.499 124.813 92.462 124.785Z" fill="#202020"/>
<path d="M64.0721 0.185433C64.7118 0.137279 63.8726 0.0753678 63.1503 0.0478516L62.5037 0.233586L64.0721 0.185433Z" fill="#202020"/>
<path d="M60.5501 0.240234L58.7959 0.549792L60.0616 0.364057C61.4856 0.34342 59.8828 0.56355 59.3531 0.639219C61.6645 0.41909 60.1786 0.364057 60.5432 0.240234H60.5501Z" fill="#202020"/>
<path d="M57.083 0.674211C55.9549 0.804913 56.2851 0.880583 56.7597 0.853067C56.8285 0.798034 57.5577 0.646695 57.083 0.674211Z" fill="#202020"/>
<path d="M4.71289 42.4985C4.83671 42.2027 4.97429 41.8519 4.98805 41.9138C5.0706 41.5629 5.0706 41.4804 4.71289 42.4985Z" fill="#202020"/>
<path d="M4.98796 41.9062C4.97425 41.9748 4.95368 42.0434 4.93311 42.1325C4.95368 42.064 4.96739 42.0091 4.99482 41.9268C4.99482 41.9063 4.99482 41.9131 4.99482 41.9062H4.98796Z" fill="#202020"/>
<path d="M17.384 22.9137C18.1545 21.9162 18.6222 21.3865 19.434 20.5129L19.998 20.1277C20.8579 19.1646 20.2938 19.6255 20.9061 18.9101C21.367 18.5386 22.0274 17.9057 22.6258 17.321C23.2243 16.7363 23.809 16.2479 24.0154 16.0622C24.3525 15.8558 23.7127 16.4474 23.5958 16.5987C24.153 16.0897 24.3869 15.8214 24.662 15.5325C24.9303 15.2367 25.2536 14.9271 25.9966 14.3493L26.0447 14.363C26.4781 13.9984 26.9184 13.6201 27.3724 13.2349C27.8539 12.8772 28.3423 12.5057 28.8376 12.1342C29.8213 11.3706 30.9289 10.6965 32.0157 9.96732C34.2514 8.60527 36.5903 7.28449 38.8673 6.232C38.5508 6.3627 38.6196 6.30079 38.4889 6.3283C40.876 5.16574 43.5657 4.18892 46.1453 3.32216C47.4455 2.93005 48.7043 2.50355 49.9219 2.20775C50.5204 2.04266 51.1051 1.87756 51.6692 1.71934C52.2264 1.58176 52.763 1.44418 53.2858 1.31348C51.8618 1.56112 49.9563 1.93947 48.0646 2.40725C47.1221 2.66865 46.1797 2.90942 45.3061 3.21209C44.4393 3.52165 43.6413 3.82433 42.9672 4.12013C41.9147 4.40905 40.4151 5.17262 39.9335 5.20014C38.9705 5.61976 38.1587 5.99123 37.4227 6.34206C36.6935 6.70665 36.0606 7.07812 35.4278 7.42895C34.788 7.7729 34.1758 8.15125 33.5016 8.57775C32.8344 8.99737 32.0777 9.417 31.2384 9.9742C30.7362 10.2631 30.9357 10.0567 30.7638 10.0843C31.2109 9.78846 31.6443 9.47891 32.0983 9.20375L33.4672 8.37826L31.7475 9.30693C32.4422 8.81852 34.2514 7.84169 34.3959 7.60781C33.2196 8.37138 31.6305 9.26566 30.1584 10.2631C29.4017 10.7309 28.7 11.2537 28.0534 11.7352C27.4068 12.2168 26.8152 12.657 26.368 13.0835C26.8221 12.7327 27.3449 12.3612 27.8952 11.9691C28.4455 11.5839 28.9958 11.1574 29.5668 10.7859C30.0965 10.5039 30.8876 10.0292 30.8738 10.1187C27.7301 12.3819 25.1161 14.2461 22.2269 16.9702C21.5183 17.665 20.5346 18.5868 20.3695 18.6556C20.8235 18.1878 20.4314 18.4905 20.796 18.0915C19.8192 19.1096 20.8579 18.3529 19.4271 19.7975V19.4466C19.2482 19.825 18.808 20.2721 18.3058 20.7605C17.8243 21.2765 17.2877 21.8474 16.8681 22.439C16.4553 22.7761 17.0401 22.0125 17.7692 21.1595C16.9094 22.0951 16.9369 22.2671 16.2765 23.0306L16.7511 22.1708C16.1733 23.0994 15.506 23.6497 15.0658 24.0831C15.0658 24.1726 15.5335 23.8148 14.6874 24.8742C14.3091 25.3145 14.4535 25.0531 14.3435 25.1425C14.3366 25.2319 14.1302 25.6859 13.6143 26.4151C13.463 26.5114 13.8757 25.8717 13.8551 25.7823C13.4698 26.3326 13.1603 26.7935 12.8301 27.1581C12.1834 28.1624 12.947 27.1443 12.5962 27.7909C11.5712 29.3043 12.3004 27.8185 11.8189 28.3069C12.1422 27.6878 12.5687 27.0205 12.9677 26.4289C13.3598 25.8304 13.7106 25.3007 13.9032 24.9843L12.4036 27.1925C12.4105 26.9998 11.3098 28.6302 12.0046 27.3988C10.4706 29.5795 8.9159 32.4137 7.85653 34.7388C8.04914 34.4292 8.26927 34.0234 8.28303 34.1128C7.72583 35.3097 7.69831 35.1309 7.53321 35.351C7.18238 36.2659 7.34748 36.2246 7.19614 36.8094C6.24683 38.5842 6.27435 38.9006 5.4695 40.4277L5.6346 40.3796C5.09115 41.4734 5.26313 41.721 4.76096 42.9317C4.7128 42.9936 4.83663 42.5052 4.93981 42.1131C4.62338 43.2275 4.46516 43.0831 4.19687 44.1837C4.22439 43.881 4.26566 43.5784 4.3207 43.2826C4.03866 44.1424 3.74974 45.4357 3.74286 44.9542C3.5984 45.7384 3.30948 46.784 3.09623 47.8984C2.97928 48.4556 2.85546 49.0197 2.73164 49.57C2.62845 50.1203 2.55278 50.6569 2.49087 51.1453L2.39456 50.994C2.38768 51.5099 2.18131 52.4248 2.07813 53.3397C1.96118 54.2546 1.858 55.1489 1.88551 55.5961L1.81672 55.7405C1.79609 56.4147 1.81672 57.0957 1.81672 57.7698C1.73417 58.6779 1.58284 58.3614 1.62411 58.4371C1.54844 59.4414 1.58284 60.3426 1.54844 61.1474C1.52092 61.9523 1.50029 62.6746 1.49341 63.3212C1.64475 63.6445 1.74105 65.7564 1.90615 67.428C2.17443 71.466 2.93801 75.621 4.1212 79.5695C5.29752 83.525 6.90722 87.2603 8.68201 90.5554C8.9503 91.0507 9.30113 91.6147 9.67948 92.2063C10.0716 92.7911 10.4912 93.4171 10.8696 93.9811C10.0509 92.4815 9.89273 92.3852 9.10852 90.8993C8.56507 89.7574 8.51692 89.2621 8.13857 88.244C8.17296 88.4297 8.20736 88.6155 8.24863 88.8012C7.43691 87.3016 7.82213 87.7075 7.15487 86.5311L7.375 86.4967C7.09983 86.0977 6.72149 84.9696 6.60454 84.4949L6.31562 84.1372C6.01294 83.1054 5.81345 82.4381 5.84785 82.0873L5.75154 82.2317C5.66899 81.8327 4.51331 78.3107 5.10491 79.4595C4.98797 79.1706 4.83663 78.9229 4.68529 78.2625L4.78847 78.1249C4.49267 77.1963 4.23127 76.1369 4.24503 75.8411C4.38949 76.3501 4.49267 76.5084 4.58898 76.6666C4.14184 74.6579 4.00426 74.4653 3.8598 74.3346C3.72222 74.197 3.55712 74.1282 3.25444 72.319L3.35075 72.3465L3.11686 71.4385C3.10311 71.1083 3.08935 70.785 3.08935 70.4548C2.86234 69.8219 2.70412 68.5355 2.62845 67.1391C2.5459 65.7426 2.52527 64.2293 2.43584 63.1217C2.37393 62.2481 2.62157 61.1062 2.62845 59.4552L2.49087 59.5584C2.5803 58.8911 2.75915 57.3227 2.97928 55.7749C3.25444 54.234 3.53649 52.7137 3.82541 52.1359C3.94235 50.8908 3.77725 52.2597 3.67407 52.2184C3.81853 51.0077 3.94235 50.368 4.09369 49.8796C4.25191 49.398 4.40325 49.061 4.58898 48.4487C4.85726 46.9766 4.27942 49.5562 4.36197 48.7445C4.96733 46.5295 4.63713 46.8872 5.49014 44.1768C5.64148 43.9292 5.3388 44.8991 5.31128 45.1949C5.49014 44.2043 5.96479 42.8561 6.46008 41.3839C7.02416 39.9393 7.62952 38.3778 8.25551 37.0295C8.44125 36.6443 8.63386 36.2384 8.84023 35.8188C9.06036 35.406 9.29425 34.9727 9.53502 34.5255C9.77578 34.0784 10.0166 33.6244 10.2711 33.1566C10.5462 32.7026 10.8214 32.2417 11.0966 31.7739C11.6331 30.8315 12.2522 29.9097 12.8576 29.0154C13.4423 28.1074 14.1027 27.2819 14.6943 26.4839V26.3945C15.2102 25.7479 15.7674 25.0943 16.304 24.3858C16.8337 23.6704 17.4322 22.9618 18.0857 22.2533L17.4184 22.9137H17.384Z" fill="#202020"/>
<path d="M35.1252 7.06445L34.7812 7.11261C34.2378 7.40841 33.7218 7.75924 33.1921 8.08255C33.8938 7.79363 34.1758 7.50471 35.1183 7.06445H35.1252Z" fill="#202020"/>
<path d="M34.9324 7.5597L35.7648 7.07129L34.3821 7.79359C34.5609 7.71104 34.7467 7.63537 34.9324 7.5597Z" fill="#202020"/>
<path d="M16.6963 22.013L16.8614 21.8479L17.9827 20.4789L19.1659 19.165L17.8932 20.5615L16.6963 22.013Z" fill="#202020"/>
<path d="M4.64416 42.3337C4.71983 41.9279 4.9262 41.3844 5.02251 40.9717L4.54785 42.5607L4.64416 42.3406V42.3337Z" fill="#202020"/>
<path d="M1.05322 57.9767C1.21144 58.6233 0.956916 59.2286 1.21144 58.4032C1.25272 57.4057 1.10138 58.2656 1.05322 57.9767Z" fill="#202020"/>
<path d="M1.20462 61.7253C1.22526 61.1544 1.20462 60.8379 1.17711 60.5215C1.06704 61.2713 1.17711 61.3057 1.20462 61.7253Z" fill="#202020"/>
</svg>
