<svg width="60" height="60" viewBox="0 0 60 60" fill="none" xmlns="http://www.w3.org/2000/svg">
<path d="M46.8696 49.9185C46.8518 49.9361 46.8335 49.9531 46.815 49.9697C46.6826 50.0878 46.5324 50.1811 46.37 50.2467C46.3489 50.2553 46.3276 50.2633 46.3062 50.2709" fill="black"/>
<path fill-rule="evenodd" clip-rule="evenodd" d="M40.8325 8.5C41.0407 8.5 41.246 8.57849 41.4029 8.71855L49.2232 15.7693L49.2248 15.7709L49.2317 15.7772C49.4067 15.9371 49.5028 16.1561 49.5028 16.3809V48.8567C49.5028 49.8296 49.1183 50.741 48.4182 51.4297C47.718 52.1185 46.7849 52.5 45.791 52.5H14.2119C13.2154 52.5 12.2854 52.1187 11.5853 51.4275L11.584 51.4263C10.8846 50.7407 10.5 49.8298 10.5 48.8567V12.1433C10.5 11.1704 10.8845 10.259 11.5846 9.57034C12.285 8.88138 13.2153 8.5 14.2119 8.5H40.8325ZM47.2798 16.9695H47.8008L44.5 14L40.8875 10.4841V16.9695H46.5845H47.2798ZM46.37 51.106V50.7755C46.1837 50.8303 45.9881 50.8588 45.7881 50.8588H14.2119C13.6728 50.8588 13.1626 50.6544 12.7794 50.2746C12.3926 49.8969 12.1821 49.3884 12.1821 48.8539V12.1433C12.1821 11.6066 12.3942 11.1015 12.7794 10.7226L12.7811 10.7209C13.1638 10.3482 13.6717 10.1384 14.2119 10.1384H39.2083V17.7915C39.2083 18.2373 39.5774 18.6107 40.0465 18.6107H47.8179V48.8567C47.8179 49.3919 47.6067 49.9012 47.2189 50.2791L46.37 51.106Z" fill="black"/>
<path d="M23.4 17H18.4V22H23.4V17Z" stroke="#18B28D" strokeWidth="1.5" stroke-linecap="round" stroke-linejoin="round"/>
<path d="M23.4 27H18.4V32H23.4V27Z" stroke="#18B28D" strokeWidth="1.5" stroke-linecap="round" stroke-linejoin="round"/>
<path d="M18.5166 35.3276H41.4832C41.9551 35.3276 42.3242 35.7039 42.3242 36.1468C42.3242 36.5884 41.9564 36.9633 41.4832 36.9633H18.5166C18.0426 36.9633 17.6755 36.5905 17.6755 36.1468C17.6755 35.7018 18.044 35.3276 18.5166 35.3276Z" fill="#18B28D"/>
<path d="M18.5166 40.2719H41.4832C41.9558 40.2719 42.3242 40.646 42.3242 41.0911C42.3242 41.5361 41.9558 41.9103 41.4832 41.9103H18.5166C18.044 41.9103 17.6755 41.5361 17.6755 41.0911C17.6755 40.646 18.044 40.2719 18.5166 40.2719Z" fill="#18B28D"/>
<path d="M18.5166 45.2134H30.676C31.1486 45.2134 31.5171 45.5875 31.5171 46.0326C31.5171 46.4776 31.1486 46.8518 30.676 46.8518H18.5166C18.044 46.8518 17.6755 46.4776 17.6755 46.0326C17.6755 45.5875 18.044 45.2134 18.5166 45.2134Z" fill="#18B28D"/>
</svg>
