<svg width="60" height="60" viewBox="0 0 60 60" fill="none" xmlns="http://www.w3.org/2000/svg">
<path fill-rule="evenodd" clip-rule="evenodd" d="M10.3331 44.4712C8.44179 44.4712 6.88686 43.1504 6.5 41.4058V12.56C6.89476 10.7964 8.47546 9.5 10.3331 9.5H49.5719C51.7622 9.5 53.497 11.274 53.497 13.4193V40.5519C53.497 42.7113 51.7362 44.4712 49.5689 44.4712H47.2395L51.7235 48.9529C52.077 49.306 52.077 49.8812 51.7235 50.2342C51.5457 50.4117 51.3127 50.5 51.0796 50.5C50.8476 50.5 50.6171 50.4124 50.4386 50.2341L44.0923 43.8994L43.7458 44.1591C42.2127 45.3081 40.317 45.9799 38.2523 45.9799C36.4419 45.9799 34.7508 45.4543 33.3266 44.5492L33.2039 44.4712H30.8608V48.6872H37.4984C38.0019 48.6872 38.4082 49.0937 38.4082 49.5921C38.4082 50.0919 38.0005 50.5 37.4984 50.5H22.4096C21.9052 50.5 21.4998 50.0926 21.4998 49.5921C21.4998 49.093 21.9038 48.6872 22.4096 48.6872H29.0442V44.4712H10.3331ZM47.4749 36.6296H51.6835V13.4193C51.6835 12.8584 51.4656 12.3275 51.0649 11.9303C50.6672 11.5302 50.1359 11.3128 49.5749 11.3128H10.3361C9.77424 11.3128 9.24372 11.5307 8.84398 11.9295C8.44271 12.3268 8.22454 12.858 8.22454 13.4193V36.6296H29.0356L29.0669 36.163C29.3877 31.3794 33.3853 27.5864 38.2552 27.5864C43.1251 27.5864 47.1228 31.3794 47.4436 36.163L47.4749 36.6296ZM8.22454 40.5489C8.22454 40.7677 8.2581 40.9814 8.32231 41.1841C8.32231 41.1841 8.44031 41.6386 8.84015 42.0379C9.23999 42.4372 9.77087 42.6554 10.3331 42.6554H31.1123L30.5923 41.8775C29.9811 40.9634 29.5281 39.9347 29.275 38.8307L29.1859 38.4424H8.22454V40.5489ZM45.9149 41.8781L45.3968 42.6554H49.5749C50.7378 42.6554 51.6835 41.7119 51.6835 40.5489V38.4424H47.3218L47.2326 38.8304C46.9795 39.9315 46.5264 40.9605 45.9149 41.8781ZM30.8608 36.7787C30.8608 40.8494 34.1778 44.1611 38.2523 44.1611C42.3267 44.1611 45.6438 40.8494 45.6438 36.7787C45.6438 32.7081 42.3298 29.3963 38.2523 29.3963C34.1747 29.3963 30.8608 32.7081 30.8608 36.7787Z" fill="black"/>
<path d="M14.8622 24.879H14.7056C12.6119 24.7981 10.9312 23.0705 10.9312 20.9626C10.9312 20.4585 11.3372 20.0517 11.8409 20.0517C12.3459 20.0517 12.7507 20.4569 12.7507 20.9596C12.7507 22.1202 13.6821 23.0661 14.8593 23.0661C16.0365 23.0661 16.9708 22.1143 16.9708 20.9596V15.8388H14.8622C14.3602 15.8388 13.9525 15.4307 13.9525 14.9309C13.9525 14.431 14.3602 14.0229 14.8622 14.0229H17.8806C18.3827 14.0229 18.7904 14.431 18.7904 14.9309V20.9596C18.7904 23.1423 17.0123 24.879 14.8622 24.879Z" fill="#18B28D"/>
<path fill-rule="evenodd" clip-rule="evenodd" d="M39.2387 19.1427L38.9974 19.451L39.2387 19.7592C39.6629 20.301 39.9159 20.979 39.9159 21.7125C39.9159 23.4572 38.4932 24.879 36.7446 24.879H32.9724C32.469 24.879 32.0627 24.4725 32.0627 23.974V14.9309C32.0627 14.431 32.4704 14.0229 32.9724 14.0229H36.7446C38.4932 14.0229 39.9159 15.4447 39.9159 17.1894C39.9159 17.9257 39.6631 18.6008 39.2387 19.1427ZM33.8792 20.3589V23.0661H36.7446C37.1642 23.0661 37.515 22.9027 37.7555 22.6303C37.9876 22.3674 38.0927 22.0316 38.0927 21.7125C38.0927 21.3934 37.9876 21.0576 37.7555 20.7947C37.515 20.5223 37.1642 20.3589 36.7446 20.3589H33.8792ZM33.8792 15.8358V18.5431H36.7446C37.1642 18.5431 37.515 18.3796 37.7555 18.1073C37.9876 17.8444 38.0927 17.5085 38.0927 17.1894C38.0927 16.8704 37.9876 16.5345 37.7555 16.2716C37.515 15.9992 37.1642 15.8358 36.7446 15.8358H33.8792Z" fill="#18B28D"/>
<path fill-rule="evenodd" clip-rule="evenodd" d="M29.3532 20.9596C29.3532 23.1425 27.5778 24.879 25.425 24.879C23.2803 24.879 21.4999 23.1505 21.4999 20.9596V17.9452C21.4999 15.7587 23.2374 14.0229 25.425 14.0229C27.6105 14.0229 29.3532 15.7921 29.3532 17.9452V20.9596ZM25.425 15.8388C24.2627 15.8388 23.3164 16.7787 23.3164 17.9452V20.9596C23.3164 22.1262 24.2627 23.0661 25.425 23.0661C26.5874 23.0661 27.5336 22.1262 27.5336 20.9596V17.9452C27.5336 16.7751 26.5868 15.8388 25.425 15.8388Z" fill="#18B28D"/>
</svg>
