<svg width="60" height="60" viewBox="0 0 60 60" fill="none" xmlns="http://www.w3.org/2000/svg">
<path fill-rule="evenodd" clip-rule="evenodd" d="M50.4227 19.7879L47.9075 26.0775H52.5957C53.097 26.0775 53.503 26.4834 53.503 26.9851V51.0924C53.503 51.5941 53.097 52 52.5957 52C52.0945 52 51.6885 51.5941 51.6885 51.0924V47.4814H8.31153V51.0924C8.31153 51.5934 7.90327 52 7.40429 52C6.90667 52 6.5 51.5948 6.5 51.0924V26.9851C6.5 26.482 6.9044 26.0775 7.40429 26.0775H14.0299V25.4769C14.0299 22.5019 15.6074 19.5722 18.498 18.0344L19.0925 17.7181L18.6177 17.2405C17.6459 16.263 17.0455 14.9127 17.0455 13.4263C17.0455 10.4346 19.4795 8 22.4701 8C25.4608 8 27.8947 10.4318 27.8947 13.4263C27.8947 14.9095 27.2944 16.2601 26.3219 17.241L25.8485 17.7185L26.4421 18.0344C28.4516 19.1038 30.9072 21.578 30.9072 25.4769V26.0775H36.9195L39.7033 19.1144C39.84 18.7707 40.1724 18.5454 40.5455 18.5454H49.5802C49.8822 18.5454 50.1645 18.6945 50.3343 18.9443C50.5009 19.1909 50.5353 19.5073 50.4227 19.7879ZM48.246 20.3578H41.1588L38.873 26.0775H45.9602L48.246 20.3578ZM15.8444 25.474V26.0745H29.0957V25.474C29.0957 21.7434 26.0658 18.8466 22.4701 18.8466C18.8737 18.8466 15.8444 21.7559 15.8444 25.474ZM51.6914 45.6602V27.8868H8.31153V45.6602H51.6914ZM22.4701 9.80936C20.4761 9.80936 18.857 11.4292 18.857 13.4233C18.857 15.4151 20.4797 17.0343 22.4701 17.0343C24.4604 17.0343 26.0831 15.4151 26.0831 13.4233C26.0831 11.4324 24.4643 9.80936 22.4701 9.80936Z" fill="black"/>
<path d="M21.8696 35.8717H26.0832V32.2577C26.0832 31.7546 26.4876 31.3501 26.9875 31.3501C27.4881 31.3501 27.8948 31.7583 27.8948 32.2577V41.298C27.8948 41.799 27.4865 42.2056 26.9875 42.2056C26.4899 42.2056 26.0832 41.8004 26.0832 41.298V37.684H21.8696V41.298C21.8696 41.8011 21.4652 42.2056 20.9653 42.2056C20.4641 42.2056 20.0581 41.7997 20.0581 41.298V32.2577C20.0581 31.7567 20.4664 31.3501 20.9653 31.3501C21.4623 31.3501 21.8696 31.7576 21.8696 32.2577V35.8717Z" fill="#18B28D"/>
<path fill-rule="evenodd" clip-rule="evenodd" d="M38.9014 32.3881L38.9035 32.3901C39.5751 33.0593 39.9445 33.9458 39.9449 34.8911C39.9445 35.8256 39.5656 36.738 38.9042 37.3944L38.9006 37.398C38.6982 37.603 38.4749 37.7797 38.2338 37.9219L37.7374 38.2146L39.7465 40.7284C40.057 41.1197 39.9932 41.6924 39.6036 42.0044C39.435 42.1383 39.2355 42.2026 39.0376 42.2026C38.7731 42.2026 38.5086 42.0842 38.3323 41.8622L35.5882 38.4351H33.9168V41.295C33.9168 41.7967 33.5108 42.2026 33.0095 42.2026C32.5083 42.2026 32.1023 41.7967 32.1023 41.295V32.2577C32.1023 31.756 32.5083 31.3501 33.0095 31.3501H36.4005C37.3354 31.3501 38.248 31.7293 38.9014 32.3881ZM36.4005 33.1624H33.9168V36.6228H36.4005C36.8522 36.6228 37.2972 36.4422 37.6154 36.1205L37.6168 36.1191L37.621 36.1148L37.6223 36.1136C37.9516 35.7877 38.1304 35.3489 38.1304 34.8926C38.1304 34.4357 37.9512 33.9965 37.621 33.6704L37.587 33.6367L37.5781 33.6308C37.2624 33.3289 36.8341 33.1624 36.4005 33.1624Z" fill="#18B28D"/>
</svg>
