<svg width="60" height="60" viewBox="0 0 60 60" fill="none" xmlns="http://www.w3.org/2000/svg">
<path fill-rule="evenodd" clip-rule="evenodd" d="M50.0772 44.9742H31.4013V49.1897H38.0299C38.5288 49.1897 38.9342 49.5934 38.9342 50.0949C38.9342 50.5977 38.5274 51.003 38.0299 51.003H22.9671C22.4667 51.003 22.0599 50.5947 22.0599 50.0949C22.0599 49.5964 22.4653 49.1897 22.9671 49.1897H29.5928V44.9742H10.9198C8.77441 44.9742 7 43.2395 7 41.0518V13.9225C7 11.7748 8.73134 10 10.9198 10H50.0772C52.2226 10 53.997 11.7347 53.997 13.9225V41.0518C53.997 43.1967 52.2655 44.9742 50.0772 44.9742ZM50.0802 11.8132H10.4198V11.8755C9.48859 12.1011 8.81153 12.9428 8.81153 13.9225V37.1264H52.1885V13.9195C52.1885 12.7419 51.2263 11.8132 50.0802 11.8132ZM52.1885 41.0518V38.9425H8.81153V41.0518C8.81153 41.6113 9.02845 42.1453 9.42967 42.5429C9.82636 42.9359 10.3543 43.158 10.9198 43.158H50.0802C50.6444 43.158 51.1728 42.9368 51.5674 42.5429C51.9704 42.1435 52.1885 41.613 52.1885 41.0518Z" fill="black"/>
<path d="M40.4419 25.98C40.4419 26.4805 40.0344 26.8881 39.5376 26.8881C39.0395 26.8881 38.6304 26.4792 38.6304 25.98C38.6304 25.4801 39.0372 25.0719 39.5376 25.0719C40.0374 25.0719 40.4419 25.4765 40.4419 25.98Z" fill="#18B28D"/>
<path d="M22.3697 21.4569C22.3697 21.9584 21.9613 22.365 21.4624 22.365C20.9636 22.365 20.5552 21.9584 20.5552 21.4569C20.5552 20.9548 20.9613 20.5488 21.4624 20.5488C21.9635 20.5488 22.3697 20.9548 22.3697 21.4569Z" fill="#18B28D"/>
<path d="M26.887 21.4569C26.887 21.9591 26.4808 22.365 25.9797 22.365C25.48 22.365 25.0754 21.9604 25.0754 21.4569C25.0754 20.9541 25.4823 20.5488 25.9797 20.5488C26.4786 20.5488 26.887 20.9555 26.887 21.4569Z" fill="#18B28D"/>
<path d="M31.4043 21.4569C31.4043 21.9591 30.9982 22.365 30.4971 22.365C29.996 22.365 29.5898 21.9591 29.5898 21.4569C29.5898 20.9548 29.996 20.5488 30.4971 20.5488C30.9982 20.5488 31.4043 20.9548 31.4043 21.4569Z" fill="#18B28D"/>
<path fill-rule="evenodd" clip-rule="evenodd" d="M21.7364 28.3907L18.2224 30.7364V30.7339L17.4449 31.2525C16.8468 31.6514 16.0376 31.2198 16.0376 30.497V19.1938C16.0376 16.6094 18.1287 14.52 20.7083 14.52H31.2538C33.6412 14.52 35.5986 16.299 35.887 18.6022L35.9418 19.0401H40.2915C42.868 19.0401 44.9652 21.1381 44.9652 23.7169V35.02C44.9652 35.7436 44.1551 36.1765 43.5548 35.7755L39.2633 32.9137H29.749C27.3737 32.9137 25.4068 31.1291 25.1157 28.8279L25.0604 28.3907H21.7364ZM40.0406 31.2502L43.1507 33.3248V23.924L43.1536 23.9211V23.7139C43.1536 22.1331 41.8683 20.8503 40.2915 20.8503H35.9275V23.7139C35.9275 26.2923 33.8307 28.3877 31.2538 28.3877H26.817L27.001 29.0262C27.3444 30.2181 28.4426 31.0976 29.749 31.0976H39.5376C39.7163 31.0976 39.8918 31.1509 40.0406 31.2502ZM21.4622 26.5775C21.2879 26.5775 21.1116 26.6301 20.9579 26.731L20.9567 26.7317L17.8491 28.8047V19.1938C17.8491 17.5983 19.1432 16.3332 20.7083 16.3332H31.2538C32.8491 16.3332 34.113 17.6285 34.113 19.1938V23.7169C34.113 25.2943 32.831 26.5775 31.2538 26.5775H21.4622Z" fill="#18B28D"/>
</svg>
