<svg width="60" height="60" viewBox="0 0 60 60" fill="none" xmlns="http://www.w3.org/2000/svg">
<path d="M51.4678 19.5809C50.4135 19.1899 49.18 19.649 48.6006 20.6502L46.4323 24.3942C46.1933 24.2491 46.0291 23.9884 46.0291 23.6893V11.6515C46.0291 10.1172 44.8075 8.8346 43.3082 8.79017C42.8961 8.78128 42.4959 8.85237 42.1285 9.0064C42.0329 7.56981 40.8263 6.38499 39.2434 6.41461C37.8307 6.45607 36.6689 7.59646 36.5375 9.00936C36.1701 8.85237 35.7639 8.78128 35.3518 8.79017C33.9958 8.83164 32.6309 9.85058 32.6309 12.0099C32.2665 11.8559 31.8663 11.7848 31.4572 11.7966C29.9579 11.8411 28.7363 13.1236 28.7363 14.658V14.9512C28.366 15.0845 28.0255 15.2889 27.7328 15.5673C27.231 16.0501 26.9354 16.687 26.8876 17.3742C26.5202 17.2202 26.12 17.1491 25.7078 17.158C24.2085 17.2024 22.987 18.485 22.987 20.0193V32.0541C22.987 32.3533 22.8257 32.6169 22.5838 32.7591L20.4155 29.015C19.8361 28.0139 18.5996 27.5547 17.5483 27.9457C16.2969 28.4078 15.7025 29.7792 16.1834 30.9818L19.3642 38.932C19.8868 40.2382 20.8217 41.3875 22.0731 42.2613C23.5724 43.3099 24.546 45.0131 24.546 47.1161H23.9308C23.4559 47.1161 23.0706 47.4982 23.0706 47.9692V53.1498C23.0706 53.6208 23.4559 54.0029 23.9308 54.0029H37.5768C38.0517 54.0029 38.437 53.6208 38.437 53.1498V47.9692C38.437 47.4982 38.0517 47.1161 37.5768 47.1161H37.0452V45.6321H45.0763C45.5512 45.6321 45.9365 45.25 45.9365 44.7791V39.5984C45.9365 39.1275 45.5512 38.7454 45.0763 38.7454H44.4611C44.4611 36.6542 45.4258 34.9451 46.934 33.8906C48.1825 33.0168 49.1173 31.8675 49.6429 30.5612L52.8237 22.6111C53.3046 21.4085 52.7072 20.0371 51.4588 19.575L51.4678 19.5809ZM31.5109 13.5028C32.0694 13.4672 32.6309 13.9352 32.6309 14.581V17.3357C32.5831 17.3535 32.5324 17.3594 32.4846 17.3801C32.3771 16.2368 31.5497 15.2178 30.4596 14.895C30.4596 13.956 30.9375 13.5206 31.5109 13.5028ZM23.0676 40.8692C22.094 40.1879 21.3652 39.2993 20.968 38.304L17.7872 30.3539C17.6618 30.0369 17.8111 29.6697 18.1546 29.5452C18.4323 29.4445 18.7668 29.5808 18.9311 29.8651L21.416 34.1542C21.5683 34.4178 21.8551 34.5807 22.1597 34.5807C23.5664 34.5807 24.7103 33.4463 24.7103 32.0511V20.0163C24.7103 19.3943 25.1822 18.8759 25.7616 18.8582C26.3769 18.8404 26.8816 19.3291 26.8816 19.9364V26.8794C26.8816 27.3504 27.2669 27.7325 27.7418 27.7325C28.2166 27.7325 28.6019 27.3504 28.6019 26.8794V17.5638C28.6019 17.2705 28.7184 16.995 28.9304 16.7907C29.1425 16.5863 29.4173 16.4737 29.7219 16.4856C30.3013 16.5033 30.7732 17.0217 30.7732 17.6437V26.8794C30.7732 27.3504 31.1585 27.7325 31.6334 27.7325C32.1083 27.7325 32.4935 27.3504 32.4935 26.8794V19.9364C32.4935 19.6431 32.61 19.3676 32.8251 19.1633C33.0371 18.9589 33.3208 18.8552 33.6165 18.8582C34.1959 18.8759 34.6678 19.3943 34.6678 20.0163V27.377C34.6678 27.848 35.0531 28.2301 35.528 28.2301C36.0029 28.2301 36.3881 27.848 36.3881 27.377V22.9428C36.3881 22.6496 36.5046 22.3741 36.7197 22.1697C36.9317 21.9654 37.2184 21.8558 37.5111 21.8647C38.0905 21.8824 38.5624 22.4008 38.5624 23.0228C38.5624 23.6448 38.5714 26.2633 38.5684 39.4503C38.5624 40.2916 38.1114 41.2898 37.2752 41.8496C36.5046 42.368 36.0357 43.0285 35.7311 43.7216C35.2502 44.8265 35.3309 45.5344 35.3309 47.1102H26.2663C26.2663 44.4118 24.9821 42.205 23.0646 40.8632L23.0676 40.8692ZM36.7226 52.2967H24.7939V48.8193H36.7226V52.2967ZM44.2251 43.929H37.5918C38.1981 43.0759 39.6794 42.6168 40.1692 40.4515H44.2251V43.929ZM51.2348 21.9861L48.054 29.9362C47.6568 30.9315 46.9281 31.8201 45.9544 32.5014C44.0549 33.8313 42.7527 36.0262 42.7527 38.7483H40.2917C40.2917 28.3782 40.2827 23.7989 40.2827 23.0287C40.2827 21.4944 39.0612 20.2118 37.5619 20.1674C37.1438 20.1555 36.7555 20.2296 36.3881 20.3807C36.3881 18.6627 35.5489 17.6348 34.3512 17.2794V11.6545C34.3512 11.0324 34.8231 10.5141 35.4055 10.4963C35.7132 10.4815 35.982 10.597 36.197 10.8014C36.409 11.0058 36.5285 11.2813 36.5285 11.5745V18.5175C36.5285 18.9885 36.9138 19.3706 37.3887 19.3706C37.8635 19.3706 38.2488 18.9885 38.2488 18.5175V9.27891C38.2488 8.65688 38.7207 8.13852 39.3001 8.12075C39.8855 8.09705 40.4201 8.56802 40.4201 9.19893V18.5146C40.4201 18.9855 40.8054 19.3676 41.2803 19.3676C41.7552 19.3676 42.1404 18.9855 42.1404 18.5146V11.5715C42.1404 10.9643 42.6392 10.4845 43.2604 10.4933C43.8399 10.5111 44.3117 11.0295 44.3117 11.6515V23.6863C44.3117 25.0814 45.4556 26.2159 46.8623 26.2159C47.17 26.2159 47.4537 26.053 47.606 25.7894L50.0909 21.5003C50.2552 21.213 50.5897 21.0738 50.8675 21.1804C51.2079 21.3048 51.3632 21.6721 51.2348 21.9891V21.9861Z" fill="black"/>
<path d="M34.1961 51.4112H35.1936C35.6685 51.4112 36.0538 51.0291 36.0538 50.5581C36.0538 50.0872 35.6685 49.7051 35.1936 49.7051H34.1961C33.7212 49.7051 33.3359 50.0872 33.3359 50.5581C33.3359 51.0291 33.7212 51.4112 34.1961 51.4112Z" fill="#18B28D"/>
<path d="M21.3952 21.9713C21.8044 21.8973 22.1001 21.5448 22.1001 21.133C22.1001 20.7213 21.8044 20.3688 21.3952 20.2948C17.0974 19.5098 16.6853 19.1011 15.8938 14.8387C15.8191 14.4329 15.4637 14.1396 15.0486 14.1396C14.6334 14.1396 14.278 14.4329 14.2033 14.8387C13.4119 19.1011 12.9997 19.5098 8.70192 20.2948C8.29275 20.3688 7.99707 20.7213 7.99707 21.133C7.99707 21.5448 8.29275 21.8973 8.70192 21.9713C12.9997 22.7562 13.4119 23.165 14.2033 27.4274C14.278 27.8332 14.6334 28.1264 15.0486 28.1264C15.4637 28.1264 15.8191 27.8332 15.8938 27.4274C16.6853 23.165 17.0974 22.7562 21.3952 21.9713ZM15.0486 23.8729C14.4841 22.4837 13.6896 21.6929 12.2859 21.133C13.6867 20.5732 14.4841 19.7853 15.0486 18.3932C15.6131 19.7824 16.4075 20.5732 17.8112 21.133C16.4105 21.6929 15.6131 22.4808 15.0486 23.8729Z" fill="#18B28D"/>
<path d="M18.2503 12.5254C21.5535 13.1297 21.8283 13.3992 22.4376 16.6782C22.5122 17.084 22.8676 17.3773 23.2828 17.3773C23.6979 17.3773 24.0533 17.084 24.128 16.6782C24.7373 13.4022 25.0091 13.1297 28.3153 12.5254C28.7245 12.4514 29.0202 12.0989 29.0202 11.6872C29.0202 11.2754 28.7245 10.923 28.3153 10.8489C25.0121 10.2446 24.7373 9.9751 24.128 6.69611C24.0533 6.29328 23.6979 5.99707 23.2828 5.99707C22.8676 5.99707 22.5122 6.29031 22.4376 6.69611C21.8283 9.97214 21.5565 10.2446 18.2503 10.8489C17.8441 10.923 17.5454 11.2754 17.5454 11.6872C17.5454 12.0989 17.8411 12.4514 18.2503 12.5254ZM23.2828 9.96325C23.68 10.763 24.2116 11.2932 25.021 11.6872C24.2146 12.0811 23.68 12.6084 23.2828 13.4111C22.8856 12.6113 22.3539 12.0811 21.5445 11.6872C22.3509 11.2932 22.8856 10.766 23.2828 9.96325Z" fill="#18B28D"/>
</svg>
