<svg width="904" height="233" viewBox="0 0 904 233" fill="none" xmlns="http://www.w3.org/2000/svg">
<path d="M0.21026 140.569C0.16026 136.539 0.0902601 137.169 0.0202601 139.929C-0.00973991 141.309 0.0202601 143.239 0.0402601 145.389C0.18026 147.529 0.26026 149.909 0.57026 152.169L0.94026 154.199C1.08026 154.869 1.25026 155.539 1.40026 156.209C1.72026 157.549 2.00026 158.889 2.41026 160.209C0.97026 153.769 0.24026 147.169 0.22026 140.569H0.21026Z" fill="black"/>
<path d="M10.8203 183.349C14.5003 189.859 18.9803 195.879 24.0803 201.299C20.4103 197.379 17.0903 193.119 14.1603 188.609C5.56026 172.889 15.2503 190.769 19.8603 195.749C15.3703 189.999 13.2703 186.199 11.9903 184.129C10.7603 182.029 10.4903 181.529 10.5003 181.759C10.5303 181.979 10.9003 182.889 11.1203 183.489C11.3603 184.079 11.4203 184.379 10.8203 183.369V183.349Z" fill="black"/>
<path d="M40.3403 215.449C41.8503 216.409 43.1003 217.249 44.1803 217.889C45.2703 218.499 46.1403 218.989 46.8103 219.369C47.4803 219.749 47.9703 219.999 48.3003 220.139C48.6303 220.289 48.7903 220.349 48.8003 220.329C48.8403 220.299 48.3003 219.999 47.4503 219.479C46.6103 218.949 45.4303 218.229 44.1503 217.469C43.7203 217.269 41.5103 215.949 40.0603 215.059C38.6403 214.119 37.9103 213.689 40.3503 215.459L40.3403 215.449Z" fill="black"/>
<path d="M543.35 109.859C543.29 113.879 543.25 118.619 543.17 117.949C543.25 122.439 543.32 123.389 543.35 109.859Z" fill="black"/>
<path d="M543.17 117.94C543.16 117.08 543.14 116.15 543.12 115.04C543.12 115.95 543.13 116.71 543.14 117.74C543.15 118.01 543.16 117.85 543.17 117.94Z" fill="black"/>
<path d="M365.7 157.45C365.33 155.53 364.95 153.71 364.75 151.95C364.63 151.07 364.5 150.22 364.41 149.37C364.34 148.52 364.27 147.7 364.2 146.88C364.03 145.25 364.01 143.68 363.97 142.13C363.91 140.6 363.93 139.03 363.92 137.48C363.91 131.29 363.9 125.21 363.88 117.59L364.24 109.07C364.18 100.81 364.1 98.9798 364.02 97.7198C363.98 97.0898 363.93 96.5998 363.89 95.5198C363.83 94.4298 363.84 92.7998 363.69 89.7098C363.69 85.8498 363.3 80.9098 362.35 75.6498C361.42 70.3898 359.9 64.8098 357.96 59.6698C354.14 49.3098 348.43 40.9898 346.28 38.0598C344.87 35.9398 345.84 37.1898 347.35 39.2298C348.13 40.2298 348.93 41.4998 349.68 42.6198C350.44 43.7298 351.06 44.7298 351.38 45.2698C348.82 40.9998 346.66 38.0498 344.75 35.6698C342.86 33.2698 341.19 31.4598 339.41 29.5498C338.49 28.6198 337.55 27.6698 336.51 26.6298C335.42 25.6398 334.28 24.5198 332.9 23.3198C330.15 20.9298 326.64 18.0398 321.49 14.6698L321.2 14.3698C318.11 12.3598 314.79 10.6298 311.39 8.93976C307.93 7.36976 304.39 5.84977 300.67 4.67977C293.28 2.19977 285.36 0.699766 277.25 0.199766C276.24 0.109766 275.22 0.0897656 274.2 0.0697656C273.18 0.0497656 272.16 0.0297656 271.13 0.00976562C270.11 0.0397656 269.08 0.0697656 268.05 0.0997656L266.51 0.139766L264.97 0.259766C263.94 0.339766 262.91 0.419766 261.88 0.509766C260.85 0.639766 259.82 0.779766 258.79 0.909766L257.24 1.10977L255.7 1.38977L252.62 1.94977C244.44 3.70977 236.36 6.49976 228.83 10.4798C213.71 18.3498 200.75 30.6498 192.11 45.3498C189.91 48.9998 188.08 52.8498 186.41 56.7298C184.81 60.6498 183.46 64.6398 182.39 68.6898C180.3 76.7898 179.34 85.1098 179.44 93.1998C179.52 88.8198 179.6 89.9198 179.71 88.2198C179.56 92.5298 179.64 96.7498 179.63 101.05C179.63 105.34 179.64 109.67 179.65 114.02C179.67 122.72 179.68 131.51 179.7 140.33C179.65 144.68 179.44 149.04 178.8 153.35C178.14 157.65 177.31 161.93 176.03 166.09C173.57 174.42 169.89 182.34 165.22 189.49C160.55 196.64 154.93 203.05 148.67 208.44L147.51 209.46L146.3 210.42C145.49 211.06 144.7 211.71 143.89 212.32C142.23 213.51 140.6 214.74 138.89 215.8C135.52 218.04 132.01 219.95 128.47 221.65C114.26 228.48 99.2502 230.86 85.9902 230.42C95.0502 230.8 105.85 230.05 116.84 226.68C127.82 223.39 138.95 217.65 148.38 209.73C157.85 201.86 165.61 191.96 170.83 181.64C176.07 171.32 178.9 160.7 179.78 151.5C180.3 148.11 180.51 144.23 180.56 140.23C180.56 136.22 180.56 132.1 180.55 128.23C180.53 120.49 180.53 113.76 180.72 110.91C180.72 104.28 180.74 98.1398 180.74 92.3698C180.74 86.5898 181.27 81.1798 182.16 76.1098C183.93 65.9398 187.21 57.1198 191.5 48.9298C195.92 40.8198 201.36 33.2698 208.67 26.2798C215.95 19.3198 225.04 12.7498 236.97 7.86977C240.4 6.51977 241.34 6.32977 241.64 6.29977C241.94 6.27977 241.63 6.46977 242.66 6.21977C236.25 8.38976 230.09 11.2598 224.32 14.7798C218.57 18.3298 213.22 22.5198 208.38 27.2298C214.31 21.5198 221.06 16.6898 228.28 12.7698C223.6 15.3198 215.93 20.4198 209.98 26.0698C209.24 26.7798 208.52 27.4798 207.81 28.1598C207.11 28.8498 206.47 29.5698 205.83 30.2298C204.53 31.5498 203.45 32.8898 202.47 34.0398C201.47 35.1698 200.75 36.2498 200.13 37.0498C199.53 37.8598 199.1 38.4498 198.93 38.7798C204.09 31.6798 211.15 24.2098 219.99 18.1098C228.77 11.9598 239.23 7.14977 250.11 4.53977C255.54 3.21977 261.06 2.41977 266.49 2.11977C271.92 1.83977 277.23 2.04977 282.29 2.63977C284.82 2.89977 287.27 3.35977 289.66 3.78977C290.84 4.05977 292.01 4.31977 293.16 4.56977C294.31 4.81977 295.42 5.16977 296.52 5.45977C300.91 6.69977 304.93 8.14977 308.46 9.71977C305.18 8.16977 301.54 6.83977 297.72 5.62977C293.88 4.47977 289.81 3.51977 285.62 2.83977C277.22 1.54977 268.31 1.33977 259.78 2.45977C257.9 2.62977 255.78 2.99977 253.65 3.34977C252.59 3.51977 251.54 3.78977 250.52 3.99977C249.5 4.21977 248.51 4.41977 247.6 4.67977C243.93 5.59977 241.33 6.50977 241.66 6.28977C253.3 2.14977 265.28 0.629766 276.86 1.25977C288.45 1.87977 299.68 4.76977 310.01 9.61977C320.34 14.4698 329.81 21.2898 337.87 29.8898C345.92 38.4898 352.59 48.8898 357.03 60.8398C359.27 66.8198 361.03 74.1798 361.77 80.3298C361.86 81.0998 361.96 81.8498 362.04 82.5698C362.12 83.2898 362.15 83.9898 362.2 84.6598C362.28 85.9998 362.41 87.2098 362.4 88.2698C362.43 90.3898 362.44 91.8698 362.4 92.3898C362.27 88.2098 362.21 87.6998 362.14 87.3798C362.06 87.0598 362 86.9198 361.69 83.5098C362.13 87.9798 362.14 90.3498 362.26 91.7698C362.35 93.1898 362.4 93.6498 362.47 94.3798C362.6 95.8198 362.7 98.2698 362.67 111.18L362.07 107.87C362.39 113.01 362.36 120.91 362.3 129.83C362.28 132.06 362.27 134.35 362.25 136.68C362.25 137.84 362.24 139.02 362.23 140.2C362.25 141.37 362.28 142.55 362.3 143.73C362.49 148.43 362.96 153.18 363.97 157.63C364.18 159.26 364.31 159.72 364.14 159.31C363.97 158.9 363.71 157.59 363.33 155.65C363.12 154.68 362.95 153.54 362.78 152.27C362.6 151 362.39 149.6 362.3 148.1C362.18 146.6 362.02 145 362.01 143.33C361.95 141.67 361.91 139.93 361.93 138.16C361.84 146.18 362.47 150.51 363.08 154.41C363.27 155.38 363.46 156.32 363.65 157.29C363.82 158.26 364.05 159.25 364.33 160.3C364.81 162.42 365.48 164.81 366.41 167.85C365.07 164.06 363.86 160.19 363.04 156.23C365.89 169.54 370.09 179.61 373.86 186.37C374.14 186.74 373.47 185.31 373.79 185.65C373.97 185.81 374.33 186.45 375.29 187.9C375.77 188.63 376.38 189.57 377.17 190.77C378.01 191.93 378.99 193.39 380.29 195.08C381.4 196.53 382.09 197.44 382.52 198C382.96 198.55 383.12 198.77 383.17 198.86C383.26 199.04 382.89 198.69 383.43 199.36C383.79 199.67 384.98 200.99 387.17 203.13C388.23 204.24 389.63 205.46 391.21 206.95C392.86 208.37 394.73 210.02 396.97 211.71C397.73 212.41 396.21 211.32 394.43 209.98C392.71 208.58 390.71 206.94 390.41 206.72C393.55 209.6 396.55 212.04 399.48 214.1C400.21 214.61 400.91 215.14 401.62 215.62C402.34 216.09 403.04 216.55 403.74 217C405.1 217.94 406.5 218.7 407.82 219.52C409.46 220.46 410.75 221.01 411.65 221.48C412.56 221.94 413.16 222.19 413.51 222.33C414.22 222.61 413.95 222.46 413.52 222.23C413.09 222 412.5 221.69 412.54 221.66C412.56 221.65 412.73 221.72 413.17 221.9C413.61 222.08 414.3 222.37 415.36 222.82C420.63 225.17 423.54 226.04 424.86 226.59C426.21 227.06 426.03 227.08 425.4 227C424.16 226.81 421.15 226 425.17 227.53C420.96 226.28 416.54 224.64 412.24 222.63C407.96 220.59 403.82 218.18 400.07 215.66C396.3 213.15 393.03 210.4 390.22 207.95C387.47 205.43 385.24 203.15 383.64 201.41C391.19 209.8 400.29 216.77 410.35 221.85C409.87 221.66 410.89 222.25 412.46 223.07C414.06 223.83 416.18 224.9 417.92 225.58C419.65 226.32 420.92 226.84 420.72 226.8C420.61 226.8 420.13 226.65 419.16 226.28L417.31 225.59C416.93 225.45 416.52 225.29 416.08 225.12C415.64 224.93 415.17 224.72 414.65 224.49L416.1 225.15L417.59 225.75C418.59 226.14 419.58 226.56 420.6 226.93C422.65 227.63 424.72 228.38 426.86 228.94C428.98 229.6 431.17 230.04 433.36 230.56C435.58 230.95 437.8 231.41 440.07 231.65C442.33 231.99 444.62 232.11 446.91 232.29C449.21 232.34 451.52 232.48 453.83 232.37C458.46 232.3 463.09 231.81 467.65 231C472.22 230.23 476.7 229.04 481.04 227.56C483.22 226.86 485.33 225.98 487.43 225.14C489.49 224.2 491.56 223.31 493.52 222.24C495.52 221.25 497.41 220.09 499.31 219C501.14 217.8 503 216.67 504.72 215.39C508.23 212.92 511.43 210.21 514.38 207.44C513.55 208.24 512.6 209.02 511.7 209.78C510.79 210.54 509.93 211.29 509.15 211.85C507.61 213.02 506.61 213.74 506.95 213.4C508.58 212.09 510.02 211 511.17 209.95C512.34 208.93 513.35 208.08 514.14 207.3C515.77 205.78 516.82 204.79 517.54 204.05C519 202.6 519.38 202.42 520.54 201.15C524.58 196.44 525.97 194.03 527.11 192.21C527.69 191.31 528.09 190.46 528.65 189.48C528.93 188.99 529.23 188.45 529.58 187.83C529.91 187.2 530.29 186.48 530.73 185.65C533.95 180.17 535.91 175.56 537.43 171.59C538.11 169.58 538.81 167.76 539.28 165.99C539.54 165.11 539.78 164.25 540.03 163.42C540.23 162.57 540.43 161.74 540.63 160.91C542.12 154.31 543.18 147.97 543.25 137.16L542.9 138.49C543.18 123.25 542.66 121.03 542.86 104.62C542.93 103.71 543.02 110 543.1 115.04C543.04 107.77 543.12 104.42 543.19 101.12C543.22 99.4698 543.24 97.8198 543.28 95.7098C543.28 94.6498 543.28 93.4798 543.29 92.1198C543.32 90.7798 543.35 89.2698 543.38 87.5198C543.4 89.3798 543.39 91.2098 543.45 93.0798L543.64 98.6998C543.66 95.8898 543.58 92.6898 543.68 89.7098C543.7 88.9598 543.72 88.2198 543.74 87.4898C543.79 86.7598 543.85 86.0398 543.9 85.3498C543.95 84.6498 544 83.9798 544.05 83.3298C544.11 82.6798 544.21 82.0598 544.28 81.4698C544.44 80.2898 544.56 79.2498 544.7 78.3898C544.87 77.5398 545 76.8698 545.09 76.4298C545.28 75.5598 545.32 75.6198 545.15 77.0398C545.86 72.2598 547.18 66.6198 549.39 60.7098C551.58 54.8098 554.65 48.6498 558.51 42.8198C562.38 36.9998 567.08 31.5498 572.12 26.8298C577.17 22.0998 582.65 18.1898 587.87 15.0998L586.63 16.1598C589.28 14.4998 593.15 12.2798 597.82 10.2698C602.49 8.27977 607.95 6.48977 613.49 5.29977C619.03 4.08977 624.62 3.47977 629.5 3.29977C634.38 3.05977 638.52 3.35977 641.25 3.46977C641.86 3.55977 642.47 3.69977 643.07 3.80977C647.23 4.17977 651.33 4.99977 655.4 5.94977C659.46 6.94977 663.43 8.28977 667.33 9.81977C669.92 10.9898 671.63 11.7998 672.71 12.4398C673.8 13.0498 674.32 13.3798 674.55 13.5498C675.01 13.8998 674.32 13.6398 674.75 13.7898C685.7 19.7098 694.22 27.1598 700.62 34.8098C703.83 38.6398 706.53 42.5198 708.84 46.3498C711.13 50.1898 712.95 54.0098 714.51 57.6798C715.4 59.4598 718.59 66.4198 720.36 75.9698C721.28 80.7198 721.91 86.0798 721.93 91.5598C721.95 97.0798 721.98 102.69 722 107.96C721.99 114.31 721.97 120.69 721.96 127.1C721.96 130.3 721.96 133.51 721.95 136.73C721.94 139.93 721.95 143.19 722.15 146.43C722.95 159.41 726.62 172.29 732.85 183.83C739.11 195.36 747.9 205.52 758.4 213.41C768.92 221.27 781.14 226.8 793.91 229.51C806.68 232.24 819.96 232.11 832.53 229.31C845.11 226.52 856.94 221.01 867.05 213.46C877.16 205.9 885.52 196.3 891.58 185.64C897.66 174.98 901.41 163.24 902.75 151.49C903.71 144.45 903.24 136.01 903.17 127.17C903.04 118.32 902.9 109.02 902.77 100.19C902.72 111.01 902.75 116.94 902.78 122.81C902.8 125.75 902.82 128.68 902.84 132.2C902.84 135.72 902.94 139.86 902.75 145.14C902.22 153.09 901 158.43 899.59 163.38C899.2 164.61 898.82 165.82 898.43 167.04C897.98 168.25 897.53 169.47 897.06 170.74C896.58 172.01 895.99 173.29 895.42 174.66C894.83 176.03 894.11 177.43 893.39 178.97L894.97 175.89C895.5 174.87 895.94 173.8 896.42 172.75C895.52 175.27 894.57 177.3 893.81 179.04C892.99 180.75 892.26 182.14 891.66 183.32C890.33 185.62 889.5 187.1 888.61 188.39C888.18 189.04 887.77 189.67 887.33 190.35C886.88 191.02 886.35 191.73 885.75 192.59C885.45 193.02 885.13 193.48 884.77 193.99C884.4 194.48 883.99 195.02 883.54 195.61C883.09 196.2 882.6 196.84 882.07 197.55C881.5 198.23 880.88 198.97 880.21 199.79L880.25 198.9C878.45 201.26 874.85 205.06 870.83 208.41C866.83 211.79 862.44 214.7 859.79 216.23C858.3 217.31 856.76 218.31 855.21 219.32C843.18 225.44 834.4 227.03 830.4 227.56C830.85 227.61 831.3 227.61 831.75 227.63C830.51 227.86 826.72 228.58 821.92 229.08C817.12 229.55 811.32 229.62 806.2 229.2C803.64 229.05 801.26 228.65 799.25 228.38C797.25 227.99 795.61 227.72 794.54 227.44C793.48 227.16 792.97 227 793.21 227.01C793.33 227.01 793.64 227.06 794.17 227.15C794.69 227.25 795.43 227.37 796.41 227.5C795.45 227.37 794.52 227.19 793.54 226.98C792.56 226.77 791.5 226.59 790.32 226.29C789.15 225.97 787.83 225.65 786.31 225.19C785.56 224.94 784.75 224.67 783.88 224.38C783.45 224.23 783 224.08 782.53 223.92C782.07 223.74 781.6 223.55 781.1 223.35L780.03 222.56C774.35 220.35 768.61 217.3 764.15 214.31C761.93 212.8 759.96 211.4 758.45 210.14C756.9 208.94 755.79 207.91 755.16 207.29C760.24 211.52 762.26 212.52 764.1 213.66C758.77 210.09 755.02 206.77 752.19 204.1C749.35 201.43 747.46 199.35 746.07 197.81C744.65 196.3 743.84 195.24 743.19 194.56C742.56 193.86 742.15 193.49 741.82 193.12C741.47 192.76 741.15 192.43 740.65 191.86C740.16 191.28 739.45 190.48 738.5 189.05C738.02 188.34 737.42 187.5 736.76 186.46C736.13 185.4 735.37 184.17 734.55 182.7C732.95 179.72 730.97 175.78 729.02 170.36L729.4 170.79C728.75 168.96 728.03 167.15 727.51 165.27C727.23 164.34 726.92 163.41 726.67 162.47L725.96 159.64C725.2 155.63 724.66 151.57 724.48 147.5C724.18 145.44 724.07 142.89 723.97 139.92C723.94 136.92 723.91 133.53 723.87 129.84C723.87 122.47 723.87 113.92 723.89 105.02C723.9 100.57 723.91 96.0198 723.92 91.4998C723.92 86.9098 723.49 82.3498 722.85 77.9398C722.14 73.5398 721.14 69.3098 719.94 65.3698C718.67 61.4598 717.3 57.7998 715.74 54.5898C713.4 49.4998 710.35 43.7198 705.8 37.3998C703.47 34.2898 700.83 30.9998 697.63 27.7298C694.42 24.4698 690.72 21.1698 686.39 18.0198C686.7 18.3898 687.02 18.7298 687.31 19.1098C683.92 16.4798 677.98 12.2398 670.05 8.62977C662.19 4.89977 652.32 1.98977 642.24 0.799766C637.2 0.239766 632.12 0.0797656 627.25 0.259766C622.38 0.469766 617.72 1.09977 613.48 1.86977C605.01 3.51977 598.31 6.00977 594.53 7.49977C579.93 14.9798 596.06 6.68977 595.91 7.25977C588.63 10.5398 583.43 13.8198 579.37 16.6498C575.3 19.4698 572.42 21.9498 569.91 24.1198C568.7 25.2498 567.53 26.2598 566.46 27.3198C565.41 28.3998 564.32 29.4098 563.29 30.5398C561.22 32.7998 559.02 35.2598 556.58 38.6798C555.13 40.6798 554.35 42.0998 553.83 42.8998C553.33 43.7098 553.18 43.9698 553.27 43.8398C553.48 43.5898 554.62 41.7398 556.03 39.7298C556.75 38.7398 557.51 37.6898 558.2 36.7398C558.94 35.8298 559.6 35.0098 560.06 34.4498C560.99 33.3198 561.14 33.2098 559.56 35.3198C554.88 41.2198 552.25 45.8698 550.28 49.6598C549.8 50.6198 549.33 51.5098 548.93 52.3898C548.54 53.2698 548.17 54.1198 547.81 54.9398C547.06 56.5698 546.54 58.1898 545.9 59.8098C545.31 61.4498 544.78 63.1798 544.18 65.0998C543.66 67.0398 543.02 69.1698 542.5 71.6998C541.41 76.7298 540.26 83.2898 540.15 92.5598C540.05 94.3598 540 92.0298 540.08 88.6798C540.08 87.0098 540.29 85.1098 540.38 83.3898C540.52 81.6698 540.74 80.1298 540.82 79.1698C540.66 80.7998 540.38 82.4998 540.31 84.3098C540.25 85.2098 540.19 86.1298 540.13 87.0698C540.07 88.0098 540.09 88.9698 540.06 89.9498C540 91.9198 540.03 93.8998 540.04 95.9398C540.04 97.9898 540.06 100.09 540.07 102.26C540.08 110.92 540.09 120.45 540.11 130.38C540.09 135.33 540.18 140.46 539.97 145.39C539.7 150.37 538.98 155.35 537.88 160.22C535.72 169.97 531.75 179.16 526.89 187.07C521.27 196.08 513.21 205.13 502.88 212.41C497.73 216.05 492.04 219.26 485.94 221.8C479.83 224.32 473.33 226.2 466.64 227.32C453.26 229.62 439.14 228.58 426.27 224.64C413.38 220.68 401.84 213.71 392.78 205.35L392.03 204.81C384.62 197.72 378.03 189.1 373.13 179.12C368.22 169.16 365.03 157.82 364.4 145.84C364.52 147.79 364.6 149.74 364.86 151.68C365.04 153.63 365.37 155.55 365.69 157.48L365.7 157.45Z" fill="black"/>
<path d="M193.12 48.4197C193.89 47.3197 194.58 46.1797 195.41 45.1197L196.94 42.6797C197.45 41.8697 198.03 41.0997 198.57 40.2997C199.64 38.6997 200.85 37.2097 202.02 35.6797C204.47 32.7197 207 29.8097 209.81 27.1797C206.31 30.2997 203.94 32.9797 201.43 36.0797C200.82 36.8697 200.18 37.6797 199.52 38.5297C198.9 39.4097 198.24 40.3297 197.55 41.3197C196.19 43.3097 194.7 45.5997 193.12 48.4097V48.4197Z" fill="black"/>
<path d="M194.92 43.6796C193.8 45.3796 192.86 47.1896 191.86 48.9596L190.49 51.6896L189.81 53.0596L189.2 54.4596C191.94 48.4796 195.32 42.7896 199.32 37.5596C197.79 39.5496 196.28 41.5696 194.92 43.6896V43.6796Z" fill="black"/>
<path d="M362.391 155.03C362.211 154.04 362.151 153.02 362.021 152.02C361.491 148.34 361.311 144.63 361.221 140.91L361.151 129.8L361.021 107.58L361.121 131.31L361.151 137.24C361.151 139.22 361.161 141.19 361.241 143.18C361.331 147.15 361.771 151.1 362.391 155.02V155.03Z" fill="black"/>
<path d="M543.65 111.489C543.81 116.569 543.74 123.879 543.85 129.159L543.7 108.479L543.65 111.489Z" fill="black"/>
<path d="M669.32 12.7594C671.12 13.3994 672.81 14.2894 674.29 14.9794C675.71 15.7594 676.88 16.4394 677.56 16.8294C678.91 17.6494 678.38 17.2894 674.06 14.5894C672.71 13.9194 671.67 13.3994 670.89 13.0094C670.1 12.6294 669.54 12.4194 669.18 12.2794C668.46 11.9894 668.51 12.0594 668.8 12.2394C669.38 12.5994 670.93 13.3994 669.32 12.7694V12.7594Z" fill="black"/>
<path d="M704.33 40.8498C700.25 35.1798 697.45 32.4498 694.76 29.7598C697.89 33.1298 699.4 34.9598 700.66 36.3498C701.26 37.0598 701.79 37.6798 702.37 38.3698C702.97 39.0398 703.58 39.8098 704.34 40.8598L704.33 40.8498Z" fill="black"/>
<path d="M0.260303 140.57C0.190303 139.64 0.100303 140.86 0.0603027 141.91L0.330303 142.85L0.260303 140.57Z" fill="black"/>
<path d="M0.350342 145.69L0.800342 148.24L0.530342 146.4C0.500342 144.33 0.820342 146.66 0.930342 147.43C0.610342 144.07 0.530342 146.23 0.350342 145.7V145.69Z" fill="black"/>
<path d="M0.980402 150.73C1.1704 152.37 1.2804 151.89 1.2404 151.2C1.1604 151.1 0.940402 150.04 0.980402 150.73Z" fill="black"/>
<path d="M61.7704 226.86C61.3404 226.68 60.8304 226.48 60.9204 226.46C60.4104 226.34 60.2904 226.34 61.7704 226.86Z" fill="black"/>
<path d="M60.9204 226.46L61.2504 226.54L60.9504 226.45C60.9504 226.45 60.9304 226.45 60.9204 226.45V226.46Z" fill="black"/>
<path d="M33.3004 208.43C31.8504 207.31 31.0804 206.63 29.8104 205.45L29.2504 204.63C27.8504 203.38 28.5204 204.2 27.4804 203.31C26.9404 202.64 26.0204 201.68 25.1704 200.81C24.3204 199.94 23.6104 199.09 23.3404 198.79C23.0404 198.3 23.9004 199.23 24.1204 199.4C23.3804 198.59 22.9904 198.25 22.5704 197.85C22.1404 197.46 21.6904 196.99 20.8504 195.91L20.8704 195.84C20.3404 195.21 19.7904 194.57 19.2304 193.91C18.7104 193.21 18.1704 192.5 17.6304 191.78C16.5204 190.35 15.5404 188.74 14.4804 187.16C12.5004 183.91 10.5804 180.51 9.05039 177.2C9.24039 177.66 9.15039 177.56 9.19039 177.75C7.50039 174.28 6.08039 170.37 4.82039 166.62C4.25039 164.73 3.63039 162.9 3.20039 161.13C2.96039 160.26 2.72039 159.41 2.49039 158.59C2.29039 157.78 2.09039 157 1.90039 156.24C2.26039 158.31 2.81039 161.08 3.49039 163.83C3.87039 165.19 4.22039 166.57 4.66039 167.84C5.11039 169.1 5.55039 170.26 5.98039 171.24C6.40039 172.77 7.51039 174.95 7.55039 175.65C8.16039 177.05 8.70039 178.23 9.21039 179.3C9.74039 180.36 10.2804 181.28 10.7904 182.2C11.2904 183.13 11.8404 184.02 12.4604 185C13.0704 185.97 13.6804 187.07 14.4904 188.29C14.9104 189.02 14.6104 188.73 14.6504 188.98C14.2204 188.33 13.7704 187.7 13.3704 187.04L12.1704 185.05L13.5204 187.55C12.8104 186.54 11.3904 183.91 11.0504 183.7C12.1604 185.41 13.4604 187.72 14.9104 189.86C15.5904 190.96 16.3504 191.98 17.0504 192.92C17.7504 193.86 18.3904 194.72 19.0104 195.37C18.5004 194.71 17.9604 193.95 17.3904 193.15C16.8304 192.35 16.2104 191.55 15.6704 190.72C15.2604 189.95 14.5704 188.8 14.7004 188.82C17.9904 193.39 20.7004 197.19 24.6604 201.39C25.6704 202.42 27.0104 203.85 27.1104 204.09C26.4304 203.43 26.8704 204 26.2904 203.47C27.7704 204.89 26.6704 203.38 28.7704 205.46H28.2604C28.8104 205.72 29.4604 206.36 30.1704 207.09C30.9204 207.79 31.7504 208.57 32.6104 209.18C33.1004 209.78 31.9904 208.93 30.7504 207.87C32.1104 209.12 32.3604 209.09 33.4704 210.04L32.2204 209.35C33.5704 210.19 34.3704 211.16 35.0004 211.8C35.1304 211.8 34.6104 211.12 36.1504 212.35C36.7904 212.9 36.4104 212.69 36.5404 212.85C36.6704 212.86 37.3304 213.16 38.3904 213.91C38.5304 214.13 37.6004 213.53 37.4704 213.56C38.2704 214.12 38.9404 214.57 39.4704 215.05C40.9304 215.99 39.4504 214.88 40.3904 215.39C42.5904 216.88 40.4304 215.82 41.1404 216.52C40.2404 216.05 39.2704 215.43 38.4104 214.85C37.5404 214.28 36.7704 213.77 36.3104 213.49L39.5204 215.67C39.2404 215.66 41.6104 217.26 39.8204 216.25C42.9904 218.48 47.1104 220.74 50.4904 222.28C50.0404 222 49.4504 221.68 49.5804 221.66C51.3204 222.47 51.0604 222.51 51.3804 222.75C52.7104 223.26 52.6504 223.02 53.5004 223.24C56.0804 224.62 56.5404 224.58 58.7604 225.75L58.6904 225.51C60.2804 226.3 60.6404 226.05 62.4004 226.78C62.4904 226.85 61.7804 226.67 61.2104 226.52C62.8304 226.98 62.6204 227.21 64.2204 227.6C63.7804 227.56 63.3404 227.5 62.9104 227.42C64.1604 227.83 66.0404 228.25 65.3404 228.26C66.4804 228.47 68.0004 228.89 69.6204 229.2C70.4304 229.38 71.2504 229.55 72.0504 229.73C72.8504 229.88 73.6304 229.99 74.3404 230.08L74.1204 230.22C74.8704 230.23 76.2004 230.53 77.5304 230.68C78.8604 230.85 80.1604 231 80.8104 230.96L81.0204 231.06C82.0004 231.09 82.9904 231.06 83.9704 231.06C85.2904 231.18 84.8304 231.4 84.9404 231.34C86.4004 231.45 87.7104 231.4 88.8804 231.45C90.0504 231.49 91.1004 231.52 92.0404 231.53C92.5104 231.31 95.5804 231.17 98.0104 230.93C103.88 230.54 109.92 229.43 115.66 227.71C121.41 226 126.84 223.66 131.63 221.08C132.35 220.69 133.17 220.18 134.03 219.63C134.88 219.06 135.79 218.45 136.61 217.9C134.43 219.09 134.29 219.32 132.13 220.46C130.47 221.25 129.75 221.32 128.27 221.87C128.54 221.82 128.81 221.77 129.08 221.71C126.9 222.89 127.49 222.33 125.78 223.3L125.73 222.98C125.15 223.38 123.51 223.94 122.82 224.1L122.3 224.52C120.8 224.96 119.83 225.25 119.32 225.2L119.53 225.34C118.95 225.46 113.83 227.14 115.5 226.28C115.08 226.45 114.72 226.67 113.76 226.89L113.56 226.74C112.21 227.17 110.67 227.55 110.24 227.53C110.98 227.32 111.21 227.17 111.44 227.03C108.52 227.68 108.24 227.88 108.05 228.09C107.85 228.29 107.75 228.53 105.12 228.97L105.16 228.83L103.84 229.17C103.36 229.19 102.89 229.21 102.41 229.21C101.49 229.54 99.6204 229.77 97.5904 229.88C95.5604 230 93.3604 230.03 91.7504 230.16C90.4804 230.25 88.8204 229.89 86.4204 229.88L86.5704 230.08C85.6004 229.95 83.3204 229.69 81.0704 229.37C78.8304 228.97 76.6204 228.56 75.7804 228.14C73.9704 227.97 75.9604 228.21 75.9004 228.36C74.1404 228.15 73.2104 227.97 72.5004 227.75C71.8004 227.52 71.3104 227.3 70.4204 227.03C68.2804 226.64 72.0304 227.48 70.8504 227.36C67.6304 226.48 68.1504 226.96 64.2104 225.72C63.8504 225.5 65.2604 225.94 65.6904 225.98C64.2504 225.72 62.2904 225.03 60.1504 224.31C58.0504 223.49 55.7804 222.61 53.8204 221.7C53.2604 221.43 52.6704 221.15 52.0604 220.85C51.4604 220.53 50.8304 220.19 50.1804 219.84C49.5304 219.49 48.8704 219.14 48.1904 218.77C47.5304 218.37 46.8604 217.97 46.1804 217.57C44.8104 216.79 43.4704 215.89 42.1704 215.01C40.8504 214.16 39.6504 213.2 38.4904 212.34H38.3604C37.4204 211.59 36.4704 210.78 35.4404 210C34.4004 209.23 33.3704 208.36 32.3404 207.41L33.3004 208.38V208.43Z" fill="black"/>
<path d="M10.2703 182.649L10.3403 183.139C10.7703 183.929 11.2803 184.679 11.7503 185.449C11.3303 184.429 10.9103 184.019 10.2703 182.649Z" fill="black"/>
<path d="M10.9903 182.92L10.2803 181.71L11.3303 183.72C11.2103 183.46 11.1003 183.19 10.9903 182.92Z" fill="black"/>
<path d="M32.0004 209.44L31.7504 209.19L29.7704 207.57L27.8604 205.85L29.8904 207.69L32.0004 209.44Z" fill="black"/>
<path d="M61.5403 226.96C60.9503 226.85 60.1603 226.55 59.5603 226.41L61.8703 227.1L61.5503 226.96H61.5403Z" fill="black"/>
<path d="M84.2803 232.18C85.2203 231.95 86.1003 232.32 84.9003 231.95C83.4503 231.89 84.7003 232.11 84.2803 232.18Z" fill="black"/>
<path d="M89.7302 231.95C88.9002 231.92 88.4402 231.95 87.9802 231.99C89.0702 232.15 89.1202 231.99 89.7302 231.95Z" fill="black"/>
</svg>
