<?xml version="1.0" encoding="UTF-8"?>
<svg id="Layer_2" data-name="Layer 2" xmlns="http://www.w3.org/2000/svg" viewBox="0 0 1470.62 242.11">
  <defs>
    <style>
      .cls-1 {
        fill: #3f3b3c;
      }
    </style>
  </defs>
  <g id="Layer_2-2" data-name="Layer 2">
    <g>
      <g>
        <path class="cls-1" d="m1.22,89.28c-.09-14.12-.23,4.38-.35,20.26l.37,14.39-.02-34.65Z"/>
        <path class="cls-1" d="m2.02,167.12c1.97,12.95,7.01,25.37,14.45,36.06-5.31-7.76-9.49-16.35-12.01-25.44-1.03-3.79-1.53-6.63-1.84-8.62-.18-.99-.28-1.77-.33-2.36-.06-.59-.09-.98-.12-1.21-.03-.45.02-.21.14.54.06.38.13.88.22,1.48.1.61.25,1.31.4,2.1.54,3.17,1.67,7.6,3.1,11.86,1.39,4.28,3.25,8.31,4.55,10.95-2.85-5.73-4.47-10.58-5.58-14.44-1.13-3.86-1.69-6.78-2.07-8.88-.1-.52-.19-1-.27-1.43-.06-.43-.12-.81-.17-1.16-.11-.68-.18-1.19-.24-1.55-.12-.73-.17-.88-.18-.69-.02.37.13,2.07.2,3.18.12,1.1.11,1.62-.24-.41Z"/>
        <path class="cls-1" d="m43.84,228.93c5.42,3.18,9.37,4.85,11.89,5.82,1.27.48,2.16.85,2.76,1.02.6.19.89.27.91.26.05-.04-.98-.36-2.58-1.06-.8-.34-1.77-.72-2.82-1.18-1.04-.48-2.18-1.01-3.38-1.57-.39-.15-1.58-.74-3.02-1.45-1.45-.69-3.06-1.66-4.38-2.37-2.54-1.57-3.84-2.28.62.52Z"/>
        <path class="cls-1" d="m866.65,123.89c-.05,7.04-.09,15.35-.16,14.18.07,7.87.13,9.54.16-14.18Z"/>
        <path class="cls-1" d="m866.49,138.07c-.01-1.51-.03-3.14-.04-5.08,0,1.59.01,2.93.02,4.73,0,.47.02.2.02.34Z"/>
        <path class="cls-1" d="m588.94,2.48c-7.1,1.46-13.22,3.61-18.72,6.07-5.49,2.48-10.35,5.31-14.89,8.5-4.53,3.2-8.74,6.78-12.78,10.98-4.03,4.2-7.89,9.02-11.5,14.83-2.76,4.28-5.16,8.8-7.16,13.51-.34.87-.66,1.69-.96,2.47-.27.8-.52,1.56-.76,2.28-.5,1.43-.87,2.74-1.19,3.91-.69,2.33-1.03,4.18-1.36,5.62-.56,2.91-.73,4.28-.89,5.4-.11,1.13-.2,2-.38,3.93-.06.97-.14,2.2-.25,3.86-.07.83-.07,1.77-.09,2.84,0,1.06-.06,2.28-.03,3.58-.1,13.21-.1,33.74-.08,52.53-.01,4.68.05,9.33-.03,13.59-.03,4.24-.5,8.22-1.03,11.8-1.15,7.14-2.98,12.57-4,15.46-.81,1.96-.99,2.32-.77,1.7.11-.31.32-.87.59-1.59.24-.74.54-1.64.87-2.65,1.31-4.01,2.61-9.66,2.82-11.71-1.41,8.15-3.5,13.9-5.44,18.58-1.96,4.69-3.95,8.3-6.23,12-2.32,3.68-4.98,7.48-9.1,11.99-4.14,4.46-9.71,9.77-18.53,15.16l-.64.27c-10.57,6.3-22.94,10.52-36.01,11.56-6.52.54-13.19.36-19.82-.61-6.63-1.01-13.2-2.82-19.54-5.4-6.34-2.58-12.37-6.04-18-10.13-5.6-4.13-10.72-9-15.23-14.42-8.95-10.9-15.31-24.2-17.86-38.36-.15-.88-.33-1.77-.47-2.66l-.34-2.68-.17-1.34-.1-1.35-.21-2.69c-.07-1.81-.12-3.59-.14-5.42v-5.51c-.01-7.35-.02-14.71-.03-22.08,0-7.36-.02-14.73-.02-22.09,0-3.68,0-7.35-.01-11.03-.01-1.84.02-3.65-.05-5.53l-.07-2.79-.21-2.79c-1.15-14.87-6.31-29.27-14.45-41.44-4.08-6.08-8.91-11.6-14.26-16.45-5.4-4.8-11.3-8.97-17.59-12.28,3.37,1.87,4.59,2.64,5.29,3.13.7.48.9.65,2.14,1.48-12.46-8.31-27.36-13.54-42.79-14.48-7.7-.56-15.5.05-23.14,1.52-3.8.82-7.6,1.76-11.27,3.08-1.86.58-3.65,1.38-5.48,2.08-1.77.83-3.59,1.55-5.31,2.49-3.51,1.72-6.85,3.79-10.09,5.97-3.23,2.21-6.28,4.67-9.21,7.27-5.77,5.28-10.91,11.27-15.07,17.87-4.24,6.55-7.46,13.72-9.8,21.1-2.21,7.42-3.59,15.08-3.79,22.74-.14,3.85-.04,7.59-.06,11.36,0,3.76.02,7.51.02,11.24.02,7.47.04,14.87.05,22.19.02,7.32.04,14.57.06,21.72.03,3.58-.09,7.08-.39,10.57-.21,1.73-.39,3.47-.67,5.18-.31,1.71-.55,3.42-.97,5.1-2.93,13.49-9.19,25.71-17.27,35.68-8.14,9.94-18.1,17.62-28.53,22.82,3.58-1.75,7.17-3.86,10.74-6.26,3.56-2.42,7.04-5.24,10.4-8.36,6.73-6.24,12.75-14.02,17.44-22.91,2.34-4.45,4.33-9.18,5.89-14.12,1.54-4.95,2.65-10.1,3.28-15.36.67-5.26.68-10.61.66-15.99,0-5.38.01-10.78.02-16.18,0-10.81.01-21.62.02-32.28.03-5.33-.09-10.61.12-15.85.27-5.23,1.03-10.37,2.19-15.32,2.32-9.92,6.31-19.08,11.38-26.94,5.01-7.91,11.08-14.5,17.3-19.81,4.66-3.87,10.43-7.68,16.74-10.86,6.29-3.21,13.2-5.58,19.83-7.08,6.64-1.51,13.02-2.09,18.3-2.09,1.32-.04,2.58.05,3.75.08,1.18.02,2.28.11,3.29.2,1.01.09,1.93.16,2.76.26.82.12,1.55.23,2.17.33,11.56,1.51,21.89,5.22,30.75,10.12,8.89,4.89,16.24,11.07,22.34,17.71,12.1,13.45,18.97,29,21.48,44.97.57,4.01.96,8.04.99,12.1.06,4.05.04,8.11.07,12.22.03,8.22.06,16.61.09,25.4.02,8.79.04,17.96.06,27.74-.01,9.7,1.42,20.05,5.26,30.49.57,1.48,1.04,2.69,1.42,3.68.42.97.74,1.72,1,2.3.5,1.16.68,1.67.78,1.91.17.48-.18-.05.59,1.62-5.39-10.47-8.57-22.07-9.29-33.83-.17-2.94-.2-5.89-.19-8.84l-.02-8.86-.04-17.72-.06,21.6c.01,3.6-.08,7.2.02,10.8.03,3.6.42,7.19.88,10.75-.15-1.16-.32-2.42-.5-3.77-.15-1.35-.24-2.8-.37-4.32-.09-1.52-.1-3.12-.16-4.77,0-1.65,0-3.36-.01-5.1-.01-6.98-.02-14.59-.04-21.77-.03-14.37-.07-27.06-.21-29.65.05,15.48.1,33.27.16,52.1-.03,4.7.05,9.5.61,14.29.52,4.8,1.52,9.58,2.9,14.28,2.75,9.39,7.13,18.41,12.93,26.34,11.49,15.99,28.45,27.37,45.61,32.25,8.57,2.53,17.14,3.53,25.13,3.46,7.99-.14,15.42-1.23,21.9-3.08-6.12,1.66-12.82,2.69-19.81,2.88-6.99.19-14.3-.36-21.53-2.01-14.52-3.1-28.6-10.55-39.62-20.73-1.18-1.16-2.48-2.34-3.7-3.69-.62-.67-1.27-1.32-1.88-2.02-.6-.71-1.21-1.42-1.82-2.13-.62-.7-1.18-1.45-1.76-2.18-.56-.74-1.15-1.45-1.67-2.19-1.03-1.49-2.09-2.9-2.94-4.31-3.54-5.55-5.43-9.95-5.11-9.36,4.71,9.6,11.14,18.06,18.66,25.05,7.53,7,16.16,12.53,25.37,16.42,9.23,3.85,19.02,6.01,28.84,6.55,9.83.43,19.7-.65,29.1-3.51,9.39-2.84,18.33-7.26,26.29-13.17,7.95-5.91,14.96-13.24,20.56-21.68,5.62-8.43,9.74-18.03,12.03-28.24,1.14-5.11,1.83-10.37,2.02-15.71.09-2.66.08-5.38.07-8.11,0-2.73,0-5.47-.01-8.23,0-11.07,0-24.11,0-34.84.02-10.73.03-19.14.23-21-.1,3.67-.06,5.7-.04,6.9.02,1.2.04,1.57.06,1.85.05.57.09.81.13,6.77-.11-15.64-.08-16.48,0-19.02.03-1.28.12-3,.74-7.21.19-1.05.37-2.26.65-3.65.33-1.38.63-2.96,1.13-4.72.93-3.54,2.36-7.89,4.7-13.11-.69,1.84-1.2,3.73-1.76,5.6,1.44-4.28,3.74-9.6,7.18-15.22,3.46-5.6,7.98-11.57,13.69-16.99,5.66-5.47,12.43-10.42,19.83-14.34,3.69-1.99,7.57-3.62,11.47-5.07,3.92-1.43,7.92-2.5,11.88-3.39,2.88-.46,3.72-.56,2.97-.39-.75.18-3.09.57-6.49,1.44-3.39.9-7.87,2.2-12.78,4.29-4.9,2.08-10.24,4.89-15.36,8.43,5.84-3.97,10.77-6.39,14.94-8.21,2.11-.85,4.01-1.67,5.84-2.26.91-.31,1.78-.63,2.65-.91.87-.26,1.72-.5,2.56-.75,1.67-.53,3.34-.85,5.04-1.28,1.71-.36,3.47-.7,5.38-1,3.81-.57,8.2-.98,13.85-.93-7.14,0-14.25.97-21.13,2.73,5.8-1.47,11.46-2.21,16.82-2.41,5.36-.2,10.42.11,15.09.83,9.35,1.4,17.09,4.14,23.21,6.98.76.28-1.7-.95-.94-.71.37.15,1.6.56,4.36,1.9.69.34,1.47.74,2.37,1.19.89.46,1.86,1.04,2.96,1.67,2.2,1.27,4.79,2.96,7.83,5.17,1.26,1,2.29,1.82,3.12,2.47.81.68,1.41,1.23,1.88,1.64.93.83,1.28,1.16,1.39,1.28.22.26-.46-.32.62.75.32.27,1.05.92,2.2,1.97.57.53,1.2,1.2,1.95,1.95.37.38.77.78,1.19,1.22.4.45.83.93,1.27,1.43,3.57,4.02,8.37,10.13,12.76,19.07.7,1.68-.72-1.31-2.68-4.69-.5-.84-1.02-1.71-1.53-2.56-.54-.82-1.07-1.61-1.54-2.32-.92-1.43-1.75-2.42-1.95-2.68,4.35,6.07,7.48,12.14,9.79,17.95,2.31,5.82,3.79,11.41,4.68,16.74,1.15,6.5,1.2,9.71,1.35,11.03.06,1.33.08.79.08-.06-.02-.86-.09-2.03-.05-1.99.02.02.06.35.14,1.18.1.83.11,2.16.19,4.18-.06,40.56-.5,4.04-.8,18.99-.02-3.82-.05-7.77-.07-11.8-.01-2.02-.02-4.05-.03-6.09-.03-1.01-.06-2.03-.09-3.05l-.05-1.53-.12-1.53c-.24-4.08-.92-8.13-1.74-12.1-.84-3.96-2.04-7.78-3.34-11.45-2.76-7.27-6.25-13.78-9.95-19-3.66-5.25-7.38-9.3-10.25-12.14,6.86,6.81,12.58,14.77,16.83,23.45,4.19,8.71,6.95,18.12,8.01,27.75-.08-.43-.06-.15.02.62.05.77.12,2.03.21,3.55.1,1.51.07,3.29.11,5.08-.02,1.81-.04,3.65-.05,5.27-.08,6.49-.13,9.53-.25-5.91-.01,14.6-.03,29.95-.04,45.65,0,3.93,0,7.87,0,11.84,0,1.98,0,3.97,0,5.95v2.99s.09,3.03.09,3.03c0,1.01.09,2.02.17,3.03.09,1.01.14,2.02.25,3.03.27,2.01.47,4.03.87,6.02.67,4,1.71,7.94,2.96,11.79,1.22,3.87,2.83,7.59,4.56,11.24,1.79,3.62,3.83,7.1,6.04,10.44,4.52,6.61,9.84,12.6,15.8,17.65,1.45,1.31,3.03,2.45,4.55,3.65,1.59,1.1,3.12,2.28,4.76,3.28,3.19,2.13,6.57,3.89,9.92,5.56,6.8,3.17,13.8,5.5,20.77,6.83-3.93-.84-8.38-2-11.54-3.21-1.61-.53-2.87-1.09-3.67-1.41-.79-.33-1.09-.47-.69-.35,6.81,2.71,11.98,3.91,15.79,4.72,3.83.75,6.34,1.03,8.12,1.29,3.58.33,4.26.51,7.26.62,5.43.05,9.34-.31,12.34-.74,3.01-.38,5.1-.89,6.94-1.26,1.82-.5,3.4-.85,5.28-1.46.94-.3,1.97-.62,3.16-1,1.17-.42,2.5-.9,4.05-1.47,5.24-1.88,9.71-4.09,13.61-6.34,3.9-2.25,7.26-4.53,10.17-6.85,5.87-4.59,10.18-9.04,13.93-13.64,3.74-4.62,6.95-9.41,10.01-15.29,3.05-5.88,5.91-12.92,7.92-22.23-.23.75-.53,1.49-.8,2.23,1.55-6.55,2.03-11.86,2.2-16.45.08-2.31.07-4.43.05-6.46-.01-2.04-.03-4-.04-5.98-.06-7.91-.13-16.07-.04-30.45.06-1.59.14,9.42.21,18.27-.05-12.74.01-18.61.07-24.4.02-2.9.05-5.77.07-9.48,0-1.85,0-3.91,0-6.29,0-1.19,0-2.45,0-3.81.03-1.34.07-2.77.1-4.31l-.04,4.87.08,4.93.17,9.86v-15.81c0-5.27.59-10.35,1.35-14.44.72-4.1,1.63-7.22,2.1-8.72.46-1.5.47-1.39-.14,1.04,2.13-8.22,6.2-17.65,12.62-26.67,6.4-9,15.21-17.53,25.81-23.75,10.55-6.28,22.72-10.29,34.8-11.49,12.09-1.23,23.97.21,34.15,3.36l-2.78-.53c5.3,1.39,12.75,3.98,20.45,8.52,7.69,4.5,15.62,10.88,21.99,18.53,6.41,7.6,11.37,16.27,14.4,24.27,3.14,7.98,4.48,15.2,5.17,19.92.11,1.08.22,2.15.24,3.24l.23,2.74c.06.91.07,1.83.11,2.74.08,1.82.08,3.68.09,5.53l.09,11.12.17,22.23c-.03,20.13-.42,13.3-.31,14.92,0,2.76,0,5.49.01,8.17.01,2.69-.02,5.32.08,7.98.16,5.29.79,10.42,1.8,15.32,1.02,4.91,2.48,9.57,4.21,13.98,1.74,4.41,3.75,8.57,6.06,12.42,2.3,3.85,4.77,7.45,7.46,10.73,2.7,3.27,5.49,6.31,8.45,9.03,2.96,2.7,5.96,5.22,9.09,7.37,1.52,1.14,3.13,2.1,4.68,3.12,1.59.93,3.15,1.89,4.74,2.72,1.65.74,5.47,2.72,11.14,4.71,5.66,1.97,13.17,3.95,21.79,4.69,8.6.73,18.28.29,27.77-1.99,4.74-1.12,9.43-2.62,13.91-4.51,4.47-1.9,8.73-4.16,12.67-6.64,9.49-5.96,17.86-13.81,24.45-23,6.6-9.18,11.4-19.71,13.98-30.8,1.29-5.54,2.03-11.22,2.22-16.93.11-2.86.06-5.69.07-8.52v-8.51c0-11.36,0-22.73,0-34.13,0-5.7,0-11.4,0-17.1,0-5.66.56-11.32,1.67-16.87,2.21-11.1,6.67-21.76,13.03-31.13,6.35-9.37,14.58-17.47,24.03-23.67,9.45-6.21,20.12-10.52,31.21-12.58,11.08-2.07,22.54-1.97,33.53.32,10.99,2.27,21.48,6.75,30.7,13.03,9.22,6.27,17.17,14.32,23.3,23.53,6.14,9.2,10.44,19.56,12.63,30.3,2.38,10.75,1.61,21.77,1.77,32.63.02,10.87.05,21.67.07,32.39.01,5.36.02,10.7.04,16.02,0,5.32.35,10.64,1.25,15.85,1.74,10.43,5.45,20.41,10.74,29.33,6.19,10.73,16.43,21.96,29.75,29.94,6.66,3.94,13.99,7.16,21.64,9.19,7.63,2.14,15.56,3.01,23.25,3.04-9.44-.11-16.68-1.42-22.67-3.06-5.99-1.65-10.79-3.57-15.4-5.8-4.59-2.26-9.02-4.86-13.93-8.56-1.2-.96-2.51-1.89-3.76-3.02-.64-.55-1.29-1.11-1.96-1.69-.64-.61-1.3-1.23-1.98-1.87-1.38-1.25-2.69-2.72-4.12-4.22-1.36-1.57-2.82-3.2-4.22-5.06-4.27-5.52-7.2-10.66-9.44-15.4-2.23-4.76-3.75-9.17-4.95-13.52-.63-2.17-1.06-4.36-1.53-6.56-.37-2.23-.76-4.48-.98-6.84-.16-1.18-.24-2.39-.31-3.62-.08-1.24-.17-2.5-.16-3.81-.07-2.6,0-5.41.02-8.43-.08,4.1-.26,8.16-.01,12.19-.4-4.67-.31-8.62-.34-11.99,0-3.36-.01-6.12-.02-8.47.01-4.69.02-7.7.03-10.47.03-5.53.06-10.07-.09-25.03l.47,1.23c-.06-2.63-.09-6.26-.11-10.39,0-2.07,0-4.26,0-6.51-.06-2.27-.04-4.62-.26-6.96-.56-9.4-3.08-18.6-4.97-23.76-1.29-3.05-2.66-6.06-4.27-8.94-2.68-5.39-5.68-10.02-8.69-13.99-.77-.97-1.48-1.96-2.25-2.85-.77-.9-1.51-1.77-2.23-2.62-1.53-1.62-2.93-3.18-4.37-4.52-5.65-5.49-10.42-8.82-13.46-10.9l1.83,1.52c-1.88-1.25-7.67-5.19-15.75-8.45-8.02-3.36-18.3-5.77-27.55-6.29-9.25-.6-17.33.48-21.23,1.17-1.97.3-2.9.51-2.49.37.21-.08.75-.22,1.7-.41.95-.18,2.27-.5,4.05-.77-1.74.24-3.42.62-5.22.95-.89.22-1.81.44-2.77.67-.48.12-.97.24-1.48.36-.5.15-1.01.3-1.54.45-4.23,1.22-9.44,2.94-16.31,6.41l-2.22.81c-4.89,2.67-9.64,5.91-13.92,9.46-4.28,3.54-8.08,7.4-11.23,11.15-6.32,7.5-10.06,14.43-11.54,17.27,2.7-5.39,4.9-8.79,6.61-11.29,1.67-2.52,2.93-4.1,4.12-5.71-3.79,4.54-6.68,8.95-8.97,13.01-2.28,4.07-4.02,7.78-5.28,11.14-2.6,6.69-3.69,11.77-4.4,15.5-1.27,7.5-1.05,9.69-1.11,11.5.03,1.83.06,3.31.18,9.44.1,6.12.17,16.91.17,37.36l-.19-.95.2,20.76c-.04,1.81,0,3.64-.09,5.42l-.1,2.69c-.04.89-.15,1.78-.22,2.68-.27,3.57-.89,7.1-1.6,10.6-.69,3.56-1.75,7.95-3.54,12.82-1.78,4.87-4.3,10.21-7.73,15.6-6.75,10.81-17.45,21.72-31.03,29.1-6.77,3.67-14.16,6.56-21.81,8.26-7.63,1.8-15.49,2.38-23.09,2.09-7.6-.33-14.94-1.71-21.66-3.75-6.71-2.11-12.79-4.9-18.07-7.96-8.24-4.89-17.09-12.01-25-22.69-1.92-2.7-3.87-5.55-5.59-8.71-.92-1.54-1.7-3.21-2.55-4.87-.41-.84-.77-1.71-1.17-2.58-.4-.87-.79-1.75-1.12-2.66-2.9-7.21-5.05-15.41-5.85-24.48-.05.8-.07,1.6-.06,2.39-.13-.91-.19-1.91-.26-2.98-.05-1.07-.19-2.21-.19-3.42-.02-1.21-.04-2.5-.06-3.84,0-1.36.02-2.79.03-4.27.03-5.94.07-12.82.11-20.33.03-7.51.07-15.64.11-24.08.02-4.22.04-8.52.06-12.85.07-4.3-.04-8.81-.49-13.2-.44-4.42-1.3-8.78-2.38-13.03-1.08-4.26-2.57-8.36-4.22-12.29-1.65-3.94-3.65-7.62-5.72-11.1-2.11-3.47-4.41-6.66-6.75-9.61-4.74-5.86-9.79-10.58-14.4-14.21-4.61-3.65-8.8-6.19-11.87-7.99-6.37-3.31-9.64-4.31-10.63-4.71-1-.37.16.09,2.14.88,1,.37,2.15.94,3.36,1.48,1.21.53,2.42,1.15,3.49,1.72,2.17,1.09,3.73,2.11,3.57,2.07-6.07-3.44-11.81-5.78-17.05-7.43-5.25-1.65-10.01-2.61-14.29-3.24-8.58-1.17-15.25-1.06-21.02-.58-5.78.52-10.69,1.43-15.86,2.82-5.16,1.42-10.62,3.35-17.15,6.71-1.9,1.01-3.43,1.95-4.68,2.68-1.22.79-2.16,1.4-2.86,1.86-1.39.93-1.79,1.28-1.56,1.11.24-.16,1.12-.79,2.45-1.61.66-.42,1.41-.89,2.23-1.41.84-.48,1.75-.99,2.68-1.52,3.75-2.08,8.11-4.07,10.52-4.93,2.39-.91,2.7-.99-1.57.76-12.15,5.15-19.54,11.04-25.11,15.99-5.48,5.11-9.17,9.54-12.68,14.54-3.45,5.03-6.84,10.64-10.09,19.06-1.6,4.21-3.17,9.13-4.31,15.07-.25,1.49-.59,3.02-.76,4.64-.21,1.61-.44,3.29-.54,5.04-.06.87-.15,1.76-.2,2.67-.03.91-.05,1.83-.08,2.78-.08,1.9-.03,3.79-.05,5.79-.04,1.58-.07,1.34-.09,0,0-1.36-.08-3.77.02-6.71.02-.73.04-1.48.06-2.25.06-.77.11-1.55.17-2.34.08-1.57.28-3.15.47-4.65.16-1.5.41-2.91.63-4.16.2-1.25.4-2.33.59-3.15-1.19,5.6-1.97,11.92-1.97,18.76.02,6.7.03,13.9.05,21.48,0,7.58.02,15.55.03,23.8,0,4.12,0,8.32,0,12.57,0,4.25.06,8.58-.16,12.8-.51,8.51-2.3,17.12-5.46,25.28-1.54,4.1-3.47,8.06-5.67,11.86-2.2,3.8-4.66,7.46-7.44,10.85-2.76,3.4-5.76,6.6-8.97,9.54-3.23,2.91-6.66,5.56-10.22,7.95-7.15,4.73-14.87,8.3-22.7,10.61-8.94,2.68-18.91,3.85-29.22,3.25-10.31-.59-20.95-3.22-30.97-7.97-10.02-4.73-19.39-11.64-27.08-20.36-7.71-8.69-13.73-19.16-17.33-30.53-1.81-5.68-2.98-11.58-3.53-17.55-.09-1.5-.27-2.99-.29-4.49-.02-1.51-.1-2.97-.08-4.52l.02-9.21c.02-12.28.05-24.55.07-36.69.01-6.07.03-12.1.04-18.09.02-6.12-.55-12.22-1.75-18.13-2.37-11.83-7.18-22.86-13.63-32.3l-1.07-1.32c-2.74-3.87-5.79-7.59-9.2-11.04-3.41-3.44-7.14-6.64-11.15-9.55-8-5.83-17.22-10.34-27.12-13.19-4.95-1.42-10.07-2.45-15.3-2.99-5.23-.53-10.54-.61-15.88-.22-10.67.76-21.43,3.46-31.48,8.22,6.58-3.02,13.5-5.3,20.6-6.65Z"/>
        <path class="cls-1" d="m345.7,78.53c.11,1.17.22,2.33.24,3.51.03,1.17.13,2.34.1,3.51.13,3.35.12,6.77.14,10.17l.04,10.21.09,20.43c.1-8.29.11-14.57.1-21.63,0-3.53-.01-7.26-.02-11.52.01-4.28,0-9.05-.68-14.67Z"/>
        <path class="cls-1" d="m347.11,87.21c-.2-7.13-1.24-14.24-3.22-21.09,1.55,5.55,2.53,11.26,2.93,17.01.38,5.75.2,11.52.25,17.29.01-4.4.12-8.8.05-13.21Z"/>
        <path class="cls-1" d="m584.31,6.04c-1.69.49-3.41.88-5.06,1.47-6.14,2.05-12.04,4.79-17.57,8.14-5.51,3.39-10.64,7.38-15.27,11.89-9.3,8.98-16.43,20.15-20.87,32.27,2.38-6.47,5.53-12.66,9.34-18.41,3.85-5.72,8.39-10.98,13.46-15.66,5.1-4.65,10.76-8.68,16.8-12.03,6.06-3.3,12.52-5.87,19.19-7.67Z"/>
        <path class="cls-1" d="m866.91,126.76c.07,4.45.09,9.88.1,15.35,0,2.74.01,5.48.02,8.12,0,1.32.01,2.62.02,3.87,0,1.26-.04,2.5-.05,3.68.1-3.09.05-6.09.05-9.11l-.03-9.06-.06-18.12-.04,5.27Z"/>
        <path class="cls-1" d="m1036.15,131.53c.46,13.77,0,27.41.41,9.12-.08-21.71-.26-2.89-.41-9.12Z"/>
        <path class="cls-1" d="m1056.27,209.81c-3.97-4.98-6.61-9.2-8.68-12.89-2-3.73-3.56-6.89-4.83-10.15,3.03,7.87,5.43,11.57,7.22,14.48.95,1.43,1.74,2.68,2.75,3.98.49.66,1,1.35,1.56,2.12.6.74,1.25,1.55,1.99,2.46Z"/>
      </g>
      <g>
        <path class="cls-1" d="m1.22,88.4c-.21-1.95-.24-1.64-.19-.3.05,1.35.13,3.73.2,5.93l.5,3.98c-.07-1.6-.08-3.21-.19-4.81l-.32-4.8Z"/>
        <path class="cls-1" d="m1.61,110.02c.05,3.63.06,7.26.05,10.9.04-2.62.07-5.25.07-7.87.4-8.73.4,1.17.34,4.47.19-7.15.06-8.46-.07-8.26-.13.2-.3,1.9-.4.76Z"/>
        <path class="cls-1" d="m1.19,131.45c-.24,6.98.09,5.04.23,2.11-.09-.46-.06-5.04-.23-2.11Z"/>
        <path class="cls-1" d="m204.18,24.23c-1.44,1.29-3.06,2.91-2.89,2.63-.73.81-1.15,1.31-.84,1.01.32-.29,1.36-1.41,3.72-3.64Z"/>
        <path class="cls-1" d="m201.29,26.85c.28-.31.59-.63.95-1.02-.3.32-.56.58-.91.94-.08.1-.03.05-.05.08Z"/>
        <path class="cls-1" d="m171.11,159.59c-.2,3.92-.41,6.97-.63,9.89-.21,1.45-.37,2.89-.64,4.4-.33,1.5-.55,3.11-1.04,4.84-.44,1.27-.87,2.54-1.42,3.77-.29.93-.52,1.68-.71,2.29-.22.6-.38,1.06-.52,1.43-.26.73-.36,1.09-.43,1.38-.08.29-.12.52-.28,1.01-.18.48-.48,1.22-1.04,2.53-1.61,3.2-4.35,8.04-7.38,12.15-.78,1.01-1.48,2.04-2.24,2.94-.75.91-1.46,1.77-2.09,2.54-1.35,1.48-2.41,2.67-3.01,3.27-.9.77-.39.24.39-.64.76-.89,1.83-2.1,2.18-2.55-1.54,1.71-2.63,2.99-3.64,3.99-.98,1.02-1.74,1.87-2.63,2.7-.89.83-1.77,1.77-3.09,2.84-.65.55-1.39,1.16-2.23,1.86-.89.65-1.9,1.38-3.07,2.22l-.2.04c-2.68,2.16-5.79,3.88-8.87,5.83-1.62.83-3.27,1.66-4.93,2.51l-1.25.64c-.42.2-.87.36-1.3.54-.87.35-1.75.71-2.63,1.07-7.06,2.81-14.78,4.79-22.74,5.56-15.95,1.48-32.55-1.92-46.33-8.72,1.88.89,1.38.73,2.08,1.13-.92-.43-1.85-.85-2.78-1.28-.94-.42-1.8-.98-2.71-1.47-.9-.51-1.81-1.01-2.71-1.52l-1.36-.76c-.45-.26-.87-.57-1.31-.86-1.74-1.16-3.49-2.34-5.25-3.51l-2.52-1.92-2.45-2.03c-6.44-5.52-12-12.13-16.3-19.26-2.16-3.56-4.01-7.25-5.57-10.97-.79-1.85-1.48-3.73-2.12-5.59-.29-.94-.64-1.85-.89-2.79-.24-.94-.47-1.88-.7-2.81-1.84-7.45-2.76-14.64-3.32-21.11.08,2.22.37,4.61.56,7.16.14,1.27.32,2.57.48,3.91.08.67.17,1.34.25,2.02.12.68.24,1.36.36,2.05.25,1.37.45,2.79.76,4.19.32,1.4.65,2.83.98,4.26.74,2.85,1.71,5.69,2.81,8.47,2.18,5.59,5.06,10.9,8.24,15.56,3.18,4.66,6.73,8.59,10.02,11.67,2.28,2.44,5.49,5.24,8.53,7.44,3.07,2.15,5.82,3.93,6.89,4.83,1.4.8,2.75,1.57,4.05,2.31.65.37,1.29.73,1.92,1.09.63.36,1.29.62,1.92.93,2.56,1.15,4.88,2.38,7.27,3.15,2.35.84,4.55,1.75,6.81,2.27,2.24.57,4.37,1.29,6.58,1.62,4.37.9,8.78,1.45,13.63,1.67,2.43.02,4.96.24,7.65,0,1.35-.07,2.73-.14,4.17-.22,1.43-.15,2.9-.38,4.43-.57,3.51-.41,1.84-.02,2.88-.03l-4.86.68c-.81.1-1.62.25-2.44.31l-2.45.14c-1.64.06-3.27.24-4.91.21l-4.92-.13c2,.08,3.99.21,5.99.24l6-.23c-1.3.08-3.06.19-5,.31-.48.02-.98.06-1.48.07-.5-.01-1.01-.03-1.52-.04-1.02-.03-2.05-.06-3.05-.09-1-.05-1.97,0-2.87-.12-.9-.09-1.73-.17-2.47-.25-1.47-.14-2.53-.22-2.9-.19,1.07.11,2.19.22,3.34.33.57.06,1.16.12,1.75.18.3.03.59.06.89.09.3,0,.6.01.91.02,1.22.03,2.46.06,3.73.09.63.02,1.28.03,1.92.05.65.03,1.3-.05,1.95-.07,2.62-.17,5.32-.17,8.01-.63,1.35-.18,2.7-.36,4.06-.54,1.35-.24,2.68-.57,4.01-.85l2-.44c.67-.14,1.33-.28,1.97-.5,1.29-.4,2.57-.79,3.84-1.18.63-.2,1.26-.39,1.89-.58.62-.21,1.21-.48,1.81-.71,1.19-.48,2.37-.96,3.52-1.43,4.54-2,8.55-4.15,11.66-6.25-.76.45-1.54.91-2.34,1.39-.4.24-.8.48-1.21.73-.41.24-.86.43-1.29.65-1.74.87-3.55,1.77-5.4,2.68-1.91.77-3.87,1.55-5.82,2.33-.96.43-2,.66-3,.99-1.01.31-2.01.61-3.01.91-.44.12-.91.25-1.4.39-.49.12-1.01.2-1.52.3-1.02.2-2.05.39-2.95.57-1.8.35-3.1.55-2.94.42,11.67-2.27,21.84-6.5,31.12-12.24,9.22-5.8,17.76-13.08,24.89-22.95.9-1.22,1.79-2.63,2.72-3.99.83-1.42,1.73-2.79,2.43-4.09.69-1.3,1.36-2.44,1.8-3.35.44-.91.77-1.54.9-1.75-1.65,3.64-.2.99-1.66,3.94,1.02-1.91,1.38-2.99,1.64-3.63.24-.64.28-.87.37-1.21.1-.33.24-.78.63-1.88.21-.54.47-1.24.82-2.17.34-.93.7-2.12,1.21-3.59v1.67c.12-.61.29-1.3.5-2.04.17-.76.36-1.58.59-2.45.23-.87.47-1.8.65-2.78.19-.98.45-2,.63-3.06.16-1.06.33-2.16.5-3.27.14-1.12.21-2.26.31-3.41.18-2.29.33-4.62.42-6.86.41-3.2.15,2.74-.38,9.59.66-7.77.51-8.51.77-14.73.04,1.97.14,3.95.13,5.93-.01-6.65.58-11.89.74-15.66-.11-.45-.44,3.05-.4-5.28.03-3.58.15-1.75.21-2.59-.11-.46-.33-3.46-.43-8.96.13-1.01.27,3.65.43,4.01-.06-4.15-.15-7.53-.07-10.55-.21-7.34-.21.48-.42-4.01.05-11.28.5-1.13.79-5.28.23,8.5.54,19.4.66,23.96l-.34-16.3c.16.98.21-11,.43-2.42,0-8.1.04-17.04.61-25.85.55-8.81,1.7-17.48,3.4-25.03-.51,2.13-1.13,4.89-1.14,4.42,1.53-7.87,1.64-6.93,2.12-8.49.68-2.87.99-4.14,1.18-5.15.21-1.01.31-1.76.83-3.5,1.14-2.83,2.18-4.99,3.15-6.78.96-1.79,1.84-3.22,2.75-4.56.45-.67.91-1.32,1.41-1.97.25-.36.45-.59.77-.93.29-.32.59-.65.89-.99,1.23-1.35,2.62-2.88,4.38-4.83l-.65.3c2.51-2.73,3.88-4.34,5.33-5.98,1.46-1.62,2.96-3.33,5.98-5.9.36-.25-1.86,1.82-3.52,3.6,2.45-2.51,3.75-3.49,4.98-4.49,1.27-.95,2.49-1.95,5.23-3.94-1.4,1.12-2.78,2.28-4.09,3.51,1.04-.86,2.24-1.8,3.41-2.64.57-.44,1.18-.83,1.76-1.18.58-.36,1.12-.7,1.61-1.01,1.95-1.25,3.12-1.78,1.97-1,4.02-2.49,9.87-5.46,16.36-7.57,6.47-2.17,13.51-3.47,19.42-4.03l-.76.32c3.02-.52,8.68-.67,14.2-.33,1.38.12,2.76.19,4.08.33,1.32.16,2.59.32,3.78.46,2.36.33,4.36.69,5.69.82l.86.31c2,.41,4.01.77,5.98,1.31l2.97.75c.96.3,1.93.61,2.89.96,2.57,1.04,3.34,1.56,3.56,1.74.21.2-.14.11.09.16,5.5,2.53,10.1,5.46,14.1,8.27,1.99,1.41,3.88,2.79,5.55,4.15,1.68,1.37,3.17,2.78,4.52,4.17.82.56,3.48,3.12,6.48,6.79,1.51,1.83,3.12,3.91,4.74,6.05l1.22,1.61c.19.26.44.56.56.76l.52.86c.69,1.14,1.35,2.29,1.97,3.41,2.97,5.4,5.53,11.08,7.31,17.05.88,2.98,1.66,6.03,2.07,9.1l.46,4.68c.16,1.56.22,3.14.33,4.72.8,12.61.38,25.33.15,37.95-.11,6.31-.22,12.6-.09,18.85.02,3.12.19,6.23.31,9.33.22,3.09.37,6.17.72,9.22.26,3.06.72,6.07,1.14,9.07.47,2.99,1.1,5.93,1.57,8.87.98,5.9,2.96,11.52,5.51,16.69,1.52,3.1,3.65,6.63,6.24,10.07,2.58,3.45,5.57,6.85,8.56,9.91-3.54-3.87-5.32-6.13-7.07-8.38-1.69-2.29-3.39-4.56-5.91-9.07-1.81-3.43-2.71-5.94-3.49-8.31-.78-2.38-1.33-4.69-1.97-7.92.12,1.12.36,2.21.54,3.32-1.49-4.98-1.53-6.83-1.78-8.34-.22-1.52-.46-2.76-1.27-6.83l.51.27c-.3-1.42-.67-3.95-.95-6.51-.2-2.56-.39-5.13-.43-6.64l-.49-2.68c-.22-6.6-.15-10.91.12-12.92l-.29.65c.06-1.24.03-7.6.18-12.67.11-5.07.3-8.85.45-4.91-.02-1.92-.13-3.68,0-7.89l.31-.63c.03-3.04.07-6.26.1-8.94.02-2.68.05-4.82.14-5.7.05,3.3.17,4.41.3,5.51.12-12.9-.34-14.28-.6-15.26-.14-.49-.29-.9-.44-2.6-.08-.86-.18-2.04-.33-3.71-.14-1.68-.26-3.85-.58-6.71l.22.24c-.27-1.93-.45-3.86-.97-5.79-.35-2.02-.76-4.02-1.25-6.02-.75-1.95-1.76-4.85-3.21-8.18-1.43-3.34-3.28-7.12-5.42-10.93-.53-.95-1.08-1.91-1.64-2.86-.1-.2-.37-.61-.51-.78l-.49-.66-.98-1.33c-1.31-1.77-2.63-3.54-3.96-5.24-2.64-3.41-5.4-6.48-7.98-8.84-1.98-1.88-4.4-4.02-7.4-6.27-2.99-2.28-6.55-4.86-11.1-7.4l.44.59c-1.78-1.09-4.84-2.87-8.76-4.54-1.94-.84-4.14-1.66-6.43-2.29-2.27-.73-4.67-1.28-7.06-1.88-1.2-.28-2.41-.49-3.6-.74-.6-.12-1.19-.24-1.78-.36-.59-.09-1.19-.18-1.77-.27-1.17-.18-2.32-.35-3.43-.52-1.12-.12-2.2-.23-3.24-.34-4.16-.41-7.61-.52-9.59-.61-.99.06-1.72.1-2.25.14-.52.05-.83.1-.97.12-.29.05.05.02.64-.02,1.18-.05,3.33-.07,3.25.04-.97.05-1.88.09-2.74.13-.86.06-1.66.16-2.42.22-1.52.16-2.86.23-4.05.43-2.38.33-4.21.54-5.8.85-3.19.51-5.47.91-9.41,2-4.54,1.56-2.78,1.02-.5.31.57-.18,1.17-.36,1.72-.53.55-.13,1.05-.25,1.4-.33.7-.15.79-.14-.43.24-1.78.44-3.24.98-4.55,1.38-1.31.39-2.38.85-3.34,1.24-.96.4-1.81.75-2.62,1.09-.79.36-1.52.75-2.28,1.12-.76.38-1.55.77-2.42,1.21-.86.45-1.79,1.01-2.89,1.61-.55.3-1.14.63-1.77.98-.63.35-1.28.79-2,1.23-1.43.89-3.1,1.86-4.93,3.24-.76.48.14-.26,1.47-1.23,1.34-.95,3.12-2.02,3.88-2.58-.67.44-1.37.9-2.11,1.38-.74.47-1.51.97-2.28,1.56-1.56,1.14-3.14,2.42-4.78,3.83-3.27,2.82-6.59,6.22-9.82,9.88-1.62,1.83-3.22,3.71-4.84,5.6-.81.94-1.62,1.88-2.43,2.82l-.3.35c-.06.06-.32.38-.38.47l-.57.78c-.39.52-.74,1.06-1.1,1.59-2.85,4.29-4.98,8.94-6.52,13.42-.93,2.55-1.74,5.3-2.47,8.19-.73,2.87-1.34,5.9-2.02,9.02-1.17,6.27-2.04,12.97-2.56,19.8-1.02,13.67-.73,27.77-.69,40.12l.11.46c-.13,10.3.17,21.33-.97,33.28l.59-5.84Z"/>
        <path class="cls-1" d="m70.27,239.21l1.9.64c.94.16,1.88.38,2.82.49l2.85.29c1.9.17,3.8.46,5.71.42-.58-.04-1.12-.08-1.64-.12-.52-.04-1.01-.13-1.5-.19-.97-.12-1.9-.22-2.88-.34-.98-.12-2.02-.19-3.2-.38-1.17-.24-2.49-.5-4.06-.82Z"/>
        <path class="cls-1" d="m72.82,238.94l-2.92-.52c-.97-.19-1.96-.3-2.91-.59.76.24,1.56.38,2.34.53l2.36.47c1.57.3,3.14.67,4.74.8-.6-.09-1.21-.16-1.81-.27l-1.79-.41Z"/>
        <path class="cls-1" d="m173.43,161.19l-.15,1.46c-.25,3.6-.39,7.22-.95,10.81-.61,3.57-1.37,7.13-2.54,10.57,1.25-3.67,2.08-7.47,2.66-11.3l.38-2.88.21-2.89.39-5.77Z"/>
        <path class="cls-1" d="m203.79,24.96c-1.68,1.77-4.13,4.29-5.75,6.26,2.19-2.51,4.43-4.95,6.83-7.22-.37.31-.72.64-1.08.96Z"/>
        <path class="cls-1" d="m293.31,10.43c1.79.5,3.47,1.3,4.15,1.66.68.36.41.19-1.74-1.05-5.41-2.26-.81-.09-2.41-.61Z"/>
        <path class="cls-1" d="m312.71,21.13c-2.76-2.05-4.38-3.06-5.98-4.04,3.64,2.68,3.87,2.62,5.98,4.04Z"/>
      </g>
      <g>
        <path class="cls-1" d="m1.22,88.4c-.18-1.08-.2.36-.24,1.58l.45,1.08-.21-2.66Z"/>
        <path class="cls-1" d="m1.49,94.4c.19,1,.33,2,.49,3.01l-.26-2.18c.07-2.43.43.3.52,1.22-.25-3.97-.52-1.42-.76-2.05Z"/>
        <path class="cls-1" d="m1.96,100.34c0,1.94.24,1.4.31.58-.11-.13-.24-1.4-.31-.58Z"/>
        <path class="cls-1" d="m24.53,215.14c-.35-.43-.77-.93-.66-.91-.48-.39-.61-.45.66.91Z"/>
        <path class="cls-1" d="m23.87,214.24c.09.08.19.16.31.26-.09-.09-.16-.16-.27-.25-.03-.02-.02,0-.04,0Z"/>
        <path class="cls-1" d="m7.16,179.58c-.78-1.99-.94-3.19-1.47-5.14l.07-1.17c-.55-2.11-.45-.89-.91-2.42-.1-1-.33-2.54-.57-3.94-.21-1.41-.42-2.69-.47-3.16.07-.67.29.79.43,1.1-.23-1.27-.37-1.86-.53-2.52-.16-.66-.32-1.41-.45-3.01l.08-.06c-1.11-7.62-1-17.45-.99-26.07-.03.58-.09.43-.16.66.16-9.11.68-19.66,0-26.91.05,4.95-.76,13.28-.42,18.33-.29,1.85-.08,4.73-.42,5.49-.36,7.17.11,10.1.2,16.98-.04.99-.2.51-.34.8-.09-1.82-.15-3.64-.19-5.46l-.12,3.33c-.16-1.44-.04-4.96-.31-5.36.14,2.39.16,5.5.26,8.53.11,3.03.28,5.98.63,8.04-.06-1.96-.29-4.39-.32-6.71.06-1.02.11-2.6.26-2.5.57,6.6.69,12.09,1.77,18.78.15.83.31,1.82.41,2.64.13.81.21,1.45.16,1.6-.25-1.09-.22-.24-.46-1.12.58,2.34.53.15,1.18,3.55l-.6-.33c.82,1.23.81,4.18,1.83,6.47.06.91-.55-.62-1.02-2.47.45,2.12.82,2.22,1.29,3.88-.31-.48-.58-.96-.88-1.45.88,1.66.91,3.17,1.08,4.22.14.08.13-.94.89,1.24.29.95,0,.51.03.75.14.09.61.79,1.21,2.19-.03.31-.59-.85-.76-.89.45,1.06.81,1.93,1.06,2.73.95,1.81.14-.21.8.86,1.24,2.87-.33.5-.12,1.68-1.23-2.04-2.46-4.86-3.02-6.01.6,1.4,1.19,2.82,1.87,4.18-.28-.18,1.02,2.94-.14.81,1.75,4.24,4.69,8.98,7.33,12.47-.31-.54-.73-1.22-.56-1.18,1.36,1.8,1.06,1.71,1.22,2.17,1.08,1.29,1.22.95,2,1.64,1.93,2.86,2.35,3.13,4.04,5.56l.1-.33c1.22,1.71,1.77,1.61,3.21,3.32.05.13-.63-.41-1.15-.86,1.46,1.34,1.12,1.48,2.6,2.73-.46-.26-.9-.55-1.34-.83,1.11,1.09,2.89,2.52,2.1,2.2,1.12.78,2.57,1.96,4.12,3.15,1.56,1.16,3.22,2.33,4.63,3.26l-.33.08c1.62.72,5.35,3.56,6.89,3.93l.17.22c1.06.47,2.1.98,3.2,1.38,1.38.74.73.84.89.8.78.38,1.51.73,2.2,1.07.69.34,1.38.6,2.01.89,1.27.55,2.37,1.1,3.38,1.56.33-.06,1.34.2,2.62.61.64.21,1.34.44,2.05.67.72.21,1.46.43,2.15.63,6.56,2.19,13.68,3.55,20.72,3.94,7.04.41,14-.17,20.27-1.44,1.91-.25,4.38-1.3,6.66-1.96-2.86.53-3.08.84-5.9,1.35-2.15.23-2.97.07-4.82.06.32.06.65.14.97.18-2.85.55-2,.05-4.25.57l.06-.48c-.78.36-2.81.21-3.64.13l-.74.35c-1.82-.07-3.01-.23-3.56-.52l.17.3c-.34-.11-2.09-.12-3.47-.2-1.39-.14-2.41-.29-1.32-.46-.53.03-1.02.14-2.16.02l-.15-.31c-.83,0-1.7-.09-2.42-.19-.72-.1-1.29-.2-1.52-.32.9.05,1.21-.04,1.52-.13-3.45-.49-3.85-.31-4.16-.13-.31.2-.52.42-3.59-.16l.11-.17c-.53-.03-1.06-.07-1.59-.14l-1.55-.64c-2.39.21-8.38-2.51-11.99-3.59-.69-.26-1.45-.69-2.35-1.18-.9-.51-1.98-1-3.22-1.65l.03.35c-.94-.67-3.32-1.9-5.5-3.44-2.25-1.42-4.28-3.12-4.97-3.96-1.9-.97.15.17-.02.34-.45-.26-.85-.49-1.2-.69-.34-.23-.63-.44-.89-.63-.52-.38-.89-.7-1.21-1-.63-.59-1.03-1.07-1.84-1.79-1.03-.74-.67-.41-.2.01.47.43,1.08.91.46.6-1.46-1.29-2.13-1.71-2.87-2.23-.75-.51-1.6-1.1-3.29-2.82-.24-.44.99.76,1.43,1.01-1.36-1.01-3.12-2.69-4.91-4.6-1.79-1.92-3.57-4.13-5.12-6.12-1.66-2.35-3.6-5.34-5.35-8.58-1.75-3.23-3.33-6.69-4.43-9.84l-.15-.07c-.75-2.68-1.98-5.44-2.7-8.62l.28,1.57Z"/>
        <path class="cls-1" d="m.26,139.5l-.26.54.15,3.16c.22-1.28.03-1.94.11-3.71Z"/>
        <polygon class="cls-1" points="1.02 140.19 .93 138.54 .91 141.21 1.02 140.19"/>
        <path class="cls-1" d="m4.71,179.86l-.07-.4c-.61-1.91-1.15-3.85-1.63-5.81.5,2.09,1.05,4.17,1.71,6.21Z"/>
        <path class="cls-1" d="m24.19,215.16c-.58-.41-1.24-1.17-1.8-1.64l2.07,1.96-.26-.32Z"/>
        <path class="cls-1" d="m45.85,232.21c1.18.09,1.93.98.83-.04-1.56-.71-.32.12-.83.04Z"/>
        <path class="cls-1" d="m51.95,234.38c-.89-.41-1.42-.57-1.94-.72,1.1.71,1.24.51,1.94.72Z"/>
      </g>
    </g>
  </g>
</svg>