<svg width="48" height="48" viewBox="0 0 48 48" fill="none" xmlns="http://www.w3.org/2000/svg">
<path d="M20.8123 21.8698C20.9513 24.7057 22.6346 26.3195 23.6263 27.7356C24.1166 28.4345 24.3764 29.2688 24.3764 30.1215L24.391 30.1068C24.391 29.2505 24.6508 28.4199 25.1412 27.721C26.1292 26.3048 27.8161 24.6911 27.9552 21.8552C28.1162 18.5582 26.6781 15.5978 24.391 13.5999C22.093 15.5978 20.6513 18.5618 20.8123 21.8698Z" fill="#18B28D"/>
<path d="M44.2003 25.2748L41.6462 22.0364V21.3009C41.6462 15.2887 36.944 10.4109 31.1404 10.4109C25.3368 10.4109 20.3456 15.2924 20.6346 21.3009C20.7737 24.1368 22.457 25.7505 23.4486 27.1667C23.939 27.8656 24.1988 28.6999 24.1988 29.5525V35.1988C24.1988 35.8867 24.5903 36.5051 25.2014 36.8162C26.4236 37.4346 27.9642 38.1408 30.3354 36.9699C30.9538 36.6625 31.3526 36.0331 31.3526 35.3415V34.3425C33.3872 35.1256 36.5159 35.5025 37.1306 35.5391C39.4872 35.6672 41.3973 35.0268 41.6425 32.0372V27.9461C41.6425 27.485 42.0158 27.1118 42.4768 27.1118C42.4768 27.1118 45.1847 26.7166 44.2003 25.2712V25.2748Z" stroke="black" strokeWidth="2" stroke-linecap="round" stroke-linejoin="round"/>
<path d="M5.93896 27.1008C6.40003 27.1008 6.77328 27.4741 6.77328 27.9351V32.0262C7.01845 35.0121 8.92859 35.6562 11.2852 35.5281C11.8999 35.4952 15.0286 35.1146 17.0631 34.3315V35.3305C17.0631 36.0221 17.462 36.6515 18.0804 36.9589C20.4516 38.1298 21.9922 37.4236 23.2144 36.8052C23.8291 36.4942 24.217 35.8757 24.217 35.1878V29.5415C24.217 28.6853 24.4768 27.8546 24.9672 27.1557C25.9552 25.7396 27.6421 24.1258 27.7811 21.2899C28.0739 15.2814 23.079 10.3999 17.2754 10.3999C11.4718 10.3999 6.76962 15.274 6.76962 21.2899V22.0254L4.21545 25.2639C3.23111 26.7093 5.93896 27.1045 5.93896 27.1045V27.1008Z" stroke="black" strokeWidth="2" stroke-linecap="round" stroke-linejoin="round"/>
<path d="M10.4742 22.5304C10.4742 22.6545 10.3737 22.755 10.2497 22.755C10.1257 22.755 10.0251 22.6545 10.0251 22.5304C10.0251 22.4064 10.1257 22.3059 10.2497 22.3059C10.3737 22.3059 10.4742 22.4064 10.4742 22.5304Z" fill="#18B28D" stroke="black"/>
<path d="M38.1638 22.5304C38.1638 22.6524 38.0649 22.7513 37.9429 22.7513C37.8209 22.7513 37.722 22.6524 37.722 22.5304C37.722 22.4085 37.8209 22.3096 37.9429 22.3096C38.0649 22.3096 38.1638 22.4085 38.1638 22.5304Z" fill="#18B28D" stroke="black"/>
</svg>
