<svg width="48" height="48" viewBox="0 0 48 48" fill="none" xmlns="http://www.w3.org/2000/svg">
<rect x="15.2" y="15.2" width="16.8" height="12" fill="#18B28D"/>
<mask id="path-2-outside-1_4150_8741" maskUnits="userSpaceOnUse" x="3" y="13.2758" width="41" height="30" fill="black">
<rect fill="white" x="3" y="13.2758" width="41" height="30"/>
<path d="M40.9946 29.1769H39.9217C40.4582 28.6471 40.7893 27.9186 40.7893 27.1239V24.6072C40.7893 24.4085 40.5906 24.2099 40.3853 24.2099H38.7098L40.7165 21.5608C40.8489 21.3621 40.8489 21.0972 40.6502 20.9647C40.4516 20.8323 40.18 20.8323 40.0476 21.031L38.3058 23.3489V21.2959C38.3058 21.0972 38.1071 20.8985 37.9018 20.8985C37.6965 20.8985 37.4978 21.0972 37.4978 21.2959V23.3489L35.756 21.031C35.6236 20.8323 35.3521 20.8323 35.1534 20.9647C34.9547 21.0972 34.9547 21.3621 35.0871 21.5608L37.0938 24.2099H35.3521C35.1534 24.2099 34.9481 24.4085 34.9481 24.6072V27.1239C34.9481 27.9186 35.2858 28.6471 35.8156 29.1769H25.7027V27.5212H32.4049C32.6036 27.5212 32.8089 27.3226 32.8089 27.1239V16.395C32.8089 15.2029 31.8685 14.2758 30.6632 14.2758H16.5302C15.3249 14.2758 14.3845 15.2029 14.3845 16.395V27.1239C14.3845 27.3226 14.5831 27.5212 14.7884 27.5212H21.4907V29.1769H11.444C11.9804 28.6471 12.3115 27.9186 12.3115 27.1239V24.6072C12.3115 24.4085 12.1129 24.2099 11.9076 24.2099H10.232L12.2387 21.5608C12.3711 21.3621 12.3711 21.0972 12.1725 20.9647C11.9738 20.8323 11.7022 20.8323 11.5698 21.031L9.82801 23.3489V21.2959C9.82801 21.0972 9.62933 20.8985 9.42403 20.8985C9.21872 20.8985 9.02004 21.0972 9.02004 21.2959V23.3489L7.21203 21.0972C7.07957 20.8985 6.80804 20.8985 6.60936 21.031C6.41068 21.1634 6.41068 21.4283 6.54313 21.627L8.55645 24.2761H6.88089C6.68221 24.2761 6.4769 24.4748 6.4769 24.6735V27.1901C6.4769 27.9848 6.81466 28.7133 7.35111 29.2431H6.27822C5.00666 29.2431 4 30.2366 4 31.4949C4 32.7532 5.00666 33.7466 6.27822 33.7466H8.15246V42.4224C8.15246 42.6211 8.35114 42.8198 8.55645 42.8198H11.9076C12.1062 42.8198 12.3115 42.6211 12.3115 42.4224V40.3694H19.4111C19.6098 40.3694 19.8151 40.1707 19.8151 39.972V33.7466H27.3849V39.972C27.3849 40.1707 27.5836 40.3694 27.7889 40.3694H34.8885V42.4224C34.8885 42.6211 35.0871 42.8198 35.2925 42.8198H38.6436C38.8422 42.8198 39.0475 42.6211 39.0475 42.4224V33.7466H40.9218C42.1933 33.7466 43.2 32.7532 43.2 31.4949C43.2 30.2366 42.2596 29.1769 40.988 29.1769H40.9946ZM35.7693 27.1239V25.0708H39.988V27.1239C39.988 28.2497 39.0475 29.1769 37.9084 29.1769C36.7693 29.1769 35.7627 28.2497 35.7627 27.1239H35.7693ZM15.2719 16.395C15.2719 15.6665 15.8746 15.1367 16.5435 15.1367H30.6764C31.4115 15.1367 31.948 15.7328 31.948 16.395V26.7265H15.1991L15.2653 16.395H15.2719ZM22.3715 27.5212H24.9146V29.1769H22.3715V27.5212ZM7.29812 27.1239V25.0708H11.5168V27.1239C11.5168 28.2497 10.5764 29.1769 9.43727 29.1769C8.29816 29.1769 7.2915 28.2497 7.2915 27.1239H7.29812ZM11.5168 42.025H8.97368V33.7466H11.5168V42.025ZM19.0204 39.5084H12.3182V36.9918H19.0204V39.5084ZM19.0204 36.197H12.3182V33.6804H19.0204V36.197ZM34.9679 36.197H28.2657V33.6804H34.9679V36.197ZM28.2657 39.5084V36.9918H34.9679V39.5084H28.2657ZM38.3124 42.025H35.7693V33.7466H38.3124V42.025ZM40.9946 32.8857H6.22524C5.42389 32.8857 4.74837 32.2234 4.74837 31.4287C4.74837 30.6339 5.41727 29.9717 6.22524 29.9717H40.9946C41.796 29.9717 42.4715 30.6339 42.4715 31.4287C42.4715 32.2234 41.8026 32.8857 40.9946 32.8857Z"/>
</mask>
<path d="M40.9946 29.1769H39.9217C40.4582 28.6471 40.7893 27.9186 40.7893 27.1239V24.6072C40.7893 24.4085 40.5906 24.2099 40.3853 24.2099H38.7098L40.7165 21.5608C40.8489 21.3621 40.8489 21.0972 40.6502 20.9647C40.4516 20.8323 40.18 20.8323 40.0476 21.031L38.3058 23.3489V21.2959C38.3058 21.0972 38.1071 20.8985 37.9018 20.8985C37.6965 20.8985 37.4978 21.0972 37.4978 21.2959V23.3489L35.756 21.031C35.6236 20.8323 35.3521 20.8323 35.1534 20.9647C34.9547 21.0972 34.9547 21.3621 35.0871 21.5608L37.0938 24.2099H35.3521C35.1534 24.2099 34.9481 24.4085 34.9481 24.6072V27.1239C34.9481 27.9186 35.2858 28.6471 35.8156 29.1769H25.7027V27.5212H32.4049C32.6036 27.5212 32.8089 27.3226 32.8089 27.1239V16.395C32.8089 15.2029 31.8685 14.2758 30.6632 14.2758H16.5302C15.3249 14.2758 14.3845 15.2029 14.3845 16.395V27.1239C14.3845 27.3226 14.5831 27.5212 14.7884 27.5212H21.4907V29.1769H11.444C11.9804 28.6471 12.3115 27.9186 12.3115 27.1239V24.6072C12.3115 24.4085 12.1129 24.2099 11.9076 24.2099H10.232L12.2387 21.5608C12.3711 21.3621 12.3711 21.0972 12.1725 20.9647C11.9738 20.8323 11.7022 20.8323 11.5698 21.031L9.82801 23.3489V21.2959C9.82801 21.0972 9.62933 20.8985 9.42403 20.8985C9.21872 20.8985 9.02004 21.0972 9.02004 21.2959V23.3489L7.21203 21.0972C7.07957 20.8985 6.80804 20.8985 6.60936 21.031C6.41068 21.1634 6.41068 21.4283 6.54313 21.627L8.55645 24.2761H6.88089C6.68221 24.2761 6.4769 24.4748 6.4769 24.6735V27.1901C6.4769 27.9848 6.81466 28.7133 7.35111 29.2431H6.27822C5.00666 29.2431 4 30.2366 4 31.4949C4 32.7532 5.00666 33.7466 6.27822 33.7466H8.15246V42.4224C8.15246 42.6211 8.35114 42.8198 8.55645 42.8198H11.9076C12.1062 42.8198 12.3115 42.6211 12.3115 42.4224V40.3694H19.4111C19.6098 40.3694 19.8151 40.1707 19.8151 39.972V33.7466H27.3849V39.972C27.3849 40.1707 27.5836 40.3694 27.7889 40.3694H34.8885V42.4224C34.8885 42.6211 35.0871 42.8198 35.2925 42.8198H38.6436C38.8422 42.8198 39.0475 42.6211 39.0475 42.4224V33.7466H40.9218C42.1933 33.7466 43.2 32.7532 43.2 31.4949C43.2 30.2366 42.2596 29.1769 40.988 29.1769H40.9946ZM35.7693 27.1239V25.0708H39.988V27.1239C39.988 28.2497 39.0475 29.1769 37.9084 29.1769C36.7693 29.1769 35.7627 28.2497 35.7627 27.1239H35.7693ZM15.2719 16.395C15.2719 15.6665 15.8746 15.1367 16.5435 15.1367H30.6764C31.4115 15.1367 31.948 15.7328 31.948 16.395V26.7265H15.1991L15.2653 16.395H15.2719ZM22.3715 27.5212H24.9146V29.1769H22.3715V27.5212ZM7.29812 27.1239V25.0708H11.5168V27.1239C11.5168 28.2497 10.5764 29.1769 9.43727 29.1769C8.29816 29.1769 7.2915 28.2497 7.2915 27.1239H7.29812ZM11.5168 42.025H8.97368V33.7466H11.5168V42.025ZM19.0204 39.5084H12.3182V36.9918H19.0204V39.5084ZM19.0204 36.197H12.3182V33.6804H19.0204V36.197ZM34.9679 36.197H28.2657V33.6804H34.9679V36.197ZM28.2657 39.5084V36.9918H34.9679V39.5084H28.2657ZM38.3124 42.025H35.7693V33.7466H38.3124V42.025ZM40.9946 32.8857H6.22524C5.42389 32.8857 4.74837 32.2234 4.74837 31.4287C4.74837 30.6339 5.41727 29.9717 6.22524 29.9717H40.9946C41.796 29.9717 42.4715 30.6339 42.4715 31.4287C42.4715 32.2234 41.8026 32.8857 40.9946 32.8857Z" fill="black"/>
<path d="M40.9946 29.1769H39.9217C40.4582 28.6471 40.7893 27.9186 40.7893 27.1239V24.6072C40.7893 24.4085 40.5906 24.2099 40.3853 24.2099H38.7098L40.7165 21.5608C40.8489 21.3621 40.8489 21.0972 40.6502 20.9647C40.4516 20.8323 40.18 20.8323 40.0476 21.031L38.3058 23.3489V21.2959C38.3058 21.0972 38.1071 20.8985 37.9018 20.8985C37.6965 20.8985 37.4978 21.0972 37.4978 21.2959V23.3489L35.756 21.031C35.6236 20.8323 35.3521 20.8323 35.1534 20.9647C34.9547 21.0972 34.9547 21.3621 35.0871 21.5608L37.0938 24.2099H35.3521C35.1534 24.2099 34.9481 24.4085 34.9481 24.6072V27.1239C34.9481 27.9186 35.2858 28.6471 35.8156 29.1769H25.7027V27.5212H32.4049C32.6036 27.5212 32.8089 27.3226 32.8089 27.1239V16.395C32.8089 15.2029 31.8685 14.2758 30.6632 14.2758H16.5302C15.3249 14.2758 14.3845 15.2029 14.3845 16.395V27.1239C14.3845 27.3226 14.5831 27.5212 14.7884 27.5212H21.4907V29.1769H11.444C11.9804 28.6471 12.3115 27.9186 12.3115 27.1239V24.6072C12.3115 24.4085 12.1129 24.2099 11.9076 24.2099H10.232L12.2387 21.5608C12.3711 21.3621 12.3711 21.0972 12.1725 20.9647C11.9738 20.8323 11.7022 20.8323 11.5698 21.031L9.82801 23.3489V21.2959C9.82801 21.0972 9.62933 20.8985 9.42403 20.8985C9.21872 20.8985 9.02004 21.0972 9.02004 21.2959V23.3489L7.21203 21.0972C7.07957 20.8985 6.80804 20.8985 6.60936 21.031C6.41068 21.1634 6.41068 21.4283 6.54313 21.627L8.55645 24.2761H6.88089C6.68221 24.2761 6.4769 24.4748 6.4769 24.6735V27.1901C6.4769 27.9848 6.81466 28.7133 7.35111 29.2431H6.27822C5.00666 29.2431 4 30.2366 4 31.4949C4 32.7532 5.00666 33.7466 6.27822 33.7466H8.15246V42.4224C8.15246 42.6211 8.35114 42.8198 8.55645 42.8198H11.9076C12.1062 42.8198 12.3115 42.6211 12.3115 42.4224V40.3694H19.4111C19.6098 40.3694 19.8151 40.1707 19.8151 39.972V33.7466H27.3849V39.972C27.3849 40.1707 27.5836 40.3694 27.7889 40.3694H34.8885V42.4224C34.8885 42.6211 35.0871 42.8198 35.2925 42.8198H38.6436C38.8422 42.8198 39.0475 42.6211 39.0475 42.4224V33.7466H40.9218C42.1933 33.7466 43.2 32.7532 43.2 31.4949C43.2 30.2366 42.2596 29.1769 40.988 29.1769H40.9946ZM35.7693 27.1239V25.0708H39.988V27.1239C39.988 28.2497 39.0475 29.1769 37.9084 29.1769C36.7693 29.1769 35.7627 28.2497 35.7627 27.1239H35.7693ZM15.2719 16.395C15.2719 15.6665 15.8746 15.1367 16.5435 15.1367H30.6764C31.4115 15.1367 31.948 15.7328 31.948 16.395V26.7265H15.1991L15.2653 16.395H15.2719ZM22.3715 27.5212H24.9146V29.1769H22.3715V27.5212ZM7.29812 27.1239V25.0708H11.5168V27.1239C11.5168 28.2497 10.5764 29.1769 9.43727 29.1769C8.29816 29.1769 7.2915 28.2497 7.2915 27.1239H7.29812ZM11.5168 42.025H8.97368V33.7466H11.5168V42.025ZM19.0204 39.5084H12.3182V36.9918H19.0204V39.5084ZM19.0204 36.197H12.3182V33.6804H19.0204V36.197ZM34.9679 36.197H28.2657V33.6804H34.9679V36.197ZM28.2657 39.5084V36.9918H34.9679V39.5084H28.2657ZM38.3124 42.025H35.7693V33.7466H38.3124V42.025ZM40.9946 32.8857H6.22524C5.42389 32.8857 4.74837 32.2234 4.74837 31.4287C4.74837 30.6339 5.41727 29.9717 6.22524 29.9717H40.9946C41.796 29.9717 42.4715 30.6339 42.4715 31.4287C42.4715 32.2234 41.8026 32.8857 40.9946 32.8857Z" stroke="black" strokeWidth="0.6" mask="url(#path-2-outside-1_4150_8741)"/>
<path d="M39.2704 16.5274C39.2704 16.1113 38.9296 15.7814 38.5178 15.7814C38.106 15.7814 37.7651 16.1113 37.7651 16.5274C37.7651 16.9436 38.106 17.2735 38.5178 17.2735C38.9296 17.2735 39.2704 16.9436 39.2704 16.5274Z" fill="black" stroke="black" strokeWidth="0.3"/>
<path d="M33.8464 6.19602C33.8464 5.77989 33.5056 5.44998 33.0938 5.44998C32.6819 5.44998 32.3411 5.77989 32.3411 6.19602C32.3411 6.61215 32.6819 6.94207 33.0938 6.94207C33.5056 6.94207 33.8464 6.61215 33.8464 6.19602Z" fill="black" stroke="black" strokeWidth="0.3"/>
<path d="M27.5481 12.4215C27.5481 12.0054 27.2072 11.6754 26.7954 11.6754C26.3836 11.6754 26.0427 12.0054 26.0427 12.4215C26.0427 12.8376 26.3836 13.1675 26.7954 13.1675C27.2072 13.1675 27.5481 12.8376 27.5481 12.4215Z" fill="black" stroke="black" strokeWidth="0.3"/>
<path d="M17.4949 7.85166C17.4949 7.43553 17.1541 7.10562 16.7423 7.10562C16.3304 7.10562 15.9896 7.43553 15.9896 7.85166C15.9896 8.26779 16.3304 8.59771 16.7423 8.59771C17.1541 8.59771 17.4949 8.26779 17.4949 7.85166Z" fill="black" stroke="black" strokeWidth="0.3"/>
<path d="M9.92492 16.9911C9.92492 16.5749 9.58406 16.245 9.17225 16.245C8.76044 16.245 8.41958 16.5749 8.41958 16.9911C8.41958 17.4072 8.76044 17.7371 9.17225 17.7371C9.58406 17.7371 9.92492 17.4072 9.92492 16.9911Z" fill="black" stroke="black" strokeWidth="0.3"/>
<path d="M38.7165 13.1675C40.4071 13.1675 41.8136 11.7773 41.8136 10.1035C41.8136 8.42963 40.4071 7.03945 38.7165 7.03945C37.0258 7.03945 35.6193 8.42963 35.6193 10.1035C35.6193 11.7773 37.0258 13.1675 38.7165 13.1675ZM38.7165 8.20041C39.7746 8.20041 40.646 9.0623 40.646 10.1035C40.646 11.1446 39.7746 12.0065 38.7165 12.0065C37.6583 12.0065 36.7869 11.1446 36.7869 10.1035C36.7869 9.0623 37.6583 8.20041 38.7165 8.20041Z" fill="black" stroke="black" strokeWidth="0.3"/>
<path d="M9.44394 14.0285C11.6049 14.0285 13.3424 12.3071 13.3424 10.1698C13.3424 8.03234 11.5981 6.31106 9.44394 6.31106C7.29009 6.31106 5.53884 8.032 5.53884 10.1698C5.53884 12.3057 7.21533 14.0285 9.44394 14.0285ZM9.44394 7.40579C10.972 7.40579 12.2411 8.66471 12.2411 10.1698C12.2411 11.6749 10.972 12.9338 9.44394 12.9338C7.91591 12.9338 6.64682 11.6749 6.64682 10.1698C6.64682 8.66251 7.85189 7.40579 9.44394 7.40579Z" fill="black" stroke="black" strokeWidth="0.3"/>
</svg>
