<svg width="81" height="60" viewBox="0 0 81 60" fill="none" xmlns="http://www.w3.org/2000/svg">
<path d="M17.7502 10.4297C22.4702 10.4297 26.3002 14.2597 26.3002 18.9797C26.3002 23.6997 22.4702 27.5297 17.7502 27.5297C13.0302 27.5297 9.2002 23.6997 9.2002 18.9797C9.2002 14.2597 13.0802 10.4297 17.7502 10.4297Z" stroke="#010101" stroke-width="1.77" stroke-linecap="round" stroke-linejoin="round"/>
<path d="M33.4203 38.5793C33.4203 34.1593 29.8403 30.5293 25.3703 30.5293H9.82027C5.40027 30.5293 1.77026 34.1093 1.77026 38.5793V53.9993C1.77026 56.2793 3.20025 58.0493 5.18025 58.3793H8.76025V43.9293" stroke="#010101" stroke-width="1.77" stroke-linecap="round" stroke-linejoin="round"/>
<path d="M8.77026 58.3799H26.6703" stroke="#010101" stroke-width="1.77" stroke-linecap="round" stroke-linejoin="round"/>
<path d="M5.27026 58.3795H18.4603C20.1003 58.3795 21.4103 57.0695 21.4103 55.4295C21.4103 53.7895 20.1003 52.4795 18.4603 52.4795H8.81026" stroke="#010101" stroke-width="1.77" stroke-linecap="round" stroke-linejoin="round"/>
<path d="M53.3102 58.3798H24.8702L30.3503 39.3398H58.7502L53.3102 58.3798Z" stroke="#010101" stroke-width="1.77" stroke-linecap="round" stroke-linejoin="round"/>
<path d="M12.7302 53.4092H6.2002V57.4592H12.7302V53.4092Z" fill="white"/>
<path d="M37.8002 0.0195312H77.6602C79.0102 0.0195312 80.1002 1.11953 80.1002 2.45953V24.9995C80.1002 26.3495 79.0002 27.4395 77.6602 27.4395H50.5202L41.8402 33.9295V27.4395H37.7902C36.4402 27.4395 35.3502 26.3395 35.3502 24.9995V2.45953C35.3502 1.10953 36.4502 0.0195312 37.7902 0.0195312H37.8002ZM37.0402 25.0095C37.0402 25.4295 37.3802 25.7695 37.8002 25.7695H41.8502C42.7802 25.7695 43.5402 26.5295 43.5402 27.4595V30.5795L49.4802 26.1095C49.7702 25.8995 50.1102 25.7695 50.4902 25.7695H77.6702C78.0902 25.7695 78.4302 25.4295 78.4302 25.0095V2.46953C78.4302 2.04953 78.0902 1.70953 77.6702 1.70953H37.8102C37.3902 1.70953 37.0502 2.04953 37.0502 2.46953V25.0095H37.0402Z" fill="#010101"/>
<path d="M73.7502 21.1303H63.8002C63.3802 21.1303 63.0002 20.7903 63.0002 20.3303C63.0002 19.8703 63.3402 19.5303 63.8002 19.5303H73.7502C74.1702 19.5303 74.5502 19.8703 74.5502 20.3303C74.5502 20.7903 74.2102 21.1303 73.7502 21.1303Z" fill="#010101"/>
<path d="M60.6403 21.1303H59.6703C59.2503 21.1303 58.8702 20.7903 58.8702 20.3303C58.8702 19.8703 59.2103 19.5303 59.6703 19.5303H60.6403C61.0603 19.5303 61.4402 19.8703 61.4402 20.3303C61.4402 20.7903 61.1003 21.1303 60.6403 21.1303Z" fill="#010101"/>
<path d="M73.7502 14.4301H63.8002C63.3802 14.4301 63.0002 14.0901 63.0002 13.6301C63.0002 13.2101 63.3402 12.8301 63.8002 12.8301H73.7502C74.1702 12.8301 74.5502 13.1701 74.5502 13.6301C74.5502 14.0901 74.2102 14.4301 73.7502 14.4301Z" fill="#010101"/>
<path d="M60.6403 14.4301H59.6703C59.2503 14.4301 58.8702 14.0901 58.8702 13.6301C58.8702 13.2101 59.2103 12.8301 59.6703 12.8301H60.6403C61.0603 12.8301 61.4402 13.1701 61.4402 13.6301C61.4402 14.0901 61.1003 14.4301 60.6403 14.4301Z" fill="#010101"/>
<path d="M73.7502 7.72989H63.8002C63.3802 7.72989 63.0002 7.38989 63.0002 6.92989C63.0002 6.50989 63.3402 6.12988 63.8002 6.12988H73.7502C74.1702 6.12988 74.5502 6.46989 74.5502 6.92989C74.5502 7.38989 74.2102 7.72989 73.7502 7.72989Z" fill="#010101"/>
<path d="M60.6403 7.72989H59.6703C59.2503 7.72989 58.8702 7.38989 58.8702 6.92989C58.8702 6.50989 59.2103 6.12988 59.6703 6.12988H60.6403C61.0603 6.12988 61.4402 6.46989 61.4402 6.92989C61.4402 7.38989 61.1003 7.72989 60.6403 7.72989Z" fill="#010101"/>
<path d="M47.7503 6.50977C43.7003 6.50977 40.4203 9.79976 40.4203 13.8398C40.4203 17.8798 43.7103 21.1698 47.7503 21.1698C51.7903 21.1698 55.0803 17.8798 55.0803 13.8398C55.0403 9.78976 51.7503 6.50977 47.7503 6.50977ZM48.5503 17.9298C48.5503 18.3498 48.1703 18.7298 47.7503 18.7298C47.2903 18.7298 46.9503 18.3498 46.9503 17.9298V12.6998C46.9503 12.2398 47.3303 11.8998 47.7503 11.8998C48.2103 11.8998 48.5503 12.2798 48.5503 12.6998V17.9298ZM48.5103 10.0498C48.4703 10.1798 48.4303 10.2598 48.3403 10.3398C48.1703 10.4698 47.9603 10.5898 47.7503 10.5898C47.5003 10.5898 47.3303 10.5098 47.1603 10.3398C47.0803 10.2598 47.0303 10.1698 46.9903 10.0498C46.9503 9.96977 46.9503 9.87977 46.9503 9.75977C46.9503 9.54977 47.0303 9.33976 47.2003 9.16976C47.5403 8.87976 48.0403 8.87976 48.3403 9.16976C48.5103 9.33976 48.5903 9.54977 48.5903 9.75977C48.5903 9.88977 48.5503 9.96977 48.5103 10.0498Z" fill="#19B28D"/>
</svg>
