<svg width="86" height="64" viewBox="0 0 86 64" fill="none" xmlns="http://www.w3.org/2000/svg">
<path d="M51.1104 24.6802H1.46045V18.3202C1.46045 17.0402 2.50047 15.9902 3.79047 15.9902H54.6005L51.1205 24.6702L51.1104 24.6802Z" fill="#19B28D"/>
<path d="M54.3905 15.9905H3.38049C1.92049 15.9905 0.740479 16.9305 0.740479 18.0905V61.0205C0.740479 62.1805 1.92049 63.1205 3.38049 63.1205H57.2005C58.6605 63.1205 59.8405 62.1805 59.8405 61.0205V46.2205L57.6905 46.3405V61.0205C57.6905 61.2405 57.4705 61.4205 57.1905 61.4205H3.37048C3.10048 61.4205 2.87048 61.2405 2.87048 61.0205V18.0905C2.87048 17.8705 3.09048 17.6905 3.37048 17.6905H54.2405L54.3805 15.9805L54.3905 15.9905Z" fill="#010101"/>
<path d="M63.3206 41.6104H53.6606C53.1193 41.6104 52.6805 42.0491 52.6805 42.5903V47.7803C52.6805 48.3216 53.1193 48.7603 53.6606 48.7603H63.3206C63.8618 48.7603 64.3005 48.3216 64.3005 47.7803V42.5903C64.3005 42.0491 63.8618 41.6104 63.3206 41.6104Z" fill="#19B28D"/>
<path d="M60.4904 9.22969C60.3404 8.87969 60.0205 8.67969 59.6705 8.67969H57.2905C56.9405 8.67969 56.6204 8.87969 56.5004 9.22969L48.1604 29.4797C48.0604 29.6997 48.0604 29.9497 48.1604 30.1497L51.7305 38.4897C51.8505 38.8097 52.1804 39.0397 52.5204 39.0397H64.4304C64.7804 39.0397 65.1004 38.8197 65.2504 38.4897L68.8205 30.1497C68.8905 29.9497 68.8905 29.6997 68.8205 29.4797L60.4805 9.22969H60.4904ZM63.8604 37.2897H53.0904L49.8905 29.7997L57.6104 11.0897V28.6097C57.6104 29.1097 58.0105 29.4797 58.4805 29.4797C58.9805 29.4797 59.3505 29.1097 59.3505 28.6097V11.0197L67.0904 29.7997L63.8604 37.2897Z" fill="#010101"/>
<path d="M81.2905 3.80035H67.5905C76.0305 7.12035 82.0105 15.0404 82.0305 24.2404L83.1705 23.2204C83.5205 22.9004 84.0605 22.9004 84.3905 23.2704C84.7105 23.6204 84.6905 24.1903 84.3405 24.5103L81.7605 26.8204C81.6105 26.9704 81.3905 27.0403 81.1905 27.0403C80.9705 27.0403 80.7705 26.9704 80.5905 26.8204L78.0105 24.5103C77.6605 24.1903 77.6405 23.6204 77.9605 23.2704C78.2805 22.9004 78.8305 22.9004 79.1805 23.2204L80.3005 24.2104C80.2505 13.9104 72.1105 5.38035 61.5905 4.06035C61.6105 3.96035 61.6405 3.89035 61.6405 3.79035C61.6905 3.59035 61.7105 3.39035 61.7105 3.19035C61.7105 2.87035 61.6605 2.57035 61.5605 2.30035C61.5605 2.20035 61.5405 2.13035 61.4905 2.05035H81.5105C81.9105 1.33035 82.6805 0.860352 83.5405 0.860352C84.8305 0.860352 85.8505 1.90035 85.8505 3.19035C85.8505 4.48035 84.8305 5.50035 83.5405 5.50035C82.4505 5.50035 81.5605 4.76035 81.2805 3.79035L81.2905 3.80035Z" fill="#010101"/>
<path d="M61.5605 2.31C61.5605 2.21 61.5405 2.14 61.4905 2.06C61.0405 0.839998 59.8805 0 58.5105 0C57.1405 0 56.0005 0.839998 55.5605 2.06H36.7505C36.3805 1.34 35.6105 0.870003 34.7205 0.870003C33.4505 0.870003 32.4105 1.91 32.4105 3.2C32.4105 4.49 33.4505 5.51 34.7205 5.51C35.8105 5.51 36.7105 4.77 36.9805 3.8H49.9105C41.5005 7.1 35.5205 14.97 35.4405 24.12L34.4005 23.18C34.0305 22.86 33.4805 22.88 33.1605 23.25C32.8405 23.6 32.8905 24.14 33.2305 24.47L35.8105 26.8C35.9605 26.95 36.1805 27.02 36.3805 27.02C36.6005 27.02 36.8005 26.95 36.9805 26.8L39.5405 24.47C39.9105 24.15 39.9405 23.6 39.6105 23.25C39.2905 22.88 38.7405 22.85 38.3705 23.18L37.1805 24.27C37.2005 14.07 45.1705 5.59 55.4905 4.12C55.8605 5.44 57.0805 6.38 58.5205 6.38C59.9605 6.38 61.2205 5.41 61.6005 4.07C61.6205 3.97 61.6505 3.9 61.6505 3.8C61.7005 3.6 61.7205 3.4 61.7205 3.2C61.7205 2.88 61.6705 2.58 61.5705 2.31H61.5605ZM59.8505 3.8C59.8505 3.8 59.8305 3.87 59.8005 3.9C59.5505 4.37 59.0805 4.67 58.5105 4.67C57.9405 4.67 57.5205 4.37 57.2705 3.93C57.2505 3.88 57.2205 3.86 57.2205 3.81C57.1205 3.61 57.0705 3.41 57.0705 3.21C57.0705 2.81 57.2405 2.44 57.4905 2.17C57.5105 2.15 57.5605 2.1 57.6105 2.07C57.8605 1.87 58.1605 1.75 58.5005 1.75C58.8405 1.75 59.1705 1.87 59.4205 2.07C59.4705 2.09 59.4905 2.14 59.5405 2.17C59.8105 2.44 59.9605 2.82 59.9605 3.21C59.9605 3.43 59.9105 3.63 59.8405 3.81L59.8505 3.8Z" fill="#010101"/>
<path d="M29.5005 35.1904L25.7805 51.2204" stroke="#010101" stroke-width="1.61" stroke-miterlimit="10" stroke-linecap="round"/>
<path d="M34.4404 48.2504L40.4804 43.2004L34.4404 38.1504" stroke="#010101" stroke-width="1.61" stroke-linecap="round" stroke-linejoin="round"/>
<path d="M21.0005 48.2504L14.9604 43.2004L21.0005 38.1504" stroke="#010101" stroke-width="1.61" stroke-linecap="round" stroke-linejoin="round"/>
</svg>
