<svg width="47" height="75" viewBox="0 0 47 75" fill="none" xmlns="http://www.w3.org/2000/svg">
<path d="M9.64025 27.8096C5.57025 34.7496 5.17023 44.0596 5.43023 47.7196C5.47023 48.2196 6.15026 48.3696 6.40026 47.9296C7.52026 46.0096 10.3402 42.2096 14.1002 42.6896" stroke="#010101" stroke-width="1.95" stroke-linecap="round" stroke-linejoin="round"/>
<path d="M23.2703 49.3993H28.2603C31.8703 44.4993 47.7903 21.7593 23.2703 1.7793C-1.24971 21.7593 14.6703 44.4993 18.2803 49.3993H23.2703Z" stroke="#010101" stroke-width="1.95" stroke-linecap="round" stroke-linejoin="round"/>
<path d="M36.8002 27.6494C40.9602 34.6094 41.3702 44.0394 41.1102 47.7194C41.0702 48.2194 40.3902 48.3694 40.1402 47.9294C39.0202 46.0094 36.2002 42.2094 32.4402 42.6894" stroke="#010101" stroke-width="1.95" stroke-linecap="round" stroke-linejoin="round"/>
<path d="M23.4802 31.049C26.5453 31.049 29.0302 28.6314 29.0302 25.649C29.0302 22.6667 26.5453 20.249 23.4802 20.249C20.415 20.249 17.9302 22.6667 17.9302 25.649C17.9302 28.6314 20.415 31.049 23.4802 31.049Z" fill="#19B28D"/>
<path d="M15.4202 44.709H31.1002" stroke="#010101" stroke-width="1.95" stroke-linecap="round" stroke-linejoin="round"/>
<path d="M23.4202 53.6992V67.4792" stroke="#010101" stroke-width="1.95" stroke-linecap="round" stroke-linejoin="round"/>
<path d="M29.9402 69.3096C28.7302 71.6696 26.2802 73.2796 23.4402 73.2796C20.6002 73.2796 18.1502 71.6696 16.9402 69.3096" stroke="#010101" stroke-width="1.95" stroke-linecap="round" stroke-linejoin="round"/>
<path d="M1.78021 69.4496C1.74021 69.1396 1.71021 68.8296 1.71021 68.5096C1.71021 64.9496 4.60016 62.0596 8.16016 62.0596C10.5302 62.0596 12.6002 63.3396 13.7302 65.2396" stroke="#010101" stroke-width="1.95" stroke-linecap="round" stroke-linejoin="round"/>
<path d="M11.3901 62.7191C12.2301 61.0791 13.8301 59.8991 15.7301 59.6191" stroke="#010101" stroke-width="1.95" stroke-linecap="round" stroke-linejoin="round"/>
<path d="M35.6002 62.7191C34.7602 61.0791 33.1603 59.8991 31.2603 59.6191" stroke="#010101" stroke-width="1.95" stroke-linecap="round" stroke-linejoin="round"/>
<path d="M45.1001 69.4496C45.1401 69.1396 45.1701 68.8296 45.1701 68.5096C45.1701 64.9496 42.2801 62.0596 38.7201 62.0596C36.3501 62.0596 34.2801 63.3396 33.1501 65.2396" stroke="#010101" stroke-width="1.95" stroke-linecap="round" stroke-linejoin="round"/>
<path d="M19.3501 55.5098V60.4198" stroke="#010101" stroke-width="1.95" stroke-linecap="round" stroke-linejoin="round"/>
<path d="M27.4802 55.5098V60.4198" stroke="#010101" stroke-width="1.95" stroke-linecap="round" stroke-linejoin="round"/>
</svg>
