<svg width="77" height="54" viewBox="0 0 77 54" fill="none" xmlns="http://www.w3.org/2000/svg">
<path d="M68.9202 30.56V47.94C68.9202 48.82 68.2103 49.53 67.3303 49.53H7.31024C6.43024 49.53 5.72021 48.82 5.72021 47.94V11.63C5.72021 10.75 6.43024 10.04 7.31024 10.04H32.2703" stroke="#010101" stroke-width="1.95" stroke-linecap="round" stroke-linejoin="round"/>
<path d="M22.5904 18.8004C18.4204 18.0004 14.8103 21.6104 15.6003 25.7904C16.0403 28.1104 17.9403 30.0104 20.2603 30.4504C24.4403 31.2504 28.0503 27.6404 27.2503 23.4604C26.8103 21.1404 24.9104 19.2404 22.5904 18.8004Z" fill="#19B28D"/>
<path d="M14.8803 52.5104V41.4504C14.8803 41.1204 14.6103 40.8604 14.2903 40.8604C13.9703 40.8604 13.7003 41.1304 13.7003 41.4504V52.8504C13.6103 52.8504 13.5303 52.8804 13.4303 52.8804C11.8103 52.8804 10.5803 51.5504 10.5803 49.7904V37.7204C10.5803 34.6404 13.0703 32.1504 16.1503 32.1504H26.7003C29.7803 32.1504 32.2703 34.6404 32.2703 37.7204V49.7904C32.2703 51.5504 31.0503 52.8804 29.4203 52.8804C29.3303 52.8804 29.2403 52.8504 29.1503 52.8504V41.4504C29.1503 41.1204 28.8803 40.8604 28.5603 40.8604C28.2403 40.8604 27.9703 41.1304 27.9703 41.4504V52.5104" fill="#19B28D"/>
<path d="M34.3403 0.650391H74.0903C75.5703 0.650391 76.7703 1.85039 76.7703 3.33039V28.1304C76.7703 29.6104 75.5703 30.8104 74.0903 30.8104H48.3303L38.8003 37.9504V30.8104H34.3403C32.8603 30.8104 31.6603 29.6104 31.6603 28.1304V3.33039C31.6603 1.85039 32.8603 0.650391 34.3403 0.650391ZM33.5103 28.1304C33.5103 28.5904 33.8803 28.9604 34.3403 28.9604H38.8003C39.8203 28.9604 40.6503 29.7904 40.6503 30.8104V34.2504L47.2003 29.3304C47.5203 29.0904 47.9103 28.9604 48.3203 28.9604H74.0803C74.5403 28.9604 74.9103 28.5904 74.9103 28.1304V3.33039C74.9103 2.87039 74.5403 2.50039 74.0803 2.50039H34.3303C33.8703 2.50039 33.5003 2.87039 33.5003 3.33039V28.1304H33.5103Z" fill="#010101"/>
<path d="M38.7503 48.9307H1.3103L1.80029 51.1407C1.98029 51.9307 2.6803 52.4907 3.4903 52.4907H72.4003C73.2103 52.4907 73.9103 51.9307 74.0903 51.1407L74.5803 48.9307H38.7603H38.7503Z" fill="white" stroke="#010101" stroke-width="1.95" stroke-linecap="round" stroke-linejoin="round"/>
<path d="M45.6302 17.8909C46.8066 17.8909 47.7603 16.9372 47.7603 15.7609C47.7603 14.5845 46.8066 13.6309 45.6302 13.6309C44.4539 13.6309 43.5002 14.5845 43.5002 15.7609C43.5002 16.9372 44.4539 17.8909 45.6302 17.8909Z" fill="#010101"/>
<path d="M54.1703 17.8909C55.3467 17.8909 56.3003 16.9372 56.3003 15.7609C56.3003 14.5845 55.3467 13.6309 54.1703 13.6309C52.9939 13.6309 52.0403 14.5845 52.0403 15.7609C52.0403 16.9372 52.9939 17.8909 54.1703 17.8909Z" fill="#010101"/>
<path d="M62.7103 17.8909C63.8867 17.8909 64.8403 16.9372 64.8403 15.7609C64.8403 14.5845 63.8867 13.6309 62.7103 13.6309C61.534 13.6309 60.5803 14.5845 60.5803 15.7609C60.5803 16.9372 61.534 17.8909 62.7103 17.8909Z" fill="#19B28D"/>
</svg>
