<svg width="277" height="472" viewBox="0 0 277 472" fill="none" xmlns="http://www.w3.org/2000/svg">
<path d="M260.697 461.334C263.048 463.563 260.33 460.302 257.898 457.557L255.058 455.723L257.911 458.495L260.697 461.334Z" fill="black"/>
<path d="M247.87 448.875C245.452 447.081 243.006 445.342 240.519 443.644C242.286 444.907 243.998 446.212 245.737 447.516C250.941 452.503 244.541 447.435 242.354 445.845C251.444 453.304 246.172 447.978 247.87 448.875Z" fill="black"/>
<path d="M233.794 438.128C229.269 434.554 230.261 435.926 232.081 437.503C232.503 437.584 235.614 439.717 233.794 438.128Z" fill="black"/>
<path d="M6.52451 188.67C6.25275 190.246 5.99459 192.108 5.88588 191.836C5.83153 193.629 5.88588 193.996 6.52451 188.67Z" fill="black"/>
<path d="M5.89941 191.836L5.94017 190.681C5.91299 191.034 5.88582 191.346 5.85864 191.754C5.85864 191.863 5.88582 191.795 5.89941 191.836Z" fill="black"/>
<path d="M38.8088 300.578C41.0372 303.024 42.8987 304.804 44.6108 306.665C46.35 308.5 47.9941 310.375 50.2904 312.467L52.3694 315.307C57.3153 319.9 54.8288 317.047 58.6198 320.145C59.6932 321.245 61.1063 322.604 62.6689 324.044C64.2179 325.498 65.9979 326.925 67.6556 328.324C69.3269 329.71 70.9167 331.056 72.2619 332.129C73.6071 333.189 74.6669 334.018 75.2376 334.466C76.6507 335.934 73.05 333.189 72.1804 332.7C78.4851 337.428 78.2949 336.762 86.1078 342.605L86.1486 342.823C95.728 349.467 106.666 356.818 118.053 364.033C129.439 371.248 141.261 378.341 152.403 384.768C150.922 383.844 151.37 383.966 150.84 383.518C162.512 390.461 175.081 397.88 186.753 405.313C192.568 409.077 198.071 412.868 203.275 416.604C208.493 420.273 213.439 423.656 217.95 426.591C212.012 422.284 204.267 416.129 196.332 410.218C188.356 404.362 179.877 399.103 173.273 395.584C168.776 392.336 161.18 388.423 159.523 386.738C141.41 375.474 133.407 371.941 116.11 360.826C113.705 359.114 115.063 359.671 114.493 358.978C119.072 361.873 123.692 364.726 128.339 367.525C125.567 365.718 122.836 363.856 120.091 362.009C123.814 364.142 132.578 369.822 133.869 370.012C127.686 366.52 119.846 361.655 112.332 356.696C104.777 351.791 97.5895 346.777 92.3582 343.434C94.6953 345.173 97.3449 347.103 100.144 349.046C102.957 350.962 105.892 352.959 108.745 354.902C111.177 356.723 115.023 359.44 114.615 359.495C97.6982 349.263 84.4501 339.494 68.7698 326.531C64.775 323.351 59.7611 318.555 59.3127 317.807C61.8536 319.995 60.1416 318.12 62.2613 319.873C59.5165 317.536 59.2176 317.59 58.6469 317.345C58.0762 317.101 57.2066 316.585 53.5379 312.862L55.1549 313.12C53.3477 312.005 51.0242 309.804 48.6327 307.114C47.437 305.769 46.1869 304.328 44.8825 302.915C43.5645 301.529 42.2465 300.143 40.9556 298.771C39.5425 296.461 42.7764 300.171 46.7576 304.247C42.4231 299.437 41.7301 299.287 38.374 295.333L42.1514 298.54C40.086 296.706 38.5234 294.79 37.2462 293.037C35.9689 291.284 35.1401 289.559 34.284 288.268C33.9036 288.091 35.1673 290.768 31.023 285.251C30.1534 284.055 30.0175 283.702 30.0447 283.593C30.0582 283.485 30.2485 283.593 30.099 283.281C29.7321 283.077 28.0337 281.229 25.4792 277.465C25.2346 276.623 27.5037 279.748 27.8978 279.843C26.9331 278.43 26.0634 277.139 25.2618 275.944C24.4601 274.748 23.8894 273.552 23.3459 272.438C20.0984 267.329 23.21 272.981 21.0767 269.924C18.7668 265.861 18.9842 265.495 19.4326 265.821C19.8946 266.147 20.7642 267.071 20.2343 265.413C22.1094 268.362 24.2291 271.718 26.145 274.721C28.2239 277.628 30.0582 280.197 31.186 281.678C28.6723 278.022 25.9955 274.462 23.8079 270.604C24.4873 271.133 19.7451 262.587 23.5497 268.47C21.8512 265.63 20.4245 262.478 18.8483 259.312C17.1634 256.187 15.9405 252.776 14.5002 249.488L13.454 247.002C13.1686 246.159 12.8833 245.303 12.5979 244.461C12.0273 242.776 11.4566 241.104 10.8995 239.46C10.288 237.83 9.88039 236.172 9.48635 234.555C9.07871 232.938 8.67108 231.362 8.27703 229.827C8.57596 231.593 9.03795 233.862 8.75261 233.536C7.06772 227.191 7.61123 227.816 7.652 226.457C6.72803 221.715 6.26604 222.326 5.4236 219.405C5.35566 218.78 5.30131 218.182 5.24696 217.625C5.20619 217.054 5.21978 216.524 5.19261 216.008C5.16543 214.989 5.13826 214.078 5.11108 213.236C5.05673 211.551 5.00238 210.165 4.96162 208.833C4.93444 208.168 4.92085 207.502 4.89368 206.836C4.92085 206.157 4.9752 205.464 5.02955 204.716C5.13826 203.222 5.28772 201.537 5.50513 199.417L4.94803 199.92C5.09749 198.412 5.15184 197.216 5.16543 196.183C5.19261 195.151 5.28772 194.267 5.3149 193.371C5.39642 191.577 5.46436 189.715 5.9807 186.482C6.13016 186.142 6.00787 188.642 5.92635 190.653C6.38833 184.878 6.8639 185.422 7.59764 179.796L7.48894 184.321C7.84222 182.106 8.2091 179.348 8.56238 177.459C8.92925 175.571 9.21459 174.538 9.25535 175.734C9.45917 173.777 9.78528 171.467 10.288 168.967C10.7364 166.453 11.3479 163.763 12.0137 161.018C13.3589 155.529 15.0302 149.876 16.5112 145.216L16.7422 145.976C17.2857 143.49 18.9027 139.128 20.6963 134.93C22.4763 130.731 24.4465 126.709 25.1531 124.603L25.6694 124.032C27.0146 120.948 28.55 117.958 30.099 114.956C32.6399 111.151 32.3818 112.849 32.4225 112.428C37.8033 104.004 42.953 98.0252 47.6272 93.6363C47.7767 93.2151 48.3746 92.4542 49.2714 91.4622C50.1817 90.4703 51.3231 89.1523 52.7498 87.8479C55.5625 85.1711 59.1904 82.0867 62.601 79.6409C79.0965 67.8195 99.0298 60.0201 119.221 55.5633C129.358 53.3893 139.508 51.6365 149.563 51.5142C159.618 51.2832 169.469 52.0441 178.885 53.267C184.511 54.0687 192.351 54.8024 199.362 56.134C190.87 54.0823 190 54.2317 181.548 52.7914C175.203 51.6365 172.92 50.7125 167.404 49.7478C168.327 50.0059 169.251 50.2777 170.175 50.563C165.8 50.3185 164.319 50.1418 163.042 50.0059C161.778 49.8565 160.732 49.7206 157.267 49.8429L157.593 48.9868C155.134 49.313 149.019 48.8374 146.465 48.7559C145.704 48.9733 144.957 49.1907 144.209 49.4488C138.679 49.4081 135.01 49.7342 133.285 49.476L133.896 49.938C132.85 49.9516 127.578 50.6174 123.42 51.4191C119.235 52.0849 116.137 52.7371 119.248 51.5414C117.699 52.0169 116.327 52.6148 112.889 53.3349L112.237 52.9273C109.791 53.661 107.196 54.3948 105.049 55.0062C102.902 55.672 101.19 56.1612 100.429 56.2291C103.025 55.278 103.853 54.7752 104.655 54.2725C102.06 55.0606 100.062 55.7128 98.5135 56.2427C96.9781 56.827 95.8775 57.289 95.0894 57.6559C93.4996 58.4032 93.1191 58.7836 92.8066 59.1369C92.4941 59.4902 92.2631 59.8163 91.013 60.5365C90.388 60.8897 89.5048 61.3381 88.2275 61.9088C87.5889 62.1942 86.8552 62.5203 86.0127 62.9007C85.1703 63.2948 84.2327 63.7432 83.1457 64.2459L83.2001 63.8247C81.8005 64.6264 80.3602 65.3601 79.0014 66.2433L74.3001 68.1864C71.6233 70.442 65.7669 73.6487 59.9106 77.956C53.9863 82.1682 48.0213 87.3451 44.2711 91.7068C43.5101 92.5493 42.6541 93.4053 41.703 94.3429C40.7654 95.2804 39.7871 96.3403 38.7001 97.4681C37.5995 98.5823 36.4853 99.8595 35.3167 101.286C34.7324 102.006 34.121 102.74 33.496 103.515C32.9117 104.33 32.3138 105.172 31.6888 106.042L32.4633 105.906C30.1398 108.501 25.452 115.241 21.4028 122.334C17.3129 129.399 13.9839 136.805 12.2175 139.631C10.4103 145.963 12.53 139.006 12.9241 139.318C11.9457 142.362 11.1848 144.686 10.5462 146.561C9.94833 148.449 9.41841 149.876 8.92925 151.113C7.99169 153.599 7.2036 155.338 6.17093 158.532C5.35566 162.377 5.76329 160.937 6.30681 159.048C6.83673 157.159 7.62482 154.876 7.23077 156.955C5.49154 162.717 5.12467 165.135 4.71704 167.907C4.49963 169.293 4.26864 170.761 3.94253 172.785C3.57566 174.81 3.10009 177.391 2.44788 181.033C1.93154 182.432 2.81475 177.228 2.92345 175.693C2.76039 176.984 2.57017 178.424 2.36635 179.959C2.18971 181.508 1.8636 183.139 1.74131 184.919C1.56467 186.685 1.38803 188.547 1.18421 190.476C1.0891 191.441 0.980395 192.419 0.885281 193.411C0.790167 194.403 0.640701 195.409 0.654289 196.428C0.599938 198.466 0.545587 200.559 0.491235 202.651C0.450472 204.744 0.301006 206.863 0.504823 208.956C0.627113 211.062 0.762991 213.141 0.885281 215.193C0.966808 216.212 0.993983 217.244 1.10269 218.236C1.25215 219.228 1.40162 220.22 1.55108 221.185C1.83643 223.413 2.13536 225.764 2.44788 228.237C2.89627 230.669 3.49413 233.196 4.05123 235.805C4.36375 237.096 4.56757 238.455 4.9752 239.759C5.36925 241.064 5.77688 242.395 6.18452 243.741C7.02696 246.404 7.7607 249.176 8.90207 251.825C9.98909 254.488 10.9538 257.233 12.1495 259.856C13.3996 262.464 14.6497 265.073 15.8862 267.655C18.6309 272.655 21.2805 277.601 24.2019 281.936L24.5824 282.153C26.7157 285.971 29.5283 289.531 32.3953 293.268C32.7486 293.73 33.1155 294.206 33.4824 294.667L34.6509 296.026C35.4254 296.937 36.2135 297.861 37.0152 298.785C38.6185 300.633 40.154 302.589 41.866 304.451L40.2898 302.535L38.7952 300.551L38.8088 300.578Z" fill="black"/>
<path d="M138.081 371.872L136.94 370.622L128.828 365.948C131.858 368.272 133.665 369.06 138.081 371.872Z" fill="black"/>
<path d="M135.622 372.022L139.915 374.4L133.135 370.283L135.622 372.022Z" fill="black"/>
<path d="M42.9666 298.554L43.7003 299.532L49.9235 305.918C51.9753 308.052 54.2172 310.022 56.3641 312.074C51.7035 307.766 47.2875 303.214 42.9801 298.567L42.9666 298.554Z" fill="black"/>
<path d="M6.93155 189.376C6.9859 191.4 6.51032 194.254 6.5375 196.346C6.65979 193.629 6.94513 190.925 7.13536 188.207L6.93155 189.376Z" fill="black"/>
<path d="M33.265 115.567C34.2297 112.551 36.594 110.458 33.7406 113.461C31.2268 117.605 33.7949 114.263 33.265 115.567Z" fill="black"/>
<path d="M43.1023 100.227C41.2272 102.305 40.3984 103.637 39.5559 104.914C42.1104 102.238 41.893 101.898 43.1023 100.227Z" fill="black"/>
<path d="M260.616 461.403C260.983 461.662 260.671 461.159 260.399 460.724L259.842 460.629L260.616 461.39V461.403Z" fill="black"/>
<path d="M258.985 459.595L257.885 458.956L258.618 459.472C259.175 460.301 258.265 459.635 257.966 459.418C259.148 460.505 258.673 459.54 258.985 459.595Z" fill="black"/>
<path d="M257.097 458.074C256.553 457.503 256.553 457.816 256.73 458.101C256.839 458.074 257.273 458.36 257.097 458.074Z" fill="black"/>
<path d="M220.098 426.36C220.247 426.537 220.437 426.714 220.369 426.741C220.6 426.836 220.682 426.822 220.098 426.36Z" fill="black"/>
<path d="M220.369 426.741C220.369 426.741 220.274 426.7 220.22 426.673L220.342 426.754C220.342 426.754 220.355 426.754 220.369 426.754V426.741Z" fill="black"/>
<path d="M231.294 438.48C232.095 438.888 232.422 439.268 233.115 439.73L233.305 440.233C234.079 440.709 233.767 440.287 234.378 440.573C234.908 441.225 236.376 442.162 236.675 442.421C236.81 442.692 236.294 442.353 236.145 442.339C237.028 442.923 237.137 442.665 238.169 443.481L238.142 443.548C240.832 445.206 243.849 447.788 246.634 449.894C246.471 449.731 246.553 449.717 246.512 449.622C249.379 451.932 252.504 454.799 255.059 456.348C253.578 455.017 251.39 452.38 249.542 451.416C249.121 450.764 248.061 450.206 248.007 449.799C245.901 447.801 244.664 447.421 242.517 445.655C242.246 445.356 242.477 445.383 242.477 445.206L244.257 446.524L243.292 445.573C243.822 445.845 244.854 446.837 245.14 446.742C243.468 445.722 241.226 443.576 239.691 442.801C240.262 443.345 241.077 443.915 241.797 444.527C242.069 444.853 242.517 445.315 242.395 445.396C240.072 444.01 238.468 442.448 236.226 440.844C235.669 440.437 234.949 439.839 234.935 439.676C235.316 439.92 235.126 439.622 235.452 439.798C234.609 439.282 235.071 440.124 233.998 439.214L234.433 438.956C233.685 438.997 233.115 437.828 232.15 437.434C231.973 437.067 232.571 437.393 233.196 437.855C232.557 437.257 232.326 437.42 231.769 436.986L232.53 437.081C231.715 436.918 231.511 436.197 231.253 435.844C231.158 435.885 231.28 436.374 230.546 435.776C230.261 435.491 230.479 435.532 230.438 435.437C230.343 435.477 229.962 435.423 229.459 435.056C229.459 434.879 229.908 435.151 230.017 435.056C229.636 434.784 229.324 434.567 229.12 434.282C228.4 433.874 229.052 434.472 228.563 434.282C227.612 433.439 228.739 433.833 228.535 433.33C229.405 433.765 230.424 434.458 230.886 434.689L229.364 433.657C229.541 433.602 228.535 432.692 229.405 433.154C228.046 431.931 226.171 430.749 224.704 429.784C224.867 429.974 225.098 430.192 225.003 430.246C224.228 429.77 224.418 429.675 224.337 429.472C223.739 429.159 223.63 429.417 223.182 429.322C222.217 428.317 221.973 428.303 221.225 427.338L221.117 427.596C220.573 426.917 220.233 427.175 219.608 426.509C219.608 426.428 219.921 426.591 220.179 426.7C219.486 426.292 219.731 426.075 219.038 425.694L219.717 425.816C219.214 425.45 218.44 424.988 218.847 424.974C217.801 424.566 216.347 423.343 215.165 422.678L215.383 422.542C214.649 422.352 213.331 420.993 212.651 420.898L212.624 420.762L211.32 420.177C210.831 419.783 211.211 419.62 211.116 419.675C209.975 418.9 209.091 418.262 208.453 417.637C208.086 417.759 206.877 416.944 205.925 416.291C203.751 414.552 201.455 412.813 199.104 411.223C196.727 409.647 194.349 408.166 192.147 406.821C191.509 406.386 190.435 406.046 189.566 405.611C190.49 406.359 190.666 406.291 191.617 406.97C192.283 407.541 192.365 407.989 192.868 408.587L192.705 408.152C193.792 408.655 193.289 408.737 194.199 409.063L193.927 409.389C194.321 409.389 194.892 410.027 195.096 410.313L195.517 410.245C196.034 410.802 196.387 411.142 196.414 411.481L196.509 411.223C196.631 411.522 198.846 412.854 197.868 412.704C198.085 412.786 198.316 412.786 198.683 413.085L198.574 413.343C199.159 413.696 199.797 414.117 199.865 414.348C199.526 414.172 199.363 414.199 199.186 414.212C201.469 415.992 200.205 413.873 202.257 415.395L202.134 415.517L202.759 415.761L203.167 416.346C204.254 416.427 206.007 418.547 207.434 419.213C207.95 419.539 208.371 420.3 209.322 420.966L209.417 420.707C210.002 421.482 212.665 423.697 212.991 424.716C213.82 425.069 212.95 424.621 213.1 424.458C214.635 425.259 214.472 425.667 215.097 426.333C216.021 426.849 214.513 425.776 215.097 425.952C216.266 427.08 216.347 426.469 217.828 427.8C217.896 428.045 217.353 427.583 217.135 427.528C218.426 428.14 220.41 429.838 222.095 431.048C223.875 432.637 226.647 434.798 228.699 436.687L228.794 436.646C229.555 437.543 230.696 438.113 231.688 439.037L231.253 438.521L231.294 438.48Z" fill="black"/>
<path d="M245.819 446.877L245.792 446.565L244.705 445.858C244.99 446.334 245.289 446.388 245.806 446.877H245.819Z" fill="black"/>
<path d="M245.153 447.244L245.737 447.584L244.895 446.904L245.153 447.244Z" fill="black"/>
<path d="M232.774 436.836L232.883 436.958L234.921 438.303L232.774 436.836Z" fill="black"/>
<path d="M220.315 426.224C220.614 426.292 220.899 426.577 221.184 426.686L220.206 426.102L220.315 426.224Z" fill="black"/>
<path d="M212.081 418.914C211.483 418.982 211.401 418.397 211.632 419.036C212.217 419.389 211.85 418.9 212.081 418.914Z" fill="black"/>
<path d="M209.676 417.867C209.975 418.112 210.192 418.193 210.396 418.275C210.097 417.813 209.947 417.976 209.676 417.867Z" fill="black"/>
<path d="M194.375 462.109C193.777 462.204 194.552 462.395 195.218 462.571L195.843 462.137L194.375 462.109Z" fill="black"/>
<path d="M197.691 462.354L199.375 461.946L198.166 462.136C196.835 461.851 198.356 461.647 198.873 461.579C196.685 461.62 198.057 462.109 197.691 462.367V462.354Z" fill="black"/>
<path d="M200.979 462.123C202.052 462.204 201.767 461.878 201.319 461.77C201.237 461.892 200.53 462.014 200.979 462.123Z" fill="black"/>
<path d="M267.899 470.234V470.751C267.722 470.724 267.559 470.642 267.545 470.601C267.382 470.615 267.287 470.642 267.409 470.696C267.464 470.683 268.17 471.158 267.899 470.234Z" fill="black"/>
<path d="M267.545 470.601H267.708C267.708 470.601 267.695 470.533 267.681 470.492C267.749 470.642 267.6 470.547 267.532 470.56C267.532 470.56 267.532 470.587 267.545 470.587V470.601Z" fill="black"/>
<path d="M245.384 463.413C244.161 463.481 243.495 463.25 242.354 463.209L241.77 462.747C240.519 462.72 241.185 463.005 240.275 463.087C239.188 462.707 236.796 462.666 236.267 462.584C235.913 462.367 236.756 462.394 236.946 462.313C235.492 462.272 235.546 462.639 233.753 462.462V462.353C229.391 462.421 223.983 461.769 219.173 461.742C219.499 461.783 219.404 461.864 219.526 461.946C214.485 461.674 208.656 461.321 204.634 462.041C207.365 462.082 211.931 462.938 214.743 462.476C215.749 462.815 217.352 462.53 217.746 462.951C221.673 463.427 223.345 462.883 227.136 463.223C227.679 463.345 227.394 463.508 227.53 463.698L224.513 463.603L226.334 463.916C225.532 464.011 223.603 463.726 223.358 464.038C226.021 463.848 230.179 464.582 232.516 464.351C231.456 464.147 230.098 464.106 228.82 463.957C228.277 463.78 227.407 463.603 227.489 463.427C231.185 463.25 234.188 463.821 237.951 464.093C238.889 464.16 240.166 464.337 240.289 464.541C239.663 464.541 240.112 464.731 239.596 464.758C240.941 464.758 239.813 464.12 241.715 464.432L241.389 465.03C242.232 464.473 243.713 465.424 245.126 465.234C245.588 465.546 244.664 465.574 243.618 465.451C244.786 465.709 244.949 465.37 245.9 465.506L244.936 465.913C246.009 465.533 246.729 466.253 247.273 466.498C247.354 466.375 246.879 465.9 248.142 466.104C248.672 466.239 248.373 466.348 248.496 466.43C248.577 466.307 249.066 466.131 249.909 466.239C250.031 466.443 249.311 466.43 249.243 466.606C249.868 466.688 250.398 466.729 250.833 466.932C251.96 466.932 250.792 466.661 251.512 466.565C253.197 466.932 251.594 467.204 252.164 467.68C250.846 467.748 249.175 467.598 248.468 467.639L250.955 467.843C250.778 468.033 252.572 468.441 251.24 468.454C253.659 468.998 256.662 469.215 259.026 469.432C258.7 469.31 258.279 469.188 258.374 469.079C259.61 469.147 259.434 469.392 259.651 469.582C260.575 469.582 260.534 469.202 261.132 469.025C261.961 469.31 262.736 469.473 263.347 469.623C263.986 469.786 264.556 469.935 265.766 470.37L265.385 469.935C266.187 470.221 266.581 470.221 266.907 470.207H267.301C267.301 470.207 267.369 470.207 267.369 470.193L267.342 470.085C267.287 469.813 267.247 469.528 267.26 469.188C267.342 469.174 267.532 469.854 267.695 470.465C267.355 468.916 267.858 469.378 267.491 467.775C267.695 468.237 267.899 468.726 268.103 469.269C267.899 467.951 267.518 466.036 267.967 466.769C267.872 466.457 267.777 466.131 267.695 465.805C267.614 465.506 267.546 465.207 267.464 464.894C267.342 464.432 267.233 463.916 267.138 463.386C266.934 462.34 266.717 461.239 266.445 460.356L266.771 460.424C266.241 459.541 266.16 456.959 265.548 456.225L265.643 456.062L264.855 454.282C264.719 453.426 265.249 453.616 265.1 453.576C264.624 451.741 264.285 450.301 264.162 449.078C263.687 448.874 263.13 446.958 262.681 445.45C261.105 438.004 258.279 430.273 255.371 423.832C254.99 422.84 254.026 421.658 253.374 420.503C253.849 422.038 254.107 422.106 254.664 423.587C254.963 424.742 254.705 425.299 254.8 426.359L254.963 425.748C255.792 427.161 255.154 426.848 255.914 427.935L255.357 428.071C255.779 428.397 255.928 429.525 255.928 430.014L256.431 430.286C256.539 431.319 256.662 431.971 256.417 432.365L256.73 432.161C256.635 432.596 257.925 435.844 256.988 434.892C257.151 435.151 257.423 435.341 257.559 435.966L257.232 436.17C257.586 437.026 257.939 437.99 257.83 438.303C257.599 437.855 257.409 437.732 257.205 437.624C258.238 441.374 258.578 438.072 259.556 441.401L259.311 441.428L259.787 442.216L259.733 443.181C260.847 444.186 260.874 447.896 261.744 449.839C262.002 450.627 261.757 451.782 262.138 453.304L262.477 453.127C262.396 454.432 263.048 459.079 262.423 460.369C262.899 461.484 262.477 460.234 262.763 460.206C263.524 462.408 262.994 462.666 262.967 463.889C263.361 465.261 262.939 462.802 263.32 463.508C263.347 464.609 263.524 465.016 263.714 465.506C263.823 465.832 263.877 465.75 263.931 465.9C263.972 466.008 263.999 466.171 263.958 466.321C263.741 466.253 263.782 466.063 263.632 465.981C263.741 466.09 263.823 466.253 263.877 466.443C263.904 466.538 263.931 466.633 263.945 466.729L263.564 466.674C263.306 466.62 263.021 466.565 262.749 466.525L262.355 466.457C262.002 466.402 261.648 466.348 261.295 466.307C258.129 465.519 253.387 464.69 249.65 463.848L249.569 463.97C248.047 463.413 246.294 463.508 244.487 463.114L245.357 463.427L245.384 463.413Z" fill="black"/>
<path d="M222.475 464.378L222.747 464.718L224.5 464.663C223.821 464.351 223.44 464.541 222.475 464.392V464.378Z" fill="black"/>
<path d="M222.923 463.468L222.013 463.536L223.481 463.644L222.923 463.468Z" fill="black"/>
<path d="M244.773 466.335L244.555 466.254L241.226 466.104L244.773 466.335Z" fill="black"/>
<path d="M268.293 470.765C268.361 470.955 268.415 471.145 268.456 471.349C268.361 471.39 268.157 471.349 268.007 471.322C267.681 471.281 267.342 471.24 267.083 471.254L268.17 471.363L268.442 471.39C268.524 471.39 268.442 471.2 268.442 471.118L268.32 470.466V470.765H268.293Z" fill="black"/>
<path d="M266.743 453.698C266.078 453.223 266.512 452.544 266.173 453.413C266.444 454.31 266.512 453.467 266.743 453.698Z" fill="black"/>
<path d="M265.208 450.437C265.303 450.966 265.453 451.238 265.589 451.51C265.684 450.763 265.399 450.803 265.208 450.437Z" fill="black"/>
<path d="M276.351 2.09398C278.144 2.13474 275.862 1.59123 273.878 1.18359L271.989 1.67275L276.351 2.09398Z" fill="black"/>
<path d="M266.581 0.939369L261.608 1.33341L265.181 1.21112C269.108 1.82257 264.597 1.93128 263.116 1.95845C269.57 2.18944 265.521 1.26548 266.581 0.925781V0.939369Z" fill="black"/>
<path d="M256.838 1.07554C253.672 0.966834 254.556 1.44241 255.887 1.61905C256.091 1.42882 258.17 1.25218 256.838 1.07554Z" fill="black"/>
<path d="M182.486 122.769C181.671 122.32 180.706 121.817 180.897 121.75C179.918 121.396 179.633 121.478 182.486 122.769Z" fill="black"/>
<path d="M180.897 121.749C181.087 121.817 181.291 121.871 181.535 121.953C181.345 121.871 181.182 121.817 180.965 121.722C180.897 121.722 180.924 121.735 180.91 121.749H180.897Z" fill="black"/>
<path d="M158.966 66.6911C159.02 65.047 159.156 63.7697 159.482 62.5468C159.618 61.9354 159.754 61.3239 159.904 60.6717C160.04 60.0195 160.298 59.3673 160.488 58.6064L161.561 57.1389C162.635 53.9594 161.67 55.5899 162.336 53.1984C163.138 51.8532 164.279 49.6928 165.38 47.7361C165.95 46.7714 166.507 45.8474 166.956 45.0865C167.445 44.3392 167.825 43.7549 168.043 43.4424C168.844 42.7358 167.608 44.7197 167.458 45.2224C168.518 43.4968 168.899 42.6 169.429 41.6624C169.931 40.6977 170.556 39.665 172.173 37.6812L172.35 37.722C175.992 32.8304 180.91 27.7757 186.685 23.6858C187.392 23.1559 188.139 22.6803 188.886 22.1911C189.62 21.6884 190.381 21.24 191.142 20.8052C191.903 20.3568 192.664 19.922 193.452 19.5415C194.226 19.1475 195.014 18.7534 195.87 18.3458C199.186 16.7424 202.474 15.1527 205.654 13.6172C204.77 13.9569 204.947 13.7667 204.567 13.8075C211.293 10.723 218.671 7.88319 225.94 5.89938C233.21 3.92915 240.275 2.62472 246.105 1.63281C244.107 1.85022 241.743 1.90457 239.229 2.21709C237.965 2.35296 236.661 2.47525 235.343 2.63831C234.025 2.84212 232.68 3.05953 231.335 3.26335C225.981 4.21449 220.695 5.68197 216.986 7.47556C215.478 7.74731 213.698 8.48105 212.108 9.06533C210.532 9.71754 209.159 10.2746 208.466 10.2339C203.004 12.3536 199.363 14.3238 195.748 16.1989C192.12 18.074 188.764 20.0578 184.267 23.3189C182.935 24.2021 183.383 23.5091 182.853 23.5771C185.15 21.7156 187.568 19.9763 190.123 18.4817C188.492 19.2698 186.93 20.1937 185.381 21.1449C185.816 20.7372 186.481 20.2888 187.215 19.7997C187.949 19.2969 188.75 18.7806 189.539 18.3322C191.088 17.3675 192.514 16.6337 192.705 16.2533C189.253 18.1963 184.946 20.9275 181.087 24.0527C177.228 27.1778 173.845 30.6563 171.82 33.4146C174.062 31.1455 176.793 28.2241 179.715 25.8326C181.087 24.8815 183.22 23.4548 183.247 23.7673C179.225 27.3273 175.733 30.7242 172.472 34.4201C169.225 38.1024 166.181 42.0429 163.477 46.785C162.159 49.1765 160.461 52.4511 160.107 52.7772C160.719 51.0923 159.972 52.2337 160.501 50.8478C159.741 52.6413 160.012 52.8587 160.053 53.2256C160.148 53.6061 159.999 54.1088 159.02 56.6769L158.341 55.6714C158.49 56.9215 157.852 58.4841 157.281 60.3184C157.023 61.2424 156.724 62.2207 156.493 63.2262C156.289 64.2317 156.208 65.278 156.208 66.2699C155.922 66.9493 155.814 66.6367 155.827 65.7671C155.854 64.8975 155.936 63.4436 156.316 61.949C155.8 63.6339 155.841 64.6122 155.814 65.4818C155.814 66.3514 155.773 67.1259 155.719 68.5119C155.474 67.6151 155.325 66.7047 155.189 65.7943C155.311 67.3297 155.257 68.6477 154.998 69.8163C154.727 70.9848 154.455 72.0039 154.36 72.8735C154.564 73.0638 155.134 71.4876 155.189 75.2378C155.243 76.8412 154.958 76.0395 154.876 76.4335C154.985 76.5287 155.161 76.9091 155.352 77.5613C155.528 78.2271 155.719 79.1511 155.963 80.374C155.787 80.8632 155.257 78.8114 154.998 78.6755C155.297 80.537 155.583 82.0453 155.664 83.4177C156.67 86.6108 155.99 83.1187 156.751 85.0346C156.982 86.2847 157.105 86.9505 157.105 87.2766C157.105 87.6027 156.969 87.6163 156.792 87.5212C156.439 87.3445 155.922 86.7738 155.922 87.7658C154.441 84.1242 153.395 79.0967 153.11 76.9771C153.259 78.2407 153.409 79.5044 153.694 80.7409C153.952 81.9909 154.17 83.241 154.536 84.4503C154.115 84.0563 155.229 89.6137 153.966 85.7548C155.447 93.3367 159.863 101.639 164.102 107.482C163.64 106.558 162.974 105.416 163.26 105.498C165.434 108.528 164.89 108.392 165.149 109.153C166.956 111.273 167.146 110.716 168.573 111.816C170.271 114.194 171.562 115.267 172.69 116.314C173.872 117.306 174.945 118.27 176.916 119.806V119.181C178.315 120.254 179.253 120.635 180.231 120.988C181.196 121.341 182.201 121.667 183.872 122.496C184.022 122.7 182.636 122.292 181.535 121.939C183.098 122.523 183.764 122.904 184.43 123.271C185.095 123.651 185.775 123.991 187.365 124.371C186.481 124.303 185.598 124.235 184.701 124.14C187.174 125.051 190.979 125.716 189.539 125.907C191.848 126.165 194.987 126.627 198.316 126.695C201.632 126.776 205.137 126.437 207.936 125.581L207.665 126.124C209.091 125.553 211.782 124.792 214.268 123.542C216.755 122.333 218.929 120.607 219.69 119.48C219.839 119.425 220.016 119.385 220.152 119.33C221.47 117.768 222.666 116.151 223.562 114.371C225.057 112.156 225.139 113.243 225.111 112.971C227.965 107.753 228.862 103.106 229.351 99.2882C229.065 98.7854 228.93 96.9919 228.603 94.7499C228.25 92.5079 227.612 89.8447 226.783 87.5755C225.03 82.0317 221.864 76.9363 218.059 72.4795C214.241 68.0091 209.784 64.1094 204.92 60.8891C195.082 54.6523 184.321 50.6439 174.076 48.4563C171.018 47.709 166.657 47.5595 162.784 47.3693C167.458 48.1981 167.948 47.9807 172.513 48.9862C175.883 49.9781 176.956 50.97 179.687 52.2337L178.397 51.269C183.03 52.2745 181.399 52.519 185.082 53.2664L184.633 54.0273C186.006 54.0681 188.927 55.6442 190.041 56.4187L191.4 56.378C193.941 57.927 195.572 58.9597 196.115 59.8564V59.2314C196.523 59.639 199.036 60.9842 200.912 62.2071C202.759 63.4164 204.023 64.4899 202.352 63.9056C203.099 64.2725 203.901 64.4627 205.341 65.6177L205.232 66.2291C207.407 67.7102 209.676 69.6125 210.015 70.3598C208.888 69.4902 208.358 69.3543 207.855 69.232C209.907 71.0664 211.034 72.0719 211.768 72.6018C212.502 73.1317 212.855 73.1453 213.154 73.1453C213.752 73.1725 214.431 72.9415 217.543 76.8412L217.19 76.9635C217.788 77.5613 218.399 78.1592 218.97 78.7842C219.35 79.5859 219.69 80.4148 220.016 81.23C221.443 82.4258 223.168 85.5238 224.174 89.1109C225.247 92.6981 225.465 96.6522 225.519 99.5599C225.41 101.87 224.296 104.723 222.57 108.637L223.196 108.609C222.937 108.976 222.625 109.493 222.258 110.09C221.85 110.661 221.416 111.327 220.886 112.02C219.826 113.392 218.44 114.846 216.891 116.056C215.328 117.251 213.575 118.121 212.04 118.664C210.477 119.181 209.146 119.385 208.33 119.289C205.531 120.553 208.67 119.317 208.738 119.738C205.925 120.879 204.186 120.988 202.895 120.92C202.243 120.893 201.686 120.811 201.088 120.703C200.477 120.607 199.838 120.512 199.05 120.39C195.218 120.526 201.971 120.703 199.906 121.029C196.958 120.784 195.748 120.716 194.335 120.716C192.949 120.621 191.291 120.621 187.772 119.317C187.473 119.058 187.949 119.154 188.587 119.317C189.24 119.466 190.082 119.656 190.476 119.67C187.894 119.289 184.226 118.148 180.666 116.178C177.092 114.262 173.614 111.531 171.399 108.691C168.79 104.954 165.774 100.008 163.504 94.6412C161.208 89.274 159.632 83.4584 159.224 78.2951L159.007 78.132C158.952 73.8247 158.491 69.1641 159.591 64.2725L158.952 66.6367L158.966 66.6911Z" fill="black"/>
<path d="M194.715 14.6774L193.709 14.623C192.201 15.4519 190.584 16.2943 189.13 17.2727C190.149 16.9058 190.869 16.5389 191.685 16.1313C192.5 15.7101 193.383 15.2073 194.701 14.6774H194.715Z" fill="black"/>
<path d="M194.294 16.4293L196.658 15.1113C195.34 15.7364 194.008 16.3206 192.718 16.9729C193.248 16.7826 193.764 16.5924 194.294 16.4293Z" fill="black"/>
<path d="M154.604 65.468L154.767 64.8158C154.876 63.1581 155.27 61.5547 155.555 59.9106C155.881 58.28 156.411 56.7039 156.832 55.0869C155.813 58.4839 154.889 61.9352 154.59 65.468H154.604Z" fill="black"/>
<path d="M181.943 123.053C180.747 122.822 179.252 121.993 178.084 121.545C179.538 122.251 181.046 122.849 182.554 123.393L181.943 123.053Z" fill="black"/>
<path d="M226.456 115.389C226.755 113.215 228.453 111.952 226.483 113.854C225.002 116.599 226.687 114.465 226.456 115.389Z" fill="black"/>
<path d="M229.731 104.261C229.35 105.973 229.119 106.91 228.956 107.875C230.016 105.783 229.609 105.552 229.731 104.261Z" fill="black"/>
</svg>
