<svg width="58" height="57" viewBox="0 0 58 57" fill="none" xmlns="http://www.w3.org/2000/svg">
<path d="M42.8203 43.5598C43.0003 43.7398 43.2303 43.8298 43.5003 43.8298C43.7703 43.8298 44.0303 43.7098 44.2703 43.4998C44.6503 43.1198 44.6803 42.4598 44.3303 42.0498C44.0903 42.1698 43.8903 42.3198 43.7103 42.4898L43.2703 42.9598C43.0903 43.1398 42.9403 43.3398 42.8303 43.5498L42.8203 43.5598Z" fill="white"/>
<path d="M39.1403 22.9501C37.0503 25.9001 32.1903 32.0701 23.7203 32.0701C15.2503 32.0701 10.3903 25.9001 8.30029 22.9501C10.3903 20.0001 15.2503 13.8301 23.7203 13.8301C32.1903 13.8301 37.0503 20.0001 39.1403 22.9501Z" stroke="#010101" stroke-width="1.7" stroke-miterlimit="10"/>
<path d="M23.7204 32.0301C28.7351 32.0301 32.8004 27.9649 32.8004 22.9501C32.8004 17.9354 28.7351 13.8701 23.7204 13.8701C18.7056 13.8701 14.6404 17.9354 14.6404 22.9501C14.6404 27.9649 18.7056 32.0301 23.7204 32.0301Z" stroke="#010101" stroke-width="1.7" stroke-miterlimit="10"/>
<path d="M23.7204 27.0301C25.9737 27.0301 27.8004 25.2034 27.8004 22.9501C27.8004 20.6968 25.9737 18.8701 23.7204 18.8701C21.4671 18.8701 19.6404 20.6968 19.6404 22.9501C19.6404 25.2034 21.4671 27.0301 23.7204 27.0301Z" fill="#19B28D"/>
<path d="M23.7103 44.8499C35.7943 44.8499 45.5903 35.0538 45.5903 22.9698C45.5903 10.8859 35.7943 1.08984 23.7103 1.08984C11.6263 1.08984 1.83032 10.8859 1.83032 22.9698C1.83032 35.0538 11.6263 44.8499 23.7103 44.8499Z" stroke="black" stroke-width="1.7" stroke-miterlimit="10"/>
<path d="M39.1404 38.6201L45.9804 45.3101" stroke="black" stroke-width="1.7" stroke-miterlimit="10"/>
<path d="M43.2604 47.1396L51.8404 55.7496C53.0204 56.8996 54.8904 56.8996 56.0404 55.7496L56.5104 55.2796C57.6604 54.1296 57.6604 52.2596 56.5104 51.1096L47.9004 42.4996C46.9204 41.5196 45.4704 41.3696 44.3204 42.0596C44.0804 42.1796 43.8804 42.3296 43.7004 42.4996L43.2604 42.9696C43.0804 43.1496 42.9304 43.3496 42.8204 43.5596C42.1404 44.7096 42.2904 46.1696 43.2604 47.1396Z" fill="#19B28D"/>
</svg>
