<svg width="48" height="48" viewBox="0 0 48 48" fill="none" xmlns="http://www.w3.org/2000/svg">
<path d="M33.5836 42.5216C33.4637 42.5216 33.3431 42.4836 33.2422 42.4077L28.5024 38.8487C26.0696 37.0214 24.6171 34.1143 24.6171 31.0721V22.101C24.6171 21.8946 24.7294 21.7042 24.91 21.6032C25.0906 21.5031 25.3115 21.5084 25.4875 21.6177C25.4966 21.6237 26.5256 22.2528 28.0069 22.5586C29.9465 22.9593 31.7176 22.6451 33.2717 21.6253C33.4554 21.5046 33.6906 21.5008 33.8788 21.6139C37.8673 24.024 41.6357 21.6473 41.6729 21.623C41.8482 21.5099 42.0713 21.5016 42.2542 21.601C42.4371 21.7004 42.5509 21.8924 42.5509 22.101V31.0721C42.5509 34.1143 41.0985 37.0214 38.6656 38.8487L33.9259 42.4077C33.8249 42.4836 33.7043 42.5216 33.5844 42.5216H33.5836ZM25.7554 23.0268V31.0721C25.7554 33.7584 27.0378 36.3256 29.1861 37.9389L33.5836 41.2414L37.9811 37.9389C40.1294 36.3256 41.4119 33.7592 41.4119 31.0721V23.0344C40.9391 23.2431 40.2949 23.4799 39.5269 23.6415C37.4621 24.0763 35.4193 23.7728 33.595 22.765C31.8588 23.7986 29.8403 24.1097 27.7337 23.665C26.9293 23.495 26.2494 23.2446 25.7554 23.0276V23.0268Z" fill="black"/>
<path d="M31.0189 35.8432C31.1261 35.948 31.2671 36.0001 31.4081 36.0001C31.5491 36.0001 31.69 35.948 31.7972 35.8439L39.8386 28.0334C40.0537 27.8244 40.0537 27.4857 39.8386 27.2767L38.2739 25.757C38.1711 25.6564 38.0309 25.6001 37.8848 25.6001C37.7387 25.6001 37.5992 25.6564 37.4957 25.757L31.4294 31.6491L29.6922 29.9618C29.5879 29.8598 29.4425 29.8027 29.2971 29.8049C29.1496 29.8063 29.0086 29.8655 28.9058 29.9696L27.3529 31.5421C27.1458 31.7518 27.1495 32.0841 27.361 32.2902L31.0189 35.8432Z" fill="#18B28D"/>
<path d="M23.6895 14.2293C22.096 14.2293 20.7999 12.9332 20.7999 11.3396C20.7999 9.74606 22.096 8.44995 23.6895 8.44995C25.2831 8.44995 26.5792 9.74606 26.5792 11.3396C26.5792 12.9332 25.2831 14.2293 23.6895 14.2293ZM23.6895 9.58898C22.7243 9.58898 21.9381 10.3744 21.9381 11.3404C21.9381 12.3064 22.7235 13.0918 23.6895 13.0918C24.6556 13.0918 25.441 12.3064 25.441 11.3404C25.441 10.3744 24.6556 9.58898 23.6895 9.58898Z" fill="black"/>
<path d="M23.6895 14.2293C22.096 14.2293 20.7999 12.9332 20.7999 11.3396C20.7999 9.74606 22.096 8.44995 23.6895 8.44995C25.2831 8.44995 26.5792 9.74606 26.5792 11.3396C26.5792 12.9332 25.2831 14.2293 23.6895 14.2293ZM23.6895 9.58898C22.7243 9.58898 21.9381 10.3744 21.9381 11.3404C21.9381 12.3064 22.7235 13.0918 23.6895 13.0918C24.6556 13.0918 25.441 12.3064 25.441 11.3404C25.441 10.3744 24.6556 9.58898 23.6895 9.58898Z" stroke="black"/>
<path d="M19.4757 38.8705C19.3414 38.8705 19.2048 38.8561 19.0674 38.8258C18.0597 38.6019 17.4215 37.6018 17.64 36.594L20.1199 23.677V18.1427H13.3958C12.3608 18.1427 11.5184 17.3004 11.5184 16.2653C11.5184 15.2303 12.3608 14.3879 13.3958 14.3879H33.9818C35.0168 14.3879 35.8591 15.2303 35.8591 16.2653C35.8591 17.3004 35.0168 18.1427 33.9818 18.1427H27.307V19.8349C27.307 20.1491 27.052 20.4041 26.7378 20.4041C26.4237 20.4041 26.1687 20.1491 26.1687 19.8349V17.5736C26.1687 17.2594 26.4237 17.0044 26.7378 17.0044H33.9818C34.3893 17.0044 34.7209 16.6728 34.7209 16.2653C34.7209 15.8578 34.3893 15.5262 33.9818 15.5262H13.3966C12.9891 15.5262 12.6575 15.8578 12.6575 16.2653C12.6575 16.6728 12.9891 17.0044 13.3966 17.0044H20.6898C21.004 17.0044 21.259 17.2594 21.259 17.5736V23.7308C21.259 23.7665 21.2559 23.8029 21.2491 23.8378L18.7578 36.8148C18.7574 36.8175 18.7569 36.8202 18.7563 36.8228C18.7557 36.8255 18.7552 36.8281 18.7548 36.8308C18.666 37.2284 18.9179 37.6245 19.3163 37.7133C19.714 37.8021 20.1101 37.5502 20.1989 37.1518L22.3654 27.412C22.4337 27.1054 22.7372 26.9112 23.0445 26.9802C23.3511 27.0485 23.5446 27.3528 23.4763 27.6594L21.3098 37.3991C21.1155 38.2733 20.3377 38.869 19.4772 38.869L19.4757 38.8705Z" fill="black"/>
<path d="M19.4757 38.8705C19.3414 38.8705 19.2048 38.8561 19.0674 38.8258C18.0597 38.6019 17.4215 37.6018 17.64 36.594L20.1199 23.677V18.1427H13.3958C12.3608 18.1427 11.5184 17.3004 11.5184 16.2653C11.5184 15.2303 12.3608 14.3879 13.3958 14.3879H33.9818C35.0168 14.3879 35.8591 15.2303 35.8591 16.2653C35.8591 17.3004 35.0168 18.1427 33.9818 18.1427H27.307V19.8349C27.307 20.1491 27.052 20.4041 26.7378 20.4041C26.4237 20.4041 26.1687 20.1491 26.1687 19.8349V17.5736C26.1687 17.2594 26.4237 17.0044 26.7378 17.0044H33.9818C34.3893 17.0044 34.7209 16.6728 34.7209 16.2653C34.7209 15.8578 34.3893 15.5262 33.9818 15.5262H13.3966C12.9891 15.5262 12.6575 15.8578 12.6575 16.2653C12.6575 16.6728 12.9891 17.0044 13.3966 17.0044H20.6898C21.004 17.0044 21.259 17.2594 21.259 17.5736V23.7308C21.259 23.7665 21.2559 23.8029 21.2491 23.8378L18.7578 36.8148C18.7574 36.8175 18.7569 36.8202 18.7563 36.8228C18.7557 36.8255 18.7552 36.8281 18.7548 36.8308C18.666 37.2284 18.9179 37.6245 19.3163 37.7133C19.714 37.8021 20.1101 37.5502 20.1989 37.1518L22.3654 27.412C22.4337 27.1054 22.7372 26.9112 23.0445 26.9802C23.3511 27.0485 23.5446 27.3528 23.4763 27.6594L21.3098 37.3991C21.1155 38.2733 20.3377 38.869 19.4772 38.869L19.4757 38.8705Z" stroke="black"/>
<path d="M7.89237 33.4563C7.69659 33.4563 7.50688 33.3554 7.40064 33.1748C5.71828 30.2995 4.82892 27.0099 4.82892 23.6604C4.82892 18.6224 6.79053 13.8865 10.3533 10.3244C13.9153 6.76166 18.652 4.80005 23.6892 4.80005C28.0025 4.80005 32.0631 6.21757 35.4301 8.89933C38.6977 11.5014 41.0372 15.1575 42.0176 19.1931C42.092 19.4981 41.9045 19.8062 41.5987 19.8806C41.2929 19.9549 40.9856 19.7675 40.9112 19.4617C39.99 15.6697 37.7916 12.2352 34.7206 9.78945C31.5569 7.27009 27.7422 5.93832 23.6885 5.93832C18.9548 5.93832 14.5042 7.78155 11.1569 11.1288C7.81042 14.4761 5.96719 18.9267 5.96719 23.6604C5.96719 26.8081 6.80267 29.8988 8.38335 32.5988C8.54194 32.8697 8.45088 33.2188 8.17998 33.3774C8.08967 33.4305 7.99102 33.4555 7.89313 33.4555L7.89237 33.4563Z" fill="black"/>
<path d="M7.89237 33.4563C7.69659 33.4563 7.50688 33.3554 7.40064 33.1748C5.71828 30.2995 4.82892 27.0099 4.82892 23.6604C4.82892 18.6224 6.79053 13.8865 10.3533 10.3244C13.9153 6.76166 18.652 4.80005 23.6892 4.80005C28.0025 4.80005 32.0631 6.21757 35.4301 8.89933C38.6977 11.5014 41.0372 15.1575 42.0176 19.1931C42.092 19.4981 41.9045 19.8062 41.5987 19.8806C41.2929 19.9549 40.9856 19.7675 40.9112 19.4617C39.99 15.6697 37.7916 12.2352 34.7206 9.78945C31.5569 7.27009 27.7422 5.93832 23.6885 5.93832C18.9548 5.93832 14.5042 7.78155 11.1569 11.1288C7.81042 14.4761 5.96719 18.9267 5.96719 23.6604C5.96719 26.8081 6.80267 29.8988 8.38335 32.5988C8.54194 32.8697 8.45088 33.2188 8.17998 33.3774C8.08967 33.4305 7.99102 33.4555 7.89313 33.4555L7.89237 33.4563Z" stroke="black"/>
<path d="M23.6898 42.5215C19.7407 42.5215 15.9602 41.3142 12.7548 39.0301C12.4991 38.8479 12.4391 38.492 12.622 38.2363C12.8041 37.9806 13.16 37.9206 13.4158 38.1035C16.4269 40.2495 19.9798 41.384 23.6898 41.384C25.3926 41.384 27.0765 41.1427 28.6943 40.6677C28.9964 40.5789 29.312 40.7519 29.4008 41.0531C29.4896 41.3544 29.3166 41.6708 29.0153 41.7596C27.2935 42.2658 25.5011 42.5223 23.6898 42.5223V42.5215Z" fill="black"/>
<path d="M23.6898 42.5215C19.7407 42.5215 15.9602 41.3142 12.7548 39.0301C12.4991 38.8479 12.4391 38.492 12.622 38.2363C12.8041 37.9806 13.16 37.9206 13.4158 38.1035C16.4269 40.2495 19.9798 41.384 23.6898 41.384C25.3926 41.384 27.0765 41.1427 28.6943 40.6677C28.9964 40.5789 29.312 40.7519 29.4008 41.0531C29.4896 41.3544 29.3166 41.6708 29.0153 41.7596C27.2935 42.2658 25.5011 42.5223 23.6898 42.5223V42.5215Z" stroke="black"/>
<path d="M8.70266 35.2661C8.70266 35.6631 9.02479 35.9853 9.42179 35.9853C9.8188 35.9853 10.1409 35.6631 10.1409 35.2661V34.7835C10.1409 34.3865 9.8188 34.0644 9.42179 34.0644C9.02479 34.0644 8.70266 34.3865 8.70266 34.7835V35.2661Z" fill="black" stroke="black" strokeWidth="0.3"/>
<path d="M8.70266 38.8069C8.70266 39.2039 9.02479 39.526 9.42179 39.526C9.8188 39.526 10.1409 39.2039 10.1409 38.8069V38.3243C10.1409 37.9273 9.8188 37.6051 9.42179 37.6051C9.02479 37.6051 8.70266 37.9273 8.70266 38.3243V38.8069Z" fill="black" stroke="black" strokeWidth="0.3"/>
<path d="M7.41001 37.5143H7.89264C8.28964 37.5143 8.61177 37.1922 8.61177 36.7952C8.61177 36.3982 8.28964 36.0761 7.89264 36.0761H7.41001C7.01301 36.0761 6.69088 36.3982 6.69088 36.7952C6.69088 37.1922 7.01301 37.5143 7.41001 37.5143Z" fill="black" stroke="black" strokeWidth="0.3"/>
<path d="M10.9509 37.5143H11.4335C11.8305 37.5143 12.1527 37.1922 12.1527 36.7952C12.1527 36.3982 11.8305 36.0761 11.4335 36.0761H10.9509C10.5539 36.0761 10.2318 36.3982 10.2318 36.7952C10.2318 37.1922 10.5539 37.5143 10.9509 37.5143Z" fill="black" stroke="black" strokeWidth="0.3"/>
<path d="M6.69082 6.24268C6.69082 6.63968 7.01295 6.96181 7.40995 6.96181C7.80696 6.96181 8.12909 6.63968 8.12909 6.24268V5.76005C8.12909 5.36305 7.80696 5.04092 7.40995 5.04092C7.01295 5.04092 6.69082 5.36305 6.69082 5.76005V6.24268Z" fill="black" stroke="black" strokeWidth="0.3"/>
<path d="M6.69082 9.78345C6.69082 10.1805 7.01295 10.5026 7.40995 10.5026C7.80696 10.5026 8.12909 10.1805 8.12909 9.78345V9.30082C8.12909 8.90382 7.80696 8.58169 7.40995 8.58169C7.01295 8.58169 6.69082 8.90382 6.69082 9.30082V9.78345Z" fill="black" stroke="black" strokeWidth="0.3"/>
<path d="M5.39811 8.4909H5.88074C6.27774 8.4909 6.59987 8.16877 6.59987 7.77177C6.59987 7.37477 6.27774 7.05264 5.88074 7.05264H5.39811C5.00111 7.05264 4.67898 7.37477 4.67898 7.77177C4.67898 8.16877 5.00111 8.4909 5.39811 8.4909Z" fill="black" stroke="black" strokeWidth="0.3"/>
<path d="M8.93907 8.4909H9.42169C9.8187 8.4909 10.1408 8.16877 10.1408 7.77177C10.1408 7.37477 9.8187 7.05264 9.42169 7.05264H8.93907C8.54206 7.05264 8.21993 7.37477 8.21993 7.77177C8.21993 8.16877 8.54206 8.4909 8.93907 8.4909Z" fill="black" stroke="black" strokeWidth="0.3"/>
<path d="M39.0594 6.24268C39.0594 6.63968 39.3815 6.96181 39.7785 6.96181C40.1755 6.96181 40.4977 6.63968 40.4977 6.24268V5.76005C40.4977 5.36305 40.1755 5.04092 39.7785 5.04092C39.3815 5.04092 39.0594 5.36305 39.0594 5.76005V6.24268Z" fill="black" stroke="black" strokeWidth="0.3"/>
<path d="M39.0594 9.78345C39.0594 10.1805 39.3815 10.5026 39.7785 10.5026C40.1755 10.5026 40.4977 10.1805 40.4977 9.78345V9.30082C40.4977 8.90382 40.1755 8.58169 39.7785 8.58169C39.3815 8.58169 39.0594 8.90382 39.0594 9.30082V9.78345Z" fill="black" stroke="black" strokeWidth="0.3"/>
<path d="M37.7668 8.4909H38.2494C38.6464 8.4909 38.9685 8.16877 38.9685 7.77177C38.9685 7.37477 38.6464 7.05264 38.2494 7.05264H37.7668C37.3698 7.05264 37.0476 7.37477 37.0476 7.77177C37.0476 8.16877 37.3698 8.4909 37.7668 8.4909Z" fill="black" stroke="black" strokeWidth="0.3"/>
<path d="M41.3077 8.4909H41.7903C42.1873 8.4909 42.5094 8.16877 42.5094 7.77177C42.5094 7.37477 42.1873 7.05264 41.7903 7.05264H41.3077C40.9107 7.05264 40.5885 7.37477 40.5885 7.77177C40.5885 8.16877 40.9107 8.4909 41.3077 8.4909Z" fill="black" stroke="black" strokeWidth="0.3"/>
<path d="M6.52707 41.8341C6.88407 41.4771 6.88408 40.8983 6.52707 40.5413C6.17007 40.1843 5.59126 40.1843 5.23426 40.5413C4.87726 40.8983 4.87726 41.4772 5.23426 41.8342C5.59126 42.1912 6.17007 42.1912 6.52707 41.8341Z" fill="black" stroke="black" strokeWidth="0.3"/>
</svg>
