<svg width="48" height="48" viewBox="0 0 48 48" fill="none" xmlns="http://www.w3.org/2000/svg">
<path d="M24.8572 37.4923C24.8572 36.8812 24.3569 36.3937 23.7449 36.3937C23.1388 36.3937 22.6395 36.8822 22.6395 37.4923C22.6395 38.1014 23.1309 38.5908 23.7449 38.5908C24.3569 38.5908 24.8572 38.1033 24.8572 37.4923Z" fill="black" stroke="black" strokeWidth="0.4"/>
<path d="M41.4461 37.8378V37.9805C41.3691 38.7739 40.6593 39.4348 39.8352 39.4348H7.59924C6.72627 39.4348 5.98148 38.693 5.98148 37.8378V14.1999C5.98148 13.3447 6.72627 12.6029 7.59924 12.6029H39.8283C40.7013 12.6029 41.4461 13.3447 41.4461 14.1999V37.8378ZM39.8283 11.3735H7.66836C6.09468 11.3735 4.81428 12.636 4.81428 14.1999V37.8378C4.81428 39.4018 6.09468 40.6642 7.66836 40.6642H13.8075C13.6363 40.9993 13.5506 41.3913 13.5506 41.7775C13.5506 43.0654 14.6241 44.1201 15.9209 44.1201H31.6518C32.9486 44.1201 34.0221 43.0654 34.0221 41.7775C34.0221 41.3931 33.9409 41.0005 33.7682 40.6642H39.9044C41.478 40.6642 42.7584 39.4018 42.7584 37.8378V14.1999C42.7584 12.6323 41.4743 11.3735 39.8283 11.3735ZM32.7098 41.8466C32.7098 42.4321 32.2347 42.9598 31.5827 42.9598H15.9209C15.3243 42.9598 14.7939 42.4876 14.7939 41.8466C14.7939 41.2611 15.2689 40.7334 15.9209 40.7334H31.6518C32.2345 40.7334 32.7098 41.1918 32.7098 41.8466Z" fill="black" stroke="black" strokeWidth="0.4"/>
<path d="M39.545 14H8.01396C7.84592 14 7.69277 14.0817 7.58554 14.1866C7.47839 14.2914 7.39235 14.4437 7.39235 14.6147V34.9349C7.39235 35.1038 7.47484 35.2561 7.58216 35.3623C7.68982 35.4687 7.84342 35.5496 8.01396 35.5496H39.545C39.713 35.5496 39.8662 35.4679 39.9734 35.363C40.0805 35.2582 40.1666 35.1059 40.1666 34.9349V14.6147C40.1666 14.4456 40.1242 14.2814 40.0026 14.1613C39.8831 14.0433 39.7207 14.0011 39.5519 14V14H39.545ZM38.9303 34.2511H8.63557V15.2294H38.9303V34.2511Z" fill="black" stroke="black" strokeWidth="0.4"/>
<path d="M11.5113 31.6791H29.4125C33.3635 31.6791 36.6071 28.4816 36.6071 24.5674V18.0705C36.6071 17.9016 36.5246 17.7493 36.4173 17.6432C36.3096 17.5367 36.156 17.4558 35.9855 17.4558H18.0843C14.1333 17.4558 10.8897 20.6532 10.8897 24.5674V30.9953C10.8897 31.364 11.1692 31.6791 11.5113 31.6791ZM12.1329 24.5674C12.1329 21.361 14.7727 18.6852 18.0843 18.6852H35.3639V24.5674C35.3639 27.7738 32.724 30.4497 29.4125 30.4497H12.1329V24.5674Z" fill="#18B28D" stroke="#18B28D" strokeWidth="0.4"/>
<path d="M29.6055 27.7211L29.6452 27.7393H29.6752C29.6806 27.7417 29.6886 27.7455 29.703 27.7527L29.7055 27.754C29.7212 27.7618 29.7467 27.7746 29.7741 27.7849C29.8038 27.796 29.8461 27.8084 29.8961 27.8084C30.0642 27.8084 30.2173 27.7267 30.3246 27.6218C30.4317 27.517 30.5178 27.3646 30.5178 27.1937V22.01C30.5178 21.8071 30.4152 21.5932 30.1999 21.4855C30.0058 21.3885 29.7949 21.3882 29.6007 21.4848L27.0205 22.7283V22.2864C27.0205 21.3442 26.2305 20.5659 25.2792 20.5659H18.3606C17.4167 20.5659 16.6193 21.3437 16.6193 22.2864V26.9864C16.6193 27.9286 17.4092 28.7069 18.3606 28.7069H25.2792C26.223 28.7069 27.0205 27.9291 27.0205 26.9864V26.5376L29.6055 27.7211ZM26.9583 24.0694L29.2123 22.9541V26.1113L26.9583 24.996V24.0694ZM25.715 26.9173C25.715 27.1628 25.511 27.4084 25.2169 27.4084H18.2984C18.0418 27.4084 17.8003 27.2075 17.8003 26.9173V24.3526H23.2609C23.429 24.3526 23.5821 24.2709 23.6894 24.166C23.7965 24.0611 23.8826 23.9088 23.8826 23.7379C23.8826 23.569 23.8001 23.4167 23.6927 23.3106C23.5851 23.2041 23.4315 23.1232 23.2609 23.1232H17.8003V22.2864C17.8003 22.0395 17.9987 21.7953 18.2984 21.7953H25.2169C25.4735 21.7953 25.715 21.9962 25.715 22.2864V26.9173Z" fill="#18B28D" stroke="#18B28D" strokeWidth="0.4"/>
<path d="M11.7185 10.2529C13.2922 10.2529 14.5726 8.99043 14.5726 7.42648C14.5726 5.86253 13.2922 4.60005 11.7185 4.60005C10.1449 4.60005 8.86445 5.86253 8.86445 7.42648C8.86445 8.99043 10.1449 10.2529 11.7185 10.2529ZM11.7185 5.96768C12.5916 5.96768 13.2672 6.6405 13.2672 7.4956C13.2672 8.3507 12.5916 9.02351 11.7185 9.02351C10.8454 9.02351 10.1699 8.3507 10.1699 7.4956C10.1699 6.6405 10.8454 5.96768 11.7185 5.96768Z" fill="black" stroke="black" strokeWidth="0.4"/>
<path d="M35.7712 10.6676C36.861 10.6676 37.7198 9.8198 37.7198 8.73963C37.7198 7.65947 36.861 6.81172 35.7712 6.81172C34.6813 6.81172 33.8225 7.65947 33.8225 8.73963C33.8225 9.8198 34.6813 10.6676 35.7712 10.6676ZM35.7712 8.11024C36.1544 8.11024 36.4835 8.43833 36.4835 8.80875C36.4835 9.17917 36.1544 9.50727 35.7712 9.50727C35.3899 9.50727 35.0657 9.18112 35.0657 8.80875C35.0657 8.43736 35.3958 8.11024 35.7712 8.11024Z" fill="black" stroke="black" strokeWidth="0.4"/>
<path d="M42.9659 6.38963C42.9659 5.93072 42.5901 5.56758 42.1369 5.56758C41.6837 5.56758 41.3079 5.93072 41.3079 6.38963C41.3079 6.84854 41.6837 7.21168 42.1369 7.21168C42.5901 7.21168 42.9659 6.84853 42.9659 6.38963Z" fill="black" stroke="black" strokeWidth="0.4"/>
<path d="M32.4738 7.28831C32.4738 6.8294 32.098 6.46626 31.6448 6.46626C31.1917 6.46626 30.8159 6.8294 30.8159 7.28831C30.8159 7.74722 31.1917 8.11036 31.6448 8.11036C32.098 8.11036 32.4738 7.74722 32.4738 7.28831Z" fill="black" stroke="black" strokeWidth="0.4"/>
<path d="M24.9955 9.84568C24.9955 9.38677 24.6197 9.02363 24.1666 9.02363C23.7134 9.02363 23.3376 9.38677 23.3376 9.84568C23.3376 10.3046 23.7134 10.6677 24.1666 10.6677C24.6197 10.6677 24.9955 10.3046 24.9955 9.84568Z" fill="black" stroke="black" strokeWidth="0.4"/>
<path d="M17.1645 6.18235C17.1645 5.72344 16.7887 5.3603 16.3356 5.3603C15.8824 5.3603 15.5066 5.72344 15.5066 6.18235C15.5066 6.64126 15.8824 7.0044 16.3356 7.0044C16.7887 7.0044 17.1645 6.64126 17.1645 6.18235Z" fill="black" stroke="black" strokeWidth="0.4"/>
<path d="M6.25791 9.43089C6.25791 8.97198 5.8821 8.60884 5.42895 8.60884C4.9758 8.60884 4.59999 8.97198 4.59999 9.43089C4.59999 9.88979 4.9758 10.2529 5.42895 10.2529C5.8821 10.2529 6.25791 9.88979 6.25791 9.43089Z" fill="black" stroke="black" strokeWidth="0.4"/>
</svg>
