<?xml version="1.0" encoding="UTF-8"?>
<svg width="280px" height="260px" viewBox="0 0 280 260" version="1.1" xmlns="http://www.w3.org/2000/svg" xmlns:xlink="http://www.w3.org/1999/xlink">
    <title>background-july10</title>
    <defs>
        <rect id="path-1" x="0" y="0" width="280" height="260" rx="8"></rect>
        <polygon id="path-3" points="0 0 513 0 513 129 0 129"></polygon>
    </defs>
    <g id="3.0-About-(release-2.0)" stroke="none" stroke-width="1" fill="none" fill-rule="evenodd">
        <g id="About---HistoryHighlights-Reference-" transform="translate(-1255.000000, -124.000000)">
            <g id="background-july10" transform="translate(1255.000000, 124.000000)">
                <mask id="mask-2" fill="white">
                    <use xlink:href="#path-1"></use>
                </mask>
                <use id="Mask" fill="#0A1A1F" xlink:href="#path-1"></use>
                <path d="M178.645235,91.9809628 C131.365917,86.9635239 78.1150729,123.379446 89.0770883,177.271066 C96.2043687,212.310306 142.98064,231.676674 172.804506,236.935458 C198.272767,241.426227 216.718713,244.515232 238.49916,233.29564 C252.235057,226.219974 259.65039,205.094709 260.775156,191.501555 C263.340606,160.497272 252.992266,100.602017 213.48073,92.6269242 C204.932596,90.9015507 196.064272,91.7011752 187.356042,91.2383007 L178.645235,91.9809628 Z" id="Path-4" stroke="#000000" stroke-width="2" mask="url(#mask-2)"></path>
                <path d="M187.897567,50.2835791 C134.881382,33.062437 125.719253,26.4002489 47.7742438,41.9092901 C33.1423759,44.8206534 23.4769776,59.2981885 12.1844824,69.0474018 C-29.1486716,104.731786 -6.30168836,164.938313 23.4946076,201.29928 C86.3762118,278.034855 154.430999,302.781651 250.501663,312.768223 C258.129992,313.56119 334.063505,314.819036 343.752176,298.205083 C351.524015,284.878077 370.634751,236.36883 364.20246,211.963444 C344.477703,137.123797 292.132942,55.6508938 207.875952,52.5618499 L187.897567,50.2835791 Z" id="Path-5" stroke="#000000" stroke-width="2" mask="url(#mask-2)"></path>
                <path d="M219.870718,26.4410306 C167.169265,-3.63469512 68.8698905,-50.8629436 13.4222526,-26.03269 C7.2784071,-23.2813872 -7.72709936,-6.81082128 -9.8671674,-4.20925411 C-52.4290483,47.5309662 -36.0499693,125.313213 -20.2400764,179.003519 C-13.9145655,200.484919 -3.55630764,219.63859 3.13538436,241.008754 C11.3945886,267.384825 44.2321673,318.945741 77.5078049,336.212364 C143.280328,370.341518 220.205838,385.465937 293.518046,372.254685 C296.994009,371.628298 394.714315,355.311524 404.205646,335.407814 C413.356867,316.217327 410.329893,273.768879 408.452745,256.434207 C402.069714,197.489606 377.238323,84.6602143 316.517363,53.5095177 C293.39408,41.6469519 265.246274,45.5144967 240.66139,37.1167986 L219.870718,26.4410306 Z" id="Path-6" stroke="#000000" mask="url(#mask-2)"></path>
                <g id="Group-61" mask="url(#mask-2)">
                    <g transform="translate(-82.000000, 94.000000)" id="Group-60">
                        <g id="Group-10" transform="translate(0.000000, 14.000000)">
                            <mask id="mask-4" fill="white">
                                <use xlink:href="#path-3"></use>
                            </mask>
                            <g id="Clip-9"></g>
                            <path d="M404.443697,117.294685 C405.670759,117.264922 406.913554,117.235159 408.175575,117.207147 C409.374671,117.189639 410.591246,117.172132 411.823552,117.156375 L411.823552,129.606077 C414.137841,129.614831 416.46087,129.623585 418.775159,129.632339 C418.762924,126.23235 418.750688,122.842865 418.7402,119.514658 L418.808371,120.22897 C418.810119,119.948848 418.810119,119.666974 418.811866,119.40611 C421.342902,119.409612 423.858205,119.411362 426.209202,119.414864 C426.156763,105.200388 426.104324,91.4533672 426.051886,77.6888385 C430.930421,76.7679352 435.808957,75.8452811 440.731191,74.9138731 C443.42129,75.7367335 446.120129,76.5630955 448.848682,77.3947097 C448.880146,82.8325914 448.909861,88.3335007 448.943072,93.9061915 C448.899373,93.4299829 448.887137,93.2671616 448.841691,92.7734453 C448.909861,94.2510925 449.033965,95.8898103 449.018234,97.5477864 C448.974535,97.9784751 448.92734,97.0820825 448.906365,96.5516001 C448.58649,103.017182 449.110875,115.54742 448.864414,119.589941 C448.897625,121.408987 449.032218,122.212589 449.133599,121.200646 C449.137095,122.329891 449.142339,123.464388 449.145834,124.691675 C451.091306,124.684672 453.047264,124.677669 455.137816,124.668915 C455.111596,117.674602 455.085377,110.552482 455.060906,103.227274 C457.284301,103.216769 459.519933,103.206265 461.783531,103.199262 C462.669743,101.623572 463.561199,100.04438 464.454403,98.4616867 C469.226313,98.4319237 474.017451,98.4021606 478.754402,98.3758991 C479.329478,99.7800141 479.901059,101.180628 480.458656,102.546226 C482.928513,102.526967 485.379142,102.505958 487.775585,102.484949 C487.791317,104.375777 487.807048,106.221085 487.82278,108.05939 C487.779081,109.235906 487.691683,109.447748 487.579814,109.125607 C487.656724,113.08234 487.735382,117.07759 487.81404,121.121862 C489.923819,121.097351 492.044085,121.07284 494.183579,121.048329 C494.171343,116.182948 494.159108,111.287804 494.14862,106.378654 C499.777027,106.394411 505.41767,106.411919 511.049573,106.427676 C511.033841,109.762886 511.01811,113.091094 511.004126,116.400043 C511.960256,116.405296 512.907646,116.408797 513.855037,116.41405 C514.67133,116.27749 511.678836,116.268736 513.779875,116.126924 C512.932118,116.116419 512.11058,116.104164 511.310018,116.091908 C511.245343,112.686667 511.187661,109.521281 511.128231,106.348891 C509.957102,106.348891 508.787722,106.350642 507.609602,106.352393 C506.719894,106.333134 505.826691,106.310374 504.919503,106.287614 L505.71657,106.156307 C501.194617,106.070519 504.800643,106.488953 500.10739,106.319128 C498.258056,106.207079 500.570597,106.151055 499.710605,106.14055 C497.793101,106.145802 495.863361,106.151055 493.92663,106.156307 C493.940614,111.067208 493.956345,116.021878 493.972077,120.834736 L493.79029,120.846991 L492.972248,120.857496 C492.306278,120.869751 491.643804,120.880256 490.988322,120.892511 C490.329344,120.906517 489.675609,120.920523 489.023623,120.932779 L488.537692,120.945034 L488.313954,120.950286 L488.245784,120.957289 L487.948632,120.985302 L487.927657,120.769957 C487.918917,120.670164 487.910177,120.699927 487.901438,120.38829 C488.188102,118.15081 487.911925,110.043009 488.186354,106.485451 C488.165378,105.904196 488.146151,105.324693 488.125176,104.766198 C488.111192,103.859301 488.09546,102.983917 488.083225,102.178565 C487.553595,102.185568 487.048437,102.194322 486.572994,102.203075 C486.197184,102.215331 485.847593,102.225835 485.52597,102.238091 C485.08199,102.262601 484.716668,102.299368 484.463215,102.348389 C483.180218,102.343137 481.895473,102.337884 480.603736,102.330881 C480.049635,100.933769 479.49029,99.5244022 478.932693,98.1132841 C474.06115,98.1080318 469.163387,98.1027795 464.244648,98.0975272 C463.35494,99.6592112 462.456493,101.233151 461.559793,102.812342 C459.271723,102.814093 456.964426,102.817595 454.651885,102.821096 C454.669364,109.915203 454.688592,117.063584 454.706071,124.236476 C453.010557,124.243479 451.295816,124.250482 449.579327,124.257485 C449.556603,111.256291 449.535628,98.1693087 449.512904,85.0700714 C449.476197,83.83403 449.441238,82.5787302 449.404531,81.3076735 C449.383556,79.9035585 449.359085,78.4784344 449.334613,77.0358025 C446.550125,76.1814283 443.686979,75.3042941 440.762654,74.4044 C435.787981,75.2815342 430.629773,76.1901821 425.368436,77.1180885 C425.342217,81.1203415 425.312502,85.1873728 425.286283,89.2859179 C425.295022,93.2198909 425.302014,97.1836269 425.310754,101.138609 C425.291526,101.271667 425.270551,101.247157 425.254819,101.119351 C425.291526,103.615944 425.333477,106.564235 425.378924,109.671847 C425.39116,112.60263 425.401647,115.678728 425.413883,118.618265 C423.900156,118.60776 422.508786,118.599007 421.175098,118.592003 L418.093458,118.690046 L418.231546,122.856871 C418.210571,124.907019 418.187847,126.96242 418.166872,129.024823 C416.270343,129.007315 414.366823,128.988057 412.459807,128.968798 C412.48253,124.803724 412.50875,120.629896 412.534969,116.445563 C405.530923,116.422803 398.495414,116.401794 391.43893,116.379034 C391.444174,110.738064 391.449418,105.060327 391.454662,99.3703347 L388.294363,99.3703347 C386.074464,90.9088787 383.844076,82.400152 381.610193,73.8826715 C379.385049,82.3581336 377.154662,90.8633588 374.920779,99.3633316 L371.248331,99.3563285 C371.230851,105.235403 371.213371,111.107475 371.195892,116.977796 C371.181908,120.955539 371.171421,124.893013 371.157437,128.706183 C369.003959,128.697429 366.936132,128.688676 364.88054,128.678171 C364.936474,104.517589 364.992408,81.5107625 365.044847,58.3183546 C362.069832,57.8894167 359.080833,57.458728 356.08659,57.0262886 C349.994976,57.8666567 343.840435,58.7157786 337.642195,59.5719036 C337.748821,69.9889661 337.855446,80.6108683 337.965567,91.4603702 C337.91138,91.3955919 337.881665,91.8052713 337.858942,90.50095 C337.871177,94.8305963 337.881665,99.0464428 337.893901,103.192259 C337.881665,107.138487 337.871177,111.016435 337.86069,114.869873 L326.937734,114.869873 C326.928994,113.581309 326.920255,112.28224 326.909767,110.979669 L326.965701,111.021688 C326.908019,103.985356 326.850337,96.8334736 326.790906,89.615062 C324.198693,89.6220651 321.597739,89.6290682 318.991542,89.6360712 L318.605245,89.6360712 C318.496872,89.6553297 318.402482,89.6325697 318.334312,89.5415298 L317.701553,88.9882875 C317.22611,88.5751065 316.769894,88.1356641 316.214046,87.8187753 C315.179258,87.0869548 314.023861,86.5232078 312.817774,86.124033 C310.382876,85.3309356 307.720744,85.418474 305.29983,86.1310361 C304.091995,86.5004479 302.915623,86.9784072 301.821405,87.6016802 C301.263808,87.8923075 300.735926,88.2407101 300.213288,88.5891127 C299.954591,88.7694417 299.695894,88.9445183 299.447685,89.142355 L299.075371,89.4329823 L298.82891,89.6395728 C295.983243,89.6395728 293.153308,89.637822 290.332113,89.637822 C290.340852,97.0243072 290.35134,104.346014 290.361828,111.538164 C287.444495,111.557422 284.630292,111.57493 281.838811,111.592438 C281.798608,107.696982 281.758406,103.976602 281.721699,100.303493 C280.87569,100.166934 280.089111,100.037377 279.30428,99.9095709 C273.983513,98.9606552 268.568356,97.9959827 262.333409,96.8859966 C262.331661,99.067452 262.331661,101.770636 262.329913,104.578866 C257.14199,104.578866 251.067855,104.578866 244.754251,104.580617 C244.754251,103.15024 244.752503,101.388969 244.752503,99.615442 C243.964176,99.615442 242.990567,99.6171928 242.011713,99.6171928 C242.013461,101.066828 242.013461,102.821096 242.015209,104.58762 C239.370557,104.589371 236.271437,104.591121 233.149594,104.594623 C233.130367,93.4737521 233.107643,81.4407318 233.088416,69.4672376 C232.513339,64.3952661 231.920783,59.1429657 231.329975,53.9239299 C231.305504,49.8568986 231.356195,40.7266497 231.350951,40.1734073 C231.006604,37.8203768 230.665753,35.4778508 230.324903,33.1440786 L230.256733,32.69063 L230.116896,33.1248202 C229.867522,33.9021606 229.556386,34.9719093 229.18349,36.3340661 L229.18349,27.1687115 L227.356879,27.2142314 C226.012704,20.7398958 224.672024,14.2865693 223.333093,7.83849515 L223.368052,1.01225537 L220.372061,1 C220.359825,3.24973535 220.34759,5.50297223 220.335354,7.75971065 C218.867074,14.176271 217.386558,20.6366005 215.900799,27.1284439 C215.322226,27.1284439 214.734914,27.1266931 214.147602,27.1266931 C214.146437,29.2077712 214.214646,32.2768956 214.352229,36.3340661 C214.018765,35.1025029 213.698329,34.1636257 213.359276,32.9882604 L212.820906,31.7102006 L212.691558,33.0898048 C212.497535,35.1136913 212.300016,37.195353 212.102498,39.282267 L211.973149,40.4867946 C211.962662,45.0825575 211.952174,49.7150865 211.939938,54.3738769 C211.51169,59.3758177 211.081693,64.4075215 210.649949,69.4602345 C210.737347,81.1658614 210.82824,92.9730328 210.917386,104.729432 C207.164532,104.752192 203.423914,104.773201 199.693783,104.797712 C199.686791,103.108222 199.681547,101.434489 199.674555,99.7642572 C198.898464,99.766008 198.131113,99.7677587 197.363762,99.7712603 C197.36551,101.469504 197.36551,103.148489 197.367258,104.823973 C195.991619,104.823973 194.638704,104.822223 193.285789,104.820472 C193.292781,103.109973 193.298025,101.429236 193.303268,99.7537526 C192.579616,99.7502511 191.871695,99.7467495 191.162027,99.7414972 C191.148043,101.467753 191.137555,103.151991 191.12532,104.834478 C190.887598,104.832727 190.658616,104.830976 190.427887,104.827475 C188.335587,104.792459 186.18211,104.753943 183.976194,104.715426 C181.820968,104.704921 179.622044,104.692666 177.382917,104.68041 C177.381169,103.901319 177.381169,103.116976 177.379421,102.32738 C175.820247,102.334383 174.243594,102.341386 172.656453,102.348389 C172.645966,101.077332 172.637226,99.795771 172.626738,98.5107082 C169.02246,98.549225 165.379727,98.5912435 161.752726,98.6315111 C161.770205,99.9971092 161.785937,101.360957 161.801668,102.717801 C158.908807,102.749315 156.042165,102.779078 153.217473,102.808841 C153.208734,101.817907 153.201742,100.851483 153.196498,99.8885617 C151.528951,99.8955647 149.905103,99.9043186 148.302231,99.9113216 C148.310971,97.1486116 148.317962,94.4541815 148.324954,91.8542928 C148.372149,89.3121794 148.4141,86.8593551 148.457799,84.5133275 L148.484018,83.158234 C144.573848,83.0934557 140.674166,83.0286773 136.78672,82.9638989 C132.789152,82.9218805 128.800325,82.8781113 124.818489,82.8360929 C124.790522,90.5097039 124.759058,98.1570533 124.729343,105.792147 L115.005483,105.811406 C115.043938,112.46607 115.084141,119.115483 115.120848,125.77715 C113.219076,125.796409 111.313808,125.813917 109.406792,125.831424 L109.357849,121.020317 L109.333378,118.502714 L109.319394,117.242162 L109.312402,116.587375 L109.308906,116.242474 L109.051957,116.009622 C106.596084,113.656592 103.878018,111.604693 100.710728,110.393163 C97.5556734,109.174629 94.0108257,109.111601 90.8138206,110.132298 C87.59584,111.11798 84.7099704,113.024565 82.3240152,115.386349 C81.9691809,115.7295 81.6493055,116.042887 81.2402847,116.515594 C77.3388546,116.498086 73.4391726,116.482329 69.5429864,116.468323 L69.5517262,110.233843 L65.3531442,110.235593 C65.3059495,97.325439 65.2622507,84.457303 65.2185519,71.6784561 C64.3183563,71.6819576 63.4251526,71.6854591 62.5319489,71.6889607 L61.1860254,70.3496241 C57.3387819,70.3566271 53.5125139,70.3636302 49.6984815,70.3706333 C49.2475097,70.8223311 48.8000339,71.2687766 48.354306,71.7169729 C47.4051678,71.7152222 46.4647693,71.7152222 45.5261188,71.7152222 C45.5051434,76.7819413 45.484168,81.829402 45.4649405,86.8593551 C45.4037622,91.9978556 45.3425838,97.1170978 45.2831534,102.21358 C45.3513236,105.245908 45.3810388,108.330759 45.3845347,111.464632 C45.3670552,114.645775 45.3478277,117.872438 45.3320961,121.146372 C42.4077715,121.104354 39.4397482,121.064086 36.4455055,121.020317 C36.5346511,114.595003 36.6290405,108.022624 36.721682,101.395972 C35.6204719,101.388969 34.5017823,101.381966 33.3848407,101.376713 C33.3865886,100.707921 33.3883366,100.030374 33.3900845,99.3510762 C31.7627407,99.352827 30.1179174,99.3563285 28.474842,99.3598301 L29.177519,99.4963899 C27.6061096,99.40535 25.9560425,99.38259 24.2902437,99.3965962 C22.58599,99.4351131 20.8642568,99.4771315 19.198458,99.5138976 C19.2194335,100.163432 19.2404089,100.800711 19.2613843,101.427486 C18.2091169,101.455498 17.1988004,101.481759 16.2444183,101.508021 C16.2758814,103.579178 16.2426703,105.431489 16.0486476,106.8251 L16.0206804,106.081024 C15.9192991,107.257539 15.959502,108.666906 16.0468996,109.720868 C14.4230518,109.860929 12.8009518,109.99924 11.4725079,110.114791 C11.4952313,110.489455 11.5039711,110.804593 11.4969792,111.100472 C11.4899874,111.445373 11.4672641,111.786773 11.4183214,112.070397 L11.5721412,112.674412 C11.61584,117.205396 11.397346,113.210146 11.3361676,116.702926 C11.3553951,118.019503 11.61584,117.205396 11.5301903,119.948848 C11.0617391,120.38829 11.3641349,126.297128 11.2592577,129.413493 C10.1370722,129.380229 9.43264733,129.294441 9.33476198,129.11061 C10.5705644,129.11061 9.60045077,129.042331 9.01663463,128.954792 C8.72472656,128.911023 8.53070383,128.863752 8.75444175,128.816482 C8.86631071,128.793722 9.08305682,128.770962 9.44663095,128.748202 C9.61618234,128.739448 9.81894483,128.730694 10.0619102,128.718439 C10.1667874,128.709685 10.290892,128.69918 10.4324762,128.688676 C10.3503224,128.683423 10.2297137,128.67467 10.0828857,128.665916 C9.74902673,128.662414 9.35573741,128.660663 8.92224519,128.657162 C8.00107421,128.662414 6.92783137,128.671168 5.92450662,128.679922 C3.91610918,128.716688 2.192628,128.802476 2.53173079,128.953041 C1.88498836,129.26993 -1.07429525,129.548302 3.52981168,129.796911 L4.45622651,129.564059 C6.00666039,129.796911 5.63609446,129.68136 6.19019541,129.854686 C7.35782769,129.873945 8.33143724,129.889702 9.15821878,129.901957 C10.2139821,129.940474 11.0879584,129.973738 11.8448218,130 C11.8797808,129.266429 11.909496,128.599387 11.9392112,127.955104 C11.9741703,127.494653 12.0056334,127.048207 12.0388445,126.586005 C12.1035188,125.6616 12.1646971,124.667164 12.206648,123.345335 C12.1996562,123.389105 12.1961603,123.429372 12.1839246,123.364594 C11.9060001,120.41105 12.0685597,116.326511 12.1105106,113.987487 L12.2398591,113.049076 C12.2957935,112.746193 12.3062813,112.255978 12.2888017,111.695733 C12.2695743,110.911389 12.2276234,111.096971 12.1821766,110.8221 C12.2520947,110.790587 12.3499801,110.759073 12.4583531,110.731061 C12.6279045,110.704799 13.0281857,110.682039 13.1924932,110.671534 C13.5927743,110.652276 13.6626924,110.682039 13.1400546,110.815097 C14.3583775,110.808094 15.5889361,110.79934 17.1131507,110.790587 C17.0991671,108.192449 17.0834355,105.512025 17.065956,102.330881 C18.020338,102.32738 18.9852078,102.325629 20.1510922,102.320377 C20.1510922,101.896691 20.1493442,101.473006 20.1493442,101.02656 C20.1475963,100.790207 20.1475963,100.54685 20.1475963,100.292989 L20.1458483,100.462813 C23.9161819,100.457561 27.9504563,100.448807 32.2993621,100.441804 C32.2993621,101.073831 32.2993621,101.719864 32.3011101,102.460438 C33.3551255,102.460438 34.4545876,102.458687 35.6606748,102.458687 C35.6624228,103.575677 35.6624228,104.797712 35.6624228,106.014495 C35.8407139,107.933335 35.6484392,116.494585 35.987542,113.506026 C35.9001443,114.26936 35.8284783,115.370593 35.7690479,116.667911 C35.7445766,117.315694 35.7183573,118.0125 35.6886421,118.742569 C35.6676666,119.740507 35.6484392,120.782213 35.6257158,121.841427 C37.4890332,121.869439 39.4222687,121.897451 41.2034323,121.925463 C43.0789853,121.935968 44.7989706,121.944722 46.1361543,121.951725 C46.1344063,121.11836 46.1344063,120.482832 46.1344063,119.924337 C46.1693654,120.174697 46.2095683,120.484582 46.1973326,121.55255 C46.2427794,120.34102 46.2829823,119.252043 46.3214372,118.259358 C46.3459086,117.506528 46.3511524,116.823729 46.3459086,116.189951 C46.3354209,114.924147 46.2812343,113.852678 46.2287958,112.791713 C46.1274145,110.675036 46.0382689,108.616134 46.3459086,105.175877 C45.9124163,104.100907 46.4857448,92.6841562 45.9753426,88.7922016 C46.0697321,87.9448305 46.1571297,87.6612063 46.2340396,87.9693412 C46.2620068,82.7275454 46.2882261,77.2371407 46.3126975,72.5013165 L46.3931033,72.5065688 C46.550419,72.5100703 46.7042388,72.5100703 46.8510668,72.5135718 C47.5484999,72.5170734 48.1795108,72.5205749 48.686417,72.5240764 C49.0639747,72.1494123 49.4380366,71.7782498 49.7753914,71.4438533 C50.0935188,71.1287153 50.009617,71.2145029 50.0375843,71.1899921 C54.243158,71.2180044 57.8771513,71.2390136 60.8102156,71.2565213 C61.3713084,71.8237697 61.8362638,72.2894737 62.1526432,72.6081132 C62.93223,72.609864 63.4671035,72.609864 63.9932372,72.6116148 C64.0788868,72.6063625 64.3148604,72.6011102 64.2799014,72.5958579 L64.2921371,72.5818517 C64.3026248,72.5713471 64.3183563,72.5660948 64.3410797,72.557341 C64.3480715,72.5625933 64.3550633,72.5713471 64.3620552,72.5888548 C64.3655511,72.6063625 64.369047,72.5906056 64.3725429,72.6361255 L64.3812826,73.0615618 C64.3917703,73.6323118 64.4005101,74.2135664 64.4109978,74.8018241 C64.4162417,75.9800901 64.4232335,77.1881192 64.4302253,78.4154067 C64.4214855,80.8717326 64.4144937,83.3945876 64.404006,85.8701718 C64.3830306,90.8248419 64.3900224,95.5886784 64.6382317,99.2302733 C64.5927849,102.451684 64.5333545,106.590497 64.4686803,111.119731 C65.8233435,111.130235 67.2182096,111.142491 68.6357991,111.152995 C68.6410429,113.206645 68.6427909,115.300562 68.6480347,117.362965 C70.4711492,117.340205 72.2767842,117.315694 74.0352244,117.292935 L73.1717358,117.357713 C75.8600868,117.35071 78.7179892,117.340205 81.6056067,117.329701 C82.3345029,116.470074 82.5355175,116.30025 82.8973436,115.934339 C83.2294546,115.589438 83.6070124,115.283054 83.9583508,114.952159 C84.6942388,114.330637 85.4580941,113.745881 86.2516645,113.222402 C87.8510411,112.206957 89.511596,111.331574 91.2088579,110.86587 C94.5754144,109.796151 97.8772967,110.151557 100.200326,110.948156 C100.859304,111.216023 101.486819,111.771016 102.227951,112.166689 C102.983066,112.546606 103.701474,113.124359 104.461834,113.702112 C104.844635,113.982234 105.236177,114.271111 105.63471,114.563489 C105.996536,114.906639 106.363606,115.255042 106.734172,115.608697 C107.10299,115.964102 107.475304,116.321259 107.849366,116.681917 C108.043389,116.867498 107.964731,116.799218 107.975218,116.828981 L107.962983,116.837735 L107.948999,117.242162 C107.97347,118.303127 108.003186,119.537418 108.039893,120.988803 C108.055624,122.753576 108.074852,124.784466 108.097575,127.140998 C110.530725,127.126992 113.245295,127.109484 116.431813,127.090226 C116.412585,124.348525 116.39161,121.365218 116.368886,118.366155 C116.330431,115.725998 116.291976,113.071836 116.257017,110.610258 C116.309456,110.2496 116.333927,109.607068 116.342667,108.824475 C116.342667,108.323756 116.340919,107.733748 116.339171,107.14549 C117.073311,107.147241 117.802207,107.148992 118.375536,107.148992 C119.209309,107.16825 119.814101,107.212019 119.955685,107.301308 C121.91514,107.269795 123.902562,107.234779 126.132949,107.198013 C126.047299,99.7747618 125.959902,91.9505849 125.86726,83.8830515 C133.03037,83.8813007 140.38051,83.8777992 147.767357,83.8742977 C147.73065,89.4434869 147.693943,95.028433 147.657236,100.557355 L150.927656,100.578364 L152.128499,100.590619 L152.479837,100.604625 L152.464106,101.203388 C152.458862,101.998236 152.453618,102.791333 152.448374,103.580929 C155.919808,103.615944 159.365022,103.65096 162.766538,103.685975 C162.777026,102.661776 162.785765,101.641079 162.796253,100.632638 L162.803245,100.126666 L162.806741,99.8763063 L162.810237,99.8360387 L162.82422,99.7047311 L162.936089,99.7152357 L162.985032,99.7222388 L163.346858,99.7274911 L164.921763,99.7520018 C165.963543,99.7695095 166.998331,99.7835156 168.026127,99.8010233 L167.583895,99.8255341 C168.361734,99.7817649 169.164044,99.7379957 169.98733,99.6924758 C170.396351,99.6662143 170.814111,99.638202 171.23362,99.6136913 L171.612926,99.5261529 C171.633901,99.5926821 171.658372,99.6767189 171.681096,99.7782633 C171.703819,99.7817649 171.728291,100.292989 171.752762,100.564358 C171.798209,101.056323 171.845403,102.218832 171.894346,103.113474 C172.742103,103.067954 173.58986,103.022434 174.423633,102.978665 C175.024929,102.938397 175.620981,102.899881 176.203049,102.857862 C176.447762,102.889376 176.456502,102.94365 175.799272,102.94365 C176.129635,102.940148 176.456502,102.936647 176.774629,102.934896 C176.769386,103.733246 176.762394,104.526343 176.75715,105.307185 C179.020748,105.354456 181.249388,105.399976 183.490263,105.447246 C185.579066,105.494517 187.678357,105.529532 189.831835,105.505022 C189.78464,105.561046 189.78464,105.561046 188.880949,105.613569 C189.859802,105.604815 190.849143,105.594311 191.869947,105.582055 C191.875191,104.512337 191.880435,103.428612 191.887427,102.329131 C191.894419,101.903694 191.901411,101.473006 191.908402,101.038815 L191.934622,100.513585 L192.504454,100.555604 L192.486975,100.963532 C192.483479,101.378464 192.481731,101.795147 192.478235,102.215331 C192.483479,103.33232 192.490471,104.463315 192.495714,105.613569 C193.149449,105.604815 193.810175,105.596061 194.474397,105.587308 C194.883418,105.571551 195.294186,105.557545 195.708451,105.541788 L196.054546,105.632828 L198.134609,105.59256 L198.04896,102.110285 C198.104894,102.159306 198.174812,102.220583 198.225503,102.53397 C198.277941,102.936647 198.309404,103.071456 198.291925,105.184631 C198.293673,103.712236 198.297169,102.238091 198.300665,100.707921 C198.440501,100.709671 198.582085,100.711422 198.728913,100.711422 C198.728913,102.374651 198.727165,104.041381 198.727165,105.764135 C203.081315,105.760634 207.445952,105.757132 211.941686,105.755381 C211.901483,93.8028962 211.863028,81.7593714 211.824573,69.5110068 C212.244082,64.5178198 212.665338,59.5071252 213.093587,54.4246492 C213.069115,49.8218832 213.04814,45.2068619 213.023669,40.5393176 C213.177489,38.9134388 213.289358,37.6038653 213.359276,36.6105969 L215.180642,39.9370538 L215.168406,36.6176 C215.156171,33.7918623 215.143935,30.9643739 215.131699,28.1123748 L216.682133,28.1071225 C218.176633,21.3754241 219.679872,14.619215 221.183111,7.85600282 L221.179615,1.8071035 L222.576229,1.8071035 L222.569237,7.91903043 L222.813951,9.07978882 L222.501067,7.9260335 L222.460864,7.17495453 L222.474848,7.92953503 L224.500725,16.6431014 C224.436051,16.6045846 224.315442,16.1668929 224.196581,15.7239489 C224.586375,17.6620477 224.981412,19.6089004 225.376449,21.5680085 C225.829169,23.7021932 226.285384,25.8468825 226.7416,27.9968242 L228.430122,27.9443012 C228.452846,30.8505741 228.477317,33.7585978 228.501788,36.6421107 L228.531503,40.3344779 L230.007813,36.3340661 C230.102676,37.3622896 230.261976,38.64207 230.485714,40.1734073 C230.487462,41.0873076 230.534657,50.8583372 230.485714,53.9694498 C230.756647,56.8967319 230.999612,59.1657257 231.53973,61.2631443 C231.555461,61.6728238 231.443592,61.9652018 231.295016,61.0810646 C231.623631,63.8595315 231.952247,66.6467523 232.291349,69.5110068 C232.322812,81.3496919 232.359519,93.33194 232.392731,105.354456 C235.85892,105.357957 239.328606,105.359708 242.789552,105.363209 C242.793048,103.706984 242.796544,102.050759 242.80004,100.406789 L243.957184,100.412041 C243.951941,102.078771 243.946697,103.74375 243.943201,105.392973 C247.086019,105.403477 250.209611,105.413982 253.322714,105.426237 C254.818961,105.389471 256.327444,105.352705 257.858651,105.31769 C259.540181,105.291428 261.247931,105.263416 262.988891,105.238905 C262.962672,102.724804 262.938201,100.187943 262.911982,97.5775495 C268.900467,98.6262588 275.014805,99.6994788 281.158858,100.7762 C281.164102,104.601626 281.169346,108.439307 281.174589,112.255978 C284.46948,112.234969 287.752135,112.210458 291.010318,112.187698 C290.968367,109.465256 290.924669,106.760321 290.884466,104.079897 L290.998083,104.186694 C290.952636,99.5751744 290.907189,94.9163839 290.859994,90.1683043 C293.553589,90.156049 296.25942,90.1455444 299.010697,90.1350398 C300.901982,88.5278358 303.036232,87.3338129 305.37674,86.6124969 C307.706761,85.9209441 310.248284,85.8281534 312.5818,86.5757308 C313.740693,86.9486442 314.855886,87.4878804 315.853967,88.1969409 C316.388841,88.5050759 316.846804,88.9147553 317.301272,89.329687 C317.750496,89.6780896 318.204963,90.3591379 318.923372,90.1665536 C321.34953,90.1753074 323.777436,90.185812 326.210586,90.1963166 C326.187863,98.6787818 326.165139,107.19101 326.142416,115.666472 C328.891945,115.662971 331.637979,115.659469 334.380516,115.655968 C335.974649,115.659469 337.504107,115.662971 338.65426,115.666472 C338.617553,105.680098 338.587838,98.1955702 338.549383,87.7189816 L338.692715,87.4196004 C338.573854,83.0479357 338.530155,78.5764773 338.528407,74.0419913 C338.554627,69.5565267 338.584342,65.0062838 338.614057,60.424527 C344.406772,59.7032111 350.253673,58.9748921 356.079599,58.2500746 C358.670064,58.6247387 361.257034,58.9959013 363.831768,59.3670639 C363.852743,60.9585109 363.873719,62.5429549 363.894694,64.1221465 C363.931401,65.7906273 363.969856,67.4538558 364.006563,69.1100812 L363.814288,67.6656985 C364.113188,70.9116202 363.707663,80.3342472 364.219813,79.0929535 L364.064246,82.790573 C364.742451,97.0173041 363.75311,108.684414 364.191846,126.120301 L364.06949,124.975299 C364.095709,126.405676 364.12018,127.911335 364.148147,129.413493 C366.951863,129.376727 369.776555,129.36097 371.853122,129.402989 C371.865358,128.879509 371.875845,128.490839 371.884585,128.12668 C371.902065,128.646657 371.933528,128.434814 371.964991,129.513287 C371.984219,129.515038 371.928284,129.518539 371.867106,129.52029 L371.973731,129.522041 C372.127551,124.639152 372.174745,119.940094 372.171249,114.959162 C372.132795,110.086778 372.09434,105.128607 372.055885,100.165183 L375.509839,100.126666 C376.593569,95.8863087 377.673804,91.6564561 378.738307,87.4896311 L378.518065,89.2281426 C378.893875,87.550908 379.379806,85.5620369 379.933907,83.3700768 C380.453048,81.3742027 381.021133,79.1909964 381.610193,76.9220027 C382.290147,79.5446513 382.998067,82.2775983 383.688509,84.9422654 C384.450616,87.8065199 385.195244,90.5954914 385.868205,93.1200972 L385.614752,92.5738579 L387.00787,97.2991775 L386.833075,97.4777558 C387.086528,98.4476806 387.339981,99.4106023 387.572459,100.303493 C388.584524,100.301743 389.589596,100.299992 390.528247,100.298241 C390.564954,106.054762 390.603409,111.660718 390.638368,117.179135 C395.48544,117.152873 400.252107,117.128362 405.085195,117.10035 L404.443697,117.294685 Z" id="Fill-8" fill="#FFFFFF" mask="url(#mask-4)"></path>
                        </g>
                        <polygon id="Fill-15" fill="#FFFFFF" points="219.954 59.021 219.956 59.097 220.046 58.903"></polygon>
                        <path d="M224.995562,56.987 C224.995562,56.987 224.993562,57.003 224.995562,57.013 C225.009562,57.011 225.007562,57.001 224.995562,56.987" id="Fill-21" fill="#FFFFFF"></path>
                        <path d="M223.997,58.00263 L224.003,58.00863 C223.999,57.98463 223.997,57.98863 223.997,58.00263" id="Fill-25" fill="#FFFFFF"></path>
                        <path d="M219.992968,56.973 L220.002968,57.027 C220.014968,56.979 219.996968,56.987 219.992968,56.973" id="Fill-27" fill="#FFFFFF"></path>
                        <path d="M220.011533,4.007 C220.009533,4.003 220.001533,3.997 219.991533,3.993 C219.983533,3.999 219.991533,4.005 220.011533,4.007" id="Fill-38" fill="#FFFFFF"></path>
                        <path d="M221.552474,4.24196271 L221.718891,4.25092704 C221.422039,4.0841906 221.723388,3.89593978 221.594453,3.71844615 L221.652924,3.73099621 C221.717391,3.28277998 221.44003,2.86683532 221.312594,2.42220482 C221.332084,2.42937628 221.38006,2.43116914 221.398051,2.4383406 C221.341079,2.41682622 221.234633,2.39351898 221.249625,2.36841887 C221.285607,2.36304028 221.326087,2.37559033 221.342579,2.38455466 C221.618441,2.28953282 221.168666,2.10845346 221.381559,2.04928892 C221.351574,2.02239594 221.236132,2.01163875 221.149175,2.02598167 C221.08021,1.67637301 221.026237,1.30345711 220.810345,0.950262721 C220.847826,0.932334072 220.922789,0.928748342 221.018741,0.932334072 C220.571964,0.629339901 220.748876,0.313795675 220.822339,0.00183717965 C220.705397,-0.00892000986 220.697901,0.0323158833 220.576462,0.00363004457 C220.428036,0.102237615 220.862819,0.186502266 220.648426,0.276145512 L220.535982,0.263595458 C220.462519,0.32993146 220.822339,0.277938377 220.675412,0.346067244 C220.582459,0.372960218 220.531484,0.338895784 220.522489,0.351445839 C220.570465,0.491289302 220.467016,0.638304226 220.742879,0.769183365 C220.497001,0.803247798 220.733883,0.919784018 220.5,0.9717771 C220.595952,1.0076344 220.571964,1.04528456 220.733883,1.05962748 C220.603448,1.5490796 220.841829,2.04928892 220.825337,2.55129109 C221.2991,2.7861564 220.732384,3.06763619 220.892804,3.34553025 C220.874813,3.34732312 220.856822,3.34732312 220.843328,3.34553025 C220.96027,3.43696636 221.017241,3.56963837 220.958771,3.67900313 L221.158171,3.76864637 C220.745877,4.42304207 221.035232,5.08998782 220.864318,5.75155497 C220.745877,6.50455824 220.402549,7.16612539 221.029235,7.89761428 C220.982759,7.89761428 220.958771,7.90299287 220.937781,7.88327136 C221.033733,8.09662228 220.862819,8.2902517 220.961769,8.4892597 L220.915292,8.48746684 C221.308096,8.98409042 220.862819,9.5165713 221.285607,9.99526623 C221.243628,10.5743616 221.285607,11.2305502 221.407046,11.8455028 L221.312594,11.84371 C221.511994,12.3367478 221.012744,12.811857 221.162669,13.303102 C220.948276,13.806897 221.703898,14.3411708 221.416042,14.8485516 C220.954273,15.1640958 221.946777,15.5764547 221.465517,15.8722774 C220.742879,16.4800586 221.209145,17.0699112 221.642429,17.6776924 C221.384558,18.2388591 222.045727,18.7964401 221.52099,19.3396782 C221.856822,19.5960579 221.102699,19.8811234 221.20015,20.1679818 L221.317091,20.1572246 C220.961769,20.2612108 221.813343,20.3867113 221.285607,20.4494616 L221.263118,20.4387044 C220.994753,20.4924903 221.892804,20.5642049 221.574963,20.5982694 L221.706897,20.6072337 C221.744378,20.6735697 221.556972,20.616198 221.502999,20.6663982 C221.52099,20.6861197 221.744378,20.6735697 221.667916,20.7148056 C221.128186,20.7201842 221.784858,20.8743706 221.177661,20.8779563 C221.177661,20.8438919 220.943778,20.935328 220.816342,20.854649 C220.753373,20.8779563 220.783358,20.987321 221.041229,20.9783567 C221.315592,20.987321 221.552474,21.0303498 221.765367,20.9622209 L221.565967,20.9496709 C221.765367,20.9281565 221.664918,20.9335351 221.814843,20.9245708 C221.84033,20.8367204 222.131184,20.8259632 222.251124,20.7632129 L222.228636,20.7632129 C221.990255,20.7201842 222.132684,20.6610196 222.165667,20.6269552 L222.276612,20.6126123 C222.508996,20.5910979 221.823838,20.5122118 222.221139,20.5391048 C222.122189,20.3616112 222.128186,20.1572246 222.122189,19.9582166 C221.970765,19.9295307 222.137181,19.8076159 221.844828,19.8488518 C222.177661,19.8004445 222.261619,19.6516367 222.248126,19.5960579 C222.27961,19.5978507 222.315592,19.5996436 222.302099,19.6086079 C222.733883,19.5028289 221.903298,19.4831074 222.431034,19.3827069 C222.05922,19.368364 222.549475,19.2016276 222.111694,19.1460488 C222.195652,19.1334987 222.270615,19.1281201 222.335082,19.1334987 C222.344078,18.9524194 222.477511,18.7552042 222.495502,18.6028107 C222.168666,18.4719316 222.643928,18.2872665 222.192654,18.174316 C222.287106,18.0828799 222.476012,17.9322792 222.294603,17.8014001 L222.350075,17.8139501 C222.324588,17.6687281 222.3006,17.4876487 222.017241,17.3872483 C222.449025,17.3442195 222.362069,17.2796764 222.5,17.2169261 C222.3006,17.1201114 222.35907,16.9211034 222.177661,16.7740885 C222.377061,16.7507812 222.092204,16.6521737 222.383058,16.6432093 C221.823838,16.2272647 222.02024,15.7091267 222.441529,15.2644962 L222.461019,15.2716677 C222.302099,15.214296 221.952774,15.14796 221.747376,15.0905883 C221.771364,15.0834169 221.82084,15.0834169 221.81934,15.0977598 C221.765367,15.015288 222.048726,14.9399877 221.996252,14.8575159 C222.044228,14.8593088 222.044228,14.8593088 222.089205,14.8718588 C221.96027,14.7965585 222.321589,14.7140867 222.096702,14.6244435 L222.173163,14.6190649 L222.066717,14.5616932 C222.161169,14.563486 222.306597,14.5652789 222.273613,14.5957576 C222.368066,13.8983332 221.871814,13.1776015 221.943778,12.4604555 L222.033733,12.4873485 L221.871814,12.347505 C221.91979,12.347505 221.943778,12.3546765 221.964768,12.3618479 C222.128186,12.1861472 221.856822,12.0014821 221.897301,11.8275742 C221.945277,11.829367 222.036732,11.85626 222.089205,11.8311599 C221.829835,11.7038665 222.428036,11.6267733 221.888306,11.5622302 C221.912294,11.5568516 222.033733,11.5532658 222.078711,11.5658159 C221.897301,11.2108286 221.907796,10.8468771 221.996252,10.4865112 C221.505997,10.1888956 221.949775,9.85721563 221.55997,9.54705 L221.657421,9.54884287 C221.315592,9.14724113 221.681409,8.72233214 221.612444,8.30818034 C221.651424,8.13427245 221.535982,8.01594336 221.529985,7.8456212 L221.651424,7.8402426 C221.188156,7.54800562 222.069715,7.22528993 221.558471,6.92229576 L221.723388,6.94381014 C221.467016,6.89540279 221.814843,6.75914506 221.375562,6.7770737 L221.508996,6.72328776 C220.927286,6.51710829 221.775862,6.34678612 221.398051,6.09219931 L221.502999,6.11012796 C221.422039,6.04199909 221.357571,5.9649059 221.455022,5.91470568 C221.468516,5.92187714 221.5,5.91829141 221.526987,5.93263433 C221.94078,5.72286913 221.483508,5.48800383 221.5,5.26389571 L221.694903,5.29078869 C221.465517,5.18321679 221.678411,4.98600165 221.574963,4.84436532 L221.664918,4.85332965 L221.535982,4.78161505 L221.72039,4.77982219 C221.732384,4.5951571 221.574963,4.4212492 221.552474,4.24196271" id="Fill-40" fill="#FFFFFF"></path>
                        <path d="M220.999575,2.99718861 C220.997575,2.99718861 220.997575,2.99918861 220.991575,2.99918861 C221.013575,3.00518861 221.011575,3.00318861 220.999575,2.99718861" id="Fill-42" fill="#FFFFFF"></path>
                        <path d="M222.024,20.987 C222.01,20.997 221.994,21.005 221.976,21.013 C222.024,21.011 222.014,20.995 222.024,20.987" id="Fill-44" fill="#FFFFFF"></path>
                        <path d="M219.00432,5.009 L218.99632,4.991 C218.99632,4.991 218.99232,4.995 219.00432,5.009" id="Fill-52" fill="#FFFFFF"></path>
                        <path d="M219.832586,6.28284716 L219.965247,6.43930558 C219.785874,6.11365375 220.105381,6.32650997 220.066143,6.15185871 L220.109118,6.2100758 C220.333333,6.12275017 220.260463,5.73524268 220.327728,5.47508508 C220.338939,5.49145863 220.376308,5.5405793 220.391256,5.55877214 C220.350149,5.49691648 220.271674,5.39503658 220.294096,5.39867515 C220.327728,5.42960298 220.353886,5.47326579 220.365097,5.48963935 C220.62855,5.71159199 220.327728,5.24221673 220.523916,5.4150487 C220.508969,5.38048231 220.419283,5.26950599 220.342676,5.19491534 C220.415546,5.02026408 220.514574,4.85107067 220.473468,4.53815383 C220.508969,4.56726237 220.572496,4.63457588 220.649103,4.72372079 C220.396861,4.21614056 220.664051,4.27435765 220.841555,4.23979126 C220.748132,4.12881493 220.727578,4.13609207 220.639761,4.01601933 C220.480942,3.91413943 220.806054,4.33803259 220.594918,4.17247775 L220.505232,4.06513999 C220.421151,4.02147718 220.735052,4.33075546 220.589312,4.21795985 C220.501495,4.14154992 220.475336,4.0869714 220.462257,4.08151355 C220.447309,4.17065847 220.309043,4.12335708 220.484679,4.41808109 C220.269806,4.20340558 220.419283,4.45992462 220.208146,4.26162266 C220.273543,4.36168328 220.23991,4.35076758 220.368834,4.50358743 C220.075486,4.54543096 220.081091,4.92384203 219.875561,5.07120403 C220.178251,5.58060355 219.604634,5.1548911 219.630792,5.39139801 L219.589686,5.34591591 C219.651345,5.48418149 219.64574,5.57514569 219.557922,5.55877214 L219.688714,5.77162836 C219.100149,5.60789281 219.08707,6.08818377 218.694694,6.14822015 C218.279895,6.31013642 217.844544,6.12820802 217.947309,7.05240428 C217.902466,7.0160186 217.872571,6.99964505 217.865097,6.97599435 C217.848281,7.14336848 217.554933,7.1178985 217.554933,7.27799549 L217.500747,7.25070623 C217.599776,7.48357458 217.470852,7.5727195 217.323244,7.68369582 C217.184978,7.78557572 217.028027,7.9129256 217.287743,8.03117906 C217.183109,8.09849257 217.087818,8.17308321 217,8.25131242 C217.203662,8.39503585 217.489537,8.54239786 217.782885,8.64063919 L217.64275,8.67884415 C218.102392,8.72432625 217.711883,9.19734009 218.15284,9.30103927 C218.266816,9.71947459 219.012332,9.12456873 219.008595,9.56301617 C218.776906,10.1015242 219.705531,9.27738858 219.453288,9.82681234 C219.137519,10.7018879 219.729821,10.4362725 220.305306,10.2070427 C220.329596,10.625478 221.060164,10.1633799 220.87145,10.8292378 C221.233931,10.5854538 220.764948,11.3932158 220.955531,11.3859387 L221.039611,11.2713238 C220.806054,11.6406385 221.512332,10.8692621 221.131166,11.3913966 L221.110613,11.4095894 C220.925635,11.682482 221.644993,10.8474307 221.413303,11.1621668 L221.517937,11.0366362 C221.573991,11.0202626 221.40583,11.1821789 221.385277,11.2476731 C221.40583,11.2385767 221.573991,11.0202626 221.531016,11.1039497 C221.118087,11.6242649 221.686099,11.042094 221.218984,11.6242649 C221.205904,11.6133492 221.060164,11.8644104 220.931241,11.9608324 C220.892003,12.028146 220.961136,12.0317845 221.153587,11.7825426 C221.36846,11.5260236 221.570254,11.3113481 221.704783,11.0912147 L221.545964,11.2749624 C221.691704,11.080299 221.618834,11.1767211 221.729073,11.029359 C221.714126,10.9784191 221.932735,10.7000686 222,10.5654416 L221.981315,10.5854538 C221.78139,10.8001293 221.867339,10.6454901 221.880419,10.6036466 L221.960762,10.4926703 C222.130792,10.2652598 221.572123,10.8965513 221.889761,10.5254174 C221.740284,10.5654416 221.663677,10.4981281 221.581465,10.4417303 C221.45441,10.5781766 221.531016,10.3835132 221.325486,10.6745987 C221.560912,10.3416697 221.566517,10.2161391 221.534753,10.2125005 C221.559043,10.183392 221.58707,10.1488256 221.581465,10.1651992 C221.871076,9.72129387 221.224589,10.5072245 221.588939,9.97235506 C221.297459,10.3234769 221.609492,9.80498093 221.250747,10.2052234 C221.312407,10.1233556 221.366592,10.0524036 221.418909,9.98872862 C221.351644,9.92505368 221.375934,9.73584814 221.329223,9.67399249 C221.026532,9.94688508 221.318012,9.43748557 220.925635,9.83227019 C220.963004,9.71583602 221.047085,9.49024481 220.858371,9.62305254 L220.905082,9.57393187 C220.826607,9.55573903 220.735052,9.52117263 220.479073,9.76131812 C220.792975,9.33742495 220.70142,9.39928061 220.783632,9.24828004 C220.589312,9.41019631 220.557549,9.29376214 220.357623,9.4229313 C220.501495,9.22462935 220.245516,9.46477483 220.464126,9.18642438 C219.869955,9.59212471 219.813901,9.25009932 219.96151,8.71159127 L219.980194,8.69339843 C219.841928,8.83348329 219.537369,9.139123 219.356129,9.3210514 C219.374813,9.29376214 219.414051,9.25373789 219.414051,9.25373789 C219.341181,9.28102715 219.529895,8.98630315 219.457025,9.01177312 C219.494395,8.96811031 219.494395,8.96811031 219.535501,8.92626677 C219.404709,9.02632739 219.649477,8.65883203 219.442078,8.844399 L219.498132,8.76980835 L219.393498,8.8553147 C219.468236,8.7643505 219.578475,8.6279042 219.567265,8.66792845 C219.30568,8.32226449 218.814275,8.71341055 218.704036,8.51874716 L218.81988,8.46598793 L218.586323,8.53875929 C218.649851,8.51328931 218.681614,8.50055432 218.709641,8.48963862 C218.894619,8.3786623 218.4929,8.48963862 218.504111,8.4350601 C218.573244,8.41504798 218.707773,8.37684301 218.788117,8.35683089 C218.365845,8.43687939 219.286996,8.21492674 218.425635,8.39139729 C218.466741,8.38230087 218.659193,8.3440959 218.728326,8.32954163 C218.416293,8.34227662 218.304185,8.26586669 218.37145,8.21492674 L218.431241,8.19855318 C217.590433,8.12760111 218.46861,8.09303471 217.915546,7.93657629 L218.068759,7.96386555 C217.685725,7.73827434 218.375187,7.74009362 218.392003,7.61274374 C218.487294,7.59455091 218.401345,7.4817553 218.461136,7.42353821 L218.578849,7.51814098 C218.257474,7.04330786 219.131913,7.71826222 218.81988,7.15974204 L218.948804,7.31620046 C218.756353,7.06877784 219.092676,7.33985115 218.724589,6.94506653 L218.855381,7.050585 C218.455531,6.45385985 219.217862,7.17065774 219.004858,6.74494529 L219.083333,6.84682519 C219.042227,6.75040314 219.017937,6.66671608 219.116966,6.73766815 C219.128176,6.75222242 219.150598,6.78133097 219.171151,6.81043951 C219.589686,7.1178985 219.303812,6.62487255 219.40284,6.56847474 L219.552317,6.75404171 C219.404709,6.51025766 219.653214,6.63942682 219.623318,6.49934195 L219.69432,6.5848483 L219.615845,6.44476343 L219.76719,6.61213756 C219.847534,6.56301689 219.782138,6.36107637 219.832586,6.28284716" id="Fill-54" fill="#FFFFFF"></path>
                        <path d="M220.001029,5.99922293 L219.995029,5.99322293 C220.007029,6.01122293 220.007029,6.00922293 220.001029,5.99922293" id="Fill-56" fill="#FFFFFF"></path>
                        <path d="M221.01,9.977 L220.99,10.023 C221.02,9.985 221.006,9.989 221.01,9.977" id="Fill-58" fill="#FFFFFF"></path>
                    </g>
                </g>
                <circle id="Oval" fill="#16A684" mask="url(#mask-2)" cx="140" cy="149" r="4"></circle>
            </g>
        </g>
    </g>
</svg>