<?xml version="1.0" encoding="UTF-8"?>
<svg width="280px" height="260px" viewBox="0 0 280 260" version="1.1" xmlns="http://www.w3.org/2000/svg" xmlns:xlink="http://www.w3.org/1999/xlink">
    <title>background-sept09</title>
    <defs>
        <rect id="path-1" x="0" y="0" width="280" height="260" rx="8"></rect>
    </defs>
    <g id="3.0-About-(release-2.0)" stroke="none" stroke-width="1" fill="none" fill-rule="evenodd">
        <g id="About---HistoryHighlights-Reference-" transform="translate(-367.000000, -124.000000)">
            <g id="background-sept09" transform="translate(367.000000, 124.000000)">
                <mask id="mask-2" fill="white">
                    <use xlink:href="#path-1"></use>
                </mask>
                <use id="Mask" fill="#0A1A1F" xlink:href="#path-1"></use>
                <path d="M178.314934,91.3343696 C131.035616,86.3169306 77.7847718,122.732853 88.7467872,176.624473 C95.8740676,211.663713 142.650339,231.03008 172.474205,236.288865 C197.942466,240.779633 216.388412,243.868639 238.168859,232.649047 C251.904756,225.573381 259.320089,204.448115 260.444855,190.854962 C263.010305,159.850679 252.661965,99.9554236 213.150429,91.9803309 C204.602295,90.2549574 195.73397,91.0545819 187.025741,90.5917074 L178.314934,91.3343696 Z" id="Path-4" stroke="#000000" stroke-width="2" mask="url(#mask-2)"></path>
                <path d="M187.567266,49.6369858 C134.551081,32.4158437 125.388952,25.7536556 47.4439427,41.2626968 C32.8120748,44.1740601 23.1466765,58.6515952 11.8541813,68.4008085 C-29.4789727,104.085192 -6.63198945,164.29172 23.1643065,200.652687 C86.0459107,277.388262 154.100698,302.135057 250.171362,312.12163 C257.799691,312.914597 333.733204,314.172443 343.421875,297.55849 C351.193714,284.231483 370.30445,235.722237 363.872159,211.316851 C344.147402,136.477204 291.802641,55.0043005 207.545651,51.9152566 L187.567266,49.6369858 Z" id="Path-5" stroke="#000000" stroke-width="2" mask="url(#mask-2)"></path>
                <path d="M219.540417,25.7944373 C166.838964,-4.28128842 68.5395895,-51.5095369 13.0919515,-26.6792833 C6.94810601,-23.9279805 -8.05740045,-7.45741457 -10.1974685,-4.85584741 C-52.7593494,46.8843729 -36.3802704,124.666619 -20.5703775,178.356926 C-14.2448666,199.838326 -3.88660873,218.991996 2.80508327,240.36216 C11.0642876,266.738232 43.9018663,318.299148 77.1775038,335.565771 C142.950027,369.694925 219.875537,384.819344 293.187745,371.608092 C296.663708,370.981705 394.384014,354.664931 403.875345,334.76122 C413.026566,315.570734 409.999592,273.122286 408.122444,255.787613 C401.739413,196.843013 376.908022,84.013621 316.187062,52.8629244 C293.063779,41.0003586 264.915973,44.8679034 240.331089,36.4702053 L219.540417,25.7944373 Z" id="Path-6" stroke="#000000" mask="url(#mask-2)"></path>
                <g id="teal_pattern-v1-" mask="url(#mask-2)" fill="#35BC9B" fill-rule="nonzero">
                    <g transform="translate(-231.184788, -222.245706)" id="Path">
                        <polygon points="280.186636 223.21614 280.160766 223.153312 280.208811 223.3381"></polygon>
                        <path d="M280.218167,224.040264 L280.262517,224.245706 L280.136861,223.343007 C280.018596,222.857418 280.295778,224.363991 280.218167,224.040264 Z"></path>
                        <path d="M280.178852,224.153404 C280.11972,224.038835 280.178852,224.286451 280.21581,224.367758 C280.160374,224.179274 280.267551,224.415803 280.178852,224.153404 Z"></path>
                        <path d="M278.184788,224.248991 C278.184788,224.248991 278.184788,224.248991 278.184788,224.248991 C278.184788,224.248991 278.184788,224.234208 278.184788,224.248991 Z"></path>
                        <path d="M278.590145,225.111011 L278.657029,225.305815 C278.607746,224.931191 278.811917,225.253368 278.833038,225.069802 L278.854159,225.140981 C279.07241,225.140981 279.139294,224.747625 279.283621,224.522851 C279.283621,224.549074 279.304742,224.597776 279.311783,224.627746 C279.311783,224.556567 279.26602,224.425448 279.280101,224.436687 C279.294383,224.474137 279.305,224.513054 279.311783,224.552821 C279.45963,224.860012 279.364585,224.301823 279.473711,224.552821 C279.458098,224.457077 279.430883,224.363892 279.392747,224.275599 C279.563252,224.128159 279.686305,223.927798 279.744765,223.702424 C279.781081,223.779239 279.810545,223.859511 279.83277,223.942183 C279.797568,223.369008 280.005259,223.526351 280.184788,223.567559 C280.146066,223.425202 280.121425,223.425202 280.089743,223.275352 C279.991178,223.11801 280.117905,223.649977 279.998218,223.406471 L279.959496,223.271606 C279.903174,223.196681 280.061582,223.612514 279.977097,223.447679 C279.951311,223.390125 279.931254,223.329857 279.917254,223.26786 C279.871492,223.346531 279.769407,223.26786 279.815169,223.597529 C279.706043,223.309069 279.744765,223.597529 279.632119,223.339038 C279.636809,223.438274 279.653371,223.536468 279.681402,223.631245 C279.417388,223.560067 279.287141,223.919706 279.05833,223.983392 C279.146334,224.582791 278.797836,223.964661 278.737993,224.196928 L278.716872,224.140734 C278.716872,224.29433 278.68871,224.380494 278.618307,224.331792 L278.660549,224.582791 C278.206445,224.208166 278.033956,224.665208 277.674898,224.582791 C277.298238,224.582791 276.858215,224.301823 276.815973,225.163458 C276.800744,225.128977 276.790082,225.092415 276.784291,225.054817 C276.735009,225.208413 276.576601,225.054817 276.534358,225.197174 L276.513237,225.144727 C276.474515,225.687932 276.045053,225.279592 276.034492,225.856513 C275.746873,225.935321 275.491126,226.111508 275.305814,226.358509 L275.263572,226.249868 C275.150926,226.575791 274.710903,226.100018 274.559536,226.373494 C274.239199,226.234883 274.387047,227.201413 274.035028,226.984131 C273.68301,226.52709 273.999827,227.73338 273.633727,227.253861 C273.010655,226.572045 273.000095,227.223891 272.978973,227.842021 C272.626955,227.677186 272.736081,228.538822 272.232695,228.074288 C272.310139,228.505105 271.785631,227.73338 271.722268,227.909453 L271.789152,228.036825 C271.553299,227.662201 271.965161,228.636224 271.651864,228.070541 L271.651864,228.040571 C271.482896,227.755857 271.94404,228.763596 271.75747,228.415196 L271.824353,228.561299 C271.824353,228.617493 271.739869,228.396464 271.690586,228.351509 C271.690586,228.373987 271.820833,228.617493 271.76099,228.542568 C271.461775,227.950662 271.76099,228.711149 271.408972,228.040571 C271.426573,228.040571 271.257604,227.79332 271.218882,227.635977 C271.17664,227.572291 271.148478,227.635977 271.292806,227.913199 C271.413022,228.186846 271.549409,228.452111 271.701147,228.707402 L271.595541,228.482628 L271.743389,228.752357 C271.856137,228.89232 271.958528,229.041367 272.049645,229.19816 L272.049645,229.171936 C271.936999,228.902207 272.049645,229.044564 272.070766,229.074534 L272.13765,229.194414 C272.271417,229.445412 271.929959,228.66994 272.13765,229.115743 C272.13765,228.965893 272.239735,228.924684 272.317179,228.875983 C272.243255,228.69991 272.384062,228.875983 272.208053,228.542568 C272.408704,228.917192 272.514309,228.958401 272.52839,228.917192 C272.52839,228.954654 272.563592,228.992117 272.553031,228.980878 C272.831126,229.434173 272.387583,228.508852 272.71496,229.074534 C272.52135,228.658701 272.852247,229.164444 272.637516,228.666194 C272.686798,228.756104 272.72904,228.838521 272.764242,228.913446 C272.841686,228.883476 272.993054,228.988371 273.063458,228.973386 C272.940251,228.58003 273.267628,229.070788 273.063458,228.542568 C273.151462,228.628731 273.309871,228.808551 273.267628,228.576284 L273.29227,228.63997 C273.338032,228.58003 273.397875,228.516344 273.29227,228.175436 C273.369541,228.363181 273.478065,228.534517 273.612606,228.681179 C273.549243,228.433927 273.658369,228.46015 273.612606,228.224137 C273.721732,228.441419 273.612606,228.104258 273.771015,228.426434 C273.651328,227.710902 273.964625,227.819543 274.362405,228.205406 L274.362405,228.227884 C274.306082,228.036825 274.154715,227.628485 274.077271,227.384979 C274.077271,227.411203 274.115993,227.467396 274.108952,227.467396 C274.108952,227.388725 274.292002,227.695917 274.295522,227.617246 C274.311972,227.652364 274.326087,227.688667 274.337764,227.725887 C274.306082,227.564799 274.517293,227.954408 274.44337,227.684678 L274.485612,227.770842 L274.45393,227.635977 C274.499693,227.744618 274.573616,227.905707 274.545455,227.879483 C274.876352,227.842021 274.929155,227.130235 275.249492,227.070295 L275.284693,227.178936 L275.263572,226.9654 C275.284693,227.021594 275.295254,227.051564 275.302294,227.077787 C275.453662,227.227637 275.400859,226.882983 275.492384,226.894222 C275.516336,226.970196 275.545758,227.044091 275.580389,227.11525 C275.509985,226.789327 275.826802,227.459904 275.580389,226.830535 C275.614193,226.900819 275.643592,226.973405 275.668393,227.047817 C275.67747,226.945473 275.728555,226.852618 275.807975,226.794104 C275.887396,226.735589 275.987045,226.717388 276.080255,226.744372 C275.978169,226.126242 276.326668,226.572045 276.277385,226.066302 L276.323147,226.178689 C276.323147,225.706663 276.675166,226.047571 276.826534,225.893975 C276.918058,225.893975 276.918058,225.751618 276.988462,225.710409 L277.044785,225.852766 C276.963821,225.26086 277.488328,226.227391 277.396803,225.575545 L277.460166,225.774095 C277.368642,225.466904 277.579853,225.845274 277.379202,225.335785 L277.460166,225.481889 C277.298238,224.770103 277.738261,225.725394 277.685458,225.242129 L277.72066,225.365755 C277.72066,225.26086 277.72066,225.170951 277.784023,225.275845 C277.784023,225.275845 277.801624,225.328293 277.808665,225.362009 C278.072678,225.807812 277.981154,225.234637 278.083239,225.212159 L278.153643,225.444426 C278.10436,225.159712 278.276849,225.373248 278.29445,225.227144 L278.329652,225.335785 L278.308531,225.170951 L278.382454,225.388233 C278.512701,225.38074 278.523262,225.159712 278.590145,225.111011 Z"></path>
                        <path d="M279.184788,225.243242 L279.184788,225.243242 C279.184788,225.243242 279.184788,225.25433 279.184788,225.243242 Z"></path>
                        <path d="M272.199571,229.262337 C272.187918,229.252988 272.177923,229.241744 272.170005,229.229075 C272.19218,229.269729 272.19218,229.254946 272.199571,229.262337 Z"></path>
                        <polygon points="256.15707 236.253098 256.109025 236.304838 256.260551 236.186574"></polygon>
                        <path d="M257.332721,236.143048 L257.425115,236.05435 L256.985319,236.386968 C256.770965,236.61241 257.476856,235.995217 257.332721,236.143048 Z"></path>
                        <path d="M257.104743,235.290319 C257.01974,235.393801 257.215616,235.223795 257.285835,235.168359 C257.134309,235.297711 257.304314,235.101835 257.104743,235.290319 Z"></path>
                        <path d="M258.187252,237.243242 L258.187252,237.243242 C258.187252,237.243242 258.176165,237.25433 258.187252,237.243242 Z"></path>
                        <path d="M258.552857,236.133456 L258.708411,235.992896 C258.382126,236.188941 258.590797,235.863432 258.408685,235.915218 L258.469389,235.867131 C258.374538,235.656291 257.976167,235.748765 257.710587,235.700678 L257.797849,235.634097 C257.737145,235.674785 257.630912,235.756163 257.634706,235.737668 C257.662734,235.709294 257.693197,235.683307 257.725763,235.65999 C257.945815,235.393665 257.471564,235.711775 257.646088,235.512031 C257.565666,235.565199 257.491824,235.627261 257.426036,235.696979 C257.213843,235.597596 256.975876,235.562795 256.743114,235.597107 C256.801951,235.533615 256.865344,235.474282 256.932814,235.419557 C256.413035,235.682183 256.469945,235.419557 256.432005,235.245706 C256.358403,235.317256 256.281161,235.385156 256.20057,235.449149 C256.098132,235.608204 256.534443,235.278997 256.363713,235.489838 L256.253686,235.578613 C256.208158,235.663689 256.526855,235.345578 256.413035,235.493537 C256.333361,235.582312 256.27645,235.608204 256.272656,235.623 C256.363713,235.623 256.318185,235.770958 256.617911,235.589709 C256.401653,235.807948 256.66344,235.652592 256.462357,235.867131 C256.551896,235.822764 256.634855,235.76677 256.708968,235.700678 C256.75829,235.985498 257.149073,235.967003 257.308421,236.159349 C257.824407,235.841239 257.403272,236.421975 257.646088,236.384986 L257.60056,236.425674 C257.740939,236.359093 257.835789,236.359093 257.820613,236.444169 L258.033077,236.307307 C257.888905,236.888044 258.38592,236.873248 258.465595,237.250542 C258.624943,237.620438 258.564239,238.149389 259.379951,237.846074 C259.338217,237.883064 259.319247,237.908956 259.292689,237.920053 C259.455832,237.920053 259.376157,238.123496 259.535506,238.105001 L259.493772,238.14569 C260.013551,237.964441 259.820057,238.541478 260.3626,238.319541 C260.558643,238.56317 260.832281,238.736253 261.140372,238.811502 L261.060698,238.896578 C261.409747,238.874385 261.159343,239.488412 261.474245,239.510605 C261.474245,239.880501 262.312722,239.344152 262.2634,239.769533 C262.001613,240.302183 262.97288,239.506907 262.692123,240.046954 C262.312722,240.91621 262.938734,240.66838 263.519217,240.442743 C263.519217,240.860725 264.27802,240.398356 264.057967,241.067867 C264.437368,240.820037 263.936559,241.633808 264.126259,241.62641 L264.217315,241.511742 C263.978293,241.881638 264.695361,241.101158 264.304578,241.630109 L264.281814,241.648604 C264.095907,241.922326 264.828151,241.078964 264.589128,241.393375 L264.695361,241.27131 C264.752271,241.27131 264.58154,241.415569 264.56257,241.48215 C264.56257,241.48215 264.752271,241.252815 264.706743,241.337891 C264.289402,241.863143 264.862297,241.27131 264.388046,241.863143 C264.299491,241.984671 264.201846,242.099651 264.095907,242.207146 C264.057967,242.273728 264.122465,242.277426 264.319754,242.025897 C264.5225,241.802565 264.71007,241.566562 264.881267,241.319396 L264.718125,241.508043 C264.866091,241.308299 264.790211,241.408171 264.904031,241.260213 C264.98479,241.095484 265.078663,240.937178 265.184788,240.786746 L265.165818,240.80894 C264.964736,241.027178 265.051998,240.871822 265.06338,240.831134 L265.146848,240.716466 C265.321373,240.487131 264.767447,241.12705 265.074762,240.749757 C264.967823,240.781065 264.851913,240.751025 264.775035,240.672078 C264.646039,240.80894 264.725713,240.612895 264.513248,240.908812 C264.756065,240.572207 264.767447,240.450141 264.737095,240.442743 C264.706743,240.435345 264.790211,240.379861 264.782623,240.394657 C265.086144,239.950782 264.403222,240.742359 264.782623,240.20601 C264.482896,240.575906 264.809181,240.035858 264.441162,240.439044 C264.501866,240.357667 264.558776,240.283688 264.611892,240.220806 C264.551188,240.157923 264.585334,239.972975 264.539806,239.910093 C264.228697,240.183816 264.539806,239.67336 264.133847,240.069148 C264.175581,239.950782 264.274226,239.725145 264.076937,239.858308 L264.126259,239.810221 C264.050379,239.791726 263.963117,239.758436 263.697536,239.998868 C263.835046,239.847873 263.945364,239.675286 264.023821,239.488412 C263.826532,239.647467 263.799974,239.532799 263.595098,239.658564 C263.750652,239.462519 263.481277,239.699252 263.712712,239.425529 C263.10567,239.821318 263.06773,239.477315 263.249843,238.944665 L263.272607,238.944665 C263.117052,239.077827 262.802149,239.384841 262.612449,239.554993 C262.612449,239.532799 262.669359,239.484713 262.673153,239.492111 C262.601067,239.518003 262.805943,239.225786 262.733857,239.251678 C262.758404,239.22159 262.785024,239.193165 262.813531,239.166602 C262.680741,239.262775 262.950116,238.903976 262.730063,239.085225 L262.790767,239.011246 L262.680741,239.092623 C262.760415,239.003848 262.881823,238.870686 262.866647,238.911374 C262.688329,238.604361 262.005407,238.837395 261.804324,238.541478 L261.891587,238.467499 L261.701886,238.57107 C261.72871,238.541727 261.75789,238.514515 261.789148,238.489693 C261.861235,238.28625 261.565302,238.489693 261.53495,238.382423 C261.594368,238.328029 261.650129,238.269959 261.701886,238.208572 C261.432511,238.404617 261.914351,237.838676 261.428717,238.304745 C261.479677,238.243829 261.534145,238.185785 261.59186,238.130894 C261.493438,238.162519 261.385732,238.150362 261.297325,238.097649 C261.208918,238.044936 261.148749,237.956998 261.132784,237.857171 C260.601623,238.201174 260.867204,237.690718 260.41951,237.938548 L260.502979,237.853472 C260.059079,238.027323 260.226016,237.557555 260.021139,237.483576 C259.994581,237.391102 259.850409,237.453985 259.782117,237.402199 L259.888349,237.29123 C259.372363,237.601943 260.040109,236.717892 259.478596,237.065594 L259.63415,236.925033 C259.391333,237.135874 259.63415,236.784473 259.254749,237.176563 L259.353393,237.039701 C258.761528,237.479877 259.459626,236.669805 259.034696,236.921335 L259.133341,236.836258 C259.03849,236.884345 258.951228,236.913937 259.01952,236.810366 C259.03849,236.810366 259.061254,236.773376 259.091607,236.754881 C259.391333,236.322103 258.898112,236.640214 258.833614,236.54774 L259.01952,236.388684 C258.776704,236.551439 258.898112,236.299909 258.75394,236.340598 L258.841202,236.26292 L258.697029,236.351695 L258.863966,236.19264 C258.837408,236.100166 258.636325,236.174145 258.552857,236.133456 Z"></path>
                        <path d="M258.182324,236.246528 L258.182324,236.246528 C258.182324,236.246528 258.193412,236.242832 258.182324,236.246528 Z"></path>
                        <path d="M265.183876,241.22538 L265.183876,241.266033 C265.191267,241.229075 265.18018,241.232771 265.183876,241.22538 Z"></path>
                        <polygon points="243.190332 255.219836 243.179245 255.149616 243.18294 255.341796"></polygon>
                        <path d="M243.185712,256.039496 C243.185712,256.100146 243.185712,256.185056 243.185712,256.245706 L243.185712,255.348087 C243.148754,254.844692 243.218974,256.379136 243.185712,256.039496 Z"></path>
                        <path d="M243.187708,255.153757 C243.154446,255.028101 243.187708,255.283109 243.187708,255.371807 C243.161838,255.172236 243.217274,255.427243 243.187708,255.153757 Z"></path>
                        <path d="M241.184788,255.258773 C241.184788,255.258773 241.184788,255.258773 241.184788,255.240294 C241.184788,255.221815 241.184788,255.240294 241.184788,255.258773 Z"></path>
                        <path d="M241.264723,256.745824 L241.286878,256.956367 C241.32011,256.580397 241.45673,256.956367 241.519501,256.764622 L241.519501,256.839816 C241.744739,256.892452 241.888744,256.524002 242.099213,256.339777 L242.099213,256.448808 C242.099213,256.373614 242.099213,256.242025 242.099213,256.257064 C242.102174,256.295855 242.102174,256.334823 242.099213,256.373614 C242.180447,256.711987 242.206294,256.144273 242.265372,256.403692 C242.268499,256.306656 242.261069,256.209567 242.243218,256.114195 C242.448409,256.008411 242.616174,255.840218 242.723234,255.632955 C242.73873,255.718781 242.749823,255.805371 242.756466,255.892374 C242.848777,255.3209 243.026014,255.516404 243.184788,255.602877 C243.184788,255.456249 243.155249,255.44873 243.155249,255.294582 C243.088785,255.117877 243.099862,255.670552 243.029706,255.399854 L243.029706,255.260745 C242.989089,255.170512 243.059245,255.614156 243.007551,255.437451 C242.996422,255.374042 242.989024,255.310013 242.985397,255.245706 C242.922625,255.313381 242.837699,255.193071 242.80816,255.542722 C242.763851,255.234427 242.734311,255.542722 242.678925,255.245706 C242.667731,255.345641 242.667731,255.446547 242.678925,255.546482 C242.420455,255.411133 242.209986,255.730707 241.962593,255.738226 C241.918284,256.343537 241.70043,255.655513 241.59335,255.869815 L241.59335,255.80966 C241.567503,255.960048 241.512116,256.039002 241.449345,255.971327 L241.449345,256.226986 C241.080102,255.753265 240.792092,256.159312 240.445003,255.990126 C240.07576,255.896133 239.673285,255.523924 239.436969,256.366095 C239.432791,256.328618 239.432791,256.290781 239.436969,256.253304 C239.355736,256.388653 239.226501,256.193149 239.152652,256.332258 L239.152652,256.272103 C238.993877,256.7947 238.646789,256.294661 238.506476,256.854855 C238.194429,256.86046 237.893071,256.97156 237.649832,257.170669 L237.649832,257.054119 C237.461518,257.347375 237.114429,256.775901 236.911345,257.009002 C236.615951,256.79846 236.542102,257.760941 236.239323,257.478964 C235.969775,256.945088 236.036239,258.200825 235.770384,257.64815 C235.286675,256.828537 235.1279,257.463925 234.969126,258.061717 C234.633114,257.813577 234.566651,258.685826 234.156791,258.110593 C234.156791,258.550477 233.787547,257.670708 233.66939,257.824856 L233.710006,257.963965 C233.551232,257.546639 233.758008,258.595593 233.562309,257.963965 L233.562309,257.933887 C233.451536,257.614313 233.702621,258.712144 233.584464,258.332415 L233.621388,258.494081 C233.602926,258.546717 233.573386,258.313616 233.53277,258.253461 C233.53277,258.276019 233.602926,258.546717 233.562309,258.460244 C233.385072,257.806057 233.525385,258.621911 233.329686,257.888771 C233.283626,257.743943 233.249052,257.595586 233.226298,257.445127 C233.193066,257.373693 233.152449,257.422569 233.226298,257.734623 C233.288269,258.030207 233.36843,258.321531 233.466306,258.606872 L233.407227,258.366252 C233.481076,258.603112 233.447844,258.482802 233.499538,258.663268 C233.581836,258.827461 233.653379,258.997017 233.713699,259.170826 L233.713699,259.144508 C233.658312,258.851252 233.713699,259.016679 233.754316,259.054276 L233.798625,259.185865 C233.879858,259.464082 233.698929,258.625671 233.798625,259.110671 C233.836901,259.007465 233.927594,258.933877 234.03494,258.918927 C234.001709,258.730942 234.108789,258.918927 234.001709,258.569275 C234.127251,258.945245 234.219562,259.046756 234.241717,259.027958 C234.263871,259.009159 234.260179,259.106911 234.241717,259.095632 C234.422646,259.606951 234.175253,258.595593 234.382029,259.223462 C234.278641,258.768539 234.503879,259.347532 234.382029,258.806136 C234.411569,258.907648 234.437416,258.99788 234.455878,259.076834 C234.540804,259.076834 234.673731,259.208423 234.74758,259.208423 C234.710656,258.794857 234.935894,259.351291 234.85466,258.791097 C234.924817,258.896369 235.050359,259.110671 235.057744,258.87381 L235.057744,258.941485 C235.120516,258.892609 235.198057,258.843733 235.161132,258.486562 C235.198646,258.689065 235.272497,258.882793 235.378986,259.058035 C235.378986,258.802376 235.474989,258.851252 235.493451,258.614392 C235.559915,258.855012 235.526683,258.497841 235.611609,258.851252 C235.648533,258.125631 235.943928,258.306097 236.261477,258.776058 L236.261477,258.802376 C236.261477,258.603112 236.183936,258.166988 236.158089,257.907569 C236.158089,257.937647 236.180244,257.997802 236.158089,257.997802 C236.183936,257.922608 236.294709,258.26098 236.316864,258.189546 C236.316864,258.249701 236.316864,258.249701 236.316864,258.306097 C236.316864,258.14067 236.449791,258.573035 236.435022,258.306097 L236.457176,258.400089 L236.457176,258.227143 C236.483023,258.343694 236.519947,258.520399 236.497793,258.486562 C236.844882,258.531678 237.05535,257.847414 237.413516,257.869972 L237.413516,257.982763 L237.439363,257.77222 C237.439363,257.828616 237.439363,257.858693 237.457825,257.888771 C237.579676,258.069236 237.60183,257.719584 237.690449,257.753422 C237.699859,257.833318 237.714664,257.912459 237.734758,257.990282 C237.734758,257.65567 237.908302,258.38881 237.815991,257.715825 C237.833529,257.794013 237.847087,257.873072 237.856608,257.952685 C237.88801,257.854574 237.960792,257.775862 238.055084,257.73804 C238.149375,257.700218 238.255326,257.707238 238.344009,257.757181 C238.377241,257.125553 238.632019,257.644391 238.713252,257.136832 L238.713252,257.257142 C238.83141,256.802219 239.112035,257.219545 239.292964,257.102995 C239.381583,257.136832 239.414815,256.986444 239.496048,256.963886 L239.521895,257.114274 C239.573589,256.516483 239.891138,257.584236 239.942832,256.930049 L239.964987,257.136832 C239.93914,256.813498 240.068375,257.234584 239.964987,256.693188 L240.012989,256.851095 C240.012989,256.099157 240.241919,257.15563 240.297306,256.67063 L240.297306,256.802219 C240.297306,256.696948 240.341615,256.614235 240.382232,256.727025 C240.384497,256.758314 240.384497,256.789729 240.382232,256.821018 C240.555776,257.317297 240.589008,256.734545 240.699781,256.742064 L240.699781,256.982685 C240.699781,256.693188 240.843786,256.941328 240.89548,256.805979 L240.89548,256.91877 L240.89548,256.753343 L240.925019,256.982685 C241.124411,256.993964 241.179797,256.787181 241.264723,256.745824 Z"></path>
                        <path d="M242.186174,256.240831 L242.186174,256.240831 C242.182478,256.255614 242.182478,256.251918 242.186174,256.240831 Z"></path>
                        <path d="M233.195875,259.267881 L233.173701,259.223532 C233.184788,259.267881 233.188484,259.256794 233.195875,259.267881 Z"></path>
                        <polygon points="253.164461 251.223532 253.101633 251.197661 253.267943 251.293751"></polygon>
                        <path d="M252.967682,251.34664 L253.184788,251.39838 L252.295352,251.113807 C251.763091,250.995542 253.345867,251.424251 252.967682,251.34664 Z"></path>
                        <path d="M253.1127,251.188817 C252.987044,251.148164 253.216181,251.270124 253.293793,251.310777 C253.116396,251.218383 253.364012,251.307082 253.1127,251.188817 Z"></path>
                        <path d="M252.188073,252.24817 L252.188073,252.24817 C252.188073,252.24817 252.17329,252.237083 252.188073,252.24817 Z"></path>
                        <path d="M252.911455,253.59825 L253.100603,253.686067 C252.796482,253.462864 253.174779,253.532386 253.063515,253.389683 L253.126565,253.426273 C253.289752,253.261615 253.063515,252.943276 253.011592,252.694459 L253.104312,252.745686 C253.044971,252.705436 252.929999,252.639573 252.948543,252.635914 C252.984501,252.651622 253.019213,252.669968 253.052389,252.6908 C253.378763,252.793254 252.915164,252.482233 253.163653,252.566392 C253.085116,252.512874 253.000468,252.468661 252.911455,252.434665 C252.927468,252.208642 252.874506,251.983067 252.759394,251.78701 C252.839283,251.816528 252.917307,251.85074 252.993048,251.889464 C252.55912,251.523557 252.826153,251.475989 252.974504,251.380853 C252.848405,251.311331 252.829862,251.325967 252.700054,251.249127 C252.514614,251.212536 252.981922,251.483307 252.722307,251.406467 L252.599916,251.340603 C252.507197,251.340603 252.915164,251.501602 252.737142,251.454034 C252.67864,251.430711 252.621662,251.403826 252.566537,251.373535 C252.58879,251.461353 252.444147,251.468671 252.722307,251.673579 C252.440439,251.556488 252.677801,251.735783 252.407059,251.633329 C252.481475,251.696926 252.563716,251.751018 252.65184,251.794328 C252.403351,251.94435 252.55912,252.288302 252.43673,252.496869 C252.922581,252.844481 252.229037,252.676164 252.351428,252.862776 L252.295796,252.840822 C252.407059,252.939617 252.444147,253.023776 252.355136,253.042071 L252.562829,253.184775 C251.965713,253.265274 252.15857,253.704363 251.82107,253.916589 C251.539202,254.191019 251.019972,254.330064 251.598543,254.952106 C251.561775,254.939656 251.526853,254.922429 251.494697,254.900879 C251.565164,255.039923 251.335219,255.047241 251.413104,255.182627 L251.357472,255.160673 C251.728351,255.56317 251.108983,255.599761 251.509532,256.005918 C251.349463,256.271117 251.284168,256.581618 251.324093,256.887754 L251.212829,256.847504 C251.36118,257.151207 250.701016,257.154866 250.793736,257.440273 C250.459944,257.582977 251.249917,258.131838 250.834532,258.245269 C250.244835,258.20136 251.335219,258.786811 250.730686,258.728266 C249.788653,258.728266 250.237417,259.178332 250.660219,259.613761 C250.270796,259.77476 250.971757,260.272394 250.270796,260.32728 C250.641675,260.565119 249.699642,260.426075 249.773818,260.590733 L249.914752,260.627323 C249.480824,260.550483 250.471071,260.909072 249.836868,260.751732 L249.810906,260.751732 C249.484532,260.682209 250.552664,261.029821 250.155824,260.934685 L250.311593,260.982253 C250.348681,261.026162 250.133571,260.934685 250.063104,260.938344 C250.063104,260.938344 250.348681,261.026162 250.252252,261.018844 C249.610631,260.832231 250.370933,261.132275 249.647719,260.923708 C249.502832,260.885904 249.360401,260.839471 249.221208,260.784663 C249.147033,260.784663 249.165577,260.83589 249.473406,260.920049 C249.753681,261.022645 250.041283,261.104589 250.333846,261.165207 L250.096483,261.092025 C250.337554,261.15057 250.218873,261.117639 250.396895,261.165207 C250.578046,261.177816 250.75788,261.204735 250.93467,261.245706 L250.912417,261.245706 C250.634258,261.139593 250.808571,261.165207 250.853076,261.161548 L250.986593,261.194479 C251.264752,261.264002 250.463653,260.989571 250.930961,261.139593 C250.866599,261.053917 250.853852,260.940734 250.897582,260.843209 C250.723269,260.777345 250.93467,260.777345 250.582334,260.693187 C250.982884,260.791982 251.101565,260.755391 251.094148,260.726118 C251.08673,260.696846 251.172032,260.751732 251.157197,260.751732 C251.683845,260.857845 250.704725,260.550483 251.342637,260.693187 C250.904999,260.554142 251.509532,260.656596 250.997719,260.469983 L251.264752,260.546824 C251.30184,260.469983 251.487279,260.429734 251.528076,260.367529 C251.157197,260.188235 251.746895,260.283371 251.235082,260.063827 C251.36118,260.063827 251.605961,260.063827 251.409395,259.935759 L251.472444,259.961373 C251.472444,259.888191 251.472444,259.796714 251.142362,259.643034 C251.332083,259.713765 251.532963,259.750925 251.735768,259.752806 C251.51695,259.632056 251.613378,259.566193 251.42423,259.430807 C251.661593,259.496671 251.342637,259.34299 251.683845,259.452762 C251.094148,259.050264 251.401977,258.889265 251.965713,258.859993 L251.987966,258.859993 C251.813653,258.768516 251.413104,258.600199 251.183159,258.494086 C251.212829,258.494086 251.268461,258.519699 251.264752,258.527017 C251.216538,258.468472 251.557746,258.548972 251.509532,258.490426 C251.54686,258.50126 251.582914,258.515979 251.617087,258.534335 C251.479862,258.446518 251.91379,258.55629 251.665301,258.428222 L251.754312,258.453836 L251.63934,258.387972 C251.750603,258.424563 251.917499,258.486767 251.876702,258.486767 C252.095521,258.215996 251.635631,257.68909 251.839614,257.389046 L251.939752,257.440273 L251.776565,257.308547 L251.880411,257.352456 C252.09923,257.352456 251.817362,257.147548 251.880411,257.089003 C251.932334,257.107298 252.03618,257.158525 252.09923,257.173161 C251.82107,257.001185 252.525741,257.228047 251.910081,256.964594 C251.986308,256.987053 252.060698,257.015187 252.132609,257.048753 C252.067594,256.971618 252.040389,256.87011 252.058264,256.771352 C252.076139,256.672594 252.137272,256.58665 252.225329,256.536483 C251.709807,256.170576 252.280961,256.236439 251.887829,255.925418 L252.002801,255.969327 C251.680136,255.636352 252.177114,255.60342 252.173406,255.398512 C252.25129,255.343626 252.140026,255.237513 252.173406,255.157013 L252.31434,255.2119 C251.835906,254.864288 252.904037,255.138718 252.377389,254.761834 L252.562829,254.853311 C252.280961,254.706948 252.700054,254.813061 252.19195,254.611812 L252.355136,254.652062 C251.73206,254.286155 252.726015,254.615471 252.355136,254.322745 L252.470109,254.381291 C252.392224,254.311768 252.332884,254.245905 252.470109,254.271519 C252.470109,254.271519 252.522032,254.293473 252.551702,254.315427 C253.059807,254.42154 252.58879,254.099542 252.648131,254.008065 L252.863241,254.114178 C252.625878,253.953179 252.904037,253.971475 252.815026,253.858044 L252.915164,253.909271 L252.785356,253.814135 L252.993048,253.901952 C253.04868,253.839748 252.900329,253.686067 252.911455,253.59825 Z"></path>
                        <path d="M253.183146,252.244064 L253.183146,252.244064 C253.183146,252.244064 253.190537,252.251455 253.183146,252.244064 Z"></path>
                        <polygon points="235.155222 235.245706 235.09609 235.278968 235.273486 235.212444"></polygon>
                        <path d="M235.98414,235.19254 L236.184788,235.133408 L235.278636,235.321892 C234.799669,235.473418 236.327184,235.092755 235.98414,235.19254 Z"></path>
                        <path d="M235.093148,235.264878 C234.985971,235.335098 235.222499,235.235312 235.303806,235.20205 C235.119018,235.279661 235.333372,235.142918 235.093148,235.264878 Z"></path>
                        <path d="M236.188073,236.244064 L236.188073,236.244064 C236.188073,236.244064 236.17329,236.251455 236.188073,236.244064 Z"></path>
                        <path d="M237.237225,236.718976 L237.425268,236.628775 C237.049181,236.722734 237.353812,236.470925 237.169529,236.467167 L237.237225,236.4371 C237.210899,236.204083 236.808485,236.181533 236.56779,236.061266 L236.669333,236.019924 C236.597877,236.042474 236.473768,236.091333 236.485051,236.072541 C236.519728,236.053738 236.556283,236.038622 236.594116,236.027441 C236.883703,235.832007 236.338377,236.001133 236.564029,235.858316 C236.427085,235.9646 236.250517,236.005807 236.080632,235.97113 C235.910746,235.936453 235.764492,235.829353 235.680224,235.677915 C235.755525,235.634412 235.833392,235.595505 235.913398,235.561407 C235.341746,235.66664 235.473377,235.426107 235.492181,235.245706 C235.401455,235.296291 235.307187,235.340253 235.210116,235.377248 C235.067203,235.501273 235.586203,235.30584 235.353029,235.46369 L235.225159,235.516307 C235.153703,235.587715 235.548594,235.369732 235.398159,235.478723 C235.247724,235.587715 235.232681,235.55389 235.22892,235.565165 C235.311659,235.602749 235.22892,235.723015 235.567398,235.636574 C235.292855,235.783149 235.589963,235.707982 235.334224,235.858316 C235.432133,235.839047 235.52788,235.81009 235.62005,235.771874 C235.578681,236.061266 235.954768,236.147708 236.045029,236.388242 C236.631725,236.230391 236.045029,236.670117 236.300768,236.707701 L236.244355,236.734009 C236.398551,236.707701 236.488811,236.734009 236.447442,236.816692 L236.691898,236.741526 C236.379746,237.267693 236.853616,237.395477 236.816007,237.786344 C236.857377,238.188487 236.643007,238.684588 237.508007,238.628212 C237.475118,238.648889 237.439733,238.665306 237.402703,238.677071 C237.560659,238.710896 237.402703,238.898813 237.575703,238.925121 L237.523051,238.955188 C238.072138,238.92888 237.718616,239.432497 238.294029,239.376122 C238.407712,239.672096 238.615051,239.922847 238.884486,240.090207 L238.782942,240.15034 C239.121421,240.229265 238.703964,240.755433 238.993551,240.864425 C238.892008,241.217709 239.835986,240.947108 239.662986,241.349251 C239.256812,241.788977 240.41516,241.300392 239.986421,241.725085 C239.380921,242.476753 240.035312,242.401586 240.652095,242.352728 C240.531747,242.762387 241.377943,242.52937 240.97553,243.104396 C241.396747,242.972854 240.693464,243.619288 240.873986,243.668147 L240.994334,243.581705 C240.655856,243.874855 241.569747,243.322379 241.043225,243.720763 L241.016899,243.720763 C240.753638,243.931231 241.701378,243.322379 241.392986,243.562913 L241.532138,243.472713 C241.588551,243.472713 241.377943,243.581705 241.340334,243.63808 C241.362899,243.63808 241.588551,243.472713 241.520856,243.540363 C240.968008,243.916197 241.686334,243.540363 241.06203,243.957539 C240.942803,244.049158 240.817114,244.132057 240.685943,244.205589 C240.62953,244.261964 240.685943,244.284514 240.952964,244.096597 C241.214429,243.938435 241.465652,243.763952 241.705138,243.574188 L241.498291,243.709488 C241.697617,243.559155 241.596073,243.630563 241.746508,243.521571 C241.746508,243.468955 242.043617,243.258488 242.152682,243.145737 L242.130117,243.145737 C241.870617,243.299829 242.002247,243.175804 242.028573,243.145737 L242.137639,243.059296 C242.370812,242.886412 241.641204,243.341171 242.062421,243.059296 C241.951577,243.058005 241.850422,242.995908 241.79916,242.897687 C241.633682,242.991645 241.772834,242.826278 241.479486,243.048021 C241.810443,242.792453 241.855573,242.672187 241.829247,242.672187 C241.863095,242.649636 241.900704,242.627086 241.889421,242.638361 C242.310639,242.292594 241.441878,242.86762 241.960878,242.457961 C241.584791,242.70977 242.036095,242.300111 241.584791,242.585745 C241.66753,242.521853 241.742747,242.469236 241.814204,242.424136 C241.772834,242.345211 241.859334,242.172327 241.836769,242.09716 C241.460682,242.273802 241.908225,241.87166 241.40803,242.138502 C241.483247,242.033269 241.641204,241.841593 241.40803,241.91676 L241.468204,241.882935 C241.404269,241.841593 241.329051,241.785218 241.005617,241.93931 C241.182077,241.833215 241.338627,241.697121 241.468204,241.537168 C241.231269,241.634885 241.242551,241.514618 241.013138,241.57851 C241.216225,241.435693 240.88903,241.57851 241.19366,241.386834 C240.497899,241.597301 240.561834,241.251534 240.900312,240.7855 L240.922877,240.7855 C240.738595,240.868183 240.347464,241.074892 240.11429,241.187642 C240.140616,241.187642 240.193269,241.135025 240.193269,241.142542 C240.11429,241.142542 240.400116,240.924558 240.321138,240.924558 L240.422682,240.868183 C240.268486,240.924558 240.62953,240.6502 240.37003,240.76295 L240.449008,240.710333 L240.321138,240.759191 C240.422682,240.6953 240.576877,240.601341 240.550551,240.635166 C240.471573,240.285641 239.757008,240.311949 239.655464,239.962423 L239.760769,239.917323 L239.55016,239.962423 L239.655464,239.909806 C239.783334,239.729406 239.448616,239.827123 239.448616,239.729406 C239.519953,239.693566 239.589031,239.653402 239.655464,239.609139 C239.343312,239.721889 239.971377,239.304714 239.369638,239.609139 C239.436496,239.565561 239.505535,239.52542 239.576486,239.488872 C239.473836,239.490042 239.375855,239.446088 239.308512,239.36866 C239.241169,239.291231 239.211265,239.188147 239.226725,239.08673 C238.617464,239.26713 239.023638,238.849955 238.523442,238.958946 L238.628747,238.898813 C238.158638,238.940155 238.455747,238.522979 238.282747,238.395195 C238.282747,238.297479 238.128551,238.31627 238.07966,238.24862 L238.215051,238.169695 C237.632116,238.323787 238.530964,237.658561 237.895377,237.831444 L238.08342,237.741244 C237.790073,237.876544 238.139833,237.609702 237.658442,237.876544 L237.793833,237.775069 C237.101833,238.030636 238.000681,237.45561 237.526812,237.568361 L237.647159,237.511985 C237.541855,237.530777 237.451594,237.534535 237.545616,237.45561 L237.632116,237.421785 C238.042051,237.087293 237.481681,237.25266 237.447833,237.147426 L237.669725,237.045951 C237.39142,237.132393 237.583225,236.921926 237.436551,236.921926 L237.538094,236.873068 L237.380138,236.914409 L237.583225,236.809176 C237.504246,236.767834 237.30492,236.794142 237.237225,236.718976 Z"></path>
                        <path d="M242.199571,243.229075 L242.170005,243.262337 C242.206963,243.236467 242.195875,243.236467 242.199571,243.229075 Z"></path>
                        <path d="M256.364826,216.56977 L256.516383,216.710009 C256.294877,216.403698 256.644624,216.591913 256.582446,216.41846 L256.636851,216.473817 C256.850586,216.370483 256.734003,215.990362 256.772864,215.735717 L256.8467,215.816908 C256.800067,215.761551 256.710687,215.661907 256.730117,215.665598 C256.761787,215.690849 256.790455,215.719311 256.815611,215.750479 C257.107067,215.953457 256.749548,215.503216 256.967168,215.665598 C256.907869,215.588812 256.838676,215.519383 256.761206,215.45893 C256.856751,215.24851 256.881191,215.015119 256.831155,214.790949 C256.902007,214.84363 256.968284,214.901634 257.029345,214.964403 C256.726231,214.473566 257.006029,214.517852 257.184788,214.473566 C257.08375,214.366542 257.060434,214.373923 256.959396,214.259517 C256.788408,214.167255 257.157586,214.57321 256.928307,214.418209 L256.827269,214.314875 C256.737889,214.274279 257.08375,214.569519 256.924421,214.466185 C256.831155,214.392375 256.796181,214.337018 256.784522,214.337018 C256.784522,214.42559 256.629079,214.388685 256.835041,214.672853 C256.594105,214.469876 256.772864,214.717139 256.535813,214.532614 C256.588357,214.616677 256.650949,214.694694 256.722345,214.765116 C256.427003,214.824164 256.465864,215.204285 256.27156,215.366667 C256.632965,215.853813 255.999535,215.473692 256.05394,215.706193 L256.007307,215.665598 C256.085029,215.798456 256.088915,215.890718 256.007307,215.879647 L256.166636,216.082624 C255.544864,215.968219 255.587611,216.451674 255.195117,216.547627 C254.80651,216.71739 254.258573,216.684176 254.619978,217.462871 C254.587933,217.440815 254.559174,217.414745 254.534484,217.385371 C254.557801,217.540372 254.324636,217.473943 254.355725,217.625253 L254.289661,217.577277 C254.507282,218.075494 253.901054,217.916803 254.149763,218.429782 C253.903385,218.634123 253.733023,218.908516 253.664003,219.212168 L253.570737,219.138358 C253.613484,219.477884 252.956737,219.267526 252.948965,219.570147 C252.560357,219.599671 253.166585,220.378366 252.715801,220.352533 C252.144547,220.123722 253.030573,221.031585 252.447661,220.780631 C251.515003,220.470629 251.806459,221.053728 252.059054,221.607303 C251.619927,221.633136 252.144547,222.345403 251.429509,222.160878 C251.709307,222.504094 250.831054,222.072306 250.846598,222.256831 L250.974838,222.334331 C250.586231,222.120282 251.429509,222.780882 250.85437,222.430284 L250.83494,222.408141 C250.535712,222.238378 251.460598,222.906359 251.114737,222.69231 L251.25075,222.791953 C251.25075,222.84362 251.091421,222.684929 251.021471,222.670167 C251.021471,222.688619 251.27018,222.84362 251.1808,222.806715 C250.605661,222.437665 251.254636,222.950645 250.613433,222.522547 C250.478952,222.439361 250.349233,222.349432 250.224826,222.25314 C250.154876,222.219926 250.15099,222.282664 250.426902,222.463499 C250.675016,222.647869 250.934554,222.817938 251.204117,222.972788 L250.998155,222.825168 L251.27018,222.99124 C251.44455,223.062156 251.613375,223.144786 251.77537,223.238504 L251.75594,223.238504 C251.515003,223.050288 251.682104,223.131479 251.728737,223.142551 L251.849206,223.216361 C252.097914,223.371362 251.398421,222.847311 251.810345,223.146241 C251.775427,223.043678 251.800591,222.931218 251.876408,222.851001 C251.724851,222.732905 251.934699,222.803025 251.616041,222.607428 C251.981332,222.828858 252.113459,222.832549 252.113459,222.803025 C252.113459,222.773501 252.183408,222.851001 252.167864,222.847311 C252.653623,223.116717 251.779256,222.507785 252.36994,222.847311 C251.981332,222.574214 252.548699,222.847311 252.105687,222.526237 C252.187619,222.575094 252.266748,222.628066 252.342737,222.684929 C252.404914,222.62219 252.603104,222.644333 252.665282,222.596357 C252.366054,222.308498 252.91399,222.596357 252.47875,222.227307 C252.60699,222.260521 252.844041,222.341712 252.69637,222.160878 L252.750775,222.205164 C252.750775,222.131354 252.797408,222.042782 252.533155,221.795518 C252.696836,221.924738 252.883789,222.024763 253.084978,222.090758 C252.906218,221.906233 253.026687,221.873019 252.882902,221.681113 C253.096636,221.821352 252.832383,221.574088 253.135497,221.784447 C252.684712,221.212419 253.046117,221.157062 253.613484,221.312063 L253.613484,221.330515 C253.469699,221.190276 253.131611,220.898727 252.941193,220.721583 C252.968395,220.721583 253.015028,220.77325 253.011142,220.77694 C252.98394,220.706821 253.294826,220.895036 253.267623,220.821226 L253.357003,220.898727 C253.252079,220.77325 253.644573,221.016823 253.442497,220.810155 L253.520218,220.869203 L253.430839,220.765869 C253.52799,220.839679 253.671775,220.950394 253.632915,220.935632 C253.943801,220.747416 253.664003,220.097888 253.967117,219.88753 L254.048725,219.968721 L253.932142,219.787886 C253.963622,219.813225 253.993469,219.840338 254.021522,219.869077 C254.239142,219.928125 254.021522,219.647647 254.12256,219.618123 C254.182613,219.672319 254.246212,219.722857 254.312978,219.769434 C254.095358,219.514789 254.701585,219.957649 254.196396,219.511099 C254.263161,219.557676 254.32676,219.608214 254.386813,219.662409 C254.347993,219.567574 254.355483,219.461269 254.40726,219.37219 C254.459038,219.283111 254.549765,219.220441 254.654953,219.201097 C254.266345,218.702879 254.814282,218.935381 254.530598,218.510973 L254.62775,218.588474 C254.421788,218.167757 254.923092,218.304305 254.993041,218.101328 C255.090193,218.068113 255.016358,217.931565 255.066877,217.865136 L255.187345,217.961089 C254.833712,217.477633 255.797459,218.082875 255.404965,217.555134 L255.560408,217.699063 C255.327244,217.470252 255.708079,217.699063 255.276725,217.352156 L255.424396,217.440728 C254.93475,216.890844 255.813003,217.52561 255.533206,217.127036 L255.626472,217.219298 C255.572067,217.127036 255.537092,217.045845 255.645902,217.108583 C255.645902,217.108583 255.688649,217.145488 255.711965,217.175012 C256.178294,217.440728 255.820775,216.979416 255.914041,216.912987 L256.088915,217.08275 C255.910155,216.857629 256.178294,216.960963 256.127775,216.824415 L256.213269,216.905606 L256.116117,216.772748 L256.290991,216.924058 C256.411459,216.839177 256.322079,216.650961 256.364826,216.56977 Z"></path>
                        <path d="M251.206963,223.244794 L251.162614,223.244794 C251.203267,223.252185 251.199571,223.241098 251.206963,223.244794 Z"></path>
                    </g>
                </g>
            </g>
        </g>
    </g>
</svg>